<?xml version="1.0" encoding="UTF-8" standalone="no"?>
<!-- Created with Inkscape (http://www.inkscape.org/) -->

<svg
   xmlns:dc="http://purl.org/dc/elements/1.1/"
   xmlns:cc="http://creativecommons.org/ns#"
   xmlns:rdf="http://www.w3.org/1999/02/22-rdf-syntax-ns#"
   xmlns:svg="http://www.w3.org/2000/svg"
   xmlns="http://www.w3.org/2000/svg"
   xmlns:sodipodi="http://sodipodi.sourceforge.net/DTD/sodipodi-0.dtd"
   xmlns:inkscape="http://www.inkscape.org/namespaces/inkscape"
   width="338.71051"
   height="125.95341"
   id="svg2905"
   version="1.1"
   inkscape:version="0.46+devel 22040"
   sodipodi:docname="bullet_logo_2010_9.svg">
  <defs
     id="defs3">
    <inkscape:perspective
       sodipodi:type="inkscape:persp3d"
       inkscape:vp_x="0 : 64.057068 : 1"
       inkscape:vp_y="0 : 1000 : 0"
       inkscape:vp_z="337.9371 : 64.057068 : 1"
       inkscape:persp3d-origin="168.96855 : 42.704712 : 1"
       id="perspective23" />
    <inkscape:perspective
       id="perspective2846"
       inkscape:persp3d-origin="0.5 : 0.33333333 : 1"
       inkscape:vp_z="1 : 0.5 : 1"
       inkscape:vp_y="0 : 1000 : 0"
       inkscape:vp_x="0 : 0.5 : 1"
       sodipodi:type="inkscape:persp3d" />
    <inkscape:perspective
       id="perspective2860"
       inkscape:persp3d-origin="0.5 : 0.33333333 : 1"
       inkscape:vp_z="1 : 0.5 : 1"
       inkscape:vp_y="0 : 1000 : 0"
       inkscape:vp_x="0 : 0.5 : 1"
       sodipodi:type="inkscape:persp3d" />
    <inkscape:perspective
       id="perspective2885"
       inkscape:persp3d-origin="0.5 : 0.33333333 : 1"
       inkscape:vp_z="1 : 0.5 : 1"
       inkscape:vp_y="0 : 1000 : 0"
       inkscape:vp_x="0 : 0.5 : 1"
       sodipodi:type="inkscape:persp3d" />
    <inkscape:perspective
       id="perspective2912"
       inkscape:persp3d-origin="0.5 : 0.33333333 : 1"
       inkscape:vp_z="1 : 0.5 : 1"
       inkscape:vp_y="0 : 1000 : 0"
       inkscape:vp_x="0 : 0.5 : 1"
       sodipodi:type="inkscape:persp3d" />
    <inkscape:perspective
       id="perspective2939"
       inkscape:persp3d-origin="0.5 : 0.33333333 : 1"
       inkscape:vp_z="1 : 0.5 : 1"
       inkscape:vp_y="0 : 1000 : 0"
       inkscape:vp_x="0 : 0.5 : 1"
       sodipodi:type="inkscape:persp3d" />
    <inkscape:perspective
       id="perspective2966"
       inkscape:persp3d-origin="0.5 : 0.33333333 : 1"
       inkscape:vp_z="1 : 0.5 : 1"
       inkscape:vp_y="0 : 1000 : 0"
       inkscape:vp_x="0 : 0.5 : 1"
       sodipodi:type="inkscape:persp3d" />
    <inkscape:perspective
       id="perspective2993"
       inkscape:persp3d-origin="0.5 : 0.33333333 : 1"
       inkscape:vp_z="1 : 0.5 : 1"
       inkscape:vp_y="0 : 1000 : 0"
       inkscape:vp_x="0 : 0.5 : 1"
       sodipodi:type="inkscape:persp3d" />
    <inkscape:perspective
       id="perspective3020"
       inkscape:persp3d-origin="0.5 : 0.33333333 : 1"
       inkscape:vp_z="1 : 0.5 : 1"
       inkscape:vp_y="0 : 1000 : 0"
       inkscape:vp_x="0 : 0.5 : 1"
       sodipodi:type="inkscape:persp3d" />
    <inkscape:perspective
       id="perspective3047"
       inkscape:persp3d-origin="0.5 : 0.33333333 : 1"
       inkscape:vp_z="1 : 0.5 : 1"
       inkscape:vp_y="0 : 1000 : 0"
       inkscape:vp_x="0 : 0.5 : 1"
       sodipodi:type="inkscape:persp3d" />
    <inkscape:perspective
       id="perspective3074"
       inkscape:persp3d-origin="0.5 : 0.33333333 : 1"
       inkscape:vp_z="1 : 0.5 : 1"
       inkscape:vp_y="0 : 1000 : 0"
       inkscape:vp_x="0 : 0.5 : 1"
       sodipodi:type="inkscape:persp3d" />
    <inkscape:perspective
       id="perspective3101"
       inkscape:persp3d-origin="0.5 : 0.33333333 : 1"
       inkscape:vp_z="1 : 0.5 : 1"
       inkscape:vp_y="0 : 1000 : 0"
       inkscape:vp_x="0 : 0.5 : 1"
       sodipodi:type="inkscape:persp3d" />
    <inkscape:perspective
       id="perspective3128"
       inkscape:persp3d-origin="0.5 : 0.33333333 : 1"
       inkscape:vp_z="1 : 0.5 : 1"
       inkscape:vp_y="0 : 1000 : 0"
       inkscape:vp_x="0 : 0.5 : 1"
       sodipodi:type="inkscape:persp3d" />
    <inkscape:perspective
       id="perspective3155"
       inkscape:persp3d-origin="0.5 : 0.33333333 : 1"
       inkscape:vp_z="1 : 0.5 : 1"
       inkscape:vp_y="0 : 1000 : 0"
       inkscape:vp_x="0 : 0.5 : 1"
       sodipodi:type="inkscape:persp3d" />
    <inkscape:perspective
       id="perspective3182"
       inkscape:persp3d-origin="0.5 : 0.33333333 : 1"
       inkscape:vp_z="1 : 0.5 : 1"
       inkscape:vp_y="0 : 1000 : 0"
       inkscape:vp_x="0 : 0.5 : 1"
       sodipodi:type="inkscape:persp3d" />
    <inkscape:perspective
       id="perspective3209"
       inkscape:persp3d-origin="0.5 : 0.33333333 : 1"
       inkscape:vp_z="1 : 0.5 : 1"
       inkscape:vp_y="0 : 1000 : 0"
       inkscape:vp_x="0 : 0.5 : 1"
       sodipodi:type="inkscape:persp3d" />
  </defs>
  <sodipodi:namedview
     id="base"
     pagecolor="#ffffff"
     bordercolor="#666666"
     borderopacity="1.0"
     inkscape:pageopacity="0.0"
     inkscape:pageshadow="2"
     inkscape:zoom="1.2800001"
     inkscape:cx="407.4093"
     inkscape:cy="-64.463994"
     inkscape:document-units="mm"
     inkscape:current-layer="g2877"
     showgrid="false"
     inkscape:window-width="1920"
     inkscape:window-height="1018"
     inkscape:window-x="-8"
     inkscape:window-y="-8"
     inkscape:window-maximized="1" />
  <metadata
     id="metadata2909">
    <rdf:RDF>
      <cc:Work
         rdf:about="">
        <dc:format>image/svg+xml</dc:format>
        <dc:type
           rdf:resource="http://purl.org/dc/dcmitype/StillImage" />
        <dc:title></dc:title>
      </cc:Work>
    </rdf:RDF>
  </metadata>
  <g
     inkscape:label="Layer 1"
     inkscape:groupmode="layer"
     id="layer1"
     transform="translate(-0.1981175,1.05182)">
    <g
       transform="matrix(1.25,0,0,-1.25,-116.32037,216.96323)"
       id="g2830">
      <text
         xml:space="preserve"
         style="font-size:64px;font-style:normal;font-variant:normal;font-weight:normal;font-stretch:normal;text-align:start;line-height:125%;writing-mode:lr-tb;text-anchor:start;fill:#000000;fill-opacity:1;stroke:none;font-family:Impact;-inkscape-font-specification:Impact"
         x="250.40799"
         y="154.17824"
         id="text3679"
         sodipodi:linespacing="125%"
         transform="matrix(0.8,0,0,-0.8,0,195)"><tspan
           sodipodi:role="line"
           id="tspan3681"
           x="250.40799"
           y="154.17824" /></text>
      <g
         id="g2877">
        <g
           id="g2946">
          <path
             d="m 214.97577,140.19412 0.007,-2.92724 0.19233,-0.23167 -0.19942,3.15891 z m 0,0 0.19942,-3.15891 -0.007,2.86979 -0.19235,0.28912 z m 0.0637,-26.34329 0.007,-2.92723 0.19092,0.28493 -0.19802,2.6423 z m 0,0 0.19801,-2.6423 -0.007,2.86979 -0.19093,-0.22749 z m 5.98085,26.32846 -0.006,-29.24086 0.0737,0.28448 -0.068,28.95638 z m 0,0 0.068,-28.95638 0.006,28.66773 -0.0737,0.28865 z m -31.62725,-2.8406 25.58969,-0.0718 -0.007,2.92724 -25.5826,-2.85543 z m 27.99271,-0.0718 3.63454,2.91241 -3.64163,0 0.007,-2.91241 z m 0,0 3.62887,-26.32845 0.006,29.24086 -3.63453,-2.91241 z m -27.32733,-2.82995 24.92431,2.82995 -25.58969,0.0718 0.66538,-2.90176 z m 0,0 27.32733,2.82995 -2.40302,0 -24.92431,-2.82995 z m 0,0 c 9.12801,-6.86204 18.25603,-13.72406 27.38405,-20.5861 -0.0189,7.80535 -0.0379,15.6107 -0.0567,23.41605 -9.10912,-0.94331 -18.21822,-1.88664 -27.32733,-2.82995 z m 27.38405,-20.5861 3.57215,-2.9124 -3.62887,26.32845 0.0567,-23.41605 z m -28.04943,23.48786 25.58261,2.85543 -26.43182,0 0.84921,-2.85543 z m 1.14504,-5.83919 26.90439,-17.64867 -27.38405,20.5861 0.47966,-2.93743 z m 0.2911,-2.96152 26.61329,-14.68715 -26.90439,17.64867 0.2911,-2.96152 z m 0.10208,-2.97357 26.51121,-11.71358 -26.61329,14.68715 0.10208,-2.97357 z m -0.0879,-2.97403 26.59911,-8.73955 -26.51121,11.71358 -0.0879,-2.97403 z m -0.27693,-2.9629 26.87604,-5.77665 -26.59911,8.73955 -0.27693,-2.9629 z m -0.46501,-2.9393 27.34105,-2.83735 -26.87604,5.77665 -0.46501,-2.9393 z m -0.65167,-2.90546 25.58969,0.0681 -24.93802,2.83735 -0.65167,-2.90546 z m 25.58969,0.0681 2.40303,0 -27.34105,2.83735 24.93802,-2.83735 z m -25.58969,-0.0681 25.59678,-2.85912 -0.007,2.92723 -25.58967,-0.0681 z m 27.9998,-2.84429 3.56507,0 -3.57215,2.9124 0.007,-2.9124 z m -28.83531,-0.0148 26.43229,0 -25.59678,2.85912 -0.83551,-2.85912 z"
             style="fill:#b3b3b3;fill-opacity:1;fill-rule:nonzero;stroke:none"
             id="path2851"
             transform="translate(-2e-6,0)" />
          <path
             d="m 139.96938,78.178204 3.01784,-0.08664 3.01736,0.100539 -6.0352,-0.0139 z m 0,0 6.0352,0.0139 -9.04122,0.258995 3.00602,-0.272893 z m -3.00602,0.272894 9.04122,-0.258995 3.00507,0.287257 -12.04629,-0.02826 z m 0,0 12.04629,0.02826 -15.02963,0.429959 2.98334,-0.458221 z m -2.98334,0.45822 15.02963,-0.429958 2.98097,0.47212 -18.0106,-0.04216 z m 0,0 18.0106,0.04216 -20.95849,0.599996 2.94789,-0.642157 z m -2.94789,0.642158 20.95849,-0.599996 2.94461,0.656057 -23.9031,-0.05606 z m 0,0 23.9031,0.05605 -26.80421,0.767253 2.90111,-0.823314 z m -2.90111,0.823314 26.80421,-0.767253 2.89732,0.836751 -29.70153,-0.06949 z m 0,0 29.70153,0.06949 -32.54451,0.93173 2.84298,-1.001228 z m -2.84298,1.001228 32.54451,-0.93173 2.83825,1.014664 -35.38276,-0.08293 z m 0,0 35.38276,0.08293 -38.15628,1.092038 2.77352,-1.174972 z m -2.77352,1.174972 38.15628,-1.092038 2.76786,1.187945 -40.92414,-0.09591 z m 0,0 40.92414,0.09591 -43.6178,1.248639 2.69366,-1.344547 z m -2.69366,1.344546 43.6178,-1.248639 2.68702,1.357055 -46.30482,-0.108416 z m 0,0 46.30482,0.108416 -48.90679,1.400145 2.60197,-1.508561 z m -2.60197,1.508561 48.90679,-1.400145 2.59489,1.520607 -51.50168,-0.120462 z m 0,0 51.50168,0.120462 -54.00299,1.546087 2.50131,-1.666549 z m -2.50131,1.666549 54.00299,-1.546087 2.49282,1.678134 -56.49581,-0.132047 z m 0,0 56.49581,0.132047 -58.8856,1.685548 2.38979,-1.817595 z m -2.38979,1.817595 58.8856,-1.685548 2.38127,1.829175 -61.26687,-0.143627 z m 0,0 61.26687,0.143627 -63.53615,1.818982 2.26928,-1.962609 z m -2.26928,1.962609 63.53615,-1.818982 2.25984,1.972804 -65.79599,-0.153822 z m 0,0 65.79599,0.153822 -67.93627,1.945006 2.14028,-2.098828 z m -2.14028,2.098828 67.93627,-1.945006 2.12987,2.109019 -70.06614,-0.164013 z m 0,0 70.06614,0.164013 -72.06795,2.062688 2.00181,-2.226701 z m -2.00181,2.226701 72.06795,-2.062688 1.99094,2.236432 -74.05889,-0.173744 z m 0,0 74.05889,0.173744 -75.91467,2.172957 1.85578,-2.346701 z m -1.85578,2.346701 75.91467,-2.172957 1.84491,2.35504 -77.75958,-0.182083 z m 0,0 77.75958,0.182083 -79.46272,2.274887 1.70314,-2.45697 z m -1.70314,2.45697 79.46272,-2.274887 1.69086,2.464847 -81.15358,-0.18996 z m 0,0 81.15358,0.18996 -82.69653,2.36709 1.54295,-2.55705 z m -1.54295,2.55705 82.69653,-2.36709 1.53065,2.56446 -84.22718,-0.19737 z m 0,0 84.22718,0.19737 -85.604246,2.45049 1.377066,-2.64786 z m -1.377066,2.64786 85.604246,-2.45049 1.36432,2.65435 -86.968566,-0.20386 z m 0,0 86.968566,0.20386 -88.174093,2.52414 1.205527,-2.728 z m -1.205527,2.728 88.174093,-2.52414 1.19277,2.7331 -89.366863,-0.20896 z m 0,0 89.366863,0.20896 -90.396594,2.58762 1.029731,-2.79658 z m -1.029731,2.79658 90.396594,-2.58762 1.01555,2.80168 -91.412144,-0.21406 z m 0,0 91.412144,0.21406 -26.2182,9.5e-4 -65.193944,-0.21544 z m 0,0 65.193944,0.21545 -0.93286,0.0273 -64.261084,-0.24278 z m 0,0 64.261084,0.24278 -0.92955,0.0849 -63.331534,-0.32757 z m 0,0 63.331534,0.32758 -0.92198,0.14223 -62.409554,-0.46981 z m 0,0 62.409554,0.46981 -0.91112,0.19923 -61.498434,-0.66904 z m 0,0 61.498434,0.66904 -0.89647,0.25481 -60.601964,-0.92385 z m 0,0 60.601964,0.92385 -0.87898,0.31043 -59.722984,-1.23428 z m 0,0 59.722984,1.23428 -0.85677,0.36371 -58.866214,-1.59799 z m 0,0 58.866214,1.59799 -0.83267,0.41606 -58.033544,-2.01405 z m 0,0 58.033544,2.01405 -0.80384,0.46656 -57.229704,-2.48061 z m 0,0 57.229704,2.48061 -58.07844,0.37482 0.848736,-2.85543 z m -0.848736,2.85543 58.07844,-0.37482 -0.77313,0.51568 -57.30531,-0.14086 z m 0,0 57.30531,0.14086 -0.73815,0.56246 -56.56716,-0.70332 z m 0,0 56.56716,0.70332 -0.70129,0.60694 -55.86587,-1.31026 z m 0,0 55.86587,1.31026 -0.66113,0.64957 -55.20474,-1.95983 z m 0,0 55.20474,1.95983 -0.61812,0.68848 -54.58662,-2.64831 z m 0,0 54.58662,2.64831 -55.252473,0.25344 0.665853,-2.90175 z m -0.665853,2.90175 55.252473,-0.25344 -0.57323,0.72603 -54.679243,-0.47259 z m 0,0 54.679243,0.47259 -0.52598,0.75984 -54.153263,-1.23243 z m 0,0 54.153263,1.23243 -0.47682,0.79041 -53.676443,-2.02284 z m 0,0 53.676443,2.02284 -0.42484,0.81915 -53.251603,-2.84199 z m 0,0 53.251603,2.84199 -53.730789,0.0954 0.479186,-2.93742 z m -0.479186,2.93743 53.730789,-0.0954 -0.37238,0.84323 -53.358409,-0.74779 z m 0,0 53.358409,0.74779 -0.31757,0.86502 -53.040839,-1.61281 z m 0,0 53.040839,1.61281 -0.2618,0.88262 -52.779039,-2.49543 z m 0,0 52.779039,2.49543 -53.070614,0.4661 0.291575,-2.96153 z m -0.291575,2.96153 53.070614,-0.4661 -0.20509,0.89698 -52.865524,-0.43088 z m 0,0 52.865524,0.43088 -0.14792,0.9081 -52.717604,-1.33898 z m 0,0 52.717604,1.33898 -0.0894,0.91552 -52.628283,-2.2545 z m 0,0 52.628284,2.2545 -52.73036,0.71907 0.102076,-2.97357 z m -0.102076,2.97357 52.73036,-0.71907 -0.0311,0.91923 -52.699161,-0.20016 z m 0,0 52.69916,0.20016 0.0279,0.91967 -52.72705,-1.11983 z m 0,0 52.72705,1.11983 0.0861,0.91552 -52.813061,-2.03535 z m 0,0 52.81306,2.03535 0.1446,0.90856 -52.95766,-2.94391 z m 0,0 52.95766,2.94391 -52.869762,0.0301 -0.0879,-2.97403 z m 0.08789,2.97403 52.869765,-0.0301 0.20179,0.89791 -53.071555,-0.86779 z m 0,0 53.071555,0.86779 0.25898,0.884 -53.330535,-1.75179 z m 0,0 53.330535,1.75179 0.31472,0.86548 -53.645255,-2.61727 z m 0,0 53.645255,2.61727 -53.368329,0.34563 -0.276926,-2.9629 z m 0.276926,2.9629 53.368329,-0.34563 0.36908,0.84509 -53.737409,-0.49946 z m 0,0 53.737409,0.49946 0.42201,0.82008 -54.159419,-1.31954 z m 0,0 54.159419,1.31954 0.47398,0.79227 -54.633399,-2.11181 z m 0,0 54.633399,2.11181 0.52314,0.76169 -55.156539,-2.8735 z m 0,0 55.156539,2.8735 -54.691529,0.0663 -0.46501,-2.93976 z m 0.46501,2.93976 54.691529,-0.0663 0.57087,0.72787 -55.262399,-0.66161 z m 0,0 55.262399,0.66161 0.61576,0.69081 -55.878159,-1.35242 z m 0,0 55.878159,1.35242 0.65876,0.65142 -56.536919,-2.00384 z m 0,0 56.536919,2.00384 0.69894,0.60973 -57.235859,-2.61357 z m 0,0 57.235859,2.61357 -56.584185,0.29143 -0.651674,-2.905 z m 0.651674,2.905 56.584185,-0.29143 0.73626,0.56478 -57.320445,-0.27335 z m 0,0 57.320445,0.27335 0.77122,0.51845 -58.091665,-0.7918 z m 0,0 58.091665,0.7918 0.80243,0.46934 -58.894095,-1.26114 z m 0,0 58.894095,1.26114 0.83078,0.41883 -59.724875,-1.67997 z m 0,0 59.724875,1.67997 0.85583,0.36695 -60.580705,-2.04692 z m 0,0 60.580705,2.04692 0.87756,0.3132 -61.458265,-2.36012 z m 0,0 61.458265,2.36012 0.896,0.25808 -62.354265,-2.6182 z m 0,0 62.354265,2.6182 0.91016,0.202 -63.264425,-2.8202 z m 0,0 63.264425,2.8202 -62.42892,0.0389 -0.835505,-2.85912 z m 0.835505,2.85912 62.42892,-0.0389 0.92152,0.14548 -63.35044,-0.10656 z m 0,0 63.35044,0.10656 0.92907,0.0881 -64.27951,-0.1946 z m 0,0 64.27951,0.1946 0.93285,0.0306 -65.21236,-0.22517 z m 65.21236,0.22517 26.19979,-0.0111 -90.396123,2.58762 64.196333,-2.57651 z m -65.21236,-0.22517 65.21236,0.22517 -64.196333,2.57651 -1.016027,-2.80168 z m 1.016027,2.80168 90.396123,-2.58762 -1.02926,2.79703 -89.366863,-0.20941 z m 0,0 89.366863,0.20941 -88.174569,2.5237 -1.192294,-2.73311 z m 1.192294,2.73311 88.174569,-2.5237 -1.20599,2.72756 -86.968579,-0.20386 z m 0,0 86.968579,0.20386 -85.60427,2.45048 -1.364309,-2.65434 z m 1.364309,2.65434 85.60427,-2.45048 -1.37708,2.64785 -84.22719,-0.19737 z m 0,0 84.22719,0.19737 -82.69653,2.3671 -1.53066,-2.56447 z m 1.53066,2.56447 82.69653,-2.3671 -1.54294,2.55705 -81.15359,-0.18995 z m 0,0 81.15359,0.18995 -79.46226,2.27489 -1.69133,-2.46484 z m 1.69133,2.46484 79.46226,-2.27489 -1.70267,2.45698 -77.75959,-0.18209 z m 0,0 77.75959,0.18209 -75.91515,2.17294 -1.84444,-2.35503 z m 1.84444,2.35503 75.91515,-2.17294 -1.85627,2.34669 -74.05888,-0.17375 z m 0,0 74.05888,0.17375 -72.06746,2.06269 -1.99142,-2.23644 z m 1.99142,2.23644 72.06746,-2.06269 -2.0018,2.2267 -70.06566,-0.16401 z m 0,0 70.06566,0.16401 -67.93625,1.94501 -2.12941,-2.10902 z m 2.12941,2.10902 67.93625,-1.94501 -2.1398,2.09883 -65.79645,-0.15382 z m 0,0 65.79645,0.15382 -63.53617,1.81898 -2.26028,-1.9728 z m 2.26028,1.9728 63.53617,-1.81898 -2.26976,1.96261 -61.26641,-0.14363 z m 0,0 61.26641,0.14363 -58.88558,1.68554 -2.38083,-1.82917 z m 2.38083,1.82917 58.88558,-1.68554 -2.38979,1.81759 -56.49579,-0.13205 z m 0,0 56.49579,0.13205 -54.00251,1.54608 -2.49328,-1.67813 z m 2.49328,1.67813 54.00251,-1.54608 -2.50083,1.66655 -51.50168,-0.12047 z m 0,0 51.50168,0.12047 -48.9068,1.40014 -2.59488,-1.52061 z m 2.59488,1.52061 48.9068,-1.40014 -2.60246,1.50856 -46.30434,-0.10842 z m 0,0 46.30434,0.10842 -43.61777,1.24864 -2.68657,-1.35706 z m 2.68657,1.35706 43.61777,-1.24864 -2.69317,1.34454 -40.9246,-0.0959 z m 0,0 40.9246,0.0959 -38.15629,1.09205 -2.76831,-1.18795 z m 2.76831,1.18795 38.15629,-1.09205 -2.77353,1.17498 -35.38276,-0.0829 z m 0,0 35.38276,0.0829 -32.54498,0.93173 -2.83778,-1.01466 z m 2.83778,1.01466 32.54498,-0.93173 -2.84298,1.00123 -29.702,-0.0696 z m 0,0 29.702,0.0696 -26.80466,0.76725 -2.89734,-0.83676 z m 2.89734,0.83675 26.80466,-0.76725 -2.90157,0.82331 -23.90309,-0.056 z m 0,0 23.90309,0.056 -20.95803,0.6 -2.94506,-0.65606 z m 2.94506,0.65606 20.95803,-0.6 -2.9479,0.64216 -18.01013,-0.0421 z m 0,0 18.01013,0.0421 -15.02963,0.42996 -2.9805,-0.47212 z m 2.9805,0.47212 15.02963,-0.42996 -2.98286,0.45822 -12.04677,-0.0283 z m 0,0 12.04677,0.0283 -9.0417,0.259 -3.00507,-0.28726 z m 3.00507,0.28726 9.0417,-0.259 -3.0065,0.27289 -6.0352,-0.0138 z m 0,0 6.0352,0.0138 -3.01784,0.0866 -3.01736,-0.10054 z m 21.72171,-61.75924 2.15586,0.25761 -0.91441,0.0269 -1.24145,-0.28448 z m 0,0 0.93286,-0.0273 1.223,0.28494 -2.15586,-0.25761 z m -0.92955,0.0849 2.171,0.19969 -0.91113,0.0829 -1.25987,-0.28262 z m 0,0 0.92955,-0.0849 1.24145,0.28448 -2.171,-0.19968 z m -0.92198,0.14223 2.18185,0.14039 -0.90402,0.13946 -1.27783,-0.27985 z m 0,0 0.92198,-0.14223 1.25987,0.28262 -2.18185,-0.14039 z m -0.91112,0.19924 2.18895,0.0807 -0.89316,0.19552 -1.29579,-0.27614 z m 0,0 0.91112,-0.19924 1.27783,0.27985 -2.18895,-0.0807 z m -0.89647,0.25481 2.19226,0.0213 -0.87899,0.24972 -1.31327,-0.27104 z m 0,0 0.89647,-0.25481 1.29579,0.27613 -2.19226,-0.0213 z m -0.87898,0.31043 2.19225,-0.0394 -0.86148,0.30394 -1.33077,-0.26455 z m 0,0 0.87898,-0.31043 1.31327,0.27105 -2.19225,0.0394 z m -0.85677,0.3637 2.18754,-0.0991 -0.84024,0.35676 -1.3473,-0.25761 z m 0,0 0.85677,-0.3637 1.33077,0.26455 -2.18754,0.0991 z m -0.83267,0.41607 2.17997,-0.15846 -0.81613,0.40818 -1.36384,-0.24972 z m 0,0 0.83267,-0.41607 1.3473,0.25761 -2.17997,0.15846 z m -0.80384,0.46656 2.16768,-0.21684 -0.78825,0.4573 -1.37943,-0.24046 z m 0,0 0.80384,-0.46656 1.36384,0.24972 -2.16768,0.21684 z m -0.77313,0.51566 2.15256,-0.2752 -0.758,0.50547 -1.39456,-0.23027 z m 0,0 0.77313,-0.51566 1.37943,0.24046 -2.15256,0.2752 z m -0.73815,0.56247 2.13271,-0.3322 -0.72398,0.5518 -1.40873,-0.2196 z m 0,0 0.73815,-0.56247 1.39456,0.23027 -2.13271,0.3322 z m -0.70129,0.60695 2.11002,-0.38735 -0.68711,0.59492 -1.42291,-0.20757 z m 0,0 0.70129,-0.60695 1.40873,0.2196 -2.11002,0.38735 z m -0.66113,0.64957 2.08404,-0.442 -0.64836,0.63659 -1.43568,-0.19459 z m 0,0 0.66113,-0.64957 1.42291,0.20757 -2.08404,0.442 z m -0.61812,0.68848 2.0538,-0.49389 -0.60632,0.67505 -1.44748,-0.18116 z m 0,0 0.61812,-0.68848 1.43568,0.19459 -2.0538,0.49389 z m -0.57323,0.72603 2.02071,-0.54487 -0.56189,0.71165 -1.45882,-0.16678 z m 0,0 0.57323,-0.72603 1.44748,0.18116 -2.02071,0.54487 z m -0.52598,0.75983 1.9848,-0.59305 -0.51557,0.74502 -1.46923,-0.15197 z m 0,0 0.52598,-0.75983 1.45882,0.16678 -1.9848,0.59305 z m -0.47682,0.79042 1.94605,-0.63845 -0.46737,0.77513 -1.47868,-0.13668 z m 0,0 0.47682,-0.79042 1.46923,0.15197 -1.94605,0.63845 z m -0.42484,0.81915 1.90352,-0.68247 -0.4168,0.80292 -1.48672,-0.12045 z m 0,0 0.42484,-0.81915 1.47868,0.13668 -1.90352,0.68247 z m -0.37238,0.84323 1.8591,-0.72278 -0.36484,0.82657 -1.49426,-0.10379 z m 0,0 0.37238,-0.84323 1.48672,0.12045 -1.8591,0.72278 z m -0.31757,0.86501 1.81183,-0.76122 -0.31142,0.84787 -1.50041,-0.0866 z m 0,0 0.31757,-0.86501 1.49426,0.10379 -1.81183,0.76122 z m -0.2618,0.88263 1.76221,-0.79598 -0.25661,0.86547 -1.5056,-0.0695 z m 0,0 0.2618,-0.88263 1.50041,0.0866 -1.76221,0.79598 z m -0.20509,0.89697 1.71069,-0.82748 -0.20131,0.87984 -1.50938,-0.0523 z m 0,0 0.20509,-0.89697 1.5056,0.0695 -1.71069,0.82749 z m -0.14792,0.90811 1.6573,-0.85575 -0.14461,0.89003 -1.51269,-0.0343 z m 0,0 0.14792,-0.90811 1.50938,0.0524 -1.6573,0.85575 z m -0.0894,0.91552 1.60202,-0.88124 -0.0879,0.89791 -1.51411,-0.0167 z m 0,0 0.0894,-0.91552 1.51269,0.0342 -1.60201,0.88124 z m -0.0311,0.91921 1.54531,-0.90254 -0.0301,0.90115 -1.51507,9.6e-4 z m 0,0 0.0311,-0.91921 1.51411,0.0167 -1.5453,0.90254 z m 0.0279,0.91969 1.48718,-0.92108 0.0274,0.90116 -1.51459,0.0199 z m 0,0 -0.0279,-0.91969 1.51507,-9.4e-4 -1.48718,0.92107 z m 0.0861,0.91552 1.42858,-0.93544 0.0846,0.8979 -1.51317,0.0376 z m 0,0 -0.0861,-0.91552 1.51459,-0.0199 -1.42858,0.93544 z m 0.1446,0.90856 1.36857,-0.9461 0.14129,0.89049 -1.50986,0.0556 z m 0,0 -0.1446,-0.90856 1.51317,-0.0376 -1.36857,0.9461 z m 0.20179,0.8979 1.30807,-0.95351 0.19802,0.88077 -1.50609,0.0728 z m 0,0 -0.20179,-0.8979 1.50986,-0.0556 -1.30807,0.9535 z m 0.25898,0.88401 1.24711,-0.95675 0.25376,0.86594 -1.50087,0.0908 z m 0,0 -0.25898,-0.88401 1.50609,-0.0728 -1.24711,0.95674 z m 0.31472,0.86548 1.18615,-0.95629 0.30859,0.84927 -1.49474,0.10702 z m 0,0 -0.31472,-0.86548 1.50087,-0.0908 -1.18615,0.95629 z m 0.36908,0.84509 1.12566,-0.95211 0.36199,0.82794 -1.48765,0.12417 z m 0,0 -0.36908,-0.84509 1.49474,-0.10702 -1.12566,0.95211 z m 0.42201,0.82008 1.06564,-0.94425 0.41398,0.80433 -1.47962,0.13992 z m 0,0 -0.42201,-0.82008 1.48765,-0.12417 -1.06564,0.94425 z m 0.47398,0.79226 1.00564,-0.93218 0.46406,0.7765 -1.4697,0.15568 z m 0,0 -0.47398,-0.79226 1.47962,-0.13992 -1.00564,0.93218 z m 0.52314,0.7617 0.94656,-0.91738 0.51321,0.74688 -1.45977,0.1705 z m 0,0 -0.52314,-0.7617 1.4697,-0.15568 -0.94656,0.91738 z m 0.57087,0.72786 0.8889,-0.89836 0.55953,0.71351 -1.44843,0.18485 z m 0,0 -0.57087,-0.72786 1.45977,-0.1705 -0.8889,0.89836 z m 0.61576,0.69081 0.83267,-0.87566 0.60394,0.67737 -1.43661,0.19829 z m 0,0 -0.61576,-0.69081 1.44843,-0.18485 -0.83267,0.87566 z m 0.65876,0.65143 0.77785,-0.84972 0.64553,0.63845 -1.42338,0.21127 z m 0,0 -0.65876,-0.65143 1.43661,-0.19829 -0.77785,0.84972 z m 0.69894,0.60972 0.72444,-0.82099 0.68523,0.59767 -1.40967,0.22332 z m 0,0 -0.69894,-0.60972 1.42338,-0.21127 -0.72444,0.82099 z m 0.73625,0.56478 0.67342,-0.7881 0.72208,0.55412 -1.3955,0.23398 z m 0,0 -0.73625,-0.56478 1.40967,-0.22332 -0.67342,0.7881 z m 0.77123,0.51846 0.62427,-0.75244 0.75612,0.50781 -1.38039,0.24463 z m 0,0 -0.77123,-0.51846 1.3955,-0.23398 -0.62427,0.75244 z m 0.80243,0.46934 0.57796,-0.71397 0.78635,0.46053 -1.36431,0.25344 z m 0,0 -0.80243,-0.46934 1.38039,-0.24463 -0.57796,0.71397 z m 0.83078,0.41883 0.53353,-0.67227 0.81471,0.4105 -1.34824,0.26177 z m 0,0 -0.83078,-0.41883 1.36431,-0.25344 -0.53353,0.67227 z m 0.85583,0.36695 0.49241,-0.62872 0.83929,0.35953 -1.3317,0.26919 z m 0,0 -0.85583,-0.36695 1.34824,-0.26177 -0.49241,0.62872 z m 0.87756,0.3132 0.45414,-0.58239 0.86008,0.30718 -1.31422,0.27521 z m 0,0 -0.87756,-0.3132 1.3317,-0.26919 -0.45414,0.58239 z m 0.89599,0.25807 0.41823,-0.53328 0.87803,0.25297 -1.29626,0.28031 z m 0,0 -0.89599,-0.25807 1.31422,-0.27521 -0.41823,0.53328 z m 0.91017,0.20201 0.38609,-0.48232 0.89269,0.19831 -1.27878,0.28401 z m 0,0 -0.91017,-0.20201 1.29626,-0.28031 -0.38609,0.48232 z m 0.92152,0.14548 0.35726,-0.42949 0.90356,0.1427 -1.26082,0.28679 z m 0,0 -0.92152,-0.14548 1.27878,-0.28401 -0.35726,0.42949 z m 0.92907,0.0881 0.33175,-0.37482 0.91064,0.0861 -1.24239,0.28865 z m 0,0 -0.92907,-0.0881 1.26082,-0.28679 -0.33175,0.37482 z m 0.93285,0.0306 0.30954,-0.31922 0.91442,0.0301 -1.22396,0.28911 z m 0,0 -0.93285,-0.0306 1.24239,-0.28865 -0.30954,0.31923 z m 0.052,-29.28024 26.92753,0.28355 -25.70453,9.5e-4 -1.223,-0.28494 z m 0,0 26.2182,-9.5e-4 0.70933,0.28494 -26.92753,-0.28356 z m 11.19849,-21.893117 -1.33076,-1.079065 2.3345,1.793036 -1.00374,-0.713971 z m 0,0 -2.38129,-1.829176 1.05053,0.750111 1.33076,1.079065 z m 2.25984,1.972804 -1.2561,-1.258833 2.21541,1.934349 -0.95931,-0.675516 z m 0,0 -2.25984,-1.972804 1.00374,0.713971 1.2561,1.258833 z m 2.12987,2.109019 -1.17056,-1.433503 2.08782,2.06732 -0.91726,-0.633817 z m 0,0 -2.12987,-2.109019 0.95931,0.675516 1.17056,1.433503 z m 1.99094,2.236431 -1.07368,-1.602614 1.95219,2.19288 -0.87851,-0.590266 z m 0,0 -1.99094,-2.236431 0.91726,0.633817 1.07368,1.602614 z m 1.84491,2.355041 -0.9664,-1.764775 1.80853,2.308708 -0.84213,-0.543933 z m 0,0 -1.84491,-2.355041 0.87851,0.590266 0.9664,1.764775 z m 1.69086,2.464842 -0.84873,-1.920909 1.65825,2.416669 -0.80952,-0.49576 z m 0,0 -1.69086,-2.464842 0.84213,0.543933 0.84873,1.920909 z m 1.53065,2.56447 -0.72113,-2.06871 1.50041,2.51395 -0.77928,-0.44524 z m 0,0 -1.53065,-2.56447 0.80952,0.49576 0.72113,2.06871 z m 1.36432,2.65434 -1.36432,-2.65434 0.77928,0.44524 0.58504,2.2091 z m 2.13791,34.80531 -24.97583,-0.27801 25.6861,-0.0111 -0.71027,0.28911 z m 0,0 -26.19979,0.0111 1.22396,-0.2891 24.97583,0.278 z m -3.61233,8.17244 2.13176,-3.04539 -1.35012,2.59597 -0.78164,0.44942 z m 0,0 1.37707,-2.64786 0.75469,-0.39753 -2.13176,3.04539 z m -1.54294,2.55705 2.32458,-3.00647 -1.51271,2.50701 -0.81187,0.49946 z m 0,0 1.54294,-2.55705 0.78164,-0.44942 -2.32458,3.00647 z m -1.70267,2.45697 2.51454,-2.95643 -1.66959,2.40878 -0.84495,0.54765 z m 0,0 1.70267,-2.45697 0.81187,-0.49946 -2.51454,2.95643 z m -1.85627,2.34669 2.70122,-2.89434 -1.81987,2.30037 -0.88135,0.59397 z m 0,0 1.85627,-2.34669 0.84495,-0.54765 -2.70122,2.89434 z m -2.0018,2.22671 2.88315,-2.82068 -1.96259,2.18362 -0.92056,0.63706 z m 0,0 2.0018,-2.22671 0.88135,-0.59397 -2.88315,2.82068 z m -2.1398,2.09883 3.06036,-2.73589 -2.09774,2.05758 -0.96262,0.67831 z m 0,0 2.1398,-2.09883 0.92056,-0.63706 -3.06036,2.73589 z m -2.26976,1.9626 3.23238,-2.64091 -2.22534,1.92369 -1.00704,0.71722 z m 0,0 2.26976,-1.9626 0.96262,-0.67831 -3.23238,2.64091 z m -2.38979,1.8176 3.39683,-2.53482 -2.343,1.78239 -1.05383,0.75243 z m 0,0 2.38979,-1.8176 1.00704,-0.71722 -3.39683,2.53482 z m 15.28008,-18.11435 1.20599,-2.72755 0.73059,-0.34424 -1.93658,3.07179 z m 0,0 1.93658,-3.07179 -1.1819,2.67426 -0.75468,0.39753 z m 1.20599,-2.72755 1.02926,-2.79703 0.71027,-0.28912 -1.73953,3.08615 z m 0,0 1.73953,-3.08615 -1.00894,2.74191 -0.73059,0.34424 z m 1.09967,-32.06755 -1.01555,-2.80168 0.7287,0.34008 0.28685,2.4616 z m 0,0 -0.28685,-2.4616 0.99618,2.74653 -0.70933,-0.28493 z m -1.01555,-2.80168 -1.19277,-2.73311 0.75233,0.39336 0.44044,2.33975 z m 0,0 -0.44044,-2.33975 1.16914,2.67983 -0.7287,-0.34008 z m -1.19277,-2.73311 -0.58504,-2.2091 1.33737,2.60246 -0.75233,-0.39336 z"
             style="fill:#ff9a00;fill-opacity:1;fill-rule:nonzero;stroke:none"
             id="path3456"
             transform="translate(-2e-6,0)" />
          <path
             d="m 223.42107,129.06802 -9.6e-4,-7.01786 55.2676,3.5087 -55.26618,3.50916 z m 132.16238,11.11127 -132.16,0 -9.7e-4,-5.84799 132.16142,5.84799 z m -132.16474,-23.39287 -9.7e-4,-5.84799 132.16049,0 -132.15906,5.84799 z m 0,0 129.59442,-5.56351 -129.56795,5.73354 -0.0264,-0.17003 z m 0,0 132.15907,-5.84799 -2.56465,0.28448 -129.59442,5.56351 z m 0.003,17.54488 129.59678,5.55934 2.56464,0.28865 -132.16142,-5.84799 z m 0,0 0.0269,-0.1742 129.56985,5.73354 -129.59678,-5.55934 z"
             style="fill:#ff9a00;fill-opacity:1;fill-rule:nonzero;stroke:none"
             id="path3462"
             transform="translate(-2e-6,0)" />
          <text
             transform="matrix(1.6440817,0,0,-0.60824226,-2e-6,0)"
             sodipodi:linespacing="130%"
             id="text3675"
             y="-146.83607"
             x="114.64494"
             style="font-size:37.04994202000000300px;font-style:normal;font-variant:normal;font-weight:normal;font-stretch:normal;text-align:start;line-height:129.99999523000000000%;writing-mode:lr-tb;text-anchor:start;fill:#b3b3b3;fill-opacity:1;stroke:none;font-family:Impact;-inkscape-font-specification:Impact"
             xml:space="preserve"><tspan
               y="-146.83607"
               x="114.64494"
               id="tspan3677"
               sodipodi:role="line">BULLET</tspan></text>
          <rect
             transform="matrix(-0.86353904,0.50428204,0.49592042,0.868368,-2e-6,0)"
             y="200.72401"
             x="-61.164524"
             height="19.461344"
             width="19.973602"
             id="rect3687"
             style="fill:#000000;fill-opacity:1;stroke:none" />
          <rect
             transform="matrix(-0.9830212,0.18349184,0.1637798,0.98649696,-2e-6,0)"
             y="148.80043"
             x="-115.70332"
             height="19.378403"
             width="20.062178"
             id="rect3687-1"
             style="fill:#000000;fill-opacity:1;stroke:none" />
          <rect
             transform="matrix(-0.98757072,-0.1571754,-0.19020319,0.98174472,-2e-6,0)"
             y="81.363007"
             x="-159.8067"
             height="19.38192"
             width="20.065802"
             id="rect3687-1-7"
             style="fill:#000000;fill-opacity:1;stroke:none" />
          <rect
             transform="matrix(-0.01387577,-0.99990376,-0.99991656,-0.01291891,-2e-6,0)"
             y="-153.07877"
             x="-99.449539"
             height="19.755077"
             width="19.68277"
             id="rect3687-1-7-4"
             style="fill:#000000;fill-opacity:1;stroke:none" />
          <g
             id="g2907">
            <text
               transform="scale(0.96752578,-1.0335642)"
               sodipodi:linespacing="125%"
               id="text3683-1"
               y="-75.202744"
               x="196.14903"
               style="font-size:13.81153965px;font-style:normal;font-variant:normal;font-weight:bold;font-stretch:normal;text-align:start;line-height:125%;writing-mode:lr-tb;text-anchor:start;fill:#000000;fill-opacity:1;stroke:none;font-family:Raavi;-inkscape-font-specification:Raavi Bold"
               xml:space="preserve"><tspan
                 y="-75.202744"
                 x="196.14903"
                 id="tspan3685-7"
                 sodipodi:role="line">P</tspan></text>
            <text
               transform="scale(1.019135,-0.98122427)"
               sodipodi:linespacing="125%"
               id="text3683-1-4"
               y="-79.214165"
               x="197.78958"
               style="font-size:14.54826736px;font-style:normal;font-variant:normal;font-weight:bold;font-stretch:normal;text-align:start;line-height:125%;writing-mode:lr-tb;text-anchor:start;fill:#000000;fill-opacity:1;stroke:none;font-family:Raavi;-inkscape-font-specification:Raavi Bold"
               xml:space="preserve"><tspan
                 y="-79.214165"
                 x="197.78958"
                 id="tspan2902"
                 sodipodi:role="line">H</tspan></text>
            <text
               transform="scale(1.019135,-0.98122427)"
               sodipodi:linespacing="125%"
               id="text3683-1-4-9"
               y="-79.214165"
               x="210.22229"
               style="font-size:14.54826641px;font-style:normal;font-variant:normal;font-weight:bold;font-stretch:normal;text-align:start;line-height:125%;writing-mode:lr-tb;text-anchor:start;fill:#000000;fill-opacity:1;stroke:none;font-family:Raavi;-inkscape-font-specification:Raavi Bold"
               xml:space="preserve"><tspan
                 y="-79.214165"
                 x="210.22229"
                 id="tspan2929"
                 sodipodi:role="line">Y</tspan></text>
            <text
               transform="scale(1.019135,-0.98122427)"
               sodipodi:linespacing="125%"
               id="text3683-1-4-9-8"
               y="-79.363342"
               x="221.77576"
               style="font-size:14.54826641px;font-style:normal;font-variant:normal;font-weight:bold;font-stretch:normal;text-align:start;line-height:125%;writing-mode:lr-tb;text-anchor:start;fill:#000000;fill-opacity:1;stroke:none;font-family:Raavi;-inkscape-font-specification:Raavi Bold"
               xml:space="preserve"><tspan
                 y="-79.363342"
                 x="221.77576"
                 id="tspan2956"
                 sodipodi:role="line">S</tspan></text>
            <text
               inkscape:transform-center-y="15.011467"
               inkscape:transform-center-x="1.3232029"
               transform="scale(1.019135,-0.98122427)"
               sodipodi:linespacing="125%"
               id="text3683-1-4-9-8-2"
               y="-79.214165"
               x="233.4696"
               style="font-size:14.54826641px;font-style:normal;font-variant:normal;font-weight:bold;font-stretch:normal;text-align:start;line-height:125%;writing-mode:lr-tb;text-anchor:start;fill:#000000;fill-opacity:1;stroke:none;font-family:Raavi;-inkscape-font-specification:Raavi Bold"
               xml:space="preserve"><tspan
                 y="-79.214165"
                 x="233.4696"
                 id="tspan2983"
                 sodipodi:role="line">I</tspan></text>
            <text
               inkscape:transform-center-y="-12.009171"
               inkscape:transform-center-x="1.0585626"
               transform="scale(1.019135,-0.98122427)"
               sodipodi:linespacing="125%"
               id="text3683-1-4-9-8-2-5"
               y="-79.363342"
               x="240.26407"
               style="font-size:14.54826641px;font-style:normal;font-variant:normal;font-weight:bold;font-stretch:normal;text-align:start;line-height:125%;writing-mode:lr-tb;text-anchor:start;fill:#000000;fill-opacity:1;stroke:none;font-family:Raavi;-inkscape-font-specification:Raavi Bold"
               xml:space="preserve"><tspan
                 y="-79.363342"
                 x="240.26407"
                 id="tspan3010"
                 sodipodi:role="line">C</tspan></text>
            <text
               inkscape:transform-center-y="9.607338"
               inkscape:transform-center-x="0.84685075"
               transform="scale(1.019135,-0.98122427)"
               sodipodi:linespacing="125%"
               id="text3683-1-4-9-8-2-5-1"
               y="-79.363342"
               x="251.51909"
               style="font-size:14.54826641px;font-style:normal;font-variant:normal;font-weight:bold;font-stretch:normal;text-align:start;line-height:125%;writing-mode:lr-tb;text-anchor:start;fill:#000000;fill-opacity:1;stroke:none;font-family:Raavi;-inkscape-font-specification:Raavi Bold"
               xml:space="preserve"><tspan
                 y="-79.363342"
                 x="251.51909"
                 id="tspan3037"
                 sodipodi:role="line">S</tspan></text>
            <text
               inkscape:transform-center-y="-7.6858804"
               inkscape:transform-center-x="0.67750462"
               transform="scale(1.019135,-0.98122427)"
               sodipodi:linespacing="125%"
               id="text3683-1-4-9-8-2-5-1-1"
               y="-79.214165"
               x="278.55841"
               style="font-size:14.54826641px;font-style:normal;font-variant:normal;font-weight:bold;font-stretch:normal;text-align:start;line-height:125%;writing-mode:lr-tb;text-anchor:start;fill:#000000;fill-opacity:1;stroke:none;font-family:Raavi;-inkscape-font-specification:Raavi Bold"
               xml:space="preserve"><tspan
                 y="-79.214165"
                 x="278.55841"
                 id="tspan3064"
                 sodipodi:role="line">L</tspan></text>
            <text
               inkscape:transform-center-y="6.1486958"
               inkscape:transform-center-x="0.54199425"
               transform="scale(1.019135,-0.98122427)"
               sodipodi:linespacing="125%"
               id="text3683-1-4-9-8-2-5-1-1-5"
               y="-79.214165"
               x="288.55859"
               style="font-size:14.54826641px;font-style:normal;font-variant:normal;font-weight:bold;font-stretch:normal;text-align:start;line-height:125%;writing-mode:lr-tb;text-anchor:start;fill:#000000;fill-opacity:1;stroke:none;font-family:Raavi;-inkscape-font-specification:Raavi Bold"
               xml:space="preserve"><tspan
                 y="-79.214165"
                 x="288.55859"
                 id="tspan3091"
                 sodipodi:role="line">I</tspan></text>
            <text
               inkscape:transform-center-y="-4.9189651"
               inkscape:transform-center-x="0.43359525"
               transform="scale(1.019135,-0.98122427)"
               sodipodi:linespacing="125%"
               id="text3683-1-4-9-8-2-5-1-1-5-7"
               y="-79.214165"
               x="295.46277"
               style="font-size:14.54826641px;font-style:normal;font-variant:normal;font-weight:bold;font-stretch:normal;text-align:start;line-height:125%;writing-mode:lr-tb;text-anchor:start;fill:#000000;fill-opacity:1;stroke:none;font-family:Raavi;-inkscape-font-specification:Raavi Bold"
               xml:space="preserve"><tspan
                 y="-79.214165"
                 x="295.46277"
                 id="tspan3118"
                 sodipodi:role="line">B</tspan></text>
            <text
               inkscape:transform-center-y="3.9351636"
               inkscape:transform-center-x="0.34688666"
               transform="scale(1.019135,-0.98122427)"
               sodipodi:linespacing="125%"
               id="text3683-1-4-9-8-2-5-1-1-5-7-1"
               y="-79.214165"
               x="306.38971"
               style="font-size:14.54826641px;font-style:normal;font-variant:normal;font-weight:bold;font-stretch:normal;text-align:start;line-height:125%;writing-mode:lr-tb;text-anchor:start;fill:#000000;fill-opacity:1;stroke:none;font-family:Raavi;-inkscape-font-specification:Raavi Bold"
               xml:space="preserve"><tspan
                 y="-79.214165"
                 x="306.38971"
                 id="tspan3145"
                 sodipodi:role="line">R</tspan></text>
            <text
               inkscape:transform-center-y="-3.1481394"
               inkscape:transform-center-x="0.27749155"
               transform="scale(1.019135,-0.98122427)"
               sodipodi:linespacing="125%"
               id="text3683-1-4-9-8-2-5-1-1-5-7-1-2"
               y="-79.214165"
               x="318.11676"
               style="font-size:14.54826641px;font-style:normal;font-variant:normal;font-weight:bold;font-stretch:normal;text-align:start;line-height:125%;writing-mode:lr-tb;text-anchor:start;fill:#000000;fill-opacity:1;stroke:none;font-family:Raavi;-inkscape-font-specification:Raavi Bold"
               xml:space="preserve"><tspan
                 y="-79.214165"
                 x="318.11676"
                 id="tspan3172"
                 sodipodi:role="line">A</tspan></text>
            <text
               inkscape:transform-center-y="2.5185065"
               inkscape:transform-center-x="0.22203674"
               transform="scale(1.019135,-0.98122427)"
               sodipodi:linespacing="125%"
               id="text3683-1-4-9-8-2-5-1-1-5-7-1-2-2"
               y="-79.214165"
               x="329.53827"
               style="font-size:14.54826641px;font-style:normal;font-variant:normal;font-weight:bold;font-stretch:normal;text-align:start;line-height:125%;writing-mode:lr-tb;text-anchor:start;fill:#000000;fill-opacity:1;stroke:none;font-family:Raavi;-inkscape-font-specification:Raavi Bold"
               xml:space="preserve"><tspan
                 y="-79.214165"
                 x="329.53827"
                 id="tspan3199"
                 sodipodi:role="line">R</tspan></text>
            <text
               inkscape:transform-center-y="-2.0148137"
               inkscape:transform-center-x="0.17762461"
               transform="scale(1.019135,-0.98122427)"
               sodipodi:linespacing="125%"
               id="text3683-1-4-9-8-2-5-1-1-5-7-1-2-2-1"
               y="-79.214165"
               x="340.96777"
               style="font-size:14.54826641px;font-style:normal;font-variant:normal;font-weight:bold;font-stretch:normal;text-align:start;line-height:125%;writing-mode:lr-tb;text-anchor:start;fill:#000000;fill-opacity:1;stroke:none;font-family:Raavi;-inkscape-font-specification:Raavi Bold"
               xml:space="preserve"><tspan
                 y="-79.214165"
                 x="340.96777"
                 id="tspan3226"
                 sodipodi:role="line">Y</tspan></text>
          </g>
        </g>
      </g>
    </g>
  </g>
</svg>
