# Blender v2.79 (sub 7) OBJ File: ''
# www.blender.org
mtllib hip_motor.mtl
o Hip_Motor
v 0.018642 0.011370 -0.039779
v 0.025681 0.028894 -0.029469
v 0.024123 -0.022564 -0.034618
v 0.017913 -0.012850 -0.039451
v 0.024854 0.001630 -0.040910
v -0.007063 -0.011697 -0.039764
v -0.055254 -0.000712 -0.040910
v -0.006332 0.012490 -0.039430
v -0.054587 0.021367 -0.035618
v -0.006333 0.012457 0.040916
v 0.018643 0.011323 0.041278
v -0.055109 0.004065 0.042069
v -0.007062 -0.011647 0.041259
v -0.055909 -0.022407 0.035182
v 0.017914 -0.012816 0.040944
v 0.024174 -0.020866 0.036688
v 0.024802 -0.000044 0.042424
v 0.023648 -0.038275 0.019652
v -0.056388 -0.038287 0.011952
v 0.023582 -0.040483 -0.013015
v -0.056393 -0.038447 -0.009152
v -0.056024 -0.026221 -0.030601
v -0.054037 0.039580 -0.017457
v 0.026032 0.040660 -0.002137
v -0.053964 0.041984 0.010570
v 0.025908 0.036541 0.018482
v -0.054389 0.027925 0.033352
v 0.025503 0.023126 0.034678
v -0.005360 -0.001134 -0.040295
v 0.008670 -0.010989 -0.040295
v 0.016185 0.000704 -0.040295
v 0.006783 0.010973 -0.040295
v 0.001934 0.009518 0.041705
v 0.014977 -0.005118 0.041705
v -0.005110 -0.001444 0.041705
v 0.013838 0.006986 0.041705
v 0.005177 -0.010748 0.041705
v -0.003782 -0.003544 0.047521
v 0.000372 0.008951 0.047458
v 0.014554 0.005497 0.047408
v 0.013637 -0.006487 0.047464
v 0.005832 -0.010693 0.047425
v -0.002492 -0.005296 -0.050178
v -0.003558 0.004588 -0.049795
v 0.005304 -0.010434 -0.049903
v 0.014750 -0.004890 -0.049888
v 0.013573 0.006558 -0.050051
v 0.004006 0.009656 -0.050003
vt 0.588500 0.790626
vt 0.587798 0.789372
vt 0.585200 0.789564
vt 0.588325 0.785861
vt 0.587700 0.784544
vt 0.588400 0.788302
vt 0.580100 0.785873
vt 0.580184 0.788082
vt 0.584617 0.784120
vt 0.580247 0.790309
vt 0.588400 0.788119
vt 0.588499 0.790486
vt 0.587080 0.792411
vt 0.580266 0.790616
vt 0.580200 0.788544
vt 0.587217 0.792350
vt 0.585101 0.786917
vt 0.580100 0.786131
vt 0.588300 0.786014
vt 0.587700 0.786717
vt 0.588300 0.785200
vt 0.588300 0.790068
vt 0.582966 0.791569
vt 0.580100 0.789331
vt 0.588300 0.786856
vt 0.580100 0.787210
vt 0.580300 0.791300
vt 0.588270 0.785292
vt 0.580300 0.786436
vt 0.588500 0.787910
vt 0.580300 0.789184
vt 0.588500 0.790010
vt 0.588009 0.784517
vt 0.590036 0.789184
vt 0.589701 0.786436
vt 0.588620 0.791433
vt 0.586267 0.792362
vt 0.585782 0.784063
vt 0.583601 0.784658
vt 0.586022 0.784061
vt 0.581895 0.786856
vt 0.582106 0.790068
vt 0.583714 0.791871
vt 0.585853 0.792331
vt 0.585542 0.788037
vt 0.586668 0.787234
vt 0.587412 0.788193
vt 0.586522 0.789015
vt 0.585200 0.789400
vt 0.585518 0.788018
vt 0.586087 0.789010
vt 0.587301 0.787641
vt 0.587700 0.786800
vt 0.586390 0.787142
vt 0.587153 0.788757
vt 0.587207 0.788629
vt 0.586044 0.788865
vt 0.585533 0.787805
vt 0.587145 0.787542
vt 0.586074 0.787249
vt 0.585730 0.792400
vt 0.585552 0.792900
vt 0.586227 0.792900
vt 0.586087 0.792400
vt 0.586567 0.792400
vt 0.586388 0.792900
vt 0.586110 0.792400
vt 0.585383 0.792900
vt 0.586603 0.792945
vt 0.586390 0.792400
vt 0.585642 0.787605
vt 0.587267 0.787673
vt 0.586433 0.787185
vt 0.587130 0.788729
vt 0.586158 0.789030
vt 0.585621 0.788550
vt 0.586048 0.783100
vt 0.585745 0.784000
vt 0.586408 0.784000
vt 0.586373 0.783067
vt 0.586543 0.783078
vt 0.585924 0.784000
vt 0.585974 0.783058
vt 0.586416 0.783100
vt 0.585282 0.783100
vn 0.0372 0.7622 -0.6463
vn 0.0408 0.3099 -0.9499
vn -0.0088 0.2826 -0.9592
vn 0.0580 -0.5883 -0.8065
vn 0.1204 -0.2692 -0.9555
vn -0.0024 0.0330 -0.9995
vn 0.2723 0.2806 -0.9204
vn 0.3880 0.3466 -0.8540
vn -0.0628 -0.3723 -0.9260
vn -0.6588 -0.0333 -0.7515
vn 0.0013 -0.0983 -0.9952
vn -0.6519 0.3864 -0.6525
vn 0.6313 -0.0167 0.7754
vn 0.6832 0.4353 0.5863
vn 0.1293 0.2759 0.9524
vn -0.0082 0.6375 0.7704
vn -0.0412 0.0520 0.9978
vn -0.0139 0.2734 0.9618
vn -0.0218 -0.2515 0.9676
vn -0.0532 -0.5807 0.8124
vn 0.0606 -0.5514 0.8321
vn 0.0962 -0.2837 0.9541
vn -0.0095 -0.9076 0.4197
vn -0.0450 -0.8818 0.4695
vn -0.0063 -0.9977 0.0675
vn -0.0089 -0.8401 -0.5424
vn -0.0251 -0.9997 0.0076
vn -0.0365 -0.9689 -0.2449
vn -0.0345 -0.8099 -0.5855
vn -0.0387 -0.3329 -0.9422
vn -0.6245 0.7119 -0.3211
vn 0.0516 0.9937 -0.0990
vn 0.0086 0.9722 0.2339
vn 0.6803 0.6573 0.3243
vn -0.9995 0.0302 0.0000
vn 0.9995 -0.0302 -0.0000
vn 0.9995 -0.0300 0.0001
vn 0.9995 -0.0303 0.0000
vn -0.2842 0.0156 -0.9586
vn 0.0104 -0.3009 -0.9536
vn 0.2078 -0.0135 -0.9781
vn 0.0063 0.4049 -0.9143
vn -0.2340 0.0138 0.9721
vn -0.0244 0.1781 0.9837
vn 0.1423 -0.0380 0.9891
vn -0.0030 -0.2720 0.9623
vn 0.0494 0.0435 0.9978
vn 0.5688 0.4996 0.6534
vn -0.4070 0.6986 0.5885
vn -0.7108 -0.3113 0.6308
vn 0.6103 -0.4865 0.6252
vn -0.0182 -0.7991 0.6009
vn -0.9920 -0.0925 0.0862
vn -0.2894 0.9571 0.0157
vn 0.2054 0.9669 0.1512
vn 0.7539 0.6526 0.0758
vn 0.9907 0.0929 -0.0998
vn 0.8416 -0.5344 0.0778
vn 0.9751 -0.0737 0.2093
vn -0.1122 -0.9936 -0.0136
vn -0.6168 -0.4906 -0.6155
vn 0.7047 -0.3648 -0.6086
vn -0.1148 -0.7984 -0.5911
vn 0.6149 0.4979 -0.6116
vn -0.1715 0.7469 -0.6425
vn -0.7177 0.4255 -0.5512
vn -0.9857 -0.1196 0.1184
vn 0.0465 0.9947 0.0912
vn 0.9941 0.0813 0.0722
vn 0.1996 -0.9781 0.0595
usemtl None
s 1
f 2/1/1 1/2/2 8/3/3
f 3/4/4 4/5/5 5/6/6
f 5/6/6 4/5/5 1/2/7
f 5/6/6 1/2/7 2/1/8
f 22/7/9 7/8/10 6/9/11
f 6/9/11 7/8/10 8/3/3
f 8/3/3 7/8/10 9/10/12
f 17/11/13 28/12/14 11/13/15
f 27/14/16 12/15/17 10/16/18
f 10/16/18 12/15/17 13/17/19
f 13/17/19 12/15/17 14/18/20
f 16/19/21 15/20/22 13/17/19
f 17/11/13 15/20/22 16/19/21
f 17/11/13 11/13/15 15/20/22
f 13/17/19 14/18/20 16/19/21
f 16/19/21 14/18/20 18/21/23
f 18/22/23 14/23/20 19/24/24
f 18/22/23 19/24/24 20/25/25
f 20/25/26 19/24/27 21/26/28
f 20/25/26 21/26/28 22/7/29
f 20/25/26 22/7/29 3/4/4
f 3/4/4 22/7/29 6/9/30
f 3/4/4 6/9/30 4/5/5
f 8/3/3 9/10/12 2/1/1
f 2/1/1 9/10/12 23/27/31
f 2/28/1 23/29/31 24/30/32
f 24/30/32 23/29/31 25/31/33
f 24/30/32 25/31/33 26/32/34
f 26/32/34 25/31/33 27/14/16
f 26/32/34 27/14/16 28/12/14
f 28/12/14 27/14/16 10/16/18
f 28/12/14 10/16/18 11/13/15
f 9/33/12 25/34/35 23/35/31
f 9/33/12 27/36/35 25/34/35
f 9/33/12 12/37/35 27/36/35
f 14/23/35 12/37/35 9/33/12
f 9/33/12 19/24/35 14/23/35
f 21/26/35 19/24/35 9/33/12
f 9/33/12 22/7/35 21/26/35
f 9/33/12 7/38/10 22/7/35
f 3/39/36 5/40/36 28/12/14
f 28/12/14 20/41/36 3/39/36
f 18/42/36 20/41/36 28/12/14
f 28/12/14 16/43/36 18/42/36
f 28/12/14 17/44/13 16/43/36
f 28/12/14 24/30/37 26/32/34
f 2/28/38 24/30/37 28/12/14
f 28/12/14 5/40/36 2/28/38
f 6/9/30 29/45/39 30/46/40
f 6/9/30 30/46/40 4/5/5
f 31/47/41 1/2/2 4/5/5
f 31/47/41 4/5/5 30/46/40
f 1/2/2 31/47/41 32/48/42
f 1/2/2 32/48/42 8/49/3
f 8/49/3 32/48/42 29/45/39
f 8/49/3 29/45/39 6/9/30
f 35/50/43 33/51/44 10/16/18
f 11/13/15 34/52/45 15/53/22
f 13/17/19 37/54/46 35/50/43
f 13/17/19 35/50/43 10/16/18
f 15/53/22 34/52/45 37/54/46
f 10/16/18 33/51/44 11/13/15
f 11/13/15 33/51/44 36/55/47
f 11/13/15 36/55/47 34/52/45
f 15/53/22 37/54/46 13/17/19
f 40/56/48 39/57/49 38/58/50
f 41/59/51 40/56/48 38/58/50
f 38/58/50 42/60/52 41/59/51
f 35/61/53 38/62/50 39/63/49
f 35/61/53 39/63/49 33/64/54
f 33/64/54 39/63/49 36/65/55
f 36/65/56 39/63/49 40/66/48
f 36/65/56 40/66/48 34/67/57
f 34/67/58 40/66/59 41/68/51
f 34/67/58 41/68/51 42/69/52
f 34/67/58 42/69/52 37/70/60
f 37/70/60 42/69/52 38/62/50
f 37/70/60 38/62/50 35/61/53
f 43/71/61 46/72/62 45/73/63
f 43/71/61 47/74/64 46/72/62
f 43/71/61 48/75/65 47/74/64
f 43/71/61 44/76/66 48/75/65
f 44/77/66 29/78/67 32/79/68
f 44/77/66 32/79/68 48/80/65
f 48/80/65 32/79/68 47/81/64
f 47/81/64 32/79/68 31/82/69
f 47/81/64 31/82/69 46/83/62
f 46/83/62 31/82/69 30/46/70
f 46/83/62 30/46/70 45/84/63
f 45/84/63 30/46/70 29/78/67
f 45/84/63 29/78/67 43/85/61
f 43/85/61 29/78/67 44/77/66
