# Blender v2.79 (sub 7) OBJ File: ''
# www.blender.org
mtllib upper_leg_mirror.mtl
o Upper_Leg_Mirror_Upper_Leg_Mirror.001
v -0.031162 -0.045909 -0.057156
v -0.037192 -0.020447 -0.041735
v 0.001659 -0.019725 -0.041806
v -0.035441 -0.040975 -0.023903
v 0.002384 -0.043700 -0.013337
v -0.037697 -0.046884 0.008077
v 0.002450 -0.045899 0.008059
v -0.024011 -0.098317 -0.045184
v -0.024397 -0.073707 -0.075752
v -0.023230 -0.097243 -0.047136
v -0.025081 -0.069536 -0.076188
v 0.004005 -0.097393 -0.045062
v 0.003209 -0.071015 -0.077166
v -0.023224 -0.097725 -0.046376
v -0.024579 -0.071875 -0.077093
v -0.035652 -0.031869 -0.047502
v -0.036031 -0.056933 -0.001119
v -0.025880 -0.071940 -0.077253
v 0.001674 -0.157690 -0.107220
v 0.029728 -0.164062 -0.110900
v 0.006347 -0.161137 -0.108253
v 0.005877 -0.157248 -0.107420
v 0.001630 -0.212205 -0.136987
v 0.008334 -0.212592 -0.136371
v 0.006482 -0.217231 -0.144064
v 0.008838 -0.213776 -0.152261
v 0.001044 -0.213536 -0.151782
v 0.000856 -0.184234 -0.164789
v 0.006601 -0.183324 -0.165639
v 0.029610 -0.160095 -0.149892
v 0.033913 -0.151952 -0.142108
v 0.005964 -0.153590 -0.143799
v 0.002594 -0.032497 -0.048179
v 0.027447 -0.031124 -0.047842
v -0.001772 0.006116 0.043352
v -0.038735 -0.007250 0.046510
v -0.039913 0.031749 0.029833
v -0.002775 0.039311 0.018199
v -0.040294 0.044353 0.005086
v -0.002781 0.039512 -0.014706
v -0.040071 0.036969 -0.026507
v -0.002282 0.022971 -0.036504
v -0.039282 0.010817 -0.045082
v -0.001361 -0.007488 -0.044413
v -0.038209 -0.024689 -0.040577
v -0.000499 -0.036067 -0.028465
v -0.037533 -0.047046 -0.003128
v -0.000269 -0.043995 0.007265
v -0.037964 -0.032810 0.034639
v -0.000667 -0.030406 0.032147
v 0.031003 -0.037216 0.016780
v 0.028304 -0.040684 -0.011124
v 0.026794 -0.005546 -0.041018
v 0.027756 -0.022526 -0.035130
v 0.032216 -0.156615 -0.106901
v 0.002196 -0.038795 0.017550
v 0.000693 -0.040402 -0.013377
v 0.000706 -0.024478 -0.034343
v 0.031516 -0.026661 0.030314
v 0.031850 -0.038470 -0.011834
v 0.031487 -0.025998 -0.030628
v 0.030752 -0.001981 -0.040975
v 0.000845 -0.007905 -0.040844
v 0.030321 0.021149 -0.034505
v 0.029623 0.035172 -0.020495
v 0.029671 0.033676 0.022924
v 0.030521 0.005709 0.040579
v 0.029531 0.039728 0.005790
v 0.037227 -0.214442 -0.140525
v 0.030650 -0.210297 -0.135338
v 0.030562 -0.215429 -0.144492
v 0.037227 -0.211549 -0.153087
v 0.030622 -0.212045 -0.153851
v 0.036105 -0.182657 -0.164703
v 0.030312 -0.183339 -0.165729
v -0.000050 -0.153882 -0.142899
v -0.001149 -0.158950 -0.110673
v 0.036551 -0.157779 -0.110720
v -0.047384 -0.031062 -0.048457
v -0.038023 -0.030823 -0.049630
v -0.046488 -0.062041 -0.003498
v -0.037054 -0.062902 -0.003943
v -0.047434 -0.027513 0.040009
v -0.048993 0.002459 0.046312
v -0.039786 0.027518 0.039215
v -0.049154 0.027619 0.036997
v -0.050172 0.043527 0.009530
v -0.049034 0.040669 -0.022517
v -0.048731 0.012184 -0.045113
v 0.007661 -0.197712 -0.135054
v 0.008333 -0.205171 -0.156526
v 0.007972 -0.193237 -0.150105
v 0.029891 -0.193314 -0.149937
v 0.030355 -0.203220 -0.157089
v 0.029221 -0.194992 -0.136936
vt 0.588700 0.925800
vt 0.589001 0.925893
vt 0.589273 0.926010
vt 0.588500 0.926595
vt 0.589800 0.926864
vt 0.588136 0.927505
vt 0.588165 0.927503
vt 0.589900 0.925781
vt 0.586500 0.925823
vt 0.588900 0.924800
vt 0.587348 0.924721
vt 0.588900 0.925700
vt 0.588900 0.925000
vt 0.586500 0.925781
vt 0.587300 0.924800
vt 0.586500 0.925700
vt 0.586500 0.925725
vt 0.587335 0.924713
vt 0.587400 0.924700
vt 0.588200 0.925400
vt 0.588835 0.924875
vt 0.588900 0.925791
vt 0.588548 0.925825
vt 0.588534 0.925639
vt 0.590798 0.922005
vt 0.589920 0.921914
vt 0.590700 0.921789
vt 0.589900 0.922894
vt 0.589800 0.922441
vt 0.589800 0.921531
vt 0.590004 0.921471
vt 0.589944 0.922467
vt 0.589800 0.921495
vt 0.590016 0.921790
vt 0.589800 0.921146
vt 0.589921 0.921162
vt 0.590700 0.921900
vt 0.590900 0.921154
vt 0.590700 0.921138
vt 0.590824 0.922504
vt 0.589900 0.922408
vt 0.589800 0.922424
vt 0.589111 0.925929
vt 0.589323 0.925934
vt 0.589700 0.926968
vt 0.589681 0.927494
vt 0.588464 0.927690
vt 0.588400 0.927058
vt 0.588400 0.928049
vt 0.589600 0.927815
vt 0.588400 0.927444
vt 0.589600 0.926793
vt 0.588999 0.926429
vt 0.589643 0.927452
vt 0.588400 0.927670
vt 0.589700 0.927040
vt 0.588439 0.926644
vt 0.589700 0.926497
vt 0.588500 0.927206
vt 0.589700 0.927524
vt 0.590134 0.927833
vt 0.584445 0.923689
vt 0.588466 0.926929
vt 0.588996 0.926173
vt 0.590118 0.926611
vt 0.584583 0.922509
vt 0.589366 0.926412
vt 0.589634 0.926515
vt 0.589127 0.926846
vt 0.584499 0.923664
vt 0.588761 0.927876
vt 0.584600 0.922519
vt 0.590800 0.926908
vt 0.590800 0.926485
vt 0.590739 0.927237
vt 0.590692 0.927885
vt 0.590686 0.926869
vt 0.590700 0.927463
vt 0.590700 0.927993
vt 0.590716 0.927443
vt 0.590800 0.927151
vt 0.590900 0.922080
vt 0.590800 0.921723
vt 0.590763 0.922538
vt 0.590900 0.921496
vt 0.590769 0.921866
vt 0.589900 0.922794
vt 0.584401 0.923601
vt 0.584553 0.922541
vt 0.583535 0.921867
vt 0.582628 0.922267
vt 0.582658 0.922697
vt 0.584445 0.923601
vt 0.582619 0.922573
vt 0.583614 0.921871
vt 0.582694 0.922212
vt 0.588371 0.926067
vt 0.589138 0.926785
vt 0.588463 0.926213
vt 0.588015 0.927179
vt 0.588500 0.927165
vt 0.588478 0.927783
vt 0.588703 0.927654
vt 0.588400 0.928010
vt 0.588293 0.928101
vt 0.589992 0.927574
vt 0.589195 0.926588
vt 0.588100 0.928306
vt 0.686491 0.871010
vt 0.666404 0.831859
vt 0.697431 0.855925
vt 0.665800 0.869500
vt 0.658961 0.844347
vt 0.676715 0.827518
vt 0.698296 0.843489
vt 0.686722 0.830218
vt 0.590700 0.922300
vt 0.582606 0.922207
vt 0.583562 0.921831
vt 0.582873 0.922100
vt 0.584189 0.923595
vt 0.582619 0.922640
vt 0.583111 0.922684
vt 0.582500 0.922472
vt 0.584400 0.922300
vt 0.583188 0.922240
vt 0.583199 0.922652
vt 0.584400 0.922300
vt 0.583259 0.922276
vt 0.583596 0.921828
vt 0.584189 0.923594
vt 0.582919 0.922100
vt 0.582742 0.922746
vt 0.582635 0.922218
vt 0.589700 0.922600
vt 0.589700 0.922436
vt 0.584419 0.923679
vt 0.590800 0.923058
vt 0.590900 0.922000
vt 0.582577 0.922263
vt 0.582846 0.922100
vt 0.583053 0.922100
vt 0.582758 0.922130
vt 0.582600 0.922459
vn -0.0111 0.5161 -0.8565
vn -0.6417 0.7624 -0.0834
vn -0.0186 0.9817 -0.1896
vn -0.9955 0.0055 0.0942
vn -0.1245 0.7574 0.6410
vn 0.0197 0.9829 0.1830
vn -0.6238 -0.4552 0.6354
vn 0.5416 0.2877 0.7898
vn -0.0244 0.9945 0.1023
vn 0.7393 -0.4954 0.4561
vn -0.6111 -0.7902 -0.0466
vn 0.0426 -0.7708 -0.6357
vn 0.0432 -0.7710 -0.6354
vn 0.0436 -0.7711 -0.6352
vn 0.0441 -0.7714 -0.6349
vn 0.7385 0.3977 -0.5445
vn -0.0378 0.5813 -0.8128
vn 0.8518 0.3251 -0.4108
vn -0.1143 0.6052 -0.7878
vn 0.9995 0.0302 0.0000
vn -0.9802 -0.1703 -0.1013
vn -0.9801 -0.1712 -0.1004
vn -0.9371 -0.0658 -0.3427
vn -0.5584 -0.1684 -0.8123
vn -0.8800 -0.0059 -0.4749
vn -0.9801 -0.1711 -0.1007
vn 0.0164 -0.5914 -0.8062
vn -0.0008 -0.1095 -0.9940
vn 0.0331 -0.8790 -0.4757
vn 0.0362 -0.8435 -0.5359
vn -0.3004 -0.1525 -0.9415
vn 0.6689 -0.4794 -0.5682
vn -0.0219 -0.9535 0.3006
vn 0.6339 -0.6762 -0.3753
vn 0.4696 0.5973 -0.6502
vn 0.4593 0.5994 -0.6556
vn 0.5161 0.5291 -0.6735
vn -0.5247 0.7507 0.4014
vn -0.1361 0.1546 0.9786
vn 0.9747 0.1905 0.1173
vn 0.6456 -0.2914 0.7059
vn -0.1116 -0.5889 0.8004
vn -0.2514 -0.6790 0.6898
vn -0.4826 -0.0473 0.8746
vn -0.4147 0.4181 0.8082
vn -0.6664 -0.5565 0.4962
vn 0.6235 -0.5366 0.5687
vn 0.1836 -0.9787 0.0919
vn -0.6633 -0.5847 -0.4670
vn 0.6368 -0.5599 -0.5301
vn -0.6579 0.0345 -0.7523
vn -0.1606 0.1235 -0.9793
vn 0.1707 0.6272 -0.7599
vn 0.6669 0.1294 -0.7338
vn 0.1591 0.0794 -0.9841
vn 0.6832 0.5089 -0.5237
vn -0.4516 0.5567 -0.6972
vn -0.6435 0.7075 -0.2920
vn -0.1115 0.8926 -0.4368
vn -0.6623 0.3463 -0.6644
vn 0.6823 0.3683 -0.6314
vn 0.0815 -0.5855 0.8066
vn 0.0833 0.1778 0.9805
vn 0.0478 -0.7624 0.6453
vn 0.0636 -0.1133 0.9915
vn 0.1416 -0.6376 0.7572
vn 0.7850 0.4378 0.4383
vn 0.0649 0.8885 0.4542
vn 0.0182 0.9948 0.1000
vn 0.0643 0.9476 -0.3129
vn 0.0459 0.8026 -0.5947
vn 0.0846 0.5358 -0.8401
vn 0.0527 0.3821 -0.9226
vn 0.6780 0.0814 -0.7306
vn 0.0582 -0.3345 -0.9406
vn 0.8173 -0.2869 -0.4997
vn 0.1688 -0.1190 -0.9784
vn 0.0640 -0.8046 -0.5904
vn 0.0012 -0.9972 -0.0745
vn 0.5025 -0.8580 0.1066
vn 0.4474 -0.6463 0.6182
vn 0.9938 0.0889 -0.0670
vn 0.9005 -0.1765 -0.3975
vn 0.1874 -0.0321 -0.9818
vn -0.5455 -0.3866 -0.7436
vn 0.3997 0.0775 -0.9134
vn -0.8932 -0.4433 -0.0749
vn -0.3521 -0.6845 0.6384
vn 0.0095 -0.8933 0.4494
vn 0.4734 -0.8580 -0.1994
vn 0.8215 -0.5390 -0.1861
vn 0.8537 -0.4370 0.2832
vn 0.7050 -0.5152 -0.4874
vn 0.6726 0.0338 -0.7393
vn 0.6809 0.3801 -0.6260
vn 0.6511 0.6757 -0.3457
vn 0.6684 0.7416 0.0575
vn 0.6419 0.5825 0.4987
vn 0.6458 0.1310 0.7522
vn 0.0904 -0.6817 0.7260
vn 0.6979 -0.4021 0.5926
vn 0.0607 -0.8602 0.5063
vn 0.6394 -0.7045 0.3078
vn -0.5110 -0.5314 0.6756
vn -0.5626 -0.8267 -0.0036
vn 0.6919 -0.5317 -0.4885
vn -0.5524 -0.6015 -0.5771
vn -0.8856 0.2634 0.3826
vn 0.8260 0.3238 0.4614
vn 0.9604 -0.2172 -0.1747
vn -0.6417 -0.3549 -0.6799
vn -0.6370 0.2805 -0.7180
vn -0.0912 -0.4120 -0.9066
vn -0.6168 -0.7862 0.0389
vn 0.5748 -0.8182 0.0093
vn -0.5777 -0.4368 0.6895
vn -0.6399 0.0736 0.7649
vn 0.9860 0.0623 0.1548
vn -0.1451 0.6479 0.7478
vn -0.7020 0.4741 0.5314
vn -0.6806 0.7067 0.1933
vn -0.5749 0.7371 -0.3552
vn -0.3065 -0.9318 -0.1945
vn -0.2426 -0.9569 -0.1595
vn 0.9969 0.0571 -0.0536
vn 0.1503 -0.4138 -0.8979
vn 0.9992 0.0388 -0.0039
vn 0.9990 0.0434 0.0082
vn 0.9990 0.0441 -0.0077
vn 0.9987 0.0495 -0.0081
vn -0.9986 -0.0430 0.0301
vn -0.9999 0.0030 -0.0160
vn -0.9989 -0.0111 -0.0459
vn -0.9992 -0.0128 -0.0370
vn -0.9728 -0.0983 -0.2095
usemtl None
s 1
f 1/1/1 2/2/2 3/3/3
f 3/3/3 2/2/2 4/4/4
f 4/4/5 5/5/5 3/3/5
f 4/4/6 6/6/6 5/5/6
f 6/6/7 7/7/8 5/5/9
f 7/7/8 6/6/7 12/8/10
f 6/6/7 8/9/11 12/8/10
f 9/10/12 13/11/13 10/12/14
f 13/11/13 12/8/15 10/12/14
f 13/11/16 11/13/17 3/3/18
f 11/13/17 1/1/19 3/3/18
f 5/5/20 7/7/8 12/14/10
f 12/14/10 13/11/16 5/5/20
f 13/11/16 3/3/18 5/5/20
f 4/4/4 9/15/21 10/16/22
f 10/16/22 14/17/23 4/4/4
f 4/4/4 15/18/24 9/15/21
f 4/4/4 11/19/25 15/18/24
f 4/4/4 1/20/26 11/19/25
f 4/4/4 2/2/2 1/20/26
f 4/4/4 14/17/23 8/9/11
f 4/4/4 8/9/11 6/6/7
f 9/10/27 15/18/24 13/11/28
f 15/18/24 11/13/25 13/11/28
f 8/9/11 14/17/29 12/8/10
f 14/17/29 10/12/30 12/8/10
f 18/21/31 9/10/32 8/22/33
f 9/10/32 10/12/34 8/22/33
f 16/23/35 1/1/36 18/21/31
f 1/1/36 11/13/37 18/21/31
f 16/23/38 18/21/31 17/24/39
f 8/22/33 17/24/39 18/21/31
f 17/24/39 8/22/33 10/16/34
f 17/24/39 1/20/40 16/23/38
f 17/24/39 10/16/34 1/20/40
f 10/16/34 11/19/37 1/20/40
f 10/16/34 9/15/32 11/19/37
f 9/15/32 18/21/31 11/19/37
f 55/25/41 21/26/42 20/27/43
f 22/28/44 21/26/42 55/25/41
f 19/29/45 23/30/46 21/26/42
f 23/30/46 24/31/47 21/26/42
f 23/30/46 25/32/48 24/31/47
f 25/32/48 27/33/49 26/34/50
f 27/33/49 28/35/51 26/34/50
f 28/35/51 29/36/52 26/34/50
f 30/37/53 74/38/54 75/39/55
f 74/38/54 30/37/53 31/40/56
f 30/37/53 32/41/57 31/40/56
f 28/35/51 76/42/58 29/36/52
f 76/42/58 32/41/59 29/36/52
f 32/41/57 33/43/60 31/40/56
f 33/43/60 34/44/61 31/40/56
f 50/45/62 35/46/63 49/47/64
f 35/46/63 36/48/65 49/47/66
f 35/46/63 37/49/67 36/48/65
f 35/46/63 38/50/68 37/49/67
f 38/50/68 39/51/69 37/49/67
f 38/50/68 40/52/70 39/51/69
f 40/52/70 41/53/71 39/51/69
f 40/52/70 42/54/72 41/53/71
f 42/54/72 43/55/73 41/53/71
f 42/54/72 44/56/74 43/55/73
f 44/56/75 45/57/76 43/55/77
f 44/56/75 46/58/78 45/57/76
f 46/58/78 47/59/79 45/57/76
f 46/58/78 48/60/80 47/59/79
f 48/60/80 49/47/64 47/59/79
f 48/60/80 50/45/62 49/47/64
f 51/61/81 55/62/41 52/63/82
f 55/62/41 54/64/83 52/63/82
f 54/64/83 34/44/61 53/65/84
f 54/64/83 55/62/41 31/66/56
f 54/64/83 31/66/56 34/44/61
f 33/43/60 58/67/85 63/68/86
f 57/69/87 22/70/44 56/71/88
f 33/43/60 32/72/57 58/67/85
f 58/67/85 22/70/44 57/69/87
f 22/70/44 58/67/85 32/72/57
f 50/45/62 48/60/80 56/71/89
f 52/63/90 60/73/91 51/61/92
f 52/63/90 61/74/93 60/73/91
f 52/63/90 54/64/83 61/74/93
f 54/64/83 62/75/94 61/74/93
f 54/64/83 53/65/84 62/75/94
f 57/69/87 56/71/89 48/60/80
f 53/65/84 63/68/86 62/75/94
f 63/68/86 42/54/72 62/75/94
f 42/54/72 64/76/95 62/75/94
f 42/54/72 65/77/96 64/76/95
f 42/54/72 40/52/70 65/77/96
f 40/52/70 68/78/97 65/77/96
f 40/52/70 38/50/68 68/78/97
f 38/50/68 66/79/98 68/78/97
f 38/50/68 67/80/99 66/79/98
f 38/50/68 35/46/63 67/80/99
f 35/46/63 50/45/62 67/80/99
f 50/45/100 59/81/101 67/80/99
f 50/45/100 51/61/92 59/81/101
f 50/45/100 56/71/102 51/61/92
f 55/25/41 51/61/81 22/28/44
f 51/61/81 56/71/88 22/28/44
f 69/82/103 55/25/41 70/83/104
f 55/25/41 20/27/43 70/83/104
f 70/83/104 71/84/105 69/82/103
f 71/84/105 72/85/106 69/82/103
f 71/84/105 73/86/107 72/85/106
f 74/38/54 72/85/106 75/39/55
f 72/85/106 73/86/107 75/39/55
f 33/43/60 63/68/86 34/44/61
f 63/68/86 53/65/84 34/44/61
f 76/42/58 19/29/45 32/41/59
f 19/29/45 22/87/44 32/41/59
f 77/88/108 76/89/58 28/90/51
f 28/90/51 27/91/49 77/88/108
f 27/91/49 23/92/46 77/88/108
f 78/93/109 69/94/103 74/95/54
f 69/94/103 72/96/106 74/95/54
f 31/66/56 78/93/109 74/95/54
f 42/54/72 63/68/86 44/56/74
f 63/68/86 58/67/85 44/56/74
f 58/67/85 46/58/110 44/56/74
f 58/67/85 57/69/87 46/58/110
f 57/69/87 48/60/80 46/58/110
f 79/97/111 89/98/112 80/99/113
f 89/98/112 43/55/73 80/99/113
f 81/100/114 79/97/111 82/101/115
f 79/97/111 80/99/113 82/101/115
f 83/102/116 81/100/114 49/47/66
f 81/100/114 82/101/115 49/47/66
f 49/47/66 36/48/65 83/102/116
f 36/48/65 84/103/117 83/102/116
f 36/48/65 85/104/118 84/103/117
f 85/104/119 86/105/120 84/103/117
f 85/104/119 87/106/121 86/105/120
f 85/104/119 39/51/69 87/106/121
f 39/51/69 88/107/122 87/106/121
f 39/51/69 41/53/71 88/107/122
f 41/53/71 89/98/112 88/108/122
f 41/53/71 43/55/73 89/98/112
f 49/47/66 82/101/115 47/59/20
f 82/101/115 45/57/76 47/59/20
f 82/101/115 80/99/20 45/57/76
f 45/57/76 80/99/20 43/55/77
f 36/48/65 37/49/67 85/104/118
f 37/49/67 39/51/69 85/104/118
f 79/109/111 84/110/117 89/111/112
f 79/109/111 81/112/114 83/113/116
f 83/113/116 84/110/117 79/109/111
f 84/110/117 86/114/120 89/111/112
f 89/111/112 86/114/120 88/115/122
f 86/114/120 87/116/121 88/115/122
f 21/26/42 22/87/44 19/29/45
f 32/41/123 30/117/124 21/26/42
f 30/117/124 20/27/43 21/26/42
f 26/118/50 29/119/125 91/120/126
f 21/121/127 24/122/47 90/123/128
f 25/124/48 26/118/50 24/122/47
f 32/125/129 92/126/130 29/119/125
f 92/126/130 32/125/129 90/123/128
f 32/125/129 21/121/127 90/123/128
f 29/119/125 92/126/130 91/120/126
f 95/127/131 30/128/132 93/129/133
f 30/128/132 75/130/134 93/129/133
f 20/131/43 30/128/132 95/127/131
f 75/130/134 94/132/135 93/129/133
f 20/131/43 95/127/131 70/133/104
f 75/130/134 73/134/107 94/132/135
f 23/135/46 27/136/49 25/32/48
f 77/88/108 23/92/46 19/137/45
f 77/88/108 19/137/45 76/89/58
f 55/138/41 78/139/109 31/40/56
f 78/93/109 55/62/41 69/94/103
f 64/76/95 59/81/101 51/61/92
f 64/76/95 51/61/92 60/73/91
f 64/76/95 60/73/91 61/74/93
f 64/76/95 61/74/93 62/75/94
f 68/78/97 64/76/95 65/77/96
f 64/76/95 68/78/97 66/79/98
f 64/76/95 66/79/98 67/80/99
f 59/81/101 64/76/95 67/80/99
f 92/126/130 26/140/50 91/141/126
f 26/140/50 92/126/130 90/123/128
f 24/122/47 26/140/50 90/123/128
f 95/127/131 93/129/133 94/142/135
f 95/127/131 94/142/135 73/143/107
f 95/127/131 73/143/107 71/144/105
f 70/133/104 95/127/131 71/144/105
