# Blender v2.79 (sub 7) OBJ File: ''
# www.blender.org
mtllib upper_leg_left.mtl
o EXP_OTL_-_EXP_OTL_FLA-1_EXP_OTL_FLA_FL2-1_median_joint_EXP_.002
v 0.031162 -0.045909 -0.057156
v -0.001659 -0.019725 -0.041806
v 0.037192 -0.020447 -0.041735
v 0.035441 -0.040975 -0.023903
v -0.002384 -0.043700 -0.013337
v 0.037697 -0.046884 0.008077
v -0.002450 -0.045899 0.008059
v 0.024011 -0.098317 -0.045184
v 0.024397 -0.073707 -0.075752
v 0.023230 -0.097243 -0.047136
v 0.025081 -0.069536 -0.076188
v -0.004005 -0.097393 -0.045062
v -0.003209 -0.071015 -0.077166
v 0.023224 -0.097725 -0.046376
v 0.024579 -0.071875 -0.077093
v 0.035652 -0.031869 -0.047502
v 0.036031 -0.056933 -0.001119
v 0.025880 -0.071940 -0.077253
v -0.001674 -0.157690 -0.107220
v -0.029728 -0.164062 -0.110900
v -0.006347 -0.161137 -0.108253
v -0.005877 -0.157248 -0.107420
v -0.001630 -0.212205 -0.136987
v -0.008334 -0.212592 -0.136371
v -0.006482 -0.217231 -0.144064
v -0.008838 -0.213776 -0.152261
v -0.001044 -0.213536 -0.151782
v -0.000856 -0.184234 -0.164789
v -0.006601 -0.183324 -0.165639
v -0.029610 -0.160095 -0.149892
v -0.032168 -0.151745 -0.142605
v -0.005964 -0.153590 -0.143799
v -0.002594 -0.032497 -0.048179
v -0.027447 -0.031124 -0.047842
v 0.001772 0.006116 0.043352
v 0.038735 -0.007250 0.046510
v 0.039913 0.031749 0.029833
v 0.002589 0.033150 0.025940
v 0.002834 0.041277 0.009425
v 0.040294 0.044353 0.005086
v 0.002781 0.039512 -0.014706
v 0.040071 0.036969 -0.026507
v 0.002282 0.022971 -0.036504
v 0.039282 0.010817 -0.045082
v 0.001361 -0.007488 -0.044413
v 0.038209 -0.024689 -0.040577
v 0.000499 -0.036067 -0.028465
v 0.037533 -0.047046 -0.003128
v 0.000269 -0.043995 0.007265
v 0.037964 -0.032810 0.034639
v 0.000667 -0.030406 0.032147
v -0.031003 -0.037216 0.016780
v -0.028304 -0.040684 -0.011124
v -0.026794 -0.005546 -0.041018
v -0.027756 -0.022526 -0.035130
v -0.032216 -0.156615 -0.106901
v -0.002196 -0.038795 0.017550
v -0.000693 -0.040402 -0.013377
v -0.000706 -0.024478 -0.034343
v -0.031516 -0.026661 0.030314
v -0.031850 -0.038470 -0.011834
v -0.031487 -0.025998 -0.030628
v -0.030752 -0.001981 -0.040975
v -0.000845 -0.007905 -0.040844
v -0.030321 0.021149 -0.034505
v -0.029623 0.035172 -0.020495
v -0.029671 0.033676 0.022924
v -0.030270 0.014906 0.037128
v -0.030640 0.000916 0.040645
v -0.029531 0.039728 0.005790
v -0.037227 -0.214442 -0.140525
v -0.030650 -0.210297 -0.135338
v -0.030562 -0.215429 -0.144492
v -0.037227 -0.211549 -0.153087
v -0.030622 -0.212045 -0.153851
v -0.036105 -0.182657 -0.164703
v -0.030312 -0.183339 -0.165729
v 0.000050 -0.153882 -0.142899
v 0.001149 -0.158950 -0.110673
v -0.036455 -0.154742 -0.141599
v -0.036551 -0.157779 -0.110720
v 0.047384 -0.031062 -0.048457
v 0.038023 -0.030823 -0.049630
v 0.046488 -0.062041 -0.003498
v 0.037054 -0.062902 -0.003943
v 0.047434 -0.027513 0.040009
v 0.048993 0.002459 0.046312
v 0.039786 0.027518 0.039215
v 0.049154 0.027619 0.036997
v 0.050172 0.043527 0.009530
v 0.049034 0.040669 -0.022517
v 0.048731 0.012184 -0.045113
v -0.007661 -0.197712 -0.135054
v -0.008333 -0.205171 -0.156526
v -0.007972 -0.193237 -0.150105
v -0.030042 -0.195086 -0.153600
v -0.030931 -0.203833 -0.157079
v -0.029920 -0.195358 -0.136690
v -0.028621 -0.191922 -0.146863
vt 0.622500 0.905800
vt 0.620751 0.906116
vt 0.620479 0.905979
vt 0.622730 0.906804
vt 0.621200 0.907116
vt 0.622800 0.906477
vt 0.619609 0.907758
vt 0.621200 0.905853
vt 0.622273 0.905892
vt 0.622300 0.904600
vt 0.622200 0.905800
vt 0.618549 0.904600
vt 0.622300 0.904900
vt 0.617510 0.905853
vt 0.617500 0.905800
vt 0.618400 0.904600
vt 0.617500 0.905800
vt 0.618535 0.904600
vt 0.618600 0.904600
vt 0.619500 0.905400
vt 0.617500 0.905892
vt 0.619459 0.907871
vt 0.622300 0.904809
vt 0.622200 0.905800
vt 0.622365 0.904787
vt 0.622257 0.905850
vt 0.622737 0.905874
vt 0.652807 0.863092
vt 0.671100 0.878900
vt 0.637222 0.877480
vt 0.647700 0.891800
vt 0.619106 0.907533
vt 0.618534 0.904600
vt 0.620089 0.901417
vt 0.620199 0.901188
vt 0.621100 0.901314
vt 0.621100 0.902472
vt 0.621301 0.901940
vt 0.621200 0.900867
vt 0.620984 0.900782
vt 0.621056 0.901967
vt 0.620962 0.901161
vt 0.621200 0.900805
vt 0.621200 0.900409
vt 0.621100 0.900426
vt 0.620200 0.901300
vt 0.620121 0.900412
vt 0.620000 0.900432
vt 0.620061 0.901949
vt 0.621100 0.901896
vt 0.621300 0.901914
vt 0.620522 0.906002
vt 0.620091 0.906006
vt 0.621367 0.907259
vt 0.622800 0.908048
vt 0.621400 0.907861
vt 0.622839 0.907335
vt 0.622900 0.908491
vt 0.621400 0.908605
vt 0.621400 0.907955
vt 0.622900 0.907766
vt 0.621400 0.907023
vt 0.622900 0.907263
vt 0.621400 0.907813
vt 0.622900 0.908077
vt 0.621400 0.907338
vt 0.622800 0.906864
vt 0.621338 0.906697
vt 0.622800 0.907496
vt 0.621300 0.907873
vt 0.620087 0.908213
vt 0.619829 0.907198
vt 0.615149 0.903390
vt 0.620496 0.906273
vt 0.620619 0.906826
vt 0.615374 0.902006
vt 0.621100 0.906719
vt 0.620954 0.906572
vt 0.668692 0.869698
vt 0.680323 0.871964
vt 0.614748 0.912365
vt 0.648400 0.868300
vt 0.662400 0.864500
vt 0.600400 0.908100
vt 0.600937 0.908128
vt 0.620664 0.908261
vt 0.620100 0.907188
vt 0.620100 0.906626
vt 0.620100 0.907540
vt 0.621256 0.907095
vt 0.620310 0.908295
vt 0.620335 0.907131
vt 0.620200 0.907828
vt 0.620194 0.908469
vt 0.620160 0.908187
vt 0.620100 0.907626
vt 0.620100 0.907441
vt 0.619944 0.901512
vt 0.620100 0.901080
vt 0.620137 0.902031
vt 0.619978 0.900813
vt 0.620131 0.901251
vt 0.621100 0.902353
vt 0.613408 0.913676
vt 0.589029 0.920471
vt 0.601135 0.908738
vt 0.590100 0.931600
vt 0.597300 0.933200
vt 0.615146 0.903298
vt 0.614161 0.901268
vt 0.613009 0.902086
vt 0.613083 0.901647
vt 0.615275 0.902075
vt 0.623100 0.906313
vt 0.622800 0.906334
vt 0.623150 0.908097
vt 0.623100 0.907473
vt 0.622800 0.907456
vt 0.623100 0.907558
vt 0.623100 0.907587
vt 0.622900 0.908468
vt 0.623200 0.908548
vt 0.623200 0.908013
vt 0.623200 0.907764
vt 0.619560 0.907496
vt 0.618941 0.907456
vt 0.654283 0.852559
vt 0.666224 0.838280
vt 0.696241 0.861991
vt 0.685983 0.872284
vt 0.660400 0.871900
vt 0.698300 0.852300
vt 0.677962 0.834308
vt 0.685629 0.834987
vt 0.620200 0.901700
vt 0.612998 0.901645
vt 0.613305 0.901500
vt 0.614141 0.901226
vt 0.614886 0.903291
vt 0.613563 0.902210
vt 0.613015 0.902155
vt 0.612900 0.901972
vt 0.615000 0.901700
vt 0.613648 0.901700
vt 0.613668 0.902169
vt 0.613759 0.901751
vt 0.615100 0.901700
vt 0.614152 0.901221
vt 0.614888 0.903290
vt 0.613352 0.901523
vt 0.613136 0.902286
vt 0.613008 0.901651
vt 0.621300 0.902100
vt 0.621300 0.901895
vt 0.614601 0.902960
vt 0.615106 0.903380
vt 0.613042 0.902229
vt 0.613700 0.912100
vt 0.619900 0.902100
vt 0.620030 0.902659
vt 0.619900 0.901400
vt 0.612958 0.901726
vt 0.620132 0.901042
vt 0.620200 0.901869
vt 0.620143 0.900925
vt 0.620100 0.899642
vt 0.613762 0.901869
vt 0.613177 0.901561
vt 0.613512 0.901531
vt 0.612944 0.901941
vt 0.613560 0.902289
vn 0.0111 0.5161 -0.8565
vn 0.0186 0.9817 -0.1896
vn 0.6417 0.7624 -0.0836
vn 0.9955 0.0055 0.0944
vn 0.1245 0.7574 0.6410
vn -0.0197 0.9829 0.1830
vn 0.6238 -0.4552 0.6354
vn 0.0244 0.9945 0.1023
vn -0.5416 0.2877 0.7898
vn -0.7391 -0.4954 0.4564
vn 0.6115 -0.7899 -0.0466
vn -0.0426 -0.7708 -0.6357
vn -0.0436 -0.7711 -0.6352
vn -0.0432 -0.7710 -0.6354
vn -0.0441 -0.7714 -0.6349
vn -0.7385 0.3970 -0.5450
vn -0.8518 0.3251 -0.4108
vn 0.0378 0.5813 -0.8128
vn 0.1143 0.6052 -0.7878
vn -0.9995 0.0302 0.0000
vn 0.9801 -0.1712 -0.1006
vn 0.9802 -0.1704 -0.1012
vn 0.9371 -0.0660 -0.3428
vn 0.5573 -0.1703 -0.8126
vn 0.8799 -0.0042 -0.4751
vn 0.9801 -0.1711 -0.1007
vn -0.0161 -0.5896 -0.8075
vn -0.0010 -0.1093 -0.9940
vn -0.0337 -0.8790 -0.4756
vn -0.0361 -0.8440 -0.5351
vn 0.3007 -0.1527 -0.9414
vn 0.0220 -0.9542 0.2982
vn -0.6688 -0.4793 -0.5683
vn -0.6340 -0.6785 -0.3711
vn -0.4696 0.5973 -0.6502
vn -0.4593 0.5994 -0.6556
vn -0.5162 0.5290 -0.6736
vn 0.5247 0.7507 0.4014
vn 0.1361 0.1546 0.9786
vn -0.9747 0.1905 0.1173
vn -0.6625 -0.2778 0.6957
vn 0.2516 -0.6816 0.6871
vn 0.1116 -0.5890 0.8004
vn 0.4826 -0.0472 0.8745
vn 0.4148 0.4181 0.8082
vn 0.6664 -0.5565 0.4962
vn -0.6234 -0.5366 0.5686
vn -0.1836 -0.9787 0.0919
vn -0.6368 -0.5598 -0.5301
vn 0.6634 -0.5847 -0.4670
vn 0.6579 0.0345 -0.7523
vn 0.1606 0.1235 -0.9793
vn -0.1733 0.6131 -0.7708
vn -0.1591 0.0794 -0.9841
vn -0.6647 0.1240 -0.7367
vn -0.4461 0.6920 -0.5675
vn 0.4643 0.5456 -0.6977
vn 0.6436 0.7075 -0.2920
vn 0.1115 0.8926 -0.4368
vn 0.6628 0.3468 -0.6636
vn -0.6943 0.3561 -0.6254
vn -0.0722 -0.5815 0.8104
vn -0.0478 -0.7624 0.6453
vn -0.0514 0.1455 0.9880
vn -0.1416 -0.6376 0.7572
vn -0.0636 -0.1133 0.9915
vn 0.0008 0.5727 0.8198
vn -0.0358 0.7530 0.6570
vn -0.0476 0.9783 0.2014
vn -0.9586 0.2594 0.1174
vn -0.0221 0.9938 0.1085
vn -0.0646 0.9390 -0.3377
vn -0.0459 0.8026 -0.5947
vn -0.0846 0.5358 -0.8401
vn -0.0527 0.3821 -0.9226
vn -0.6780 0.0814 -0.7306
vn -0.0582 -0.3344 -0.9406
vn -0.1688 -0.1190 -0.9784
vn -0.8173 -0.2869 -0.4998
vn -0.0640 -0.8046 -0.5904
vn -0.0012 -0.9972 -0.0745
vn -0.5025 -0.8580 0.1066
vn -0.4474 -0.6463 0.6182
vn -0.9938 0.0889 -0.0670
vn -0.9002 -0.1771 -0.3979
vn -0.1874 -0.0320 -0.9818
vn -0.3997 0.0775 -0.9134
vn 0.5455 -0.3866 -0.7436
vn 0.8932 -0.4433 -0.0749
vn 0.3521 -0.6845 0.6384
vn -0.0095 -0.8933 0.4494
vn -0.4734 -0.8580 -0.1994
vn -0.8537 -0.4370 0.2832
vn -0.8215 -0.5390 -0.1861
vn -0.7050 -0.5152 -0.4874
vn -0.6726 0.0338 -0.7392
vn -0.6809 0.3801 -0.6260
vn -0.6511 0.6757 -0.3457
vn -0.6712 0.7384 0.0650
vn -0.6607 0.6095 0.4383
vn -0.6861 0.3402 0.6431
vn -0.6773 -0.0348 0.7349
vn -0.0911 -0.7033 0.7050
vn -0.7031 -0.4149 0.5776
vn -0.0607 -0.8602 0.5063
vn -0.6394 -0.7046 0.3077
vn 0.5186 -0.5215 0.6775
vn 0.5575 -0.8302 0.0019
vn -0.6918 -0.5316 -0.4886
vn 0.4575 -0.6406 -0.6167
vn 0.8856 0.2635 0.3826
vn -0.8161 0.3503 0.4596
vn -0.8356 0.5074 -0.2106
vn -0.9604 -0.2172 -0.1747
vn 0.6417 -0.3549 -0.6799
vn 0.0912 -0.4120 -0.9066
vn 0.6370 0.2805 -0.7180
vn 0.6168 -0.7862 0.0389
vn -0.5748 -0.8182 0.0093
vn 0.5777 -0.4368 0.6895
vn 0.6399 0.0736 0.7649
vn -0.9860 0.0623 0.1548
vn 0.1451 0.6479 0.7478
vn 0.7020 0.4741 0.5314
vn 0.6806 0.7067 0.1933
vn 0.5749 0.7371 -0.3552
vn 0.3065 -0.9318 -0.1945
vn 0.2426 -0.9569 -0.1595
vn -0.1503 -0.4138 -0.8979
vn -0.9969 0.0571 -0.0536
vn -0.9992 0.0388 -0.0039
vn -0.9990 0.0434 0.0082
vn -0.9990 0.0441 -0.0077
vn -0.9987 0.0495 -0.0081
vn 0.9985 -0.0118 0.0533
vn 0.9977 -0.0355 -0.0579
vn 0.9999 -0.0090 -0.0079
vn 0.9993 -0.0167 -0.0337
vn 0.8732 0.1969 0.4458
vn 0.9978 0.0117 -0.0659
vn 0.2542 0.9660 -0.0468
vn 0.9671 0.0798 -0.2416
usemtl None.005
s 1
f 1/1/1 2/2/2 3/3/3
f 2/2/2 4/4/4 3/3/3
f 4/4/5 2/2/5 5/5/5
f 4/4/6 5/5/6 6/6/6
f 6/6/7 5/5/8 7/7/9
f 7/7/9 12/8/10 6/6/7
f 6/6/7 12/8/10 8/9/11
f 9/10/12 10/11/13 13/12/14
f 13/12/14 10/11/13 12/8/15
f 13/12/16 2/2/17 11/13/18
f 11/13/18 2/2/17 1/1/19
f 5/5/20 12/14/10 7/7/9
f 12/14/10 5/5/20 13/12/16
f 13/12/16 5/5/20 2/2/17
f 4/4/4 10/15/21 9/16/22
f 10/15/21 4/4/4 14/17/23
f 4/4/4 9/16/22 15/18/24
f 4/4/4 15/18/24 11/19/25
f 4/4/4 11/19/25 1/20/26
f 4/4/4 1/20/26 3/3/3
f 4/4/4 8/21/11 14/17/23
f 4/4/4 6/22/7 8/21/11
f 9/10/27 13/12/28 15/23/24
f 15/23/24 13/12/28 11/13/25
f 8/9/11 12/8/10 14/24/29
f 14/24/29 12/8/10 10/11/30
f 18/25/31 8/26/32 9/10/33
f 9/10/33 8/26/32 10/11/34
f 16/27/35 18/25/31 1/1/36
f 1/1/36 18/25/31 11/13/37
f 16/28/38 17/29/39 18/30/31
f 8/31/32 18/30/31 17/29/39
f 17/32/39 10/15/34 8/21/32
f 17/32/39 16/27/38 1/20/40
f 17/32/39 1/20/40 10/15/34
f 10/15/34 1/20/40 11/19/37
f 10/15/34 11/19/37 9/16/33
f 9/16/33 11/19/37 18/33/31
f 56/34/41 20/35/42 21/36/43
f 22/37/44 56/34/41 21/36/43
f 19/38/45 21/36/43 23/39/46
f 23/39/46 21/36/43 24/40/47
f 23/39/46 24/40/47 25/41/48
f 25/41/48 26/42/49 27/43/50
f 27/43/50 26/42/49 28/44/51
f 28/44/51 26/42/49 29/45/52
f 30/46/53 77/47/54 76/48/55
f 76/48/55 31/49/56 30/46/53
f 30/46/53 31/49/56 32/50/57
f 28/44/51 29/45/52 78/51/58
f 78/51/58 29/45/52 32/50/59
f 32/50/57 31/49/56 33/52/60
f 33/52/60 31/49/56 34/53/61
f 51/54/62 50/55/63 35/56/64
f 35/56/64 50/55/65 36/57/66
f 35/56/64 36/57/66 37/58/67
f 35/56/64 37/58/67 38/59/68
f 38/59/68 37/58/67 39/60/69
f 39/60/69 37/58/70 40/61/71
f 39/60/69 40/61/71 41/62/72
f 41/62/72 40/61/71 42/63/73
f 41/62/72 42/63/73 43/64/74
f 43/64/74 42/63/73 44/65/75
f 43/64/74 44/65/75 45/66/76
f 45/66/77 44/65/78 46/67/79
f 45/66/77 46/67/79 47/68/80
f 47/68/80 46/67/79 48/69/81
f 47/68/80 48/69/81 49/70/82
f 49/70/82 48/69/81 50/55/63
f 49/70/82 50/55/63 51/54/62
f 52/71/83 53/72/84 56/73/41
f 56/73/41 53/72/84 55/74/85
f 55/74/85 54/75/86 34/53/61
f 55/74/85 31/76/56 56/73/41
f 55/74/85 34/53/61 31/76/56
f 33/52/60 64/77/87 59/78/88
f 58/79/89 57/80/90 22/81/44
f 33/82/60 59/83/88 32/84/57
f 59/83/88 58/79/89 22/81/44
f 22/81/44 32/85/57 59/83/88
f 51/54/62 57/86/91 49/70/82
f 53/72/92 52/71/93 61/87/94
f 53/72/92 61/87/94 62/88/95
f 53/72/92 62/88/95 55/74/85
f 55/74/85 62/88/95 63/89/96
f 55/74/85 63/89/96 54/75/86
f 58/90/89 49/70/82 57/86/91
f 54/75/86 63/89/96 64/77/87
f 64/77/87 63/89/96 43/64/74
f 43/64/74 63/89/96 65/91/97
f 43/64/74 65/91/97 66/92/98
f 43/64/74 66/92/98 41/62/72
f 41/62/72 66/92/98 70/93/99
f 41/62/72 70/93/99 39/60/69
f 39/60/69 70/93/99 67/94/100
f 39/60/69 67/94/100 38/59/68
f 38/59/68 67/94/100 68/95/101
f 38/59/68 68/95/101 35/56/64
f 35/56/64 68/95/101 69/96/102
f 35/56/64 69/96/102 51/54/62
f 51/54/103 69/96/102 60/97/104
f 51/54/103 60/97/104 52/71/93
f 51/54/103 52/71/93 57/86/105
f 56/34/41 22/37/44 52/71/83
f 52/71/83 22/37/44 57/86/90
f 71/98/106 72/99/107 56/34/41
f 56/34/41 72/99/107 20/35/42
f 72/99/107 71/98/106 73/100/108
f 73/100/108 71/98/106 74/101/109
f 73/100/108 74/101/109 75/102/110
f 76/48/55 77/47/54 74/101/109
f 74/101/109 77/47/54 75/102/110
f 33/52/60 34/53/61 64/77/87
f 64/77/87 34/53/61 54/75/86
f 78/51/58 32/50/59 19/38/45
f 19/38/45 32/50/59 22/103/44
f 79/104/111 28/105/51 78/106/58
f 28/105/51 79/104/111 27/107/50
f 27/107/50 79/104/111 23/108/46
f 81/109/112 76/110/55 71/111/106
f 71/111/106 76/110/55 74/112/109
f 80/113/113 76/110/55 81/109/112
f 43/64/74 45/66/76 64/77/87
f 64/77/87 45/66/76 59/78/88
f 59/78/88 45/66/76 47/68/114
f 59/78/88 47/68/114 58/90/89
f 58/90/89 47/68/114 49/70/82
f 82/114/115 83/115/116 92/116/117
f 92/116/117 83/115/116 44/65/75
f 84/117/118 85/118/119 82/114/115
f 82/114/115 85/118/119 83/115/116
f 86/119/120 50/55/65 84/117/118
f 84/117/118 50/55/65 85/118/119
f 50/55/65 86/119/120 36/57/66
f 36/57/66 86/119/120 87/120/121
f 36/57/66 87/120/121 88/121/122
f 88/121/123 87/120/121 89/122/124
f 88/121/123 89/122/124 90/123/125
f 88/121/123 90/123/125 40/61/71
f 40/61/71 90/123/125 91/124/126
f 40/61/71 91/124/126 42/63/73
f 42/63/73 91/124/126 92/116/117
f 42/63/73 92/116/117 44/65/75
f 50/55/65 48/125/20 85/126/119
f 85/126/119 48/125/20 46/67/79
f 85/126/119 46/67/79 83/115/20
f 46/67/79 44/65/78 83/115/20
f 36/57/66 88/121/122 37/58/70
f 37/58/70 88/121/122 40/61/71
f 82/127/115 92/128/117 87/129/121
f 82/127/115 86/130/120 84/131/118
f 86/130/120 82/127/115 87/129/121
f 87/129/121 92/128/117 89/132/124
f 92/128/117 91/133/126 89/132/124
f 89/132/124 91/133/126 90/134/125
f 21/36/43 19/38/45 22/103/44
f 32/50/127 21/36/43 30/135/128
f 30/135/128 21/36/43 20/35/42
f 26/136/49 94/137/129 29/138/130
f 21/139/131 93/140/132 24/141/47
f 25/142/48 24/141/47 26/136/49
f 32/143/133 29/138/130 95/144/134
f 95/144/134 93/140/132 32/143/133
f 32/143/133 93/140/132 21/139/131
f 29/138/130 94/137/129 95/144/134
f 98/145/135 96/146/136 30/147/137
f 30/147/137 96/146/136 77/148/138
f 20/149/42 98/145/135 30/147/137
f 77/148/138 96/146/136 97/150/139
f 20/149/42 72/151/107 98/145/135
f 77/148/138 97/150/139 75/152/140
f 23/153/46 25/41/48 27/154/50
f 79/155/111 19/156/45 23/157/46
f 79/104/111 78/106/58 19/158/45
f 31/49/56 80/159/113 56/160/41
f 56/160/41 80/159/113 81/161/112
f 81/109/112 71/111/106 56/73/41
f 31/76/56 76/110/55 80/113/113
f 65/91/97 52/71/93 60/97/104
f 65/91/97 61/87/94 52/71/93
f 65/91/97 62/88/95 61/87/94
f 65/91/97 63/89/96 62/88/95
f 70/93/99 66/92/98 65/91/97
f 65/91/97 67/94/100 70/93/99
f 65/91/97 68/95/101 67/94/100
f 60/97/104 69/96/102 65/91/97
f 65/91/97 69/96/102 68/95/101
f 95/144/134 94/137/129 26/162/49
f 26/162/49 93/140/132 95/144/134
f 24/141/47 93/140/132 26/162/49
f 98/163/135 99/164/141 96/165/142
f 97/166/139 96/165/136 75/102/140
f 99/167/141 75/168/110 96/169/142
f 99/167/141 73/170/108 75/168/110
f 72/151/107 73/170/108 99/167/141
f 99/167/141 98/171/135 72/151/107
