/* XPM */
static char * dynamicaCreateActiveMeshRB_xpm[] = {
"32 32 212 2",
"  	c #B1B1B1",
". 	c #A7A7A7",
"+ 	c #989898",
"@ 	c #939393",
"# 	c #A2A2A2",
"$ 	c #AFAFAF",
"% 	c #918888",
"& 	c #BC5B5B",
"* 	c #C34949",
"= 	c #A56969",
"- 	c #A3A3A3",
"; 	c #ABABAB",
"> 	c #A8A8A8",
", 	c #AEAEAE",
"' 	c #959595",
") 	c #C35858",
"! 	c #D13D3D",
"~ 	c #A07171",
"{ 	c #969696",
"] 	c #979797",
"^ 	c #9C9C9C",
"/ 	c #ACACAC",
"( 	c #8C8B8B",
"_ 	c #957777",
": 	c #996B6B",
"< 	c #918080",
"[ 	c #ADADAD",
"} 	c #9E9E9E",
"| 	c #949494",
"1 	c #A07C7C",
"2 	c #C35A5A",
"3 	c #D23E3E",
"4 	c #C93B3B",
"5 	c #BD4141",
"6 	c #BA3C3C",
"7 	c #B63939",
"8 	c #B33B3B",
"9 	c #AD4848",
"0 	c #9B9B9B",
"a 	c #A6A6A6",
"b 	c #937E7E",
"c 	c #BA2020",
"d 	c #C10404",
"e 	c #A54C4C",
"f 	c #908282",
"g 	c #A0A0A0",
"h 	c #B37272",
"i 	c #C76464",
"j 	c #D15959",
"k 	c #D65151",
"l 	c #D44848",
"m 	c #D13C3C",
"n 	c #CF3131",
"o 	c #CC2626",
"p 	c #C91B1B",
"q 	c #C71212",
"r 	c #C60E0E",
"s 	c #C60D0D",
"t 	c #9A6E6E",
"u 	c #A4A4A4",
"v 	c #B42D2D",
"w 	c #C30000",
"x 	c #A15757",
"y 	c #A1A1A1",
"z 	c #8F8989",
"A 	c #A07D7D",
"B 	c #AE7676",
"C 	c #CD6565",
"D 	c #D85B5B",
"E 	c #D75757",
"F 	c #D65252",
"G 	c #D54C4C",
"H 	c #D34242",
"I 	c #CF3535",
"J 	c #CD2B2B",
"K 	c #CB2020",
"L 	c #C81515",
"M 	c #C60C0C",
"N 	c #C50909",
"O 	c #C50707",
"P 	c #B72323",
"Q 	c #917F7F",
"R 	c #C20202",
"S 	c #BA1717",
"T 	c #929292",
"U 	c #9B7F7F",
"V 	c #CB5A5A",
"W 	c #C16767",
"X 	c #BE6D6D",
"Y 	c #D95D5D",
"Z 	c #D85959",
"` 	c #D34343",
" .	c #D03737",
"..	c #CB2222",
"+.	c #C91919",
"@.	c #C40606",
"#.	c #C30202",
"$.	c #9C6464",
"%.	c #A84646",
"&.	c #A74848",
"*.	c #9F9F9F",
"=.	c #B66565",
"-.	c #D25050",
";.	c #8D8D8D",
">.	c #9A8383",
",.	c #D85A5A",
"'.	c #D75454",
").	c #D03838",
"!.	c #CD2929",
"~.	c #CA1E1E",
"{.	c #C81717",
"].	c #C71010",
"^.	c #B81B1B",
"/.	c #976F6F",
"(.	c #A9A9A9",
"_.	c #9C7B7B",
":.	c #D44949",
"<.	c #9A8080",
"[.	c #AB7575",
"}.	c #D75353",
"|.	c #CD2A2A",
"1.	c #C60B0B",
"2.	c #C40303",
"3.	c #BA1616",
"4.	c #8D8A8A",
"5.	c #A76E6E",
"6.	c #C35353",
"7.	c #C35757",
"8.	c #D34545",
"9.	c #CF3232",
"0.	c #CC2727",
"a.	c #9D6262",
"b.	c #9C7878",
"c.	c #CD3B3B",
"d.	c #CF3434",
"e.	c #C81414",
"f.	c #C00808",
"g.	c #A15656",
"h.	c #9A9A9A",
"i.	c #B45252",
"j.	c #C71313",
"k.	c #BA1818",
"l.	c #937A7A",
"m.	c #9D9D9D",
"n.	c #9F6D6D",
"o.	c #BE0E0E",
"p.	c #937979",
"q.	c #AA5151",
"r.	c #BD0F0F",
"s.	c #967373",
"t.	c #9C6565",
"u.	c #B91A1A",
"v.	c #BC1212",
"w.	c #AA4141",
"x.	c #8F8383",
"y.	c #A94242",
"z.	c #AB3C3C",
"A.	c #A35252",
"B.	c #9A6969",
"C.	c #898989",
"D.	c #0F0F0F",
"E.	c #707070",
"F.	c #737373",
"G.	c #2C2C2C",
"H.	c #000000",
"I.	c #8E8E8E",
"J.	c #7F7F7F",
"K.	c #080808",
"L.	c #6E6E6E",
"M.	c #0C0C0C",
"N.	c #4F4F4F",
"O.	c #212121",
"P.	c #494949",
"Q.	c #4B4B4B",
"R.	c #606060",
"S.	c #131313",
"T.	c #060606",
"U.	c #1D1D1D",
"V.	c #7D7D7D",
"W.	c #858585",
"X.	c #797979",
"Y.	c #626262",
"Z.	c #6C6C6C",
"`.	c #414141",
" +	c #454545",
".+	c #2A2A2A",
"++	c #434343",
"@+	c #7C7C7C",
"#+	c #5A5A5A",
"$+	c #121212",
"%+	c #2F2F2F",
"&+	c #141414",
"*+	c #686868",
"=+	c #818181",
"-+	c #5C5C5C",
";+	c #646464",
">+	c #2D2D2D",
",+	c #050505",
"'+	c #151515",
")+	c #575757",
"!+	c #636363",
"~+	c #555555",
"{+	c #6A6A6A",
"]+	c #3C3C3C",
"^+	c #111111",
"/+	c #666666",
"(+	c #090909",
"_+	c #515151",
":+	c #5B5B5B",
"<+	c #5F5F5F",
"[+	c #616161",
"}+	c #A5A5A5",
"                                                                ",
"                . + @ #                                         ",
"              $ % & * = -                     ; > ,             ",
"              $ ' ) ! ~ ' { ] + ^ /       # ( _ : < ,           ",
"        [ } | % 1 2 3 4 5 6 7 8 9 0     a b c d e f ,           ",
"  $ . g % h i j k l m n o p q r s t u   ] v w x ^ ,             ",
"y z A B C D E F G H I J K L M N O P ' , Q R S T                 ",
"U V W X Y Z F G `  .J ..+.r @.#.w w $.^ %.w &.*.                ",
"=.-.;.>.,.'.G ` ).!.~.{.].@.w w w w ^.&.R w /.(.                ",
"_.:.<.[.}.G H  .|.p ].1.2.w w w w w w w w 3.4.                  ",
"0 5.6.7.8.! 9.0.+.N w w w w w w w w w w w a.y                   ",
"  - b.c.d.J K e.@.w w w w w w w w w w f.g.0                     ",
"    h.i.0.~.j.@.w w w w w w w w w w k.l.m.                      ",
"    a n.~.e.N w w w w w w w w w w o.p.#                         ",
"      0 q.1.w w w w w w w w w w r.s.*.                          ",
"      , 0 t.u.w w w w w w w v.w.Q *.                            ",
"          # x.x y.z.z.y.A.B.f m./                               ",
"            $ - } ^ ^ } # > ,                                   ",
"                    C.                              { ^         ",
"                  . D.E.                      ; F.G.H.I.        ",
"                    J.K.{                   L.M.H.H.H.#         ",
"                      N.O.[                 [ P.H.H.K.          ",
"                      [ O.Q.                  R.S.T.U.          ",
"                        { K.V.              W.T.I.T Q.          ",
"                          E.D.g X.Y.      g D.Z.                ",
"                            `.S.H. +    [ .+++                  ",
"  @+Z.Z.Z.Z.Z.Z.Z.Z.Z.Z.Z.#+$+H.H.O.Z.Z.%+&+*+Z.Z.Z.L.(.        ",
"  =+-+;+;+;+;+;+;+;+;+;+Y.>+,+H.H.'+;+++T.)+;+;+;+;+!+~+(.      ",
"    =+-+*+{+{+{+{+{+{+{+{+{+;+]+^+M./+(+Q.{+{+{+{+{+{+*+~+(.    ",
"      =+-+*+{+{+{+{+{+{+{+{+{+{+{+_+{+!+{+{+{+{+{+{+{+{+*+~+    ",
"        =+:+<+<+<+<+<+<+<+<+<+<+<+<+<+<+<+<+<+<+<+<+<+<+<+<+[+  ",
"          }+' ' ' ' ' ' ' ' ' ' ' ' ' ' ' ' ' ' ' ' ' ' ' '     "};
