/* XPM */
static char * dynamicaCreateActiveBoxRB_xpm[] = {
"32 32 79 1",
" 	c #A47D7D",
".	c #A53030",
"+	c #AA2424",
"@	c #AD5E5E",
"#	c #B1B1B1",
"$	c #880202",
"%	c #A61B1B",
"&	c #A80101",
"*	c #AD5A5A",
"=	c #850000",
"-	c #C30000",
";	c #B1ADAD",
">	c #A88C8C",
",	c #860202",
"'	c #A17070",
")	c #A17373",
"!	c #898989",
"~	c #969696",
"{	c #9C9C9C",
"]	c #A7A7A7",
"^	c #0F0F0F",
"/	c #707070",
"(	c #ABABAB",
"_	c #737373",
":	c #2C2C2C",
"<	c #000000",
"[	c #8E8E8E",
"}	c #7F7F7F",
"|	c #080808",
"1	c #6E6E6E",
"2	c #0C0C0C",
"3	c #A2A2A2",
"4	c #4F4F4F",
"5	c #212121",
"6	c #ADADAD",
"7	c #494949",
"8	c #4B4B4B",
"9	c #606060",
"0	c #131313",
"a	c #060606",
"b	c #1D1D1D",
"c	c #7D7D7D",
"d	c #858585",
"e	c #929292",
"f	c #A0A0A0",
"g	c #797979",
"h	c #626262",
"i	c #6C6C6C",
"j	c #414141",
"k	c #454545",
"l	c #2A2A2A",
"m	c #434343",
"n	c #7C7C7C",
"o	c #5A5A5A",
"p	c #121212",
"q	c #2F2F2F",
"r	c #141414",
"s	c #686868",
"t	c #A9A9A9",
"u	c #818181",
"v	c #5C5C5C",
"w	c #646464",
"x	c #2D2D2D",
"y	c #050505",
"z	c #151515",
"A	c #575757",
"B	c #636363",
"C	c #555555",
"D	c #6A6A6A",
"E	c #3C3C3C",
"F	c #111111",
"G	c #666666",
"H	c #090909",
"I	c #515151",
"J	c #5B5B5B",
"K	c #5F5F5F",
"L	c #616161",
"M	c #A5A5A5",
"N	c #959595",
" .+++++++++++++@################",
" $%&&&&&&&&&&&&&*###############",
" =$%&&&&&&&&&&&&&*##############",
" ==$%&&&&&&&&&&&&&*#############",
" ===$--------------;############",
" ====--------------#############",
" ====--------------#############",
" ====--------------#############",
" ====--------------#############",
" ====--------------#############",
" ====--------------#############",
" ====--------------#############",
" ====--------------#############",
">,===--------------#############",
"#',==--------------#############",
"##),=--------------#############",
"###),--------------#############",
"####)--------------#############",
"##########!###############~{####",
"#########]^/###########(_:<[####",
"##########}|~#########12<<<3####",
"###########456########67<<|#####",
"###########658#########90ab#####",
"############~|c#######da[e8#####",
"#############/^fgh###f^i########",
"##############j0<k##6lm#########",
"#niiiiiiiiiiiop<<5iiqrsiii1t####",
"#uvwwwwwwwwwhxy<<zwmaAwwwwBCt###",
"##uvsDDDDDDDDDwEF2GH8DDDDDDsCt##",
"###uvsDDDDDDDDDDDIDBDDDDDDDDsC##",
"####uJKKKKKKKKKKKKKKKKKKKKKKKKL#",
"#####MNNNNNNNNNNNNNNNNNNNNNNNN##"};
