/* XPM */
static char * dynamicaCreateActiveHullRBArray_xpm[] = {
"32 32 110 2",
"  	c #B1B1B1",
". 	c #B3ABAB",
"+ 	c #C17777",
"@ 	c #CA5757",
"# 	c #C66464",
"$ 	c #C27272",
"% 	c #BD8484",
"& 	c #B99595",
"* 	c #B5A2A2",
"= 	c #B3A9A9",
"- 	c #CB5454",
"; 	c #C37070",
"> 	c #B79A9A",
", 	c #BE8383",
"' 	c #C27575",
") 	c #C76363",
"! 	c #C95C5C",
"~ 	c #C85E5E",
"{ 	c #C76262",
"] 	c #C56A6A",
"^ 	c #BB8E8E",
"/ 	c #CA5555",
"( 	c #C27474",
"_ 	c #B4A5A5",
": 	c #B3AAAA",
"< 	c #CE4747",
"[ 	c #C95B5B",
"} 	c #B89696",
"| 	c #BE8080",
"1 	c #B89797",
"2 	c #BC8A8A",
"3 	c #C66767",
"4 	c #C36E6E",
"5 	c #B2AEAE",
"6 	c #CA5858",
"7 	c #B4A7A7",
"8 	c #BF7F7F",
"9 	c #C95A5A",
"0 	c #C07979",
"a 	c #BE8181",
"b 	c #C37171",
"c 	c #BD8585",
"d 	c #C17878",
"e 	c #C46C6C",
"f 	c #B3A8A8",
"g 	c #946464",
"h 	c #969696",
"i 	c #9C9C9C",
"j 	c #BD5757",
"k 	c #110707",
"l 	c #726B6B",
"m 	c #ABABAB",
"n 	c #737373",
"o 	c #2C2C2C",
"p 	c #000000",
"q 	c #8E8E8E",
"r 	c #7F7F7F",
"s 	c #080808",
"t 	c #6E6E6E",
"u 	c #0C0C0C",
"v 	c #A2A2A2",
"w 	c #4F4F4F",
"x 	c #212121",
"y 	c #ADADAD",
"z 	c #494949",
"A 	c #4B4B4B",
"B 	c #606060",
"C 	c #131313",
"D 	c #060606",
"E 	c #1D1D1D",
"F 	c #7D7D7D",
"G 	c #858585",
"H 	c #929292",
"I 	c #707070",
"J 	c #0F0F0F",
"K 	c #A0A0A0",
"L 	c #797979",
"M 	c #626262",
"N 	c #6C6C6C",
"O 	c #414141",
"P 	c #454545",
"Q 	c #2A2A2A",
"R 	c #434343",
"S 	c #7C7C7C",
"T 	c #5A5A5A",
"U 	c #121212",
"V 	c #2F2F2F",
"W 	c #141414",
"X 	c #686868",
"Y 	c #A9A9A9",
"Z 	c #818181",
"` 	c #5C5C5C",
" .	c #646464",
"..	c #2D2D2D",
"+.	c #050505",
"@.	c #151515",
"#.	c #575757",
"$.	c #636363",
"%.	c #555555",
"&.	c #6A6A6A",
"*.	c #3C3C3C",
"=.	c #111111",
"-.	c #666666",
";.	c #090909",
">.	c #515151",
",.	c #5B5B5B",
"'.	c #5F5F5F",
").	c #616161",
"!.	c #A5A5A5",
"~.	c #959595",
"                                                                ",
"        . + @ # $ % & * =                                       ",
"    = + - ; > & , ' ) ! ~ { ]                                   ",
"  ^ / ( _               : ^ <                                   ",
"  [ }                     ( |     . + @ # $ % & * =             ",
"  @ 1                   = / = = + - ; > & , ' ) ! ~ { ]         ",
"  2 3                   4 ; ^ / ( _               : ^ <         ",
"  5 6 7               8 9 . [ }                     ( |         ",
"    0 ) 7           a / :   @ 1                   = / =         ",
"    5 ' - b c d e ! 6 f     2 3                   4 ;           ",
"                            5 6 7               8 9 .           ",
"        . + @ # $ % & * =     0 ) 7           a / :             ",
"    = + - ; > & , ' ) ! ~ { ] 5 ' - b c d e ! 6 f               ",
"  ^ / ( _               : ^ <                                   ",
"  [ }                     ( |                                   ",
"  @ 1                   = / =                                   ",
"  2 3                   4 ;                                     ",
"  5 6 7               8 9 .                                     ",
"    0 ) 7           g / :                           h i         ",
"    5 ' - b c d e j k l                       m n o p q         ",
"                    r s h                   t u p p p v         ",
"                      w x y                 y z p p s           ",
"                      y x A                   B C D E           ",
"                        h s F               G D q H A           ",
"                          I J K L M       K J N                 ",
"                            O C p P     y Q R                   ",
"  S N N N N N N N N N N N T U p p x N N V W X N N N t Y         ",
"  Z `  . . . . . . . . .M ..+.p p @. .R D #. . . . .$.%.Y       ",
"    Z ` X &.&.&.&.&.&.&.&.&. .*.=.u -.;.A &.&.&.&.&.&.X %.Y     ",
"      Z ` X &.&.&.&.&.&.&.&.&.&.&.>.&.$.&.&.&.&.&.&.&.&.X %.    ",
"        Z ,.'.'.'.'.'.'.'.'.'.'.'.'.'.'.'.'.'.'.'.'.'.'.'.'.).  ",
"          !.~.~.~.~.~.~.~.~.~.~.~.~.~.~.~.~.~.~.~.~.~.~.~.~.    "};
