/* XPM */
static char * dynamica1_xpm[] = {
"32 32 476 2",
"  	c #B1B1B1",
". 	c #B0B0B0",
"+ 	c #AFAFAF",
"@ 	c #AAAAAA",
"# 	c #A8A8A8",
"$ 	c #ABABAB",
"% 	c #A6A6A6",
"& 	c #A9A9A9",
"* 	c #AAA9A7",
"= 	c #979288",
"- 	c #9B9B9B",
"; 	c #959595",
"> 	c #9F9F9F",
", 	c #625236",
"' 	c #402900",
") 	c #776C57",
"! 	c #ADADAD",
"~ 	c #A0A0A0",
"{ 	c #9A9A9A",
"] 	c #776C58",
"^ 	c #6A5C44",
"/ 	c #919190",
"( 	c #898989",
"_ 	c #908E8B",
": 	c #47320C",
"< 	c #5D4D2F",
"[ 	c #A5A5A5",
"} 	c #99948B",
"| 	c #B1B0B0",
"1 	c #9E9E9E",
"2 	c #8D8D8D",
"3 	c #8C8C8C",
"4 	c #756B5B",
"5 	c #62563F",
"6 	c #82817E",
"7 	c #736B5C",
"8 	c #49340F",
"9 	c #908F8E",
"0 	c #989898",
"a 	c #817969",
"b 	c #442E06",
"c 	c #48320C",
"d 	c #ABAAA7",
"e 	c #AEAEAE",
"f 	c #868686",
"g 	c #777267",
"h 	c #402901",
"i 	c #47330E",
"j 	c #432D05",
"k 	c #524122",
"l 	c #5B4B2F",
"m 	c #584626",
"n 	c #B0AFAF",
"o 	c #A7A7A7",
"p 	c #9B9893",
"q 	c #8E8A83",
"r 	c #7E7A74",
"s 	c #412A02",
"t 	c #72654E",
"u 	c #929292",
"v 	c #91908E",
"w 	c #503D1C",
"x 	c #422B03",
"y 	c #514020",
"z 	c #665A44",
"A 	c #564526",
"B 	c #48330D",
"C 	c #675940",
"D 	c #80786A",
"E 	c #918E88",
"F 	c #969595",
"G 	c #84817B",
"H 	c #70685A",
"I 	c #5D4F36",
"J 	c #47320D",
"K 	c #7D7463",
"L 	c #999999",
"M 	c #8A8A8A",
"N 	c #848382",
"O 	c #534224",
"P 	c #5D4C2D",
"Q 	c #8D8579",
"R 	c #939393",
"S 	c #776F63",
"T 	c #574627",
"U 	c #4C3815",
"V 	c #675942",
"W 	c #635438",
"X 	c #594727",
"Y 	c #625235",
"Z 	c #A2A2A2",
"` 	c #878787",
" .	c #817E79",
"..	c #47310C",
"+.	c #5D4C2E",
"@.	c #99948C",
"#.	c #909090",
"$.	c #79746B",
"%.	c #402A01",
"&.	c #9E9B94",
"*.	c #8F8F8F",
"=.	c #827B6F",
"-.	c #412A01",
";.	c #49340E",
">.	c #8E877A",
",.	c #9C9C9C",
"'.	c #8E8E8E",
").	c #767067",
"!.	c #503E1E",
"~.	c #4E3A16",
"{.	c #969086",
"].	c #A4A4A4",
"^.	c #979797",
"/.	c #949492",
"(.	c #776D5A",
"_.	c #6C5E45",
":.	c #9D9D9D",
"<.	c #949494",
"[.	c #767065",
"}.	c #514022",
"|.	c #3F2900",
"1.	c #46300A",
"2.	c #9F9B95",
"3.	c #ACACAC",
"4.	c #A1A1A1",
"5.	c #6E6556",
"6.	c #5D4E35",
"7.	c #4E3A17",
"8.	c #8A8274",
"9.	c #919191",
"0.	c #8B8B8B",
"a.	c #6F685B",
"b.	c #4D3C1C",
"c.	c #3E2800",
"d.	c #432E08",
"e.	c #63563F",
"f.	c #7A7160",
"g.	c #53401E",
"h.	c #45300A",
"i.	c #A09C97",
"j.	c #A3A3A3",
"k.	c #878786",
"l.	c #6B6354",
"m.	c #493615",
"n.	c #3C2700",
"o.	c #472600",
"p.	c #672A07",
"q.	c #923918",
"r.	c #B23610",
"s.	c #CC3102",
"t.	c #D54012",
"u.	c #B04012",
"v.	c #8C4118",
"w.	c #7A583B",
"x.	c #867D6E",
"y.	c #A6A4A0",
"z.	c #6F675B",
"A.	c #564629",
"B.	c #432C06",
"C.	c #3F2800",
"D.	c #9E9E9D",
"E.	c #838280",
"F.	c #675D4D",
"G.	c #44300F",
"H.	c #3B2600",
"I.	c #3A2500",
"J.	c #54280B",
"K.	c #762B12",
"L.	c #882000",
"M.	c #A02600",
"N.	c #B82B00",
"O.	c #CF3100",
"P.	c #E13B07",
"Q.	c #E44E1F",
"R.	c #E76036",
"S.	c #C9623C",
"T.	c #864B24",
"U.	c #4D3915",
"V.	c #8A8780",
"W.	c #4E3C1C",
"X.	c #7F7D77",
"Y.	c #7E7D7B",
"Z.	c #615644",
"`.	c #3F2D0A",
" +	c #392500",
".+	c #493819",
"++	c #674231",
"@+	c #5E1701",
"#+	c #701B00",
"$+	c #A32600",
"%+	c #BC2C00",
"&+	c #D43200",
"*+	c #E13E0B",
"=+	c #E45224",
"-+	c #E7653D",
";+	c #EA7652",
">+	c #EB8363",
",+	c #9B6241",
"'+	c #7F7F7F",
")+	c #838383",
"!+	c #4D3E22",
"~+	c #392400",
"{+	c #4D3F26",
"]+	c #3C2906",
"^+	c #382300",
"/+	c #372300",
"(+	c #4A3A1D",
"_+	c #787268",
":+	c #79615A",
"<+	c #4F1301",
"[+	c #5B1600",
"}+	c #731B00",
"|+	c #8D2100",
"1+	c #AA2800",
"2+	c #C32E00",
"3+	c #D93300",
"4+	c #E2410F",
"5+	c #E55427",
"6+	c #E86840",
"7+	c #EB7B58",
"8+	c #ED8B6D",
"9+	c #EE977C",
"0+	c #CBA89E",
"a+	c #969696",
"b+	c #888888",
"c+	c #797979",
"d+	c #737373",
"e+	c #5B5446",
"f+	c #372603",
"g+	c #352200",
"h+	c #342100",
"i+	c #4A3C23",
"j+	c #78746C",
"k+	c #877F7C",
"l+	c #542A1D",
"m+	c #4C1200",
"n+	c #5F1600",
"o+	c #7A1D00",
"p+	c #982400",
"q+	c #B32A00",
"r+	c #CA3000",
"s+	c #DD3400",
"t+	c #E24210",
"u+	c #E55326",
"v+	c #E8663E",
"w+	c #EE8E70",
"x+	c #F09D83",
"y+	c #E5A794",
"z+	c #BBAFAB",
"A+	c #848484",
"B+	c #6A6A69",
"C+	c #9D8100",
"D+	c #DCB600",
"E+	c #F7CC00",
"F+	c #F3C900",
"G+	c #EDC400",
"H+	c #E6BE00",
"I+	c #E0B900",
"J+	c #DBB500",
"K+	c #D8B300",
"L+	c #936800",
"M+	c #421000",
"N+	c #4E1200",
"O+	c #651800",
"P+	c #831F00",
"Q+	c #BD2D00",
"R+	c #D13100",
"S+	c #DF3500",
"T+	c #E45022",
"U+	c #E7633A",
"V+	c #EA7855",
"W+	c #F09F86",
"X+	c #F2AA94",
"Y+	c #CEAFA5",
"Z+	c #7B7B7B",
"`+	c #6B6B6B",
" @	c #666564",
".@	c #746000",
"+@	c #D1AC00",
"@@	c #F9CE03",
"#@	c #F4CA03",
"$@	c #EDC403",
"%@	c #E6BE03",
"&@	c #E0B903",
"*@	c #DBB503",
"=@	c #D8B303",
"-@	c #6D4101",
";@	c #431000",
">@	c #521300",
",@	c #6B1900",
"'@	c #8C2100",
")@	c #AB2900",
"!@	c #C52F00",
"~@	c #D53300",
"{@	c #E03500",
"]@	c #E13F0C",
"^@	c #E34B1C",
"/@	c #E65D33",
"(@	c #EA744F",
"_@	c #F0A087",
":@	c #F2AD97",
"<@	c #DFB1A3",
"[@	c #7D7D7D",
"}@	c #727272",
"|@	c #6E6E6E",
"1@	c #655300",
"2@	c #C9A500",
"3@	c #F8CC00",
"4@	c #F2C700",
"5@	c #EBC200",
"6@	c #E4BC00",
"7@	c #DEB700",
"8@	c #DAB400",
"9@	c #D7B100",
"0@	c #502300",
"a@	c #441000",
"b@	c #541400",
"c@	c #922300",
"d@	c #B12A00",
"e@	c #C93000",
"f@	c #D83300",
"g@	c #E13C09",
"h@	c #E34717",
"i@	c #E6592E",
"j@	c #E9704A",
"k@	c #ED896A",
"l@	c #F09E85",
"m@	c #EBB2A0",
"n@	c #818181",
"o@	c #787878",
"p@	c #C8A400",
"q@	c #F7CB00",
"r@	c #F1C600",
"s@	c #E9C000",
"t@	c #E2BA00",
"u@	c #DDB600",
"v@	c #D9B300",
"w@	c #3F1000",
"x@	c #551400",
"y@	c #711B00",
"z@	c #932300",
"A@	c #B22A00",
"B@	c #E34615",
"C@	c #E5562A",
"D@	c #E96D47",
"E@	c #ED8767",
"F@	c #F09C82",
"G@	c #F2AC96",
"H@	c #F2B19D",
"I@	c #808080",
"J@	c #747474",
"K@	c #F6CB00",
"L@	c #DCB500",
"M@	c #D6B000",
"N@	c #502200",
"O@	c #531400",
"P@	c #6E1A00",
"Q@	c #8F2200",
"R@	c #AF2900",
"S@	c #C72F00",
"T@	c #D63300",
"U@	c #E96C46",
"V@	c #EC8464",
"W@	c #EF9A7F",
"X@	c #F2A992",
"Y@	c #EBAF9D",
"Z@	c #6C4100",
"`@	c #410F00",
" #	c #4F1300",
".#	c #671800",
"+#	c #862000",
"@#	c #A52700",
"##	c #BF2D00",
"$#	c #DC3400",
"%#	c #E34616",
"&#	c #E5572B",
"*#	c #EC8363",
"=#	c #EF977C",
"-#	c #F1A48C",
";#	c #DEAB9C",
">#	c #926800",
",#	c #3F0F00",
"'#	c #4A1100",
")#	c #5E1600",
"!#	c #D73300",
"~#	c #E03804",
"{#	c #E5582C",
"]#	c #EC8160",
"^#	c #EE9276",
"/#	c #F09E84",
"(#	c #CEAA9F",
"_#	c #F9CD00",
":#	c #F4C900",
"<#	c #EDC300",
"[#	c #E6BD00",
"}#	c #E0B800",
"|#	c #DBB400",
"1#	c #D8B200",
"2#	c #C09800",
"3#	c #5C2F08",
"4#	c #451000",
"5#	c #6C1A00",
"6#	c #A32700",
"7#	c #BB2C00",
"8#	c #CE3100",
"9#	c #E24413",
"0#	c #E86942",
"a#	c #EB7C59",
"b#	c #E39A84",
"c#	c #BBADA9",
"d#	c #828282",
"e#	c #767676",
"f#	c #C9A600",
"g#	c #FACE00",
"h#	c #F0C600",
"i#	c #E3BB00",
"j#	c #9B7318",
"k#	c #451101",
"l#	c #4D1200",
"m#	c #601700",
"n#	c #781C00",
"o#	c #AC2900",
"p#	c #C22E00",
"q#	c #E45123",
"r#	c #E7643B",
"s#	c #EA7450",
"t#	c #EC8262",
"u#	c #C9A194",
"v#	c #CAA600",
"w#	c #FCD000",
"x#	c #F3C800",
"y#	c #E8BF00",
"z#	c #DABA29",
"A#	c #916D34",
"B#	c #4D1301",
"C#	c #591500",
"D#	c #9E2500",
"E#	c #B62B00",
"F#	c #CD3000",
"G#	c #E03702",
"H#	c #E34A1A",
"I#	c #E65C31",
"J#	c #E86D46",
"K#	c #CC9482",
"L#	c #6E5B00",
"M#	c #F6CA00",
"N#	c #DAB300",
"O#	c #DEBD20",
"P#	c #DDC65E",
"Q#	c #7C635B",
"R#	c #662E1D",
"S#	c #691900",
"T#	c #7E1E00",
"U#	c #952300",
"V#	c #AD2900",
"W#	c #DA3400",
"X#	c #DA6440",
"Y#	c #C6907F",
"Z#	c #8A7200",
"`#	c #C4A100",
" $	c #DFB700",
".$	c #DCB400",
"+$	c #D5AF00",
"@$	c #D0AB00",
"#$	c #CDA800",
"$$	c #E4BC01",
"%$	c #E2C53B",
"&$	c #948884",
"*$	c #896357",
"=$	c #8A4632",
"-$	c #963214",
";$	c #A92902",
">$	c #BC3C14",
",$	c #C75735",
"'$	c #C57B64",
")$	c #B79F98",
"                                                                ",
"              . . .     + @ # $ .                               ",
"            . @ % & * = @ - ; > , ' ) + + .                     ",
"            ! ~ ; { ] ' ^ / ( _ : ' < [ [ ! } = |               ",
"            ! 1 2 3 4 ' ' 5 6 7 ' ' 8 9 0 a b c d               ",
"    . . . . e ~ 2 f g h ' ' i j ' ' h k l ' ' m n               ",
"    e o [ o p q 3 f r s ' ' ' ' ' ' ' ' ' ' ' t                 ",
"  . & { u v w x y z A ' B C D E F G H I J ' ' K $ +             ",
"  . & L M N O ' ' ' ' P Q . + ! # > R 3 S T ' U V W X Y *       ",
"    e Z u `  ...' ' +.@.        . $ ~ #.( $.O ' ' ' ' %.&.      ",
"    . $ - 3 *.=.-.;.>.      . + ! % ,.'.f ).!.' ' ' ~.{.        ",
". ! @ ].^.'./.(.%._.  . . + $ [ :.<.2 [.}.|.' s ' 1.2.          ",
"3.4.0 u 5.6.7.' ' 8.. + @ ].{ 9.0.a.b.c.c.d.e.f.' g..           ",
"@ L 2 ` h.' ' ' ' i.@ j.L #.k.l.m.n.o.p.q.r.s.t.u.v.w.x.y.      ",
"3.4.; 3 z.A.B.C.C.D.^.3 E.F.G.H.I.J.K.L.M.N.O.P.Q.R.S.T.U.      ",
"! & ].L M ( V.W.n.X.Y.Z.`.I. +.+++@+#+L.$+%+&+*+=+-+;+>+,+      ",
"$ # ].L f '+)+!+~+{+]+^+/+(+_+:+<+[+}+|+1+2+3+4+5+6+7+8+9+0+    ",
"o 4.a+b+c+d+e+f+g+h+h+i+j+9.k+l+m+n+o+p+q+r+s+t+u+v+7+w+x+y+z+  ",
"Z a+A+d+B+C+D+E+F+G+H+I+J+K+L+M+N+O+P+$+Q+R+S+4+T+U+V+w+W+X+Y+  ",
"1 *.Z+`+ @.@+@@@#@$@%@&@*@=@-@;@>@,@'@)@!@~@{@]@^@/@(@8+_@:@<@  ",
"- 2 [@}@|@1@2@3@4@5@6@7@8@9@0@a@b@#+c@d@e@f@{@g@h@i@j@k@l@:@m@  ",
"L 0.n@o@d+1@p@q@r@s@t@u@v@9@w@a@x@y@z@A@r+3+{@P.B@C@D@E@F@G@H@  ",
"^.0.I@c+J@1@p@K@r@s@t@L@v@M@N@M+O@P@Q@R@S@T@S+P.B@C@U@V@W@X@Y@  ",
"^.0.I@c+J@1@p@q@r@s@t@u@v@9@Z@`@ #.#+#@###R+$#P.%#&#U@*#=#-#;#  ",
"^.0.I@c+J@1@2@3@4@5@6@7@8@9@>#,#'#)#o+p+q+S@!#~#%#{#U@]#^#/#(#  ",
"^.0.I@c+J@1@2@_#:#<#[#}#|#1#2#3#4#b@5#L.6#7#8#S+9#C@0#a#8+b#c#  ",
"L 3 d#Z+e#1@f#g#K@h#s@i#7@|#1#j#k#l#m#n#z@o#p#T@]@q#r#s#t#u#    ",
"- *.f I@Z+1@v#w#3@x#<#y#t@7@|#z#A#B#C#P@+#D#E#F#G#H#I#J#K#      ",
"1 <.3 f d#L#2@M#x#h#5@H+t@u@N#O#P#Q#R#S#T#U#V#2+W#t+X#Y#.       ",
"Z { <.*.3 Z#`# $u@.$1#+$@$#$v#$$%$:.&$*$=$-$;$>$,$'$)$.         ",
"o Z 1 - L ^.^.^.a+^.0 L { :.> ~ 4.Z Z j.[ o & $ e + .           ",
"$ # [ ].Z Z Z Z 4.4.Z Z j.[ % % % o o # & $ 3.e + . .           "};
