/* XPM */
static char * dynamicaCreateActivePlaneRBArray_xpm[] = {
"32 32 31 1",
" 	c #B1B1B1",
".	c #928787",
"+	c #8B7D7D",
"@	c #8C7E7E",
"#	c #8C7D7D",
"$	c #8F8181",
"%	c #969696",
"&	c #8D7E7E",
"*	c #AE4141",
"=	c #CB1E1E",
"-	c #CC1D1D",
";	c #AC4444",
">	c #8D7F7F",
",	c #ADADAD",
"'	c #7F7B7B",
")	c #E30101",
"!	c #E40000",
"~	c #946666",
"{	c #959090",
"]	c #948D8D",
"^	c #9C5C5C",
"/	c #DE0707",
"(	c #807B7B",
"_	c #7D7B7B",
":	c #986161",
"<	c #956565",
"[	c #996060",
"}	c #7F7A7A",
"|	c #AFAFAF",
"1	c #A1A1A1",
"2	c #A2A2A2",
"                                ",
"                                ",
"                                ",
"                                ",
"                                ",
"                                ",
"                                ",
"                                ",
"  .+@@@@@@@@@@@#$%              ",
"  &*===========-;>              ",
"  ,')!!!!!!!!!!!!~{             ",
"   ]^!!!!!!!!!!!!/(             ",
"    _:<<<<<<<<<<<[}|            ",
"     1222222222221|             ",
"             .+@@@@@@@@@@@#$%   ",
"             &*===========-;>   ",
"             ,')!!!!!!!!!!!!~{  ",
"              ]^!!!!!!!!!!!!/(  ",
"               _:<<<<<<<<<<<[}| ",
"                1222222222221|  ",
"   .+@@@@@@@@@@@#$%             ",
"   &*===========-;>             ",
"   ,')!!!!!!!!!!!!~{            ",
"    ]^!!!!!!!!!!!!/(            ",
"     _:<<<<<<<<<<<[}|           ",
"      1222222222221|            ",
"                                ",
"                                ",
"                                ",
"                                ",
"                                ",
"                                "};
