/* XPM */
static char * dynamicaCreatePassiveHullRB_xpm[] = {
"32 32 124 2",
"  	c #B1B1B1",
". 	c #9D9D9D",
"+ 	c #989898",
"@ 	c #A4A4A4",
"# 	c #ABABAB",
"$ 	c #838383",
"% 	c #565656",
"& 	c #5D5D5D",
"* 	c #575757",
"= 	c #525252",
"- 	c #636363",
"; 	c #6E6E6E",
"> 	c #797979",
", 	c #8B8B8B",
"' 	c #979797",
") 	c #A2A2A2",
"! 	c #A9A9A9",
"~ 	c #7C7C7C",
"{ 	c #5A5A5A",
"] 	c #747474",
"^ 	c #727272",
"/ 	c #B3B3B3",
"( 	c #919191",
"_ 	c #8C8C8C",
": 	c #939393",
"< 	c #888888",
"[ 	c #787878",
"} 	c #696969",
"| 	c #5E5E5E",
"1 	c #626262",
"2 	c #6D6D6D",
"3 	c #8F8F8F",
"4 	c #959595",
"5 	c #ACACAC",
"6 	c #A7A7A7",
"7 	c #7A7A7A",
"8 	c #595959",
"9 	c #ADADAD",
"0 	c #828282",
"a 	c #AFAFAF",
"b 	c #C2C2C2",
"c 	c #858585",
"d 	c #8E8E8E",
"e 	c #A8A8A8",
"f 	c #9F9F9F",
"g 	c #949494",
"h 	c #606060",
"i 	c #A5A5A5",
"j 	c #808080",
"k 	c #818181",
"l 	c #BBBBBB",
"m 	c #AAAAAA",
"n 	c #8D8D8D",
"o 	c #C0C0C0",
"p 	c #5F5F5F",
"q 	c #848484",
"r 	c #9B9B9B",
"s 	c #9C9C9C",
"t 	c #B0B0B0",
"u 	c #BCBCBC",
"v 	c #868686",
"w 	c #5C5C5C",
"x 	c #767676",
"y 	c #969696",
"z 	c #B6B6B6",
"A 	c #C1C1C1",
"B 	c #B5B5B5",
"C 	c #7F7F7F",
"D 	c #707070",
"E 	c #7B7B7B",
"F 	c #B7B7B7",
"G 	c #8A8A8A",
"H 	c #9E9E9E",
"I 	c #444444",
"J 	c #1F1F1F",
"K 	c #383838",
"L 	c #2E2E2E",
"M 	c #414141",
"N 	c #6B6B6B",
"O 	c #484848",
"P 	c #3F3F3F",
"Q 	c #6A6A6A",
"R 	c #999999",
"S 	c #646464",
"T 	c #7E7E7E",
"U 	c #4F4F4F",
"V 	c #4A4A4A",
"W 	c #373737",
"X 	c #545454",
"Y 	c #161616",
"Z 	c #000000",
"` 	c #6C6C6C",
" .	c #7D7D7D",
"..	c #BFBFBF",
"+.	c #030303",
"@.	c #151515",
"#.	c #B9B9B9",
"$.	c #BDBDBD",
"%.	c #585858",
"&.	c #A3A3A3",
"*.	c #202020",
"=.	c #B4B4B4",
"-.	c #515151",
";.	c #0C0C0C",
">.	c #686868",
",.	c #717171",
"'.	c #080808",
").	c #BABABA",
"!.	c #A0A0A0",
"~.	c #181818",
"{.	c #737373",
"].	c #0E0E0E",
"^.	c #676767",
"/.	c #323232",
"(.	c #363636",
"_.	c #474747",
":.	c #020202",
"<.	c #666666",
"[.	c #909090",
"}.	c #5B5B5B",
"|.	c #555555",
"1.	c #292929",
"2.	c #212121",
"3.	c #2F2F2F",
"                                                                ",
"                                                                ",
"                                                                ",
"                                                                ",
"                                                                ",
"                                                                ",
"                        . + @                                   ",
"                    # $ % & * = - ; > , ' )                     ",
"                ! ~ { ] ^ ! / ( _ : < [ } | = 1 2 [ , 3 4 5     ",
"            6 7 8 7 6 9 0 a b , 0 $ c < d e   f g 7 h | * & 5   ",
"        i [ { j @ ( k [ < a b l a 9 m e f n     f ~ / o p ; 5   ",
"      a & q r 4 > s t u b b b b b b b b b v r   c # b k w 5     ",
"      @ { x < y z b b b b b b b b b b b b t k # 7 A B | d       ",
"      ( | e C } D ; E + F b b b b b b b b b G n r b _ { a       ",
"    H I J K L M N ; p O P Q a b b b b b b b / R A b S T         ",
"    G U V + 0 : b b b b i p W 9 ; o b b b b b b b m X 5         ",
"        7 1 t a b b b b b b E Y Z ^ b b b b b b b Q `           ",
"        t {  ...b b b b b b E +.Z @.#.b b b b $.E %.i     9 E a ",
"          $ Q &.b b b b b b > *.Z Z h b b b =.; 8 )   + -.;.>.  ",
"          e * < b b b b b b b b ,.;.'.9 b ).D %.!.k L Z Z ~.a   ",
"            ^ D R b b b b b b b b x *.{.).{.* H   _ ].Z Z j     ",
"            f ^.{ {.  b b b b b b b j /.(._.R   ' ^.'.:.M       ",
"                s <.% x + [.G C ^ ^.}.|.L 1.J 2.3.= s <.i       ",
"                    s } = | 1 N ] 0 g H a     5 t               ",
"                                                                ",
"                                                                ",
"                                                                ",
"                                                                ",
"                                                                ",
"                                                                ",
"                                                                ",
"                                                                "};
