/* XPM */
static char * dynamicaCreatePassivePlaneRB_xpm[] = {
"32 32 73 1",
" 	c #B1B1B1",
".	c #A2A2A2",
"+	c #848484",
"@	c #707070",
"#	c #666666",
"$	c #656565",
"%	c #8B8B8B",
"&	c #A7A7A7",
"*	c #9E9E9E",
"=	c #3D3D3D",
"-	c #343434",
";	c #454545",
">	c #595959",
",	c #626262",
"'	c #646464",
")	c #575757",
"!	c #414141",
"~	c #3A3A3A",
"{	c #606060",
"]	c #A0A0A0",
"^	c #8A8A8A",
"/	c #8C8C8C",
"(	c #ADADAD",
"_	c #979797",
":	c #323232",
"<	c #AFAFAF",
"[	c #7C7C7C",
"}	c #6C6C6C",
"|	c #0C0C0C",
"1	c #000000",
"2	c #404040",
"3	c #6E6E6E",
"4	c #A9A9A9",
"5	c #818181",
"6	c #5C5C5C",
"7	c #010101",
"8	c #0B0B0B",
"9	c #5F5F5F",
"0	c #636363",
"a	c #555555",
"b	c #7B7B7B",
"c	c #686868",
"d	c #6A6A6A",
"e	c #424242",
"f	c #111111",
"g	c #272727",
"h	c #3E3E3E",
"i	c #070707",
"j	c #050505",
"k	c #4D4D4D",
"l	c #1B1B1B",
"m	c #5B5B5B",
"n	c #0F0F0F",
"o	c #383838",
"p	c #4B4B4B",
"q	c #616161",
"r	c #A5A5A5",
"s	c #959595",
"t	c #676767",
"u	c #2F2F2F",
"v	c #484848",
"w	c #797979",
"x	c #919191",
"y	c #7F7F7F",
"z	c #565656",
"A	c #020202",
"B	c #363636",
"C	c #1F1F1F",
"D	c #212121",
"E	c #525252",
"F	c #9C9C9C",
"G	c #ACACAC",
"H	c #B0B0B0",
"                                ",
"                                ",
"                                ",
"                                ",
"                                ",
"                                ",
"                                ",
"                                ",
"                                ",
"                                ",
"                                ",
"                                ",
"                                ",
"     .+@#$@%&                   ",
"  *$=-;>,')!~{]                 ",
"  ^)/(      _):*'<              ",
" [}}}}}}}}}}}};|12}}}}}}}}34    ",
" 56'''''''''''27189'''''''0a4(b<",
"  56cdddddddddef11-dddddddd>g|c ",
"   56cddddddddddhij9dddddkl11|< ",
"    5m99999999999~no99999pi11;q ",
"     rsssssssssssstuvwxsyziABs  ",
"                   ]{uCDuEF#r   ",
"                       GH       ",
"                                ",
"                                ",
"                                ",
"                                ",
"                                ",
"                                ",
"                                ",
"                                "};
