/* XPM */
static char * dynamicaCreateActiveSphereRB_xpm[] = {
"32 32 194 2",
"  	c #B1B1B1",
". 	c #B2AFAF",
"+ 	c #BAA2A2",
"@ 	c #BD9C9C",
"# 	c #BC9A9A",
"$ 	c #BB9696",
"% 	c #B69E9E",
"& 	c #B5ACAC",
"* 	c #C69696",
"= 	c #D18686",
"- 	c #D18181",
"; 	c #CF7E7E",
"> 	c #CC7777",
", 	c #C96D6D",
"' 	c #C46161",
") 	c #BE5A5A",
"! 	c #B57878",
"~ 	c #B1ABAB",
"{ 	c #BEA2A2",
"] 	c #D28989",
"^ 	c #D38787",
"/ 	c #D28484",
"( 	c #CE7C7C",
"_ 	c #CB7474",
": 	c #C76969",
"< 	c #C25A5A",
"[ 	c #BB4848",
"} 	c #B43434",
"| 	c #AC2D2D",
"1 	c #AE8D8D",
"2 	c #C19E9E",
"3 	c #D38888",
"4 	c #D08080",
"5 	c #CE7A7A",
"6 	c #CA7070",
"7 	c #C56363",
"8 	c #BE5151",
"9 	c #B63B3B",
"0 	c #AE2323",
"a 	c #A40A0A",
"b 	c #A20707",
"c 	c #AD8686",
"d 	c #BAA6A6",
"e 	c #D48989",
"f 	c #D28686",
"g 	c #D18383",
"h 	c #CC7676",
"i 	c #C86A6A",
"j 	c #C25B5B",
"k 	c #BA4545",
"l 	c #B02A2A",
"m 	c #A60E0E",
"n 	c #A10101",
"o 	c #A20F0F",
"p 	c #AF9E9E",
"q 	c #CE8E8E",
"r 	c #C96E6E",
"s 	c #BE4F4F",
"t 	c #B43535",
"u 	c #A81414",
"v 	c #A74343",
"w 	c #BDA2A2",
"x 	c #CB7272",
"y 	c #C56262",
"z 	c #BF5353",
"A 	c #B73E3E",
"B 	c #AC1F1F",
"C 	c #A10303",
"D 	c #AF9C9C",
"E 	c #C89494",
"F 	c #CF7D7D",
"G 	c #C66565",
"H 	c #B73D3D",
"I 	c #AE2525",
"J 	c #AA6666",
"K 	c #CC8989",
"L 	c #D18282",
"M 	c #C76767",
"N 	c #BE5050",
"O 	c #AC1E1E",
"P 	c #A20404",
"Q 	c #A74545",
"R 	c #CF8282",
"S 	c #C15858",
"T 	c #B73C3C",
"U 	c #AB1B1B",
"V 	c #A20505",
"W 	c #A63535",
"X 	c #CC7F7F",
"Y 	c #C35D5D",
"Z 	c #BC4A4A",
"` 	c #B02B2B",
" .	c #A63939",
"..	c #C87F7F",
"+.	c #C86C6C",
"@.	c #BD4C4C",
"#.	c #A71111",
"$.	c #A84949",
"%.	c #BF8888",
"&.	c #C45F5F",
"*.	c #C05656",
"=.	c #A91717",
"-.	c #AB7373",
";.	c #B69C9C",
">.	c #BA4444",
",.	c #B33232",
"'.	c #AA1919",
").	c #A20909",
"!.	c #B0A9A9",
"~.	c #BA6767",
"{.	c #B84040",
"].	c #B23030",
"^.	c #A95A5A",
"/.	c #B29F9F",
"(.	c #B23636",
"_.	c #A20303",
":.	c #A42222",
"<.	c #B0ABAB",
"[.	c #AF8C8C",
"}.	c #A40E0E",
"|.	c #A31A1A",
"1.	c #AE9292",
"2.	c #A41E1E",
"3.	c #B0A5A5",
"4.	c #B1AFAF",
"5.	c #AB6B6B",
"6.	c #A52C2C",
"7.	c #7D0101",
"8.	c #A63737",
"9.	c #AD8383",
"0.	c #969696",
"a.	c #9C9C9C",
"b.	c #A48686",
"c.	c #0E0C0C",
"d.	c #6F5B5B",
"e.	c #ABABAB",
"f.	c #737373",
"g.	c #2C2C2C",
"h.	c #000000",
"i.	c #8E8E8E",
"j.	c #7F7F7F",
"k.	c #080808",
"l.	c #6E6E6E",
"m.	c #0C0C0C",
"n.	c #A2A2A2",
"o.	c #4F4F4F",
"p.	c #212121",
"q.	c #ADADAD",
"r.	c #494949",
"s.	c #4B4B4B",
"t.	c #606060",
"u.	c #131313",
"v.	c #060606",
"w.	c #1D1D1D",
"x.	c #7D7D7D",
"y.	c #858585",
"z.	c #929292",
"A.	c #707070",
"B.	c #0F0F0F",
"C.	c #A0A0A0",
"D.	c #797979",
"E.	c #626262",
"F.	c #6C6C6C",
"G.	c #414141",
"H.	c #454545",
"I.	c #2A2A2A",
"J.	c #434343",
"K.	c #7C7C7C",
"L.	c #5A5A5A",
"M.	c #121212",
"N.	c #2F2F2F",
"O.	c #141414",
"P.	c #686868",
"Q.	c #A9A9A9",
"R.	c #818181",
"S.	c #5C5C5C",
"T.	c #646464",
"U.	c #2D2D2D",
"V.	c #050505",
"W.	c #151515",
"X.	c #575757",
"Y.	c #636363",
"Z.	c #555555",
"`.	c #6A6A6A",
" +	c #3C3C3C",
".+	c #111111",
"++	c #666666",
"@+	c #090909",
"#+	c #515151",
"$+	c #5B5B5B",
"%+	c #5F5F5F",
"&+	c #616161",
"*+	c #A5A5A5",
"=+	c #959595",
"              . + @ # $ %                                       ",
"          & * = - ; > , ' ) ! ~                                 ",
"        { ] ^ / - ( _ : < [ } | 1                               ",
"      2 3 3 ^ / 4 5 6 7 8 9 0 a b c                             ",
"    d e 3 3 f g ; h i j k l m n n o p                           ",
"    q 3 3 ^ / 4 5 r ' s t u n n n n v                           ",
"  w 3 ^ ^ / - ( x y z A B n n n n n C D                         ",
"  E f f / - F _ G s H I n n n n n n n J                         ",
"  K g L 4 ( _ M N } O P n n n n n n n Q                         ",
"  R 4 ; 5 _ : S T U V n n n n n n n n W                         ",
"  X 5 > x i Y Z ` a n n n n n n n n n  .                        ",
"  ..x +.G j @.t #.n n n n n n n n n n $.                        ",
"  %.M &.*.[ } =.n n n n n n n n n n n -.                        ",
"  ;.j 8 >.,.'.n n n n n n n n n n n ).!.                        ",
"    ~.{.].U n n n n n n n n n n n n ^.                          ",
"    /.(.U _.n n n n n n n n n n n :.<.                          ",
"      [.}.n n n n n n n n n n n |.p                             ",
"        1.2.n n n n n n n n n W 3.                              ",
"          4.5.6.n n 7.n b 8.9.                      0.a.        ",
"                <.b.c.d.                      e.f.g.h.i.        ",
"                    j.k.0.                  l.m.h.h.h.n.        ",
"                      o.p.q.                q.r.h.h.k.          ",
"                      q.p.s.                  t.u.v.w.          ",
"                        0.k.x.              y.v.i.z.s.          ",
"                          A.B.C.D.E.      C.B.F.                ",
"                            G.u.h.H.    q.I.J.                  ",
"  K.F.F.F.F.F.F.F.F.F.F.F.L.M.h.h.p.F.F.N.O.P.F.F.F.l.Q.        ",
"  R.S.T.T.T.T.T.T.T.T.T.E.U.V.h.h.W.T.J.v.X.T.T.T.T.Y.Z.Q.      ",
"    R.S.P.`.`.`.`.`.`.`.`.`.T. +.+m.++@+s.`.`.`.`.`.`.P.Z.Q.    ",
"      R.S.P.`.`.`.`.`.`.`.`.`.`.`.#+`.Y.`.`.`.`.`.`.`.`.P.Z.    ",
"        R.$+%+%+%+%+%+%+%+%+%+%+%+%+%+%+%+%+%+%+%+%+%+%+%+%+&+  ",
"          *+=+=+=+=+=+=+=+=+=+=+=+=+=+=+=+=+=+=+=+=+=+=+=+=+    "};
