/* XPM */
static char * dynamicaCreateActivePlaneRB_xpm[] = {
"32 32 20 1",
" 	c #B1B1B1",
".	c #958F8F",
"+	c #8F8181",
"@	c #908383",
"#	c #ACACAC",
"$	c #969595",
"%	c #8B7171",
"&	c #C52525",
"*	c #C22828",
"=	c #7C7C7C",
"-	c #8A7272",
";	c #DC0909",
">	c #E40000",
",	c #DB0B0B",
"'	c #887373",
")	c #867575",
"!	c #986161",
"~	c #887B7B",
"{	c #AAAAAA",
"]	c #A1A1A1",
"                                ",
"                                ",
"                                ",
"                                ",
"                                ",
"                                ",
"                                ",
"                                ",
"                                ",
"                                ",
"                                ",
"                                ",
"                                ",
"                                ",
" .++++++++++++++++++++++++@#    ",
" $%&&&&&&&&&&&&&&&&&&&&&&&*=#   ",
"  $-;>>>>>>>>>>>>>>>>>>>>>>,=#  ",
"   $';>>>>>>>>>>>>>>>>>>>>>>,=  ",
"    $)!!!!!!!!!!!!!!!!!!!!!!!!~ ",
"     {]]]]]]]]]]]]]]]]]]]]]]]]  ",
"                                ",
"                                ",
"                                ",
"                                ",
"                                ",
"                                ",
"                                ",
"                                ",
"                                ",
"                                ",
"                                ",
"                                "};
