/* XPM */
static char * dynamicaCreatePassiveMeshRBArray_xpm[] = {
"32 32 93 2",
"  	c #B1B1B1",
". 	c #898989",
"+ 	c #616161",
"@ 	c #ACACAC",
"# 	c #AEAEAE",
"$ 	c #A3A3A3",
"% 	c #A7A7A7",
"& 	c #8A8A8A",
"* 	c #525252",
"= 	c #656565",
"- 	c #565656",
"; 	c #515151",
"> 	c #8E8E8E",
", 	c #545454",
"' 	c #9C9C9C",
") 	c #868686",
"! 	c #535353",
"~ 	c #5A5A5A",
"{ 	c #606060",
"] 	c #686868",
"^ 	c #676767",
"/ 	c #646464",
"( 	c #909090",
"_ 	c #585858",
": 	c #636363",
"< 	c #A0A0A0",
"[ 	c #989898",
"} 	c #555555",
"| 	c #5B5B5B",
"1 	c #696969",
"2 	c #626262",
"3 	c #707070",
"4 	c #595959",
"5 	c #666666",
"6 	c #A8A8A8",
"7 	c #5D5D5D",
"8 	c #808080",
"9 	c #979797",
"0 	c #575757",
"a 	c #505050",
"b 	c #AFAFAF",
"c 	c #5F5F5F",
"d 	c #787878",
"e 	c #A2A2A2",
"f 	c #848484",
"g 	c #2D2D2D",
"h 	c #393939",
"i 	c #4C4C4C",
"j 	c #7B7B7B",
"k 	c #B0B0B0",
"l 	c #9E9E9E",
"m 	c #3D3D3D",
"n 	c #343434",
"o 	c #454545",
"p 	c #444444",
"q 	c #282828",
"r 	c #222222",
"s 	c #3C3C3C",
"t 	c #717171",
"u 	c #9D9D9D",
"v 	c #8C8C8C",
"w 	c #ADADAD",
"x 	c #323232",
"y 	c #878787",
"z 	c #303030",
"A 	c #0D0D0D",
"B 	c #000000",
"C 	c #020202",
"D 	c #090909",
"E 	c #6E6E6E",
"F 	c #171717",
"G 	c #4D4D4D",
"H 	c #0C0C0C",
"I 	c #3A3A3A",
"J 	c #030303",
"K 	c #040404",
"L 	c #5E5E5E",
"M 	c #424242",
"N 	c #1F1F1F",
"O 	c #181818",
"P 	c #4B4B4B",
"Q 	c #353535",
"R 	c #0E0E0E",
"S 	c #2C2C2C",
"T 	c #6B6B6B",
"U 	c #7D7D7D",
"V 	c #080808",
"W 	c #414141",
"X 	c #2F2F2F",
"Y 	c #212121",
"Z 	c #A5A5A5",
"` 	c #8B8B8B",
" .	c #6D6D6D",
"                                                                ",
"                                                                ",
"                                                                ",
"                                                                ",
"                                                                ",
"                      . + . @ #       $ $                       ",
"                  % & * = - ; ; &   > , , $                     ",
"              ' ) ! ~ { ] ^ = / - ( _ : , <                     ",
"            [ } | = 1 1 1 1 1 1 2 ; : ~ &                       ",
"            3 + 4 5 1 1 1 1 1 1 ] 2 ^ * 6                       ",
"            [ } { ] 1 1 1 1 1 1 1 1 7 8                         ",
"              9 0 1 1 1 1 1 1 1 1 ~ a 6                         ",
"              b a c 1 1 1 1 1 ] ~ d     . + . @ #       $ $     ",
"          e f 3 | g h i 7 + 7 } j k % & * = - ; ; &   > , , $   ",
"    l = m n o 4 2 / p q r s t u ' ) ! ~ { ] ^ = / - ( _ : , <   ",
"    & 0 v w             9 0 x y z ~ = 1 1 1 1 1 1 2 ; : ~ &     ",
"                            3 A B n 5 1 1 1 1 1 1 ] 2 ^ * 6     ",
"                . + . @ #   3 C B D : 1 1 1 1 1 1 1 1 7 8 w j b ",
"            % & * = - ; ; & E F B B z 1 1 1 1 1 1 1 ~ o G H ]   ",
"        ' ) ! ~ { ] ^ = / - ( _ I J K L 1 1 1 1 ] M N B B O b   ",
"      [ } | = 1 1 1 1 1 1 2 ; : ~ P A Q + : + 7 } + R B B 8     ",
"      3 + 4 5 1 1 1 1 1 1 ] 2 ^ * 6 j S Q } T U ) ^ V C W       ",
"      [ } { ] 1 1 1 1 1 1 1 1 7 8     < { X N Y X * ' 5 Z       ",
"        9 0 1 1 1 1 1 1 1 1 ~ a 6             @ k               ",
"        b a c 1 1 1 1 1 ] ~ d                                   ",
"          u a ~ + : + 7 } j k                                   ",
"              `  .1 E U u                                       ",
"                                                                ",
"                                                                ",
"                                                                ",
"                                                                ",
"                                                                "};
