/* XPM */
static char * dynamicaCreateActiveSphereRBArray_xpm[] = {
"32 32 99 2",
"  	c #B1B1B1",
". 	c #B69C9C",
"+ 	c #B99292",
"@ 	c #BE7B7B",
"# 	c #D13232",
"$ 	c #D81515",
"% 	c #D51F1F",
"& 	c #D61B1B",
"* 	c #C46464",
"= 	c #BB8989",
"- 	c #D90F0F",
"; 	c #BD7F7F",
"> 	c #B89696",
", 	c #C56262",
"' 	c #CD4141",
") 	c #C17070",
"! 	c #B79898",
"~ 	c #DC0202",
"{ 	c #B2AFAF",
"] 	c #DB0808",
"^ 	c #B3A9A9",
"/ 	c #B5A2A2",
"( 	c #D71717",
"_ 	c #B79A9A",
": 	c #C85555",
"< 	c #C65C5C",
"[ 	c #BD8181",
"} 	c #D13030",
"| 	c #B69E9E",
"1 	c #B4A5A5",
"2 	c #C26E6E",
"3 	c #DA0A0A",
"4 	c #BF7979",
"5 	c #DA0C0C",
"6 	c #CC4343",
"7 	c #BA8C8C",
"8 	c #898989",
"9 	c #969696",
"0 	c #9C9C9C",
"a 	c #A7A7A7",
"b 	c #0F0F0F",
"c 	c #707070",
"d 	c #ABABAB",
"e 	c #737373",
"f 	c #2C2C2C",
"g 	c #000000",
"h 	c #8E8E8E",
"i 	c #7F7F7F",
"j 	c #080808",
"k 	c #6E6E6E",
"l 	c #0C0C0C",
"m 	c #A2A2A2",
"n 	c #4F4F4F",
"o 	c #212121",
"p 	c #ADADAD",
"q 	c #494949",
"r 	c #4B4B4B",
"s 	c #606060",
"t 	c #131313",
"u 	c #060606",
"v 	c #1D1D1D",
"w 	c #7D7D7D",
"x 	c #858585",
"y 	c #929292",
"z 	c #A0A0A0",
"A 	c #797979",
"B 	c #626262",
"C 	c #6C6C6C",
"D 	c #414141",
"E 	c #454545",
"F 	c #2A2A2A",
"G 	c #434343",
"H 	c #7C7C7C",
"I 	c #5A5A5A",
"J 	c #121212",
"K 	c #2F2F2F",
"L 	c #141414",
"M 	c #686868",
"N 	c #A9A9A9",
"O 	c #818181",
"P 	c #5C5C5C",
"Q 	c #646464",
"R 	c #2D2D2D",
"S 	c #050505",
"T 	c #151515",
"U 	c #575757",
"V 	c #636363",
"W 	c #555555",
"X 	c #6A6A6A",
"Y 	c #3C3C3C",
"Z 	c #111111",
"` 	c #666666",
" .	c #090909",
"..	c #515151",
"+.	c #5B5B5B",
"@.	c #5F5F5F",
"#.	c #616161",
"$.	c #A5A5A5",
"%.	c #959595",
"                                                                ",
"        . +                 . +                                 ",
"    @ # $ % & *         @ # $ % & *                             ",
"  = - ;     > % ,     = - ;     > % ,                           ",
"  ' )         ! ~ {   ' )         ! ~ {                         ",
"  ] ^           % +   ] ^           % +                         ",
"  - /           ( _   - /           ( _                         ",
"  : <         [ }     : <         [ }                           ",
"  | ~ : . 1 2 3 4     | ~ : . 1 2 3 4                           ",
"    1 < $ 5 6 7         1 < $ 5 6 7                             ",
"        . +                 . +                                 ",
"    @ # $ % & *         @ # $ % & *                             ",
"  = - ;     > % ,     = - ;     > % ,                           ",
"  ' )         ! ~ {   ' )         ! ~ {                         ",
"  ] ^           % +   ] ^           % +                         ",
"  - /           ( _   - /           ( _                         ",
"  : <         [ }     : <         [ }                           ",
"  | ~ : . 1 2 3 4     | ~ : . 1 2 3 4                           ",
"    1 < $ 5 6 7     8   1 < $ 5 6 7                 9 0         ",
"                  a b c                       d e f g h         ",
"                    i j 9                   k l g g g m         ",
"                      n o p                 p q g g j           ",
"                      p o r                   s t u v           ",
"                        9 j w               x u h y r           ",
"                          c b z A B       z b C                 ",
"                            D t g E     p F G                   ",
"  H C C C C C C C C C C C I J g g o C C K L M C C C k N         ",
"  O P Q Q Q Q Q Q Q Q Q B R S g g T Q G u U Q Q Q Q V W N       ",
"    O P M X X X X X X X X X Q Y Z l `  .r X X X X X X M W N     ",
"      O P M X X X X X X X X X X X ..X V X X X X X X X X M W     ",
"        O +.@.@.@.@.@.@.@.@.@.@.@.@.@.@.@.@.@.@.@.@.@.@.@.@.#.  ",
"          $.%.%.%.%.%.%.%.%.%.%.%.%.%.%.%.%.%.%.%.%.%.%.%.%.    "};
