/* XPM */
static char * dynamicaCreatePassiveHullRBArray_xpm[] = {
"32 32 90 1",
" 	c #B1B1B1",
".	c #ADADAD",
"+	c #878787",
"@	c #707070",
"#	c #797979",
"$	c #838383",
"%	c #909090",
"&	c #9C9C9C",
"*	c #A6A6A6",
"=	c #ABABAB",
"-	c #6D6D6D",
";	c #818181",
">	c #A0A0A0",
",	c #858585",
"'	c #787878",
")	c #737373",
"!	c #747474",
"~	c #777777",
"{	c #7D7D7D",
"]	c #979797",
"^	c #6E6E6E",
"/	c #848484",
"(	c #A8A8A8",
"_	c #ACACAC",
":	c #989898",
"<	c #646464",
"[	c #727272",
"}	c #9D9D9D",
"|	c #8E8E8E",
"1	c #9E9E9E",
"2	c #959595",
"3	c #7B7B7B",
"4	c #808080",
"5	c #828282",
"6	c #AFAFAF",
"7	c #9B9B9B",
"8	c #666666",
"9	c #656565",
"0	c #8B8B8B",
"a	c #A7A7A7",
"b	c #8D8D8D",
"c	c #717171",
"d	c #2F2F2F",
"e	c #232323",
"f	c #424242",
"g	c #595959",
"h	c #626262",
"i	c #575757",
"j	c #414141",
"k	c #2E2E2E",
"l	c #3C3C3C",
"m	c #8A8A8A",
"n	c #919191",
"o	c #888888",
"p	c #7F7F7F",
"q	c #5F5F5F",
"r	c #535353",
"s	c #323232",
"t	c #545454",
"u	c #7A7A7A",
"v	c #141414",
"w	c #000000",
"x	c #A9A9A9",
"y	c #020202",
"z	c #0F0F0F",
"A	c #484848",
"B	c #AAAAAA",
"C	c #515151",
"D	c #0C0C0C",
"E	c #686868",
"F	c #3B3B3B",
"G	c #0B0B0B",
"H	c #080808",
"I	c #181818",
"J	c #6C6C6C",
"K	c #1D1D1D",
"L	c #696969",
"M	c #8C8C8C",
"N	c #0E0E0E",
"O	c #383838",
"P	c #555555",
"Q	c #676767",
"R	c #606060",
"S	c #1F1F1F",
"T	c #212121",
"U	c #525252",
"V	c #A5A5A5",
"W	c #B0B0B0",
"X	c #898989",
"Y	c #AEAEAE",
"                                ",
"                                ",
"                                ",
"                                ",
"                                ",
"                                ",
"                                ",
"      .+@#$%&*=                 ",
"    =+-;>&%,')!~{               ",
"   ]^/(       _:<               ",
"   [}          /|  .+@#$%&*=    ",
"   @1         =^==+-;>&%,')!~{  ",
"   23         45]^/(       _:<  ",
"   6@7/@89@0abc.[}          /|  ",
"  19defgh<ijkl7 @1         =^=  ",
"  mim5-5nop)qrs1tu         45   ",
"              @vwfx       bc.   ",
"      .+@#$%&*-ywz[x     |^_ .36",
"    =+-;>&%,')Avwwf-5nop)@B:CDE ",
"   ]^/(       _:FGH1     ;kwwI6 ",
"   [}          /|JKL     MNww4  ",
"   @1         =^= 3OP%. ]QHyj   ",
"   23         45   >RdSTdU&8V   ",
"   6@x       bc.       _W       ",
"    X'x     |^_                 ",
"    Y,-5nop)@B                  ",
"                                ",
"                                ",
"                                ",
"                                ",
"                                ",
"                                "};
