/* XPM */
static char * dynamicaCreateActiveHullRB_xpm[] = {
"32 32 238 2",
"  	c #B1B1B1",
". 	c #BB8C8C",
"+ 	c #BE8383",
"@ 	c #B89898",
"# 	c #B4A7A7",
"$ 	c #BB4E4E",
"% 	c #DD0505",
"& 	c #C81515",
"* 	c #D81010",
"= 	c #E20000",
"- 	c #D91F1F",
"; 	c #D43434",
"> 	c #CE4949",
", 	c #C56A6A",
"' 	c #BE8181",
") 	c #B89696",
"! 	c #B5A2A2",
"~ 	c #CC4F4F",
"{ 	c #DD0E0E",
"] 	c #AE2121",
"^ 	c #AB8888",
"/ 	c #ACACAC",
"( 	c #7A7A7A",
"_ 	c #8D8D8D",
": 	c #BB8E8E",
"< 	c #C17979",
"[ 	c #C66464",
"} 	c #CE4747",
"| 	c #D62C2C",
"1 	c #DC1717",
"2 	c #DA1D1D",
"3 	c #D43232",
"4 	c #CE4646",
"5 	c #BC6161",
"6 	c #AE6F6F",
"7 	c #B28D8D",
"8 	c #B69E9E",
"9 	c #CD4B4B",
"0 	c #DF0C0C",
"a 	c #B19999",
"b 	c #686868",
"c 	c #ABABAB",
"d 	c #C4C4C4",
"e 	c #727272",
"f 	c #6A6A6A",
"g 	c #6E6E6E",
"h 	c #717171",
"i 	c #7C7C7C",
"j 	c #A3A3A3",
"k 	c #BA9090",
"l 	c #A56060",
"m 	c #8F2F2F",
"n 	c #AE2626",
"o 	c #C21B1B",
"p 	c #D50909",
"q 	c #D32D2D",
"r 	c #B79A9A",
"s 	c #DE0F0F",
"t 	c #C65151",
"u 	c #867676",
"v 	c #666666",
"w 	c #595959",
"x 	c #B6B6B6",
"y 	c #9F9F9F",
"z 	c #999999",
"A 	c #959595",
"B 	c #8A8A8A",
"C 	c #797979",
"D 	c #5D5D5D",
"E 	c #A1A1A1",
"F 	c #AEAEAE",
"G 	c #7D7D7D",
"H 	c #C81111",
"I 	c #BA7878",
"J 	c #B2ADAD",
"K 	c #DC1414",
"L 	c #B95252",
"M 	c #8B7E7E",
"N 	c #5A5A5A",
"O 	c #919191",
"P 	c #C2C2C2",
"Q 	c #CACACA",
"R 	c #C7C7C7",
"S 	c #C3C3C3",
"T 	c #C0C0C0",
"U 	c #BDBDBD",
"V 	c #B9B9B9",
"W 	c #B7B7B7",
"X 	c #B5B5B5",
"Y 	c #696969",
"Z 	c #8F8F8F",
"` 	c #6D6D6D",
" .	c #969696",
"..	c #767676",
"+.	c #965B5B",
"@.	c #D91C1C",
"#.	c #937373",
"$.	c #D20A0A",
"%.	c #888888",
"&.	c #BBBBBB",
"*.	c #CDCDCD",
"=.	c #CCCCCC",
"-.	c #C8C8C8",
";.	c #C5C5C5",
">.	c #C1C1C1",
",.	c #BEBEBE",
"'.	c #B4B4B4",
").	c #B3B3B3",
"!.	c #9C9C9C",
"~.	c #676767",
"{.	c #A8A8A8",
"].	c #B0B0B0",
"^.	c #616161",
"/.	c #C37070",
"(.	c #855050",
"_.	c #D82B2B",
":.	c #A7A7A7",
"<.	c #B2B2B2",
"[.	c #6C6C6C",
"}.	c #818181",
"|.	c #808080",
"1.	c #946A6A",
"2.	c #DC1515",
"3.	c #B25D5D",
"4.	c #DF1414",
"5.	c #575454",
"6.	c #CBCBCB",
"7.	c #BABABA",
"8.	c #B8B8B8",
"9.	c #9E9E9E",
"0.	c #7F7F7F",
"a.	c #656565",
"b.	c #C93939",
"c.	c #C76060",
"d.	c #6D6B6B",
"e.	c #DC2D2D",
"f.	c #924545",
"g.	c #828282",
"h.	c #A2A2A2",
"i.	c #634848",
"j.	c #DE0C0C",
"k.	c #B3A9A9",
"l.	c #9E5454",
"m.	c #D42A2A",
"n.	c #C6C6C6",
"o.	c #BC3A3A",
"p.	c #CF4343",
"q.	c #8D8A8A",
"r.	c #D50B0B",
"s.	c #C49F9F",
"t.	c #9F4D4D",
"u.	c #DD1313",
"v.	c #AA3D3D",
"w.	c #C13F3F",
"x.	c #A0A0A0",
"y.	c #A05353",
"z.	c #9B8686",
"A.	c #DA0808",
"B.	c #BCB1B1",
"C.	c #5E5E5E",
"D.	c #A55D5D",
"E.	c #DD1111",
"F.	c #BA9292",
"G.	c #BE2929",
"H.	c #B24242",
"I.	c #B5B2B2",
"J.	c #626262",
"K.	c #9E5C5C",
"L.	c #B48989",
"M.	c #CA1C1C",
"N.	c #D30E0E",
"O.	c #BA5F5F",
"P.	c #A5A5A5",
"Q.	c #858585",
"R.	c #9D6060",
"S.	c #9E6B6B",
"T.	c #BB1919",
"U.	c #D70C0C",
"V.	c #AB4C4C",
"W.	c #8E7E7E",
"X.	c #9A6D6D",
"Y.	c #9E5E5E",
"Z.	c #A34949",
"`.	c #A83333",
" +	c #AB2323",
".+	c #CA1D1D",
"++	c #D62121",
"@+	c #E10404",
"#+	c #BD8787",
"$+	c #9C7272",
"%+	c #C22929",
"&+	c #E10101",
"*+	c #CD1818",
"=+	c #C82121",
"-+	c #BE3737",
";+	c #BE4C4C",
">+	c #C06666",
",+	c #898989",
"'+	c #0F0F0F",
")+	c #707070",
"!+	c #737373",
"~+	c #2C2C2C",
"{+	c #000000",
"]+	c #8E8E8E",
"^+	c #080808",
"/+	c #0C0C0C",
"(+	c #4F4F4F",
"_+	c #212121",
":+	c #ADADAD",
"<+	c #494949",
"[+	c #4B4B4B",
"}+	c #606060",
"|+	c #131313",
"1+	c #060606",
"2+	c #1D1D1D",
"3+	c #929292",
"4+	c #414141",
"5+	c #454545",
"6+	c #2A2A2A",
"7+	c #434343",
"8+	c #121212",
"9+	c #2F2F2F",
"0+	c #141414",
"a+	c #A9A9A9",
"b+	c #5C5C5C",
"c+	c #646464",
"d+	c #2D2D2D",
"e+	c #050505",
"f+	c #151515",
"g+	c #575757",
"h+	c #636363",
"i+	c #555555",
"j+	c #3C3C3C",
"k+	c #111111",
"l+	c #090909",
"m+	c #515151",
"n+	c #5B5B5B",
"o+	c #5F5F5F",
"                  . + @                                         ",
"              # $ % & * = - ; > , ' )                           ",
"          ! ~ { ] ^ / ( _ : < [ } | 1 = 2 3 4 5 6 7             ",
"      8 9 0 9 a b c d e b f g h i j     k l m n o p q           ",
"  r } s t u v w h / d x j y z A B C     A D E F G H I           ",
"J K L M N O   P Q R S T U V W X X Y Z   `  .  ..+.@.            ",
"#.$.e %.&.*.=.Q -.;.>.,.&.W X '.).!.~.{.N ].E ^.3 /.            ",
"(._.:.E *.=.Q -.;.P ,.&.V X ).<.    [.( }.  |.1.2.J             ",
"3.4.5.b *.6.-.;.P ,.7.8.x ).        9.0.].  a.b.c.              ",
"d.e.f.g.Q -.;.P ,.V x '.<.                h.i.j.k.              ",
"C l.m.c n.d T U V '.                      g o.p.                ",
"  q.r.s.>.,.&.W ).                    c ..t.u.r                 ",
"    v.w.U 7.W ).                    x.D y.u.)                   ",
"    z.A.B.W '.                    {.C.D.E.F.                    ",
"      G.H.I.                    :.J.K.s :                       ",
"      L.M.N.O.J             P.Q.N R.0 .                         ",
"          S.T.U.V.W.X.Y.Z.`. +.+++@+#+                          ",
"            c $+%+&+*+=+-+;+>+' : J                             ",
"                    ,+                               .!.        ",
"                  :.'+)+                      c !+~+{+]+        ",
"                    0.^+ .                  g /+{+{+{+h.        ",
"                      (+_+:+                :+<+{+{+^+          ",
"                      :+_+[+                  }+|+1+2+          ",
"                         .^+G               Q.1+]+3+[+          ",
"                          )+'+x.C J.      x.'+[.                ",
"                            4+|+{+5+    :+6+7+                  ",
"  i [.[.[.[.[.[.[.[.[.[.[.N 8+{+{+_+[.[.9+0+b [.[.[.g a+        ",
"  }.b+c+c+c+c+c+c+c+c+c+J.d+e+{+{+f+c+7+1+g+c+c+c+c+h+i+a+      ",
"    }.b+b f f f f f f f f f c+j+k+/+v l+[+f f f f f f b i+a+    ",
"      }.b+b f f f f f f f f f f f m+f h+f f f f f f f f b i+    ",
"        }.n+o+o+o+o+o+o+o+o+o+o+o+o+o+o+o+o+o+o+o+o+o+o+o+o+^.  ",
"          P.A A A A A A A A A A A A A A A A A A A A A A A A     "};
