/* XPM */
static char * dynamicaCreatePassiveSphereRB_xpm[] = {
"32 32 142 2",
"  	c #B1B1B1",
". 	c #ADADAD",
"+ 	c #ABABAB",
"@ 	c #AEAEAE",
"# 	c #A8A8A8",
"$ 	c #A5A5A5",
"% 	c #B2B2B2",
"& 	c #B6B6B6",
"* 	c #B5B5B5",
"= 	c #A4A4A4",
"- 	c #AAAAAA",
"; 	c #B0B0B0",
"> 	c #A9A9A9",
", 	c #C3C3C3",
"' 	c #D4D4D4",
") 	c #D5D5D5",
"! 	c #D3D3D3",
"~ 	c #D2D2D2",
"{ 	c #D0D0D0",
"] 	c #CDCDCD",
"^ 	c #C7C7C7",
"/ 	c #D6D6D6",
"( 	c #CFCFCF",
"_ 	c #CBCBCB",
": 	c #C2C2C2",
"< 	c #BABABA",
"[ 	c #A7A7A7",
"} 	c #B9B9B9",
"| 	c #D1D1D1",
"1 	c #CECECE",
"2 	c #CACACA",
"3 	c #C5C5C5",
"4 	c #BFBFBF",
"5 	c #B8B8B8",
"6 	c #C8C8C8",
"7 	c #BBBBBB",
"8 	c #A0A0A0",
"9 	c #A2A2A2",
"0 	c #C6C6C6",
"a 	c #BEBEBE",
"b 	c #9F9F9F",
"c 	c #939393",
"d 	c #929292",
"e 	c #ACACAC",
"f 	c #B3B3B3",
"g 	c #C1C1C1",
"h 	c #838383",
"i 	c #767676",
"j 	c #9D9D9D",
"k 	c #AFAFAF",
"l 	c #7C7C7C",
"m 	c #797979",
"n 	c #777777",
"o 	c #848484",
"p 	c #A3A3A3",
"q 	c #C4C4C4",
"r 	c #CCCCCC",
"s 	c #A1A1A1",
"t 	c #919191",
"u 	c #808080",
"v 	c #727272",
"w 	c #6B6B6B",
"x 	c #8A8A8A",
"y 	c #9E9E9E",
"z 	c #656565",
"A 	c #3D3D3D",
"B 	c #343434",
"C 	c #414141",
"D 	c #626262",
"E 	c #707070",
"F 	c #737373",
"G 	c #646464",
"H 	c #4B4B4B",
"I 	c #424242",
"J 	c #6E6E6E",
"K 	c #BCBCBC",
"L 	c #8E8E8E",
"M 	c #7A7A7A",
"N 	c #666666",
"O 	c #5E5E5E",
"P 	c #575757",
"Q 	c #8C8C8C",
"R 	c #5F5F5F",
"S 	c #363636",
"T 	c #8D8D8D",
"U 	c #606060",
"V 	c #4F4F4F",
"W 	c #676767",
"X 	c #747474",
"Y 	c #141414",
"Z 	c #000000",
"` 	c #696969",
" .	c #5C5C5C",
"..	c #505050",
"+.	c #4E4E4E",
"@.	c #6A6A6A",
"#.	c #020202",
"$.	c #0F0F0F",
"%.	c #6F6F6F",
"&.	c #565656",
"*.	c #717171",
"=.	c #7B7B7B",
"-.	c #A6A6A6",
";.	c #9B9B9B",
">.	c #979797",
",.	c #151515",
"'.	c #2E2E2E",
").	c #858585",
"!.	c #989898",
"~.	c #515151",
"{.	c #0C0C0C",
"].	c #686868",
"^.	c #909090",
"/.	c #898989",
"(.	c #828282",
"_.	c #383838",
":.	c #050505",
"<.	c #030303",
"[.	c #464646",
"}.	c #525252",
"|.	c #181818",
"1.	c #7E7E7E",
"2.	c #535353",
"3.	c #2F2F2F",
"4.	c #0D0D0D",
"5.	c #0E0E0E",
"6.	c #545454",
"7.	c #191919",
"8.	c #262626",
"9.	c #3F3F3F",
"0.	c #4C4C4C",
"a.	c #888888",
"b.	c #080808",
"c.	c #959595",
"d.	c #595959",
"e.	c #2B2B2B",
"f.	c #101010",
"g.	c #1D1D1D",
"h.	c #9C9C9C",
"i.	c #969696",
"j.	c #818181",
"k.	c #636363",
"                                                                ",
"                                                                ",
"                                                                ",
"                                                                ",
"                                                                ",
"                            . + + + @                           ",
"                      @ # $ % & & * . = - ;                     ",
"                    > > , ' ) ! ~ { ] ^ * = -                   ",
"                ; > & ) / / ) ! ~ ( _ ^ : < [ >                 ",
"                > } / / / / ' ! | 1 2 3 4 5   $ -               ",
"              + ; ! ' ) / ) ' ~ { ] 6 : 7 % > 8 9 @             ",
"              = _ ! ! ' ' ' ! | 1 _ 0 a * + b c d #             ",
"            e f | | ~ ! ! ~ | 1 _ ^ g 5 . 8 d h i j k           ",
"          9 l m n i o p q ( r 6 0 : < @ s t u v w x +           ",
"    y z A B C D E F G H I J f g K 5 @ b L M J N O n #           ",
"    x P Q . p q 3 0 0 0 # R S = z + 8 T i w U P V W [           ",
"            = K a a a a K < X Y Z U t n `  ...+.+.` [           ",
"            $ % f %   ; @ e @.#.Z $.%.z &.+.+.+.+.*.>     . =.k ",
"            > # -.9 y ;.>.d &.,.Z Z '.+.+.+.+.+.+.).e !.~.{.].  ",
"            . 9 !.^./.(.M F J W _.:.<.[.+.+.+.+.}.X '.Z Z |.k   ",
"              [ ^.1.X %.@.G  .2.+.3.4.3.+.+.+.+.m ).5.Z Z u     ",
"              e j X @.G  .6.+.+.+.+.S 7.8.9.0.O a.N b.#.C       ",
"                - c.z d...+.+.+.+.+.+.[.e.Y f.g.'.}.h.N $       ",
"                  > i.O +.+.+.+.+.+.+.+.+.W j -.;               ",
"                    + 9 j.k.+.+.+.+.~.].T [ .                   ",
"                        + -.8 d d c p [ .                       ",
"                              @ @ @                             ",
"                                                                ",
"                                                                ",
"                                                                ",
"                                                                ",
"                                                                "};
