/* XPM */
static char * dynamicaCreateActiveBoxRBArray_xpm[] = {
"32 32 65 1",
" 	c #B1B1B1",
".	c #BE0000",
"+	c #898989",
"@	c #969696",
"#	c #9C9C9C",
"$	c #A7A7A7",
"%	c #0F0F0F",
"&	c #707070",
"*	c #ABABAB",
"=	c #737373",
"-	c #2C2C2C",
";	c #000000",
">	c #8E8E8E",
",	c #7F7F7F",
"'	c #080808",
")	c #6E6E6E",
"!	c #0C0C0C",
"~	c #A2A2A2",
"{	c #4F4F4F",
"]	c #212121",
"^	c #ADADAD",
"/	c #494949",
"(	c #4B4B4B",
"_	c #606060",
":	c #131313",
"<	c #060606",
"[	c #1D1D1D",
"}	c #7D7D7D",
"|	c #858585",
"1	c #929292",
"2	c #A0A0A0",
"3	c #797979",
"4	c #626262",
"5	c #6C6C6C",
"6	c #414141",
"7	c #454545",
"8	c #2A2A2A",
"9	c #434343",
"0	c #7C7C7C",
"a	c #5A5A5A",
"b	c #121212",
"c	c #2F2F2F",
"d	c #141414",
"e	c #686868",
"f	c #A9A9A9",
"g	c #818181",
"h	c #5C5C5C",
"i	c #646464",
"j	c #2D2D2D",
"k	c #050505",
"l	c #151515",
"m	c #575757",
"n	c #636363",
"o	c #555555",
"p	c #6A6A6A",
"q	c #3C3C3C",
"r	c #111111",
"s	c #666666",
"t	c #090909",
"u	c #515151",
"v	c #5B5B5B",
"w	c #5F5F5F",
"x	c #616161",
"y	c #A5A5A5",
"z	c #959595",
"                                ",
"                                ",
"                                ",
"  ....... .......               ",
"  .     . .     .               ",
"  .     . .     .               ",
"  .     . .     .               ",
"  .     . .     .               ",
"  .     . .     .               ",
"  ....... .......               ",
"                                ",
"  ....... .......               ",
"  .     . .     .               ",
"  .     . .     .               ",
"  .     . .     .               ",
"  .     . .     .               ",
"  .     . .     .               ",
"  ....... .......               ",
"          +               @#    ",
"         $%&           *=-;>    ",
"          ,'@         )!;;;~    ",
"           {]^        ^/;;'     ",
"           ^](         _:<[     ",
"            @'}       |<>1(     ",
"             &%234   2%5        ",
"              6:;7  ^89         ",
" 055555555555ab;;]55cde555)f    ",
" ghiiiiiiiii4jk;;li9<miiiinof   ",
"  ghepppppppppiqr!st(ppppppeof  ",
"   ghepppppppppppupnppppppppeo  ",
"    gvwwwwwwwwwwwwwwwwwwwwwwwwx ",
"     yzzzzzzzzzzzzzzzzzzzzzzzz  "};
