/* XPM */
static char * dynamicaCreatePassiveBoxRB_xpm[] = {
"32 32 77 1",
" 	c #B1B1B1",
".	c #B0B0B0",
"+	c #979797",
"@	c #808080",
"#	c #949494",
"$	c #595959",
"%	c #7A7A7A",
"&	c #747474",
"*	c #939393",
"=	c #575757",
"-	c #7B7B7B",
";	c #888888",
">	c #A2A2A2",
",	c #848484",
"'	c #5F5F5F",
")	c #323232",
"!	c #313131",
"~	c #373737",
"{	c #444444",
"]	c #9E9E9E",
"^	c #656565",
"/	c #3D3D3D",
"(	c #343434",
"_	c #454545",
":	c #4C4C4C",
"<	c #303030",
"[	c #2B2B2B",
"}	c #202020",
"|	c #2C2C2C",
"1	c #4A4A4A",
"2	c #8A8A8A",
"3	c #8C8C8C",
"4	c #ADADAD",
"5	c #434343",
"6	c #262626",
"7	c #797979",
"8	c #4D4D4D",
"9	c #868686",
"0	c #565656",
"a	c #101010",
"b	c #000000",
"c	c #505050",
"d	c #020202",
"e	c #0E0E0E",
"f	c #828282",
"g	c #AFAFAF",
"h	c #555555",
"i	c #161616",
"j	c #989898",
"k	c #515151",
"l	c #0C0C0C",
"m	c #686868",
"n	c #585858",
"o	c #090909",
"p	c #060606",
"q	c #636363",
"r	c #2E2E2E",
"s	c #181818",
"t	c #909090",
"u	c #535353",
"v	c #171717",
"w	c #6B6B6B",
"x	c #919191",
"y	c #5E5E5E",
"z	c #424242",
"A	c #6E6E6E",
"B	c #858585",
"C	c #4F4F4F",
"D	c #080808",
"E	c #414141",
"F	c #242424",
"G	c #1A1A1A",
"H	c #3F3F3F",
"I	c #9C9C9C",
"J	c #666666",
"K	c #A5A5A5",
"L	c #878787",
"                                ",
"                                ",
"                                ",
"                                ",
"                                ",
"       .                        ",
"       +@@@@@@@@@@@@@@#         ",
"       +$%&&&&&&&&&&&&&*        ",
"       +=$-&&&&&&&&&&&&&*       ",
"       +==$-&&&&&&&&&&&&&*      ",
"       +===$;;;;;;;;;;;;;;.     ",
"       +====;;;;;;;;;;;;;;      ",
"       +====;;;;;;;;;;;;;;      ",
"     >,')!~{@;;;;;;;;;;;;;      ",
"  ]^/(_:<![}|1-;;;;;;;;;;;      ",
"  2=34 +====&56789;;;;;;;;      ",
"       +====;;0abc;;;;;;;;      ",
"       +====;;0dbef;;;;;;;   4-g",
"       +====;;hibb5;;;;;;; jklm ",
"       ]n===;;;;cop%;;;;;qrbbsg ",
"        tn==;;;;;uvk;;;;;webb@  ",
"         xn=;;;;;;y[zAB;&CDdE   ",
"          xn;;;;;;;-1FvGFHIJK   ",
"           x;;;;;;;;;;;,L;      ",
"                                ",
"                                ",
"                                ",
"                                ",
"                                ",
"                                ",
"                                ",
"                                "};
