/* XPM */
static char * dynamicaCreatePassiveMeshRB_xpm[] = {
"32 32 117 2",
"  	c #B1B1B1",
". 	c #A5A5A5",
"+ 	c #929292",
"@ 	c #8C8C8C",
"# 	c #9F9F9F",
"$ 	c #AEAEAE",
"% 	c #858585",
"& 	c #9B9B9B",
"* 	c #9E9E9E",
"= 	c #8E8E8E",
"- 	c #A0A0A0",
"; 	c #AAAAAA",
"> 	c #A6A6A6",
", 	c #ADADAD",
"' 	c #8F8F8F",
") 	c #919191",
"! 	c #979797",
"~ 	c #838383",
"{ 	c #868686",
"] 	c #848484",
"^ 	c #ACACAC",
"/ 	c #999999",
"( 	c #8D8D8D",
"_ 	c #949494",
": 	c #969696",
"< 	c #A3A3A3",
"[ 	c #AFAFAF",
"} 	c #9C9C9C",
"| 	c #A1A1A1",
"1 	c #A7A7A7",
"2 	c #A9A9A9",
"3 	c #959595",
"4 	c #888888",
"5 	c #909090",
"6 	c #9D9D9D",
"7 	c #9A9A9A",
"8 	c #8B8B8B",
"9 	c #A8A8A8",
"0 	c #727272",
"a 	c #616161",
"b 	c #606060",
"c 	c #5E5E5E",
"d 	c #696969",
"e 	c #7F7F7F",
"f 	c #989898",
"g 	c #878787",
"h 	c #898989",
"i 	c #7B7B7B",
"j 	c #565656",
"k 	c #313131",
"l 	c #2D2D2D",
"m 	c #343434",
"n 	c #444444",
"o 	c #595959",
"p 	c #5B5B5B",
"q 	c #4E4E4E",
"r 	c #3A3A3A",
"s 	c #515151",
"t 	c #7A7A7A",
"u 	c #6C6C6C",
"v 	c #7C7C7C",
"w 	c #8A8A8A",
"x 	c #6B6B6B",
"y 	c #464646",
"z 	c #282828",
"A 	c #828282",
"B 	c #B0B0B0",
"C 	c #585858",
"D 	c #101010",
"E 	c #000000",
"F 	c #808080",
"G 	c #787878",
"H 	c #6F6F6F",
"I 	c #636363",
"J 	c #505050",
"K 	c #4C4C4C",
"L 	c #545454",
"M 	c #020202",
"N 	c #0D0D0D",
"O 	c #656565",
"P 	c #4B4B4B",
"Q 	c #6D6D6D",
"R 	c #797979",
"S 	c #767676",
"T 	c #757575",
"U 	c #494949",
"V 	c #131313",
"W 	c #4F4F4F",
"X 	c #555555",
"Y 	c #0C0C0C",
"Z 	c #686868",
"` 	c #6A6A6A",
" .	c #676767",
"..	c #646464",
"+.	c #626262",
"@.	c #050505",
"#.	c #030303",
"$.	c #434343",
"%.	c #818181",
"&.	c #2E2E2E",
"*.	c #181818",
"=.	c #777777",
"-.	c #5D5D5D",
";.	c #525252",
">.	c #2C2C2C",
",.	c #0E0E0E",
"'.	c #393939",
").	c #202020",
"!.	c #3D3D3D",
"~.	c #7E7E7E",
"{.	c #080808",
"].	c #414141",
"^.	c #6E6E6E",
"/.	c #666666",
"(.	c #2F2F2F",
"_.	c #1F1F1F",
":.	c #212121",
"                                                                ",
"                                                                ",
"                                                                ",
"                                                                ",
"                                                                ",
"                                                                ",
"                                                                ",
"                        . + @ #                                 ",
"                      $ % & * = -                     ; > ,     ",
"                      $ = # . @ = ' ) + ! ;       * ~ { { ] ,   ",
"                ^ / ( % ( # . # / ! _ + = :     < { + ' % ~ $   ",
"          [ . } { ! | 1 2 > < | # } / ! 3 4 |   ) + 5 ] ! $     ",
"        6 ] @ _ < 2 2 1 . | # } & 7 ! 3 _ ) = , % 5 % 8         ",
"      9 4 ' 0 a b c d e : & f ! : 3 _ + + + g : h ~ i &         ",
"    * j k l m n o p q r k s ] ) 5 5 ' = = @ 4 ~ t u v 1         ",
"    w s x ) g @ & 7 f 3 i y z v q 4 4 % A i 0 d b c A B         ",
"        : g @ ( ) ) 5 ' @ w C D E q F G H I C J K 0 6           ",
"          # ~ { { g 4 g % ] L M E N u O C P P q Q :       , i [ ",
"            3 e i t R G S T U V E E l W P P X v /     f s Y Z   ",
"            < e 0 Q `  ...+.a c m @.#.$.P J v *   %.&.E E *.[   ",
"              : =.+.-.C L ;.W P P &.Y >.s R 7     @ ,.E E F     ",
"              , : G -.q P P P P P P '.).!.~.,   !  .{.M ].      ",
"                  * F ^./.I I /.u T e h -.(._.:.(.;.} /..       ",
"                    $ - / ! ! / * > $         ^ B               ",
"                                                                ",
"                                                                ",
"                                                                ",
"                                                                ",
"                                                                ",
"                                                                ",
"                                                                ",
"                                                                "};
