/* XPM */
static char * dynamicaCreatePassiveBoxRBArray_xpm[] = {
"32 32 65 1",
" 	c #B1B1B1",
".	c #4E4E4E",
"+	c #A2A2A2",
"@	c #848484",
"#	c #707070",
"$	c #666666",
"%	c #2C2C2C",
"&	c #8B8B8B",
"*	c #A7A7A7",
"=	c #9E9E9E",
"-	c #656565",
";	c #3D3D3D",
">	c #343434",
",	c #454545",
"'	c #595959",
")	c #626262",
"!	c #575757",
"~	c #414141",
"{	c #3A3A3A",
"]	c #606060",
"^	c #A0A0A0",
"/	c #8A8A8A",
"(	c #8C8C8C",
"_	c #ADADAD",
":	c #424242",
"<	c #262626",
"[	c #161616",
"}	c #646464",
"|	c #4D4D4D",
"1	c #141414",
"2	c #000000",
"3	c #686868",
"4	c #323232",
"5	c #010101",
"6	c #080808",
"7	c #4A4A4A",
"8	c #7B7B7B",
"9	c #AFAFAF",
"0	c #6E6E6E",
"a	c #0D0D0D",
"b	c #989898",
"c	c #515151",
"d	c #0C0C0C",
"e	c #676767",
"f	c #050505",
"g	c #818181",
"h	c #2E2E2E",
"i	c #181818",
"j	c #2F2F2F",
"k	c #1D1D1D",
"l	c #696969",
"m	c #0E0E0E",
"n	c #808080",
"o	c #383838",
"p	c #555555",
"q	c #909090",
"r	c #979797",
"s	c #020202",
"t	c #1F1F1F",
"u	c #0F0F0F",
"v	c #525252",
"w	c #9C9C9C",
"x	c #A5A5A5",
"y	c #4C4C4C",
"z	c #B0B0B0",
"                                ",
"                                ",
"                                ",
"                                ",
"                                ",
"                                ",
"                                ",
"                                ",
"                                ",
"         ....... .......        ",
"         .     . .     .        ",
"         .     . .     .        ",
"         .     . .     .        ",
"     +@#$%#&*  . .     .        ",
"  =-;>,')%!~{]^. .     .        ",
"  /!(_   ...:<[,}|......        ",
"              #123              ",
"         .....45267.....     _89",
"         .    0a22!    .   bcd3 ",
"         .     .ef6=   . gh22i9 ",
"         .     . jkl   . (m22n  ",
"         .     . .8opq_.re6s~   ",
"         .     . . ^]jtujvw$x   ",
"         ....... ......yz       ",
"                                ",
"                                ",
"                                ",
"                                ",
"                                ",
"                                ",
"                                ",
"                                "};
