/* XPM */
static char * dynamicaCreatePassivePlaneRBArray_xpm[] = {
"32 32 82 1",
" 	c #B1B1B1",
".	c #6E6E6E",
"+	c #5F5F5F",
"@	c #616161",
"#	c #606060",
"$	c #666666",
"%	c #7E7E7E",
"&	c #626262",
"*	c #6D6D6D",
"=	c #636363",
"-	c #A9A9A9",
";	c #4E4E4E",
">	c #767676",
",	c #777777",
"'	c #5B5B5B",
")	c #787878",
"!	c #757575",
"~	c #5E5E5E",
"{	c #747474",
"]	c #505050",
"^	c #4D4D4D",
"/	c #5C5C5C",
"(	c #5D5D5D",
"_	c #4F4F4F",
":	c #ADADAD",
"<	c #868686",
"[	c #6F6F6F",
"}	c #565656",
"|	c #555555",
"1	c #8C8C8C",
"2	c #959595",
"3	c #929292",
"4	c #9E9E9E",
"5	c #656565",
"6	c #3D3D3D",
"7	c #343434",
"8	c #454545",
"9	c #595959",
"0	c #646464",
"a	c #575757",
"b	c #414141",
"c	c #3A3A3A",
"d	c #3C3C3C",
"e	c #8A8A8A",
"f	c #979797",
"g	c #303030",
"h	c #1B1B1B",
"i	c #3E3E3E",
"j	c #6C6C6C",
"k	c #323232",
"l	c #0E0E0E",
"m	c #000000",
"n	c #464646",
"o	c #4A4A4A",
"p	c #010101",
"q	c #0D0D0D",
"r	c #717171",
"s	c #7B7B7B",
"t	c #AFAFAF",
"u	c #2D2D2D",
"v	c #2B2B2B",
"w	c #060606",
"x	c #090909",
"y	c #858585",
"z	c #272727",
"A	c #181818",
"B	c #151515",
"C	c #696969",
"D	c #808080",
"E	c #383838",
"F	c #909090",
"G	c #676767",
"H	c #080808",
"I	c #020202",
"J	c #2F2F2F",
"K	c #1F1F1F",
"L	c #212121",
"M	c #525252",
"N	c #9C9C9C",
"O	c #A5A5A5",
"P	c #ACACAC",
"Q	c #B0B0B0",
"                                ",
"                                ",
"                                ",
"                                ",
"                                ",
"                                ",
"                                ",
"                                ",
"  .+@@@@@@@@@@@#$%              ",
"  &@************@=              ",
"  -;>,,,,,,,,,,,,')             ",
"   !~,,,,,,,,,,,,{]             ",
"    ^/'''''''''''(_:            ",
"     <[~}|+!122223:             ",
"  456789&0abcd}@@@@@@@@@@@#$%   ",
"  ea1:      fgh@ij*********@=   ",
"             -klmn,,,,,,,,,,')  ",
"              opmqr,,,,,,,,,{;st",
"              .qmmu'''''''';vw$ ",
"                |xwy22222*zmmAt ",
"   .+@@@@@@@@@@@#iBC     1lmmD  ",
"   &@************@8E|F: fGHIb   ",
"   -;>,,,,,,,,,,,,'j#JKLJMN$O   ",
"    !~,,,,,,,,,,,,{]   PQ       ",
"     ^/'''''''''''(_:           ",
"      3222222222223:            ",
"                                ",
"                                ",
"                                ",
"                                ",
"                                ",
"                                "};
