/* XPM */
static char * dynamicaCreatePinConstraint_xpm[] = {
"32 32 178 2",
"  	c #B1B1B1",
". 	c #A8A8A8",
"+ 	c #A5A5A5",
"@ 	c #718172",
"# 	c #6D866F",
"$ 	c #999999",
"% 	c #9B9B9B",
"& 	c #7B9B7E",
"* 	c #77CF80",
"= 	c #69846C",
"- 	c #8F8F8F",
"; 	c #989898",
"> 	c #82A185",
", 	c #88EC91",
"' 	c #57DD63",
") 	c #529C59",
"! 	c #878787",
"~ 	c #A2A2A2",
"{ 	c #949494",
"] 	c #88AA8B",
"^ 	c #8EED97",
"/ 	c #58E465",
"( 	c #23DC34",
"_ 	c #30B33C",
": 	c #667A68",
"< 	c #959595",
"[ 	c #9E9E9E",
"} 	c #757C76",
"| 	c #9BD9A1",
"1 	c #87EC90",
"2 	c #4BE259",
"3 	c #17DA29",
"4 	c #04D718",
"5 	c #13C624",
"6 	c #528C57",
"7 	c #8B8B8B",
"8 	c #A9A9A9",
"9 	c #A6A6A6",
"0 	c #717371",
"a 	c #99CB9E",
"b 	c #9BEFA3",
"c 	c #6FE87A",
"d 	c #30DE40",
"e 	c #09D71C",
"f 	c #00D614",
"g 	c #33A73E",
"h 	c #8E8E8E",
"i 	c #93BB97",
"j 	c #A3F0AA",
"k 	c #82EB8C",
"l 	c #49E257",
"m 	c #15D927",
"n 	c #01D615",
"o 	c #28B235",
"p 	c #419B49",
"q 	c #508D56",
"r 	c #9F9F9F",
"s 	c #89A68C",
"t 	c #A6F1AD",
"u 	c #8DED96",
"v 	c #59E466",
"w 	c #21DB32",
"x 	c #24B532",
"y 	c #858585",
"z 	c #969696",
"A 	c #929292",
"B 	c #809281",
"C 	c #A7EBAD",
"D 	c #94EE9C",
"E 	c #67E773",
"F 	c #2DDD3D",
"G 	c #06D119",
"H 	c #5E8061",
"I 	c #A0A0A0",
"J 	c #919191",
"K 	c #8A8A8A",
"L 	c #778278",
"M 	c #A0E2A6",
"N 	c #99EFA1",
"O 	c #73E87E",
"P 	c #3BDF4A",
"Q 	c #10D923",
"R 	c #36A441",
"S 	c #BE0000",
"T 	c #A20000",
"U 	c #7C1D14",
"V 	c #88744E",
"W 	c #877D52",
"X 	c #8B8F5F",
"Y 	c #95CA89",
"Z 	c #77E982",
"` 	c #46E155",
" .	c #03D617",
"..	c #13C424",
"+.	c #69766B",
"@.	c #AAAAAA",
"#.	c #747D74",
"$.	c #94D79B",
"%.	c #86EC8F",
"&.	c #7EEA88",
"*.	c #6DE878",
"=.	c #47E155",
"-.	c #1CDB2E",
";.	c #4C9053",
">.	c #75C27C",
",.	c #7AEA84",
"'.	c #74E97F",
").	c #68E774",
"!.	c #5AE467",
"~.	c #4CE25A",
"{.	c #38DF48",
"].	c #1DDB2F",
"^.	c #07D71A",
"/.	c #23B631",
"(.	c #848484",
"_.	c #66896A",
":.	c #49C955",
"<.	c #35DF45",
"[.	c #2BDD3C",
"}.	c #22DB33",
"|.	c #1ADA2C",
"1.	c #11D924",
"2.	c #09CE1C",
"3.	c #5D8160",
"4.	c #69786A",
"5.	c #32B03E",
"6.	c #02D616",
"7.	c #2BAF37",
"8.	c #898989",
"9.	c #A4A4A4",
"0.	c #7F7F7F",
"a.	c #399141",
"b.	c #06D019",
"c.	c #24B631",
"d.	c #A7A7A7",
"e.	c #AFAFAF",
"f.	c #BDBDBD",
"g.	c #528156",
"h.	c #12C223",
"i.	c #14C424",
"j.	c #6C746C",
"k.	c #AEAEAE",
"l.	c #EBEBEB",
"m.	c #F4F4F4",
"n.	c #C2C2C2",
"o.	c #697A6A",
"p.	c #26AE33",
"q.	c #09CE1B",
"r.	c #627D64",
"s.	c #A3A3A3",
"t.	c #C7C7C7",
"u.	c #FCFCFC",
"v.	c #E6E6E6",
"w.	c #DFDFDF",
"x.	c #409C48",
"y.	c #04D217",
"z.	c #6E726F",
"A.	c #B0B0B0",
"B.	c #F8F8F8",
"C.	c #8D8D8D",
"D.	c #528B57",
"E.	c #1BA610",
"F.	c #5B835F",
"G.	c #DDDDDD",
"H.	c #EAEAEA",
"I.	c #880000",
"J.	c #B5B5B5",
"K.	c #DEDEDE",
"L.	c #E9E9E9",
"M.	c #A1A1A1",
"N.	c #CACACA",
"O.	c #DCDCDC",
"P.	c #ACACAC",
"Q.	c #D8D8D8",
"R.	c #C6C6C6",
"S.	c #ADADAD",
"T.	c #BA0000",
"U.	c #BB0000",
"                                                                ",
"                                            . +                 ",
"                                          . @ # $               ",
"                                          % & * = -             ",
"                                          ; > , ' ) ! ~         ",
"                                          { ] ^ / ( _ : <       ",
"                                        [ } | 1 2 3 4 5 6 7 8   ",
"                                      9 0 a b c d e f f f g h   ",
"                                      7 i j k l m n f o p q r   ",
"                                    h s t u v w 4 f x y z r     ",
"                                  A B C D E F e f G H I         ",
"                          8 J - K L M N O P Q n f R h           ",
"        S S S S S S S S T U V W X Y D Z ` 3  .f ..+.@.          ",
"        S             I #.$.N ^ %.&.*.=.-.4 f f ;.z             ",
"        S             y >.,.'.).!.~.{.].^.f f /.(.              ",
"        S             I _.:.<.[.}.|.1.^.n f 2.3.r               ",
"        S               ; 4.5.^.4 4 6.n f f 7.8.                ",
"        S                 9.0.a.b.f f f f f c.y                 ",
"        S                 d.e.f.g.h.f f f f i.j.k.              ",
"        S               e.; l.m.n.o.p.f f f q.r.8               ",
"        S               s.t.u.v.w.; (.x.y.f /.z.A.              ",
"        S             @.~ B.v.w.9 9.A.C.D.E.F.r                 ",
"        S             r G.H.w.9.9.      $ I.$                   ",
"        S           + J.m.K.s.9.          S                     ",
"        S         k.$ L.G.M.9.            S                     ",
"        S         s.N.O.I +               S                     ",
"        S       P.+ Q.r +                 S                     ",
"        S       ~ R.r 9                   S                     ",
"        S     S.s.[ P.                    S                     ",
"        S S S S T.U.S S S S S S S S S S S S                     ",
"                                                                ",
"                                                                "};
