/* XPM */
static char * dynamicaCreatePassiveSphereRBArray_xpm[] = {
"32 32 87 1",
" 	c #B1B1B1",
".	c #A6A6A6",
"+	c #A0A0A0",
"@	c #949494",
"#	c #6D6D6D",
"$	c #5D5D5D",
"%	c #636363",
"&	c #616161",
"*	c #888888",
"=	c #9C9C9C",
"-	c #5A5A5A",
";	c #969696",
">	c #A2A2A2",
",	c #878787",
"'	c #757575",
")	c #8E8E8E",
"!	c #A4A4A4",
"~	c #535353",
"{	c #B0B0B0",
"]	c #565656",
"^	c #ADADAD",
"/	c #A9A9A9",
"(	c #5E5E5E",
"_	c #A5A5A5",
":	c #848484",
"<	c #606060",
"[	c #5C5C5C",
"}	c #656565",
"|	c #707070",
"1	c #8B8B8B",
"2	c #A7A7A7",
"3	c #979797",
"4	c #6C6C6C",
"5	c #808080",
"6	c #838383",
"7	c #9E9E9E",
"8	c #3D3D3D",
"9	c #343434",
"0	c #454545",
"a	c #585858",
"b	c #525252",
"c	c #5B5B5B",
"d	c #424242",
"e	c #434343",
"f	c #AAAAAA",
"g	c #8D8D8D",
"h	c #939393",
"i	c #8A8A8A",
"j	c #575757",
"k	c #8C8C8C",
"l	c #595959",
"m	c #323232",
"n	c #646464",
"o	c #AFAFAF",
"p	c #767676",
"q	c #9D9D9D",
"r	c #141414",
"s	c #000000",
"t	c #686868",
"u	c #020202",
"v	c #131313",
"w	c #7B7B7B",
"x	c #545454",
"y	c #1D1D1D",
"z	c #2C2C2C",
"A	c #989898",
"B	c #515151",
"C	c #0C0C0C",
"D	c #676767",
"E	c #121212",
"F	c #060606",
"G	c #2E2E2E",
"H	c #181818",
"I	c #1F1F1F",
"J	c #696969",
"K	c #7E7E7E",
"L	c #0E0E0E",
"M	c #787878",
"N	c #383838",
"O	c #555555",
"P	c #909090",
"Q	c #080808",
"R	c #414141",
"S	c #2F2F2F",
"T	c #494949",
"U	c #666666",
"V	c #929292",
"                                ",
"                                ",
"                                ",
"                                ",
"                                ",
"                                ",
"                                ",
"          .+        .+          ",
"        @#$%&*    @#$%&*        ",
"       =-;  >%,  =-;  >%,       ",
"       ')    !~{ ')    !~{      ",
"       ]^     %+ ]^     %+      ",
"       -/     (_ -/     (_      ",
"     >:<[}|1234  56    34       ",
"  7}890abc]de~,  2~5.fgah       ",
"  ijk^  f6$l4]m7nof6$lpq        ",
"          .+  |rst  .+          ",
"        @#$%&*|usvg#$%&*     ^wo",
"       =-;  >%xyssz;  >%,  ABCt ",
"       ')    !~{DEF7   !~5GssHo ",
"       ]^     %+ ~IJ    %KLss5  ",
"       -/     (_ -MNOP^ cnQuR   ",
"       56    34  56+<SIGTb=U_   ",
"       2~5.fgah  2~5.fgjV       ",
"        f6$lpq    f6$lpq        ",
"                                ",
"                                ",
"                                ",
"                                ",
"                                ",
"                                ",
"                                "};
