/* XPM */
static char * dynamicaCreateActiveMeshRBArray_xpm[] = {
"32 32 139 2",
"  	c #B1B1B1",
". 	c #A2A2A2",
"+ 	c #929292",
"@ 	c #AFAFAF",
"# 	c #B0B0B0",
"$ 	c #ABABAB",
"% 	c #ACACAC",
"& 	c #ADADAD",
"* 	c #928787",
"= 	c #C75252",
"- 	c #9E7777",
"; 	c #8F8888",
"> 	c #8E8888",
", 	c #A4A4A4",
"' 	c #947777",
") 	c #947878",
"! 	c #A9A9A9",
"~ 	c #A0A0A0",
"{ 	c #948787",
"] 	c #AA7878",
"^ 	c #BB6868",
"/ 	c #D24A4A",
"( 	c #CA4141",
"_ 	c #C33939",
": 	c #BE2E2E",
"< 	c #996E6E",
"[ 	c #A5A5A5",
"} 	c #9E5E5E",
"| 	c #B62020",
"1 	c #957474",
"2 	c #A7A7A7",
"3 	c #9C7E7E",
"4 	c #AE7373",
"5 	c #CB6262",
"6 	c #D75757",
"7 	c #D65050",
"8 	c #D24141",
"9 	c #CE2D2D",
"0 	c #C81616",
"a 	c #C30000",
"b 	c #B32929",
"c 	c #B52323",
"d 	c #A25454",
"e 	c #989898",
"f 	c #BC5C5C",
"g 	c #A77474",
"h 	c #CC5555",
"i 	c #D54B4B",
"j 	c #C71212",
"k 	c #C10404",
"l 	c #B32828",
"m 	c #BE0D0D",
"n 	c #917F7F",
"o 	c #AEAEAE",
"p 	c #9A7B7B",
"q 	c #B75A5A",
"r 	c #CF3F3F",
"s 	c #CF3535",
"t 	c #CC2525",
"u 	c #C60B0B",
"v 	c #A84646",
"w 	c #9E9E9E",
"x 	c #9E7272",
"y 	c #CC2626",
"z 	c #C91919",
"A 	c #C40404",
"B 	c #C30101",
"C 	c #A35252",
"D 	c #8C8B8B",
"E 	c #8D8A8A",
"F 	c #B03F3F",
"G 	c #A35151",
"H 	c #9B9B9B",
"I 	c #A15656",
"J 	c #B22A2A",
"K 	c #B52424",
"L 	c #B22C2C",
"M 	c #A94141",
"N 	c #976F6F",
"O 	c #9C9C9C",
"P 	c #A3A3A3",
"Q 	c #979797",
"R 	c #969696",
"S 	c #9D9D9D",
"T 	c #937777",
"U 	c #898686",
"V 	c #797979",
"W 	c #9F9F9F",
"X 	c #0F0F0F",
"Y 	c #707070",
"Z 	c #737373",
"` 	c #2C2C2C",
" .	c #000000",
"..	c #8E8E8E",
"+.	c #7F7F7F",
"@.	c #080808",
"#.	c #6E6E6E",
"$.	c #0C0C0C",
"%.	c #4F4F4F",
"&.	c #212121",
"*.	c #494949",
"=.	c #4B4B4B",
"-.	c #606060",
";.	c #131313",
">.	c #060606",
",.	c #1D1D1D",
"'.	c #7D7D7D",
").	c #858585",
"!.	c #626262",
"~.	c #6C6C6C",
"{.	c #414141",
"].	c #454545",
"^.	c #2A2A2A",
"/.	c #434343",
"(.	c #7C7C7C",
"_.	c #5A5A5A",
":.	c #121212",
"<.	c #2F2F2F",
"[.	c #141414",
"}.	c #686868",
"|.	c #818181",
"1.	c #5C5C5C",
"2.	c #646464",
"3.	c #2D2D2D",
"4.	c #050505",
"5.	c #151515",
"6.	c #575757",
"7.	c #636363",
"8.	c #555555",
"9.	c #6A6A6A",
"0.	c #3C3C3C",
"a.	c #111111",
"b.	c #666666",
"c.	c #090909",
"d.	c #515151",
"e.	c #5B5B5B",
"f.	c #5F5F5F",
"g.	c #616161",
"h.	c #959595",
"          . + . @ #       $ %                                   ",
"      & . * = - ; > .   , ' ) %                                 ",
"  ! ~ { ] ^ / ( _ : < [ } | 1 $                                 ",
"2 3 4 5 6 7 8 9 0 a b > c d .                                   ",
"e f g h i 8 9 j a a k l m n o       . + . @ #       $ %         ",
"2 p q r s t u a a a a a v w     & . * = - ; > .   , ' ) %       ",
"  2 x y z A a a a a B C D o ! ~ { ] ^ / ( _ : < [ } | 1 $       ",
"  # E F a a a a a k G H   2 3 4 5 6 7 8 9 0 a b > c d .         ",
"    ! D I J K L M N O     e f g h i 8 9 j a a k l m n o         ",
"        P Q R e S !       2 p q r s t u a a a a a v w           ",
"          . + . @ #       $ . x y z A a a a a B C D o           ",
"      & . * = - ; > .   , ' T U F a a a a a k G H               ",
"  ! ~ { ] ^ / ( _ : < [ } | 1 P D I J K L M N O                 ",
"2 3 4 5 6 7 8 9 0 a b > c d .     P Q R e S !                   ",
"e f g h i 8 9 j a a k l m n o                                   ",
"2 p q r s t u a a a a a v w                                     ",
"  2 x y z A a a a a B C D o                                     ",
"  # E F a a a a a k G H                                         ",
"    ! D I J K L M N V                               R O         ",
"        P Q R e S W X Y                       $ Z `  ...        ",
"                    +.@.R                   #.$. . . ..         ",
"                      %.&.&                 & *. . .@.          ",
"                      & &.=.                  -.;.>.,.          ",
"                        R @.'.              ).>...+ =.          ",
"                          Y X ~ V !.      ~ X ~.                ",
"                            {.;. .].    & ^./.                  ",
"  (.~.~.~.~.~.~.~.~.~.~.~._.:. . .&.~.~.<.[.}.~.~.~.#.!         ",
"  |.1.2.2.2.2.2.2.2.2.2.!.3.4. . .5.2./.>.6.2.2.2.2.7.8.!       ",
"    |.1.}.9.9.9.9.9.9.9.9.9.2.0.a.$.b.c.=.9.9.9.9.9.9.}.8.!     ",
"      |.1.}.9.9.9.9.9.9.9.9.9.9.9.d.9.7.9.9.9.9.9.9.9.9.}.8.    ",
"        |.e.f.f.f.f.f.f.f.f.f.f.f.f.f.f.f.f.f.f.f.f.f.f.f.f.g.  ",
"          [ h.h.h.h.h.h.h.h.h.h.h.h.h.h.h.h.h.h.h.h.h.h.h.h.    "};
