# Exported using automatic converter by Erwin Coumans
mtllib bedroom.mtl
#object microwave_007_08

v 119.154800 150.131897 14.580300
v 119.145203 150.131897 14.584000
v 119.145203 150.049194 14.584000
v 119.154800 150.049194 14.580300
v 119.163300 150.131897 14.574300
v 119.163300 150.049194 14.574300
v 119.170403 150.131897 14.566500
v 119.170403 150.049194 14.566500
v 119.175797 150.131897 14.557200
v 119.175797 150.049194 14.557200
v 119.179298 150.131897 14.546600
v 119.179298 150.049194 14.546600
v 119.180496 150.131897 14.535100
v 119.180496 150.049194 14.535100
v 119.180496 150.131897 11.295600
v 119.180496 150.049194 11.295600
v 119.179298 150.131897 11.284100
v 119.179298 150.049194 11.284100
v 119.175797 150.131897 11.273500
v 119.175797 150.049194 11.273500
v 119.170403 150.131897 11.264200
v 119.170403 150.049194 11.264200
v 119.163300 150.131897 11.256400
v 119.163300 150.049194 11.256400
v 119.154800 150.131897 11.250500
v 119.154800 150.049194 11.250500
v 119.145203 150.131897 11.246700
v 119.145203 150.049194 11.246700
v 119.134697 150.131897 11.245400
v 119.134697 150.049194 11.245400
v 118.222099 150.131897 11.245400
v 118.222099 150.049194 11.245400
v 118.211601 150.131897 11.246700
v 118.211601 150.049194 11.246700
v 118.202003 150.131897 11.250500
v 118.202003 150.049194 11.250500
v 118.193497 150.131897 11.256400
v 118.193497 150.049194 11.256400
v 118.186401 150.131897 11.264200
v 118.186401 150.049194 11.264200
v 118.181000 150.131897 11.273500
v 118.181000 150.049194 11.273500
v 118.177597 150.131897 11.284100
v 118.177597 150.049194 11.284100
v 118.176399 150.131897 11.295600
v 118.176399 150.049194 11.295600
v 118.176399 150.131897 14.535100
v 118.176399 150.049194 14.535100
v 118.177597 150.131897 14.546600
v 118.177597 150.049194 14.546600
v 118.181000 150.131897 14.557200
v 118.181000 150.049194 14.557200
v 118.186401 150.131897 14.566500
v 118.186401 150.049194 14.566500
v 118.193497 150.131897 14.574300
v 118.193497 150.049194 14.574300
v 118.202003 150.131897 14.580300
v 118.202003 150.049194 14.580300
v 118.211601 150.131897 14.584000
v 118.211601 150.049194 14.584000
v 118.222099 150.131897 14.585400
v 118.222099 150.049194 14.585400
v 119.134697 150.131897 14.585400
v 119.134697 150.049194 14.585400
v 119.143600 150.044006 14.578500
v 118.678398 150.044006 12.915400
v 119.153198 150.044006 14.574700
v 119.161598 150.044006 14.568400
v 119.168404 150.044006 14.560000
v 119.173401 150.044006 14.549400
v 119.176003 150.044006 14.536200
v 119.176003 150.044006 14.520600
v 119.176003 150.044006 11.310100
v 119.176003 150.044006 11.294500
v 119.173401 150.044006 11.281400
v 119.168404 150.044006 11.270800
v 119.161598 150.044006 11.262300
v 119.153198 150.044006 11.256100
v 119.143600 150.044006 11.252300
v 119.133202 150.044006 11.251000
v 118.223701 150.044006 11.251000
v 118.213203 150.044006 11.252300
v 118.203598 150.044006 11.256100
v 118.195297 150.044006 11.262300
v 118.188400 150.044006 11.270800
v 118.183403 150.044006 11.281400
v 118.180801 150.044006 11.294500
v 118.180901 150.044006 11.310100
v 118.180901 150.044006 14.520600
v 118.180801 150.044006 14.536200
v 118.183403 150.044006 14.549400
v 118.188400 150.044006 14.560000
v 118.195297 150.044006 14.568400
v 118.203598 150.044006 14.574700
v 118.213203 150.044006 14.578500
v 118.223701 150.044006 14.579700
v 119.133202 150.044006 14.579700
v 119.145203 150.049194 14.584000
v 119.143600 150.044006 14.578500
v 119.153198 150.044006 14.574700
v 119.153198 150.044006 14.574700
v 119.154800 150.049194 14.580300
v 119.145203 150.049194 14.584000
v 119.154800 150.049194 14.580300
v 119.153198 150.044006 14.574700
v 119.161598 150.044006 14.568400
v 119.161598 150.044006 14.568400
v 119.163300 150.049194 14.574300
v 119.154800 150.049194 14.580300
v 119.163300 150.049194 14.574300
v 119.161598 150.044006 14.568400
v 119.168404 150.044006 14.560000
v 119.168404 150.044006 14.560000
v 119.170403 150.049194 14.566500
v 119.163300 150.049194 14.574300
v 119.170403 150.049194 14.566500
v 119.168404 150.044006 14.560000
v 119.173401 150.044006 14.549400
v 119.173401 150.044006 14.549400
v 119.175797 150.049194 14.557200
v 119.170403 150.049194 14.566500
v 119.175797 150.049194 14.557200
v 119.173401 150.044006 14.549400
v 119.176003 150.044006 14.536200
v 119.176003 150.044006 14.536200
v 119.179298 150.049194 14.546600
v 119.175797 150.049194 14.557200
v 119.179298 150.049194 14.546600
v 119.176003 150.044006 14.536200
v 119.176003 150.044006 14.520600
v 119.176003 150.044006 14.520600
v 119.180496 150.049194 14.535100
v 119.179298 150.049194 14.546600
v 119.180496 150.049194 14.535100
v 119.176003 150.044006 14.520600
v 119.176003 150.044006 11.310100
v 119.180496 150.049194 11.295600
v 119.180496 150.049194 11.295600
v 119.176003 150.044006 11.310100
v 119.176003 150.044006 11.294500
v 119.176003 150.044006 11.294500
v 119.179298 150.049194 11.284100
v 119.180496 150.049194 11.295600
v 119.179298 150.049194 11.284100
v 119.176003 150.044006 11.294500
v 119.173401 150.044006 11.281400
v 119.173401 150.044006 11.281400
v 119.175797 150.049194 11.273500
v 119.179298 150.049194 11.284100
v 119.175797 150.049194 11.273500
v 119.173401 150.044006 11.281400
v 119.168404 150.044006 11.270800
v 119.168404 150.044006 11.270800
v 119.170403 150.049194 11.264200
v 119.175797 150.049194 11.273500
v 119.170403 150.049194 11.264200
v 119.168404 150.044006 11.270800
v 119.161598 150.044006 11.262300
v 119.161598 150.044006 11.262300
v 119.163300 150.049194 11.256400
v 119.170403 150.049194 11.264200
v 119.163300 150.049194 11.256400
v 119.161598 150.044006 11.262300
v 119.153198 150.044006 11.256100
v 119.153198 150.044006 11.256100
v 119.154800 150.049194 11.250500
v 119.163300 150.049194 11.256400
v 119.154800 150.049194 11.250500
v 119.153198 150.044006 11.256100
v 119.143600 150.044006 11.252300
v 119.143600 150.044006 11.252300
v 119.145203 150.049194 11.246700
v 119.154800 150.049194 11.250500
v 119.145203 150.049194 11.246700
v 119.143600 150.044006 11.252300
v 119.133202 150.044006 11.251000
v 119.133202 150.044006 11.251000
v 119.134697 150.049194 11.245400
v 119.145203 150.049194 11.246700
v 119.134697 150.049194 11.245400
v 119.133202 150.044006 11.251000
v 118.223701 150.044006 11.251000
v 118.222099 150.049194 11.245400
v 118.222099 150.049194 11.245400
v 118.223701 150.044006 11.251000
v 118.213203 150.044006 11.252300
v 118.213203 150.044006 11.252300
v 118.211601 150.049194 11.246700
v 118.222099 150.049194 11.245400
v 118.211601 150.049194 11.246700
v 118.213203 150.044006 11.252300
v 118.203598 150.044006 11.256100
v 118.203598 150.044006 11.256100
v 118.202003 150.049194 11.250500
v 118.211601 150.049194 11.246700
v 118.202003 150.049194 11.250500
v 118.203598 150.044006 11.256100
v 118.195297 150.044006 11.262300
v 118.195297 150.044006 11.262300
v 118.193497 150.049194 11.256400
v 118.202003 150.049194 11.250500
v 118.193497 150.049194 11.256400
v 118.195297 150.044006 11.262300
v 118.188400 150.044006 11.270800
v 118.188400 150.044006 11.270800
v 118.186401 150.049194 11.264200
v 118.193497 150.049194 11.256400
v 118.186401 150.049194 11.264200
v 118.188400 150.044006 11.270800
v 118.183403 150.044006 11.281400
v 118.183403 150.044006 11.281400
v 118.181000 150.049194 11.273500
v 118.186401 150.049194 11.264200
v 118.181000 150.049194 11.273500
v 118.183403 150.044006 11.281400
v 118.180801 150.044006 11.294500
v 118.180801 150.044006 11.294500
v 118.177597 150.049194 11.284100
v 118.181000 150.049194 11.273500
v 118.177597 150.049194 11.284100
v 118.180801 150.044006 11.294500
v 118.180901 150.044006 11.310100
v 118.180901 150.044006 11.310100
v 118.176399 150.049194 11.295600
v 118.177597 150.049194 11.284100
v 118.176399 150.049194 11.295600
v 118.180901 150.044006 11.310100
v 118.180901 150.044006 14.520600
v 118.176399 150.049194 14.535100
v 118.176399 150.049194 14.535100
v 118.180901 150.044006 14.520600
v 118.180801 150.044006 14.536200
v 118.180801 150.044006 14.536200
v 118.177597 150.049194 14.546600
v 118.176399 150.049194 14.535100
v 118.177597 150.049194 14.546600
v 118.180801 150.044006 14.536200
v 118.183403 150.044006 14.549400
v 118.183403 150.044006 14.549400
v 118.181000 150.049194 14.557200
v 118.177597 150.049194 14.546600
v 118.181000 150.049194 14.557200
v 118.183403 150.044006 14.549400
v 118.188400 150.044006 14.560000
v 118.188400 150.044006 14.560000
v 118.186401 150.049194 14.566500
v 118.181000 150.049194 14.557200
v 118.186401 150.049194 14.566500
v 118.188400 150.044006 14.560000
v 118.195297 150.044006 14.568400
v 118.195297 150.044006 14.568400
v 118.193497 150.049194 14.574300
v 118.186401 150.049194 14.566500
v 118.193497 150.049194 14.574300
v 118.195297 150.044006 14.568400
v 118.203598 150.044006 14.574700
v 118.203598 150.044006 14.574700
v 118.202003 150.049194 14.580300
v 118.193497 150.049194 14.574300
v 118.202003 150.049194 14.580300
v 118.203598 150.044006 14.574700
v 118.213203 150.044006 14.578500
v 118.213203 150.044006 14.578500
v 118.211601 150.049194 14.584000
v 118.202003 150.049194 14.580300
v 118.211601 150.049194 14.584000
v 118.213203 150.044006 14.578500
v 118.223701 150.044006 14.579700
v 118.223701 150.044006 14.579700
v 118.222099 150.049194 14.585400
v 118.211601 150.049194 14.584000
v 118.222099 150.049194 14.585400
v 118.223701 150.044006 14.579700
v 119.133202 150.044006 14.579700
v 119.134697 150.049194 14.585400
v 119.134697 150.049194 14.585400
v 119.133202 150.044006 14.579700
v 119.143600 150.044006 14.578500
v 119.143600 150.044006 14.578500
v 119.145203 150.049194 14.584000
v 119.134697 150.049194 14.585400
usemtl wire_115115115

vn 0.439500 -0.000000 0.898200
vn 0.227200 -0.000000 0.973800
vn 0.227200 -0.000000 0.973800
vn 0.439500 -0.000000 0.898200
vn 0.625700 -0.000000 0.780100
vn 0.625700 -0.000000 0.780100
vn 0.780100 -0.000000 0.625700
vn 0.780100 -0.000000 0.625700
vn 0.898200 -0.000000 0.439500
vn 0.898200 -0.000000 0.439500
vn 0.973800 -0.000000 0.227200
vn 0.973800 -0.000000 0.227200
vn 0.998400 -0.000000 0.057400
vn 0.998400 -0.000000 0.057400
vn 0.998400 -0.000000 -0.057400
vn 0.998400 -0.000000 -0.057400
vn 0.973800 -0.000000 -0.227200
vn 0.973800 -0.000000 -0.227200
vn 0.898200 -0.000000 -0.439500
vn 0.898200 -0.000000 -0.439500
vn 0.780100 -0.000000 -0.625700
vn 0.780100 -0.000000 -0.625700
vn 0.625700 -0.000000 -0.780100
vn 0.625700 -0.000000 -0.780100
vn 0.439600 -0.000000 -0.898200
vn 0.439600 -0.000000 -0.898200
vn 0.227200 -0.000000 -0.973800
vn 0.227200 -0.000000 -0.973800
vn 0.057400 0.000000 -0.998400
vn 0.057400 0.000000 -0.998400
vn -0.057400 0.000000 -0.998400
vn -0.057400 0.000000 -0.998400
vn -0.227200 0.000000 -0.973800
vn -0.227200 0.000000 -0.973800
vn -0.439500 0.000000 -0.898200
vn -0.439500 0.000000 -0.898200
vn -0.625700 0.000000 -0.780100
vn -0.625700 0.000000 -0.780100
vn -0.780100 0.000000 -0.625700
vn -0.780100 0.000000 -0.625700
vn -0.898200 0.000000 -0.439600
vn -0.898200 0.000000 -0.439600
vn -0.973800 0.000000 -0.227200
vn -0.973800 0.000000 -0.227200
vn -0.998400 0.000000 -0.057400
vn -0.998400 0.000000 -0.057400
vn -0.998400 0.000000 0.057400
vn -0.998400 0.000000 0.057400
vn -0.973800 0.000000 0.227200
vn -0.973800 0.000000 0.227200
vn -0.898200 0.000000 0.439500
vn -0.898200 0.000000 0.439500
vn -0.780100 0.000000 0.625700
vn -0.780100 0.000000 0.625700
vn -0.625700 0.000000 0.780100
vn -0.625700 0.000000 0.780100
vn -0.439600 0.000000 0.898200
vn -0.439600 0.000000 0.898200
vn -0.227200 0.000000 0.973800
vn -0.227200 0.000000 0.973800
vn -0.057400 -0.000000 0.998400
vn -0.057400 -0.000000 0.998400
vn 0.057400 -0.000000 0.998400
vn 0.057400 -0.000000 0.998400
vn -0.000000 -1.000000 -0.000000
vn -0.000000 -1.000000 -0.000000
vn -0.000000 -1.000000 -0.000000
vn -0.000000 -1.000000 -0.000000
vn -0.000000 -1.000000 -0.000000
vn -0.000000 -1.000000 -0.000000
vn -0.000000 -1.000000 -0.000000
vn -0.000000 -1.000000 -0.000000
vn -0.000000 -1.000000 -0.000000
vn -0.000000 -1.000000 -0.000000
vn -0.000000 -1.000000 -0.000000
vn -0.000000 -1.000000 -0.000000
vn -0.000000 -1.000000 -0.000000
vn -0.000000 -1.000000 -0.000000
vn -0.000000 -1.000000 -0.000000
vn -0.000000 -1.000000 -0.000000
vn -0.000000 -1.000000 -0.000000
vn -0.000000 -1.000000 -0.000000
vn -0.000000 -1.000000 -0.000000
vn -0.000000 -1.000000 -0.000000
vn -0.000000 -1.000000 -0.000000
vn -0.000000 -1.000000 -0.000000
vn -0.000000 -1.000000 -0.000000
vn -0.000000 -1.000000 -0.000000
vn -0.000000 -1.000000 -0.000000
vn -0.000000 -1.000000 -0.000000
vn -0.000000 -1.000000 -0.000000
vn -0.000000 -1.000000 -0.000000
vn -0.000000 -1.000000 -0.000000
vn -0.000000 -1.000000 -0.000000
vn -0.000000 -1.000000 -0.000000
vn -0.000000 -1.000000 -0.000000
vn -0.000000 -1.000000 -0.000000
vn 0.240400 -0.709800 0.662100
vn 0.240400 -0.709800 0.662100
vn 0.240400 -0.709800 0.662100
vn 0.236200 -0.713000 0.660100
vn 0.236200 -0.713000 0.660100
vn 0.236200 -0.713000 0.660100
vn 0.402700 -0.697900 0.592200
vn 0.402700 -0.697900 0.592200
vn 0.402700 -0.697900 0.592200
vn 0.371600 -0.721500 0.584200
vn 0.371600 -0.721500 0.584200
vn 0.371600 -0.721500 0.584200
vn 0.547500 -0.680200 0.487500
vn 0.547500 -0.680200 0.487500
vn 0.547500 -0.680200 0.487500
vn 0.482400 -0.731200 0.482400
vn 0.482400 -0.731200 0.482400
vn 0.482400 -0.731200 0.482400
vn 0.674900 -0.650300 0.348600
vn 0.674900 -0.650300 0.348600
vn 0.674900 -0.650300 0.348600
vn 0.563600 -0.744200 0.358500
vn 0.563600 -0.744200 0.358500
vn 0.563600 -0.744200 0.358500
vn 0.787600 -0.591700 0.172200
vn 0.787600 -0.591700 0.172200
vn 0.787600 -0.591700 0.172200
vn 0.607100 -0.764400 0.217200
vn 0.607100 -0.764400 0.217200
vn 0.607100 -0.764400 0.217200
vn 0.857600 -0.514200 -0.005300
vn 0.857600 -0.514200 -0.005300
vn 0.857600 -0.514200 -0.005300
vn 0.654500 -0.752300 0.075500
vn 0.654500 -0.752300 0.075500
vn 0.654500 -0.752300 0.075500
vn 0.758800 -0.651300 -0.000000
vn 0.758800 -0.651300 -0.000000
vn 0.758800 -0.651300 -0.000000
vn 0.758800 -0.651300 -0.000000
vn 0.764700 -0.644400 0.004700
vn 0.764700 -0.644400 0.004700
vn 0.764700 -0.644400 0.004700
vn 0.770300 -0.631500 -0.088900
vn 0.770300 -0.631500 -0.088900
vn 0.770300 -0.631500 -0.088900
vn 0.696500 -0.701300 -0.152300
vn 0.696500 -0.701300 -0.152300
vn 0.696500 -0.701300 -0.152300
vn 0.704700 -0.663100 -0.252200
vn 0.704700 -0.663100 -0.252200
vn 0.704700 -0.663100 -0.252200
vn 0.619400 -0.716900 -0.320000
vn 0.619400 -0.716900 -0.320000
vn 0.619400 -0.716900 -0.320000
vn 0.618400 -0.680300 -0.393400
vn 0.618400 -0.680300 -0.393400
vn 0.618400 -0.680300 -0.393400
vn 0.518000 -0.720300 -0.461300
vn 0.518000 -0.720300 -0.461300
vn 0.518000 -0.720300 -0.461300
vn 0.510600 -0.691800 -0.510600
vn 0.510600 -0.691800 -0.510600
vn 0.510600 -0.691800 -0.510600
vn 0.391100 -0.718600 -0.575100
vn 0.391100 -0.718600 -0.575100
vn 0.391100 -0.718600 -0.575100
vn 0.382800 -0.701000 -0.601700
vn 0.382800 -0.701000 -0.601700
vn 0.382800 -0.701000 -0.601700
vn 0.239300 -0.713000 -0.659100
vn 0.239300 -0.713000 -0.659100
vn 0.239300 -0.713000 -0.659100
vn 0.237300 -0.709900 -0.663100
vn 0.237300 -0.709900 -0.663100
vn 0.237300 -0.709900 -0.663100
vn 0.073900 -0.703600 -0.706800
vn 0.073900 -0.703600 -0.706800
vn 0.073900 -0.703600 -0.706800
vn 0.080500 -0.711900 -0.697700
vn 0.080500 -0.711900 -0.697700
vn 0.080500 -0.711900 -0.697700
vn -0.000000 -0.702200 -0.712000
vn -0.000000 -0.702200 -0.712000
vn -0.000000 -0.702200 -0.712000
vn -0.000000 -0.702200 -0.712000
vn -0.073100 -0.711200 -0.699200
vn -0.073100 -0.711200 -0.699200
vn -0.073100 -0.711200 -0.699200
vn -0.081400 -0.704300 -0.705200
vn -0.081400 -0.704300 -0.705200
vn -0.081400 -0.704300 -0.705200
vn -0.240400 -0.709800 -0.662100
vn -0.240400 -0.709800 -0.662100
vn -0.240400 -0.709800 -0.662100
vn -0.236200 -0.713000 -0.660100
vn -0.236200 -0.713000 -0.660100
vn -0.236200 -0.713000 -0.660100
vn -0.402700 -0.697900 -0.592200
vn -0.402700 -0.697900 -0.592200
vn -0.402700 -0.697900 -0.592200
vn -0.371600 -0.721500 -0.584200
vn -0.371600 -0.721500 -0.584200
vn -0.371600 -0.721500 -0.584200
vn -0.547500 -0.680200 -0.487500
vn -0.547500 -0.680200 -0.487500
vn -0.547500 -0.680200 -0.487500
vn -0.482400 -0.731200 -0.482400
vn -0.482400 -0.731200 -0.482400
vn -0.482400 -0.731200 -0.482400
vn -0.674900 -0.650300 -0.348600
vn -0.674900 -0.650300 -0.348600
vn -0.674900 -0.650300 -0.348600
vn -0.563600 -0.744200 -0.358600
vn -0.563600 -0.744200 -0.358600
vn -0.563600 -0.744200 -0.358600
vn -0.787600 -0.591700 -0.172200
vn -0.787600 -0.591700 -0.172200
vn -0.787600 -0.591700 -0.172200
vn -0.607100 -0.764400 -0.217200
vn -0.607100 -0.764400 -0.217200
vn -0.607100 -0.764400 -0.217200
vn -0.857600 -0.514200 0.005300
vn -0.857600 -0.514200 0.005300
vn -0.857600 -0.514200 0.005300
vn -0.654500 -0.752300 -0.075500
vn -0.654500 -0.752300 -0.075500
vn -0.654500 -0.752300 -0.075500
vn -0.758800 -0.651300 -0.000000
vn -0.758800 -0.651300 -0.000000
vn -0.758800 -0.651300 -0.000000
vn -0.758800 -0.651300 -0.000000
vn -0.764700 -0.644400 -0.004700
vn -0.764700 -0.644400 -0.004700
vn -0.764700 -0.644400 -0.004700
vn -0.770300 -0.631500 0.088900
vn -0.770300 -0.631500 0.088900
vn -0.770300 -0.631500 0.088900
vn -0.696500 -0.701300 0.152300
vn -0.696500 -0.701300 0.152300
vn -0.696500 -0.701300 0.152300
vn -0.704700 -0.663100 0.252200
vn -0.704700 -0.663100 0.252200
vn -0.704700 -0.663100 0.252200
vn -0.619400 -0.716900 0.320000
vn -0.619400 -0.716900 0.320000
vn -0.619400 -0.716900 0.320000
vn -0.618400 -0.680300 0.393400
vn -0.618400 -0.680300 0.393400
vn -0.618400 -0.680300 0.393400
vn -0.518000 -0.720300 0.461200
vn -0.518000 -0.720300 0.461200
vn -0.518000 -0.720300 0.461200
vn -0.510600 -0.691800 0.510600
vn -0.510600 -0.691800 0.510600
vn -0.510600 -0.691800 0.510600
vn -0.391100 -0.718600 0.575100
vn -0.391100 -0.718600 0.575100
vn -0.391100 -0.718600 0.575100
vn -0.382800 -0.701000 0.601700
vn -0.382800 -0.701000 0.601700
vn -0.382800 -0.701000 0.601700
vn -0.239300 -0.713000 0.659100
vn -0.239300 -0.713000 0.659100
vn -0.239300 -0.713000 0.659100
vn -0.237300 -0.709900 0.663100
vn -0.237300 -0.709900 0.663100
vn -0.237300 -0.709900 0.663100
vn -0.073900 -0.703600 0.706800
vn -0.073900 -0.703600 0.706800
vn -0.073900 -0.703600 0.706800
vn -0.080500 -0.711900 0.697700
vn -0.080500 -0.711900 0.697700
vn -0.080500 -0.711900 0.697700
vn -0.000000 -0.702200 0.712000
vn -0.000000 -0.702200 0.712000
vn -0.000000 -0.702200 0.712000
vn -0.000000 -0.702200 0.712000
vn 0.073100 -0.711200 0.699200
vn 0.073100 -0.711200 0.699200
vn 0.073100 -0.711200 0.699200
vn 0.081400 -0.704300 0.705200
vn 0.081400 -0.704300 0.705200
vn 0.081400 -0.704300 0.705200

s off
f 1/1/1 2/2/2 3/3/3
f 3/3/3 4/4/4 1/1/1
f 5/5/5 1/1/1 4/4/4
f 4/4/4 6/6/6 5/5/5
f 7/7/7 5/5/5 6/6/6
f 6/6/6 8/8/8 7/7/7
f 9/9/9 7/7/7 8/8/8
f 8/8/8 10/10/10 9/9/9
f 11/11/11 9/9/9 10/10/10
f 10/10/10 12/12/12 11/11/11
f 13/13/13 11/11/11 12/12/12
f 12/12/12 14/14/14 13/13/13
f 15/15/15 13/13/13 14/14/14
f 14/14/14 16/16/16 15/15/15
f 17/17/17 15/15/15 16/16/16
f 16/16/16 18/18/18 17/17/17
f 19/19/19 17/17/17 18/18/18
f 18/18/18 20/20/20 19/19/19
f 21/21/21 19/19/19 20/20/20
f 20/20/20 22/22/22 21/21/21
f 23/23/23 21/21/21 22/22/22
f 22/22/22 24/24/24 23/23/23
f 25/25/25 23/23/23 24/24/24
f 24/24/24 26/26/26 25/25/25
f 27/27/27 25/25/25 26/26/26
f 26/26/26 28/28/28 27/27/27
f 29/29/29 27/27/27 28/28/28
f 28/28/28 30/30/30 29/29/29
f 31/31/31 29/29/29 30/30/30
f 30/30/30 32/32/32 31/31/31
f 33/33/33 31/31/31 32/32/32
f 32/32/32 34/34/34 33/33/33
f 35/35/35 33/33/33 34/34/34
f 34/34/34 36/36/36 35/35/35
f 37/37/37 35/35/35 36/36/36
f 36/36/36 38/38/38 37/37/37
f 39/39/39 37/37/37 38/38/38
f 38/38/38 40/40/40 39/39/39
f 41/41/41 39/39/39 40/40/40
f 40/40/40 42/42/42 41/41/41
f 43/43/43 41/41/41 42/42/42
f 42/42/42 44/44/44 43/43/43
f 45/45/45 43/43/43 44/44/44
f 44/44/44 46/46/46 45/45/45
f 47/47/47 45/45/45 46/46/46
f 46/46/46 48/48/48 47/47/47
f 49/49/49 47/47/47 48/48/48
f 48/48/48 50/50/50 49/49/49
f 51/51/51 49/49/49 50/50/50
f 50/50/50 52/52/52 51/51/51
f 53/53/53 51/51/51 52/52/52
f 52/52/52 54/54/54 53/53/53
f 55/55/55 53/53/53 54/54/54
f 54/54/54 56/56/56 55/55/55
f 57/57/57 55/55/55 56/56/56
f 56/56/56 58/58/58 57/57/57
f 59/59/59 57/57/57 58/58/58
f 58/58/58 60/60/60 59/59/59
f 61/61/61 59/59/59 60/60/60
f 60/60/60 62/62/62 61/61/61
f 63/63/63 61/61/61 62/62/62
f 62/62/62 64/64/64 63/63/63
f 2/2/2 63/63/63 64/64/64
f 64/64/64 3/3/3 2/2/2
f 65/65/65 66/66/66 67/67/67
f 67/67/67 66/66/66 68/68/68
f 68/68/68 66/66/66 69/69/69
f 69/69/69 66/66/66 70/70/70
f 70/70/70 66/66/66 71/71/71
f 71/71/71 66/66/66 72/72/72
f 72/72/72 66/66/66 73/73/73
f 73/73/73 66/66/66 74/74/74
f 74/74/74 66/66/66 75/75/75
f 75/75/75 66/66/66 76/76/76
f 76/76/76 66/66/66 77/77/77
f 77/77/77 66/66/66 78/78/78
f 78/78/78 66/66/66 79/79/79
f 79/79/79 66/66/66 80/80/80
f 80/80/80 66/66/66 81/81/81
f 81/81/81 66/66/66 82/82/82
f 82/82/82 66/66/66 83/83/83
f 83/83/83 66/66/66 84/84/84
f 84/84/84 66/66/66 85/85/85
f 85/85/85 66/66/66 86/86/86
f 86/86/86 66/66/66 87/87/87
f 87/87/87 66/66/66 88/88/88
f 88/88/88 66/66/66 89/89/89
f 89/89/89 66/66/66 90/90/90
f 90/90/90 66/66/66 91/91/91
f 91/91/91 66/66/66 92/92/92
f 92/92/92 66/66/66 93/93/93
f 93/93/93 66/66/66 94/94/94
f 94/94/94 66/66/66 95/95/95
f 95/95/95 66/66/66 96/96/96
f 96/96/96 66/66/66 97/97/97
f 97/97/97 66/66/66 65/65/65
f 98/98/98 99/99/99 100/100/100
f 101/101/101 102/102/102 103/103/103
f 104/104/104 105/105/105 106/106/106
f 107/107/107 108/108/108 109/109/109
f 110/110/110 111/111/111 112/112/112
f 113/113/113 114/114/114 115/115/115
f 116/116/116 117/117/117 118/118/118
f 119/119/119 120/120/120 121/121/121
f 122/122/122 123/123/123 124/124/124
f 125/125/125 126/126/126 127/127/127
f 128/128/128 129/129/129 130/130/130
f 131/131/131 132/132/132 133/133/133
f 134/134/134 135/135/135 136/136/136
f 136/136/136 137/137/137 134/134/134
f 138/138/138 139/139/139 140/140/140
f 141/141/141 142/142/142 143/143/143
f 144/144/144 145/145/145 146/146/146
f 147/147/147 148/148/148 149/149/149
f 150/150/150 151/151/151 152/152/152
f 153/153/153 154/154/154 155/155/155
f 156/156/156 157/157/157 158/158/158
f 159/159/159 160/160/160 161/161/161
f 162/162/162 163/163/163 164/164/164
f 165/165/165 166/166/166 167/167/167
f 168/168/168 169/169/169 170/170/170
f 171/171/171 172/172/172 173/173/173
f 174/174/174 175/175/175 176/176/176
f 177/177/177 178/178/178 179/179/179
f 180/180/180 181/181/181 182/182/182
f 182/182/182 183/183/183 180/180/180
f 184/184/184 185/185/185 186/186/186
f 187/187/187 188/188/188 189/189/189
f 190/190/190 191/191/191 192/192/192
f 193/193/193 194/194/194 195/195/195
f 196/196/196 197/197/197 198/198/198
f 199/199/199 200/200/200 201/201/201
f 202/202/202 203/203/203 204/204/204
f 205/205/205 206/206/206 207/207/207
f 208/208/208 209/209/209 210/210/210
f 211/211/211 212/212/212 213/213/213
f 214/214/214 215/215/215 216/216/216
f 217/217/217 218/218/218 219/219/219
f 220/220/220 221/221/221 222/222/222
f 223/223/223 224/224/224 225/225/225
f 226/226/226 227/227/227 228/228/228
f 228/228/228 229/229/229 226/226/226
f 230/230/230 231/231/231 232/232/232
f 233/233/233 234/234/234 235/235/235
f 236/236/236 237/237/237 238/238/238
f 239/239/239 240/240/240 241/241/241
f 242/242/242 243/243/243 244/244/244
f 245/245/245 246/246/246 247/247/247
f 248/248/248 249/249/249 250/250/250
f 251/251/251 252/252/252 253/253/253
f 254/254/254 255/255/255 256/256/256
f 257/257/257 258/258/258 259/259/259
f 260/260/260 261/261/261 262/262/262
f 263/263/263 264/264/264 265/265/265
f 266/266/266 267/267/267 268/268/268
f 269/269/269 270/270/270 271/271/271
f 272/272/272 273/273/273 274/274/274
f 274/274/274 275/275/275 272/272/272
f 276/276/276 277/277/277 278/278/278
f 279/279/279 280/280/280 281/281/281
