# Exported using automatic converter by Erwin Coumans
mtllib bedroom.mtl
#object Layer_g_vde

v 113.529900 156.323105 1.000000
v 119.529900 156.323105 1.000000
v 113.529900 150.323105 1.000000
v 119.529900 150.323105 1.000000
v 113.529900 156.323105 1.000000
v 119.329903 156.323105 5.000000
v 119.529900 156.323105 1.000000
v 113.529900 156.323105 24.000000
v 113.729897 156.323105 11.000000
v 113.729897 156.323105 14.700000
v 119.329903 156.323105 11.000000
v 119.529900 156.323105 24.000000
v 113.729897 156.323105 10.800000
v 113.729897 156.323105 5.000000
v 119.329903 156.323105 14.700000
v 119.329903 156.323105 10.800000
v 113.529900 150.323105 1.000000
v 113.529900 150.323105 24.000000
v 113.529900 156.323105 1.000000
v 113.529900 156.323105 24.000000
v 113.729897 156.323105 11.000000
v 113.729897 156.323105 14.700000
v 113.729897 150.323105 11.000000
v 113.729897 150.323105 14.700000
v 113.729897 156.323105 5.000000
v 113.729897 156.323105 10.800000
v 113.729897 150.323105 5.000000
v 113.729897 150.323105 10.800000
v 113.729897 156.323105 10.800000
v 119.329903 156.323105 10.800000
v 113.729897 150.323105 10.800000
v 119.329903 150.323105 10.800000
v 113.729897 156.323105 14.700000
v 119.329903 156.323105 14.700000
v 113.729897 150.323105 14.700000
v 119.329903 150.323105 14.700000
v 119.329903 156.323105 14.700000
v 119.329903 156.323105 11.000000
v 119.329903 150.323105 14.700000
v 119.329903 150.323105 11.000000
v 113.729897 150.323105 11.000000
v 119.329903 150.323105 11.000000
v 113.729897 156.323105 11.000000
v 119.329903 156.323105 11.000000
v 119.329903 156.323105 10.800000
v 119.329903 156.323105 5.000000
v 119.329903 150.323105 10.800000
v 119.329903 150.323105 5.000000
v 113.729897 150.323105 5.000000
v 119.329903 150.323105 5.000000
v 113.729897 156.323105 5.000000
v 119.329903 156.323105 5.000000
v 113.529900 150.323105 24.000000
v 119.529900 150.323105 24.000000
v 113.529900 156.323105 24.000000
v 119.529900 156.323105 24.000000
v 119.529900 156.323105 1.000000
v 119.529900 156.323105 24.000000
v 119.529900 150.323105 1.000000
v 119.529900 150.323105 24.000000
v 119.529900 150.323105 1.000000
v 119.329903 150.323105 5.000000
v 113.529900 150.323105 1.000000
v 119.529900 150.323105 24.000000
v 119.329903 150.323105 11.000000
v 119.329903 150.323105 14.700000
v 113.729897 150.323105 11.000000
v 113.529900 150.323105 24.000000
v 113.729897 150.323105 5.000000
v 113.729897 150.323105 10.800000
v 119.329903 150.323105 10.800000
v 113.729897 150.323105 14.700000
v 137.529907 121.223099 19.500000
v 137.529907 127.223099 19.500000
v 137.529907 121.223099 24.000000
v 137.529907 127.223099 24.000000
v 137.529907 121.223099 19.500000
v 129.049896 121.223099 19.500000
v 137.529907 127.223099 19.500000
v 129.049896 127.223099 19.500000
v 137.529907 121.223099 19.500000
v 137.529907 121.223099 24.000000
v 129.049896 121.223099 19.500000
v 129.049896 121.223099 24.000000
v 129.049896 127.223099 19.500000
v 129.049896 121.223099 19.500000
v 129.049896 127.223099 24.000000
v 129.049896 121.223099 24.000000
v 137.529907 127.223099 24.000000
v 137.529907 127.223099 19.500000
v 129.049896 127.223099 24.000000
v 129.049896 127.223099 19.500000
v 137.529907 127.223099 24.000000
v 129.049896 127.223099 24.000000
v 137.529907 121.223099 24.000000
v 129.049896 121.223099 24.000000
usemtl wire_255223127

vn 0.000000 0.000000 -1.000000
vn 0.000000 0.000000 -1.000000
vn 0.000000 0.000000 -1.000000
vn 0.000000 0.000000 -1.000000
vn 0.000000 1.000000 0.000000
vn 0.000000 1.000000 0.000000
vn 0.000000 1.000000 0.000000
vn 0.000000 1.000000 0.000000
vn 0.000000 1.000000 0.000000
vn 0.000000 1.000000 0.000000
vn 0.000000 1.000000 0.000000
vn 0.000000 1.000000 0.000000
vn 0.000000 1.000000 0.000000
vn 0.000000 1.000000 0.000000
vn 0.000000 1.000000 0.000000
vn 0.000000 1.000000 0.000000
vn -1.000000 0.000000 0.000000
vn -1.000000 0.000000 0.000000
vn -1.000000 0.000000 0.000000
vn -1.000000 0.000000 0.000000
vn 1.000000 0.000000 0.000000
vn 1.000000 0.000000 0.000000
vn 1.000000 0.000000 0.000000
vn 1.000000 0.000000 0.000000
vn 1.000000 0.000000 0.000000
vn 1.000000 0.000000 0.000000
vn 1.000000 0.000000 0.000000
vn 1.000000 0.000000 0.000000
vn 0.000000 0.000000 -1.000000
vn 0.000000 0.000000 -1.000000
vn 0.000000 0.000000 -1.000000
vn 0.000000 0.000000 -1.000000
vn 0.000000 0.000000 -1.000000
vn 0.000000 0.000000 -1.000000
vn 0.000000 0.000000 -1.000000
vn 0.000000 0.000000 -1.000000
vn -1.000000 0.000000 0.000000
vn -1.000000 0.000000 0.000000
vn -1.000000 0.000000 0.000000
vn -1.000000 0.000000 0.000000
vn 0.000000 0.000000 1.000000
vn 0.000000 0.000000 1.000000
vn 0.000000 0.000000 1.000000
vn 0.000000 0.000000 1.000000
vn -1.000000 0.000000 0.000000
vn -1.000000 0.000000 0.000000
vn -1.000000 0.000000 0.000000
vn -1.000000 0.000000 0.000000
vn 0.000000 0.000000 1.000000
vn 0.000000 0.000000 1.000000
vn 0.000000 0.000000 1.000000
vn 0.000000 0.000000 1.000000
vn 0.000000 0.000000 1.000000
vn 0.000000 0.000000 1.000000
vn 0.000000 0.000000 1.000000
vn 0.000000 0.000000 1.000000
vn 1.000000 0.000000 0.000000
vn 1.000000 0.000000 0.000000
vn 1.000000 0.000000 0.000000
vn 1.000000 0.000000 0.000000
vn 0.000000 -1.000000 0.000000
vn 0.000000 -1.000000 0.000000
vn 0.000000 -1.000000 0.000000
vn 0.000000 -1.000000 0.000000
vn 0.000000 -1.000000 0.000000
vn 0.000000 -1.000000 0.000000
vn 0.000000 -1.000000 0.000000
vn 0.000000 -1.000000 0.000000
vn 0.000000 -1.000000 0.000000
vn 0.000000 -1.000000 0.000000
vn 0.000000 -1.000000 0.000000
vn 0.000000 -1.000000 0.000000
vn 1.000000 0.000000 0.000000
vn 1.000000 0.000000 0.000000
vn 1.000000 0.000000 0.000000
vn 1.000000 0.000000 0.000000
vn 0.000000 0.000000 -1.000000
vn 0.000000 0.000000 -1.000000
vn 0.000000 0.000000 -1.000000
vn 0.000000 0.000000 -1.000000
vn 0.000000 -1.000000 0.000000
vn 0.000000 -1.000000 0.000000
vn 0.000000 -1.000000 0.000000
vn 0.000000 -1.000000 0.000000
vn -1.000000 0.000000 0.000000
vn -1.000000 0.000000 0.000000
vn -1.000000 0.000000 0.000000
vn -1.000000 0.000000 0.000000
vn 0.000000 1.000000 0.000000
vn 0.000000 1.000000 0.000000
vn 0.000000 1.000000 0.000000
vn 0.000000 1.000000 0.000000
vn 0.000000 0.000000 1.000000
vn 0.000000 0.000000 1.000000
vn 0.000000 0.000000 1.000000
vn 0.000000 0.000000 1.000000

vt -1134.298950 1564.231323
vt -1194.298950 1564.231323
vt -1134.298950 1504.231323
vt -1194.298950 1504.231323
vt -1134.298950 11.000000
vt -1192.298950 51.000000
vt -1194.298950 11.000000
vt -1134.298950 241.000000
vt -1136.298950 111.000000
vt -1136.298950 148.000000
vt -1192.298950 111.000000
vt -1194.298950 241.000000
vt -1136.298950 109.000000
vt -1136.298950 51.000000
vt -1192.298950 148.000000
vt -1192.298950 109.000000
vt -1502.231323 11.000000
vt -1502.231323 241.000000
vt -1562.231323 11.000000
vt -1562.231323 241.000000
vt 1564.231323 111.000000
vt 1564.231323 148.000000
vt 1504.231323 111.000000
vt 1504.231323 148.000000
vt 1564.231323 51.000000
vt 1564.231323 109.000000
vt 1504.231323 51.000000
vt 1504.231323 109.000000
vt -1136.298950 1564.231323
vt -1192.298950 1564.231323
vt -1136.298950 1504.231323
vt -1192.298950 1504.231323
vt -1136.298950 1564.231323
vt -1192.298950 1564.231323
vt -1136.298950 1504.231323
vt -1192.298950 1504.231323
vt -1562.231323 148.000000
vt -1562.231323 111.000000
vt -1502.231323 148.000000
vt -1502.231323 111.000000
vt 1138.298950 1504.231323
vt 1194.298950 1504.231323
vt 1138.298950 1564.231323
vt 1194.298950 1564.231323
vt -1562.231323 109.000000
vt -1562.231323 51.000000
vt -1502.231323 109.000000
vt -1502.231323 51.000000
vt 1138.298950 1504.231323
vt 1194.298950 1504.231323
vt 1138.298950 1564.231323
vt 1194.298950 1564.231323
vt 1136.298950 1504.231323
vt 1196.298950 1504.231323
vt 1136.298950 1564.231323
vt 1196.298950 1564.231323
vt 1564.231323 11.000000
vt 1564.231323 241.000000
vt 1504.231323 11.000000
vt 1504.231323 241.000000
vt 1196.298950 11.000000
vt 1194.298950 51.000000
vt 1136.298950 11.000000
vt 1196.298950 241.000000
vt 1194.298950 111.000000
vt 1194.298950 148.000000
vt 1138.298950 111.000000
vt 1136.298950 241.000000
vt 1138.298950 51.000000
vt 1138.298950 109.000000
vt 1194.298950 109.000000
vt 1138.298950 148.000000
vt 1213.231323 196.000000
vt 1273.231323 196.000000
vt 1213.231323 241.000000
vt 1273.231323 241.000000
vt -1374.298950 1213.231323
vt -1289.498901 1213.231323
vt -1374.298950 1273.231323
vt -1289.498901 1273.231323
vt 1376.298950 196.000000
vt 1376.298950 241.000000
vt 1291.498901 196.000000
vt 1291.498901 241.000000
vt -1271.231323 196.000000
vt -1211.231323 196.000000
vt -1271.231323 241.000000
vt -1211.231323 241.000000
vt -1374.298950 241.000000
vt -1374.298950 196.000000
vt -1289.498901 241.000000
vt -1289.498901 196.000000
vt 1376.298950 1273.231323
vt 1291.498901 1273.231323
vt 1376.298950 1213.231323
vt 1291.498901 1213.231323
s off
f 1/1/1 2/2/2 3/3/3
f 2/2/2 4/4/4 3/3/3
f 5/5/5 6/6/6 7/7/7
f 8/8/8 9/9/9 5/5/5
f 9/9/9 8/8/8 10/10/10
f 7/7/7 11/11/11 12/12/12
f 5/5/5 9/9/9 13/13/13
f 5/5/5 13/13/13 14/14/14
f 5/5/5 14/14/14 6/6/6
f 11/11/11 15/15/15 12/12/12
f 15/15/15 10/10/10 12/12/12
f 12/12/12 10/10/10 8/8/8
f 6/6/6 16/16/16 7/7/7
f 7/7/7 16/16/16 11/11/11
f 9/9/9 11/11/11 13/13/13
f 13/13/13 11/11/11 16/16/16
f 17/17/17 18/18/18 19/19/19
f 18/18/18 20/20/20 19/19/19
f 21/21/21 22/22/22 23/23/23
f 22/22/22 24/24/24 23/23/23
f 25/25/25 26/26/26 27/27/27
f 26/26/26 28/28/28 27/27/27
f 29/29/29 30/30/30 31/31/31
f 30/30/30 32/32/32 31/31/31
f 33/33/33 34/34/34 35/35/35
f 34/34/34 36/36/36 35/35/35
f 37/37/37 38/38/38 39/39/39
f 38/38/38 40/40/40 39/39/39
f 41/41/41 42/42/42 43/43/43
f 42/42/42 44/44/44 43/43/43
f 45/45/45 46/46/46 47/47/47
f 46/46/46 48/48/48 47/47/47
f 49/49/49 50/50/50 51/51/51
f 50/50/50 52/52/52 51/51/51
f 53/53/53 54/54/54 55/55/55
f 54/54/54 56/56/56 55/55/55
f 57/57/57 58/58/58 59/59/59
f 58/58/58 60/60/60 59/59/59
f 61/61/61 62/62/62 63/63/63
f 64/64/64 65/65/65 61/61/61
f 65/65/65 64/64/64 66/66/66
f 63/63/63 67/67/67 68/68/68
f 62/62/62 69/69/69 63/63/63
f 69/69/69 70/70/70 63/63/63
f 71/71/71 65/65/65 70/70/70
f 65/65/65 71/71/71 61/61/61
f 65/65/65 67/67/67 70/70/70
f 67/67/67 72/72/72 68/68/68
f 72/72/72 66/66/66 68/68/68
f 68/68/68 66/66/66 64/64/64
f 70/70/70 67/67/67 63/63/63
f 62/62/62 61/61/61 71/71/71
f 73/73/73 74/74/74 75/75/75
f 74/74/74 76/76/76 75/75/75
f 77/77/77 78/78/78 79/79/79
f 78/78/78 80/80/80 79/79/79
f 81/81/81 82/82/82 83/83/83
f 82/82/82 84/84/84 83/83/83
f 85/85/85 86/86/86 87/87/87
f 86/86/86 88/88/88 87/87/87
f 89/89/89 90/90/90 91/91/91
f 90/90/90 92/92/92 91/91/91
f 93/93/93 94/94/94 95/95/95
f 94/94/94 96/96/96 95/95/95
