# Exported using automatic converter by Erwin Coumans
mtllib bedroom.mtl
#object Arch28_042_41

v 132.647797 142.124893 26.996500
v 132.655197 142.126907 26.996500
v 132.655197 142.126907 22.906000
v 132.647797 142.124893 22.906000
v 132.642303 142.119400 26.996500
v 132.642303 142.119400 22.906000
v 132.640198 142.111893 26.996500
v 132.640198 142.111893 22.906000
v 132.642303 142.104401 26.996500
v 132.642303 142.104401 22.906000
v 132.647797 142.098907 26.996500
v 132.647797 142.098907 22.906000
v 132.655197 142.096893 26.996500
v 132.655197 142.096893 22.906000
v 132.662796 142.098907 26.996500
v 132.662796 142.098907 22.906000
v 132.668198 142.104401 26.996500
v 132.668198 142.104401 22.906000
v 132.670197 142.111893 26.996500
v 132.670197 142.111893 22.906000
v 132.668198 142.119400 26.996500
v 132.668198 142.119400 22.906000
v 132.662796 142.124893 26.996500
v 132.662796 142.124893 22.906000
v 132.655197 142.126907 22.906000
v 132.642303 142.119400 22.906000
v 132.647797 142.124893 22.906000
v 132.640198 142.111893 22.906000
v 132.642303 142.104401 22.906000
v 132.647797 142.098907 22.906000
v 132.655197 142.096893 22.906000
v 132.662796 142.098907 22.906000
v 132.668198 142.104401 22.906000
v 132.670197 142.111893 22.906000
v 132.668198 142.119400 22.906000
v 132.662796 142.124893 22.906000
v 132.655197 142.126907 26.996500
v 132.647797 142.124893 26.996500
v 132.642303 142.119400 26.996500
v 132.640198 142.111893 26.996500
v 132.642303 142.104401 26.996500
v 132.647797 142.098907 26.996500
v 132.655197 142.096893 26.996500
v 132.662796 142.098907 26.996500
v 132.668198 142.104401 26.996500
v 132.670197 142.111893 26.996500
v 132.668198 142.119400 26.996500
v 132.662796 142.124893 26.996500
v 133.247192 142.124893 26.996500
v 133.254700 142.126907 26.996500
v 133.254700 142.126907 22.906000
v 133.247192 142.124893 22.906000
v 133.241699 142.119400 26.996500
v 133.241699 142.119400 22.906000
v 133.239700 142.111893 26.996500
v 133.239700 142.111893 22.906000
v 133.241699 142.104401 26.996500
v 133.241699 142.104401 22.906000
v 133.247192 142.098907 26.996500
v 133.247192 142.098907 22.906000
v 133.254700 142.096893 26.996500
v 133.254700 142.096893 22.906000
v 133.262207 142.098907 26.996500
v 133.262207 142.098907 22.906000
v 133.267700 142.104401 26.996500
v 133.267700 142.104401 22.906000
v 133.269699 142.111893 26.996500
v 133.269699 142.111893 22.906000
v 133.267700 142.119400 26.996500
v 133.267700 142.119400 22.906000
v 133.262207 142.124893 26.996500
v 133.262207 142.124893 22.906000
v 133.254700 142.126907 22.906000
v 133.241699 142.119400 22.906000
v 133.247192 142.124893 22.906000
v 133.239700 142.111893 22.906000
v 133.241699 142.104401 22.906000
v 133.247192 142.098907 22.906000
v 133.254700 142.096893 22.906000
v 133.262207 142.098907 22.906000
v 133.267700 142.104401 22.906000
v 133.269699 142.111893 22.906000
v 133.267700 142.119400 22.906000
v 133.262207 142.124893 22.906000
v 133.254700 142.126907 26.996500
v 133.247192 142.124893 26.996500
v 133.241699 142.119400 26.996500
v 133.239700 142.111893 26.996500
v 133.241699 142.104401 26.996500
v 133.247192 142.098907 26.996500
v 133.254700 142.096893 26.996500
v 133.262207 142.098907 26.996500
v 133.267700 142.104401 26.996500
v 133.269699 142.111893 26.996500
v 133.267700 142.119400 26.996500
v 133.262207 142.124893 26.996500
usemtl wire_086086086

vn -0.500000 0.866000 -0.000000
vn 0.000000 1.000000 -0.000000
vn 0.000000 1.000000 -0.000000
vn -0.500000 0.866000 -0.000000
vn -0.866000 0.500000 -0.000000
vn -0.866000 0.500000 -0.000000
vn -1.000000 0.000000 -0.000000
vn -1.000000 0.000000 -0.000000
vn -0.866000 -0.500000 -0.000000
vn -0.866000 -0.500000 -0.000000
vn -0.500000 -0.866000 0.000000
vn -0.500000 -0.866000 0.000000
vn -0.000000 -1.000000 0.000000
vn 0.000000 -1.000000 0.000000
vn 0.500000 -0.866000 0.000000
vn 0.500000 -0.866000 0.000000
vn 0.866000 -0.500000 0.000000
vn 0.866000 -0.500000 0.000000
vn 1.000000 0.000000 0.000000
vn 1.000000 -0.000000 0.000000
vn 0.866000 0.500000 0.000000
vn 0.866000 0.500000 0.000000
vn 0.500000 0.866000 -0.000000
vn 0.500000 0.866000 -0.000000
vn 0.000000 -0.000000 -1.000000
vn 0.000000 -0.000000 -1.000000
vn 0.000000 -0.000000 -1.000000
vn 0.000000 -0.000000 -1.000000
vn 0.000000 -0.000000 -1.000000
vn 0.000000 -0.000000 -1.000000
vn 0.000000 -0.000000 -1.000000
vn 0.000000 -0.000000 -1.000000
vn 0.000000 -0.000000 -1.000000
vn 0.000000 -0.000000 -1.000000
vn 0.000000 -0.000000 -1.000000
vn 0.000000 -0.000000 -1.000000
vn -0.000000 0.000000 1.000000
vn -0.000000 0.000000 1.000000
vn -0.000000 0.000000 1.000000
vn -0.000000 0.000000 1.000000
vn -0.000000 0.000000 1.000000
vn -0.000000 0.000000 1.000000
vn -0.000000 0.000000 1.000000
vn -0.000000 0.000000 1.000000
vn -0.000000 0.000000 1.000000
vn -0.000000 0.000000 1.000000
vn -0.000000 0.000000 1.000000
vn -0.000000 0.000000 1.000000
vn -0.500000 0.866000 -0.000000
vn 0.000000 1.000000 -0.000000
vn 0.000000 1.000000 -0.000000
vn -0.500000 0.866000 -0.000000
vn -0.866000 0.500000 -0.000000
vn -0.866000 0.500000 -0.000000
vn -1.000000 0.000000 -0.000000
vn -1.000000 0.000000 -0.000000
vn -0.866000 -0.500000 -0.000000
vn -0.866000 -0.500000 -0.000000
vn -0.500000 -0.866000 0.000000
vn -0.500000 -0.866000 0.000000
vn -0.000000 -1.000000 0.000000
vn 0.000000 -1.000000 0.000000
vn 0.500000 -0.866000 0.000000
vn 0.500000 -0.866000 0.000000
vn 0.866000 -0.500000 0.000000
vn 0.866000 -0.500000 0.000000
vn 1.000000 -0.000000 0.000000
vn 1.000000 -0.000000 0.000000
vn 0.866000 0.500000 0.000000
vn 0.866000 0.500000 0.000000
vn 0.500000 0.866000 -0.000000
vn 0.500000 0.866000 -0.000000
vn 0.000000 -0.000000 -1.000000
vn 0.000000 -0.000000 -1.000000
vn 0.000000 -0.000000 -1.000000
vn 0.000000 -0.000000 -1.000000
vn 0.000000 -0.000000 -1.000000
vn 0.000000 -0.000000 -1.000000
vn 0.000000 -0.000000 -1.000000
vn 0.000000 -0.000000 -1.000000
vn 0.000000 -0.000000 -1.000000
vn 0.000000 -0.000000 -1.000000
vn 0.000000 -0.000000 -1.000000
vn 0.000000 -0.000000 -1.000000
vn -0.000000 0.000000 1.000000
vn -0.000000 0.000000 1.000000
vn -0.000000 0.000000 1.000000
vn -0.000000 0.000000 1.000000
vn -0.000000 0.000000 1.000000
vn -0.000000 0.000000 1.000000
vn -0.000000 0.000000 1.000000
vn -0.000000 0.000000 1.000000
vn -0.000000 0.000000 1.000000
vn -0.000000 0.000000 1.000000
vn -0.000000 0.000000 1.000000
vn -0.000000 0.000000 1.000000

s off
f 1/1/1 2/2/2 3/3/3
f 3/3/3 4/4/4 1/1/1
f 5/5/5 1/1/1 4/4/4
f 4/4/4 6/6/6 5/5/5
f 7/7/7 5/5/5 6/6/6
f 6/6/6 8/8/8 7/7/7
f 9/9/9 7/7/7 8/8/8
f 8/8/8 10/10/10 9/9/9
f 11/11/11 9/9/9 10/10/10
f 10/10/10 12/12/12 11/11/11
f 13/13/13 11/11/11 12/12/12
f 12/12/12 14/14/14 13/13/13
f 15/15/15 13/13/13 14/14/14
f 14/14/14 16/16/16 15/15/15
f 17/17/17 15/15/15 16/16/16
f 16/16/16 18/18/18 17/17/17
f 19/19/19 17/17/17 18/18/18
f 18/18/18 20/20/20 19/19/19
f 21/21/21 19/19/19 20/20/20
f 20/20/20 22/22/22 21/21/21
f 23/23/23 21/21/21 22/22/22
f 22/22/22 24/24/24 23/23/23
f 2/2/2 23/23/23 24/24/24
f 24/24/24 3/3/3 2/2/2
f 25/25/25 26/26/26 27/27/27
f 25/25/25 28/28/28 26/26/26
f 25/25/25 29/29/29 28/28/28
f 25/25/25 30/30/30 29/29/29
f 25/25/25 31/31/31 30/30/30
f 25/25/25 32/32/32 31/31/31
f 25/25/25 33/33/33 32/32/32
f 25/25/25 34/34/34 33/33/33
f 25/25/25 35/35/35 34/34/34
f 25/25/25 36/36/36 35/35/35
f 37/37/37 38/38/38 39/39/39
f 37/37/37 39/39/39 40/40/40
f 37/37/37 40/40/40 41/41/41
f 37/37/37 41/41/41 42/42/42
f 37/37/37 42/42/42 43/43/43
f 37/37/37 43/43/43 44/44/44
f 37/37/37 44/44/44 45/45/45
f 37/37/37 45/45/45 46/46/46
f 37/37/37 46/46/46 47/47/47
f 37/37/37 47/47/47 48/48/48
f 49/49/49 50/50/50 51/51/51
f 51/51/51 52/52/52 49/49/49
f 53/53/53 49/49/49 52/52/52
f 52/52/52 54/54/54 53/53/53
f 55/55/55 53/53/53 54/54/54
f 54/54/54 56/56/56 55/55/55
f 57/57/57 55/55/55 56/56/56
f 56/56/56 58/58/58 57/57/57
f 59/59/59 57/57/57 58/58/58
f 58/58/58 60/60/60 59/59/59
f 61/61/61 59/59/59 60/60/60
f 60/60/60 62/62/62 61/61/61
f 63/63/63 61/61/61 62/62/62
f 62/62/62 64/64/64 63/63/63
f 65/65/65 63/63/63 64/64/64
f 64/64/64 66/66/66 65/65/65
f 67/67/67 65/65/65 66/66/66
f 66/66/66 68/68/68 67/67/67
f 69/69/69 67/67/67 68/68/68
f 68/68/68 70/70/70 69/69/69
f 71/71/71 69/69/69 70/70/70
f 70/70/70 72/72/72 71/71/71
f 50/50/50 71/71/71 72/72/72
f 72/72/72 51/51/51 50/50/50
f 73/73/73 74/74/74 75/75/75
f 73/73/73 76/76/76 74/74/74
f 73/73/73 77/77/77 76/76/76
f 73/73/73 78/78/78 77/77/77
f 73/73/73 79/79/79 78/78/78
f 73/73/73 80/80/80 79/79/79
f 73/73/73 81/81/81 80/80/80
f 73/73/73 82/82/82 81/81/81
f 73/73/73 83/83/83 82/82/82
f 73/73/73 84/84/84 83/83/83
f 85/85/85 86/86/86 87/87/87
f 85/85/85 87/87/87 88/88/88
f 85/85/85 88/88/88 89/89/89
f 85/85/85 89/89/89 90/90/90
f 85/85/85 90/90/90 91/91/91
f 85/85/85 91/91/91 92/92/92
f 85/85/85 92/92/92 93/93/93
f 85/85/85 93/93/93 94/94/94
f 85/85/85 94/94/94 95/95/95
f 85/85/85 95/95/95 96/96/96
