# Exported using automatic converter by Erwin Coumans
mtllib bedroom.mtl
#object microwave_007_15

v 117.883003 150.203003 14.148700
v 117.883003 150.074097 14.148700
v 117.883003 150.074097 11.671500
v 117.883003 150.203003 11.671500
v 117.883003 150.203003 11.671500
v 117.883003 150.074097 11.671500
v 113.954498 150.074097 11.671500
v 113.954498 150.203003 11.671500
v 113.954498 150.203003 11.671500
v 113.954498 150.074097 11.671500
v 113.954498 150.074097 14.148700
v 113.954498 150.203003 14.148700
v 113.954498 150.203003 14.148700
v 113.954498 150.074097 14.148700
v 117.883003 150.074097 14.148700
v 117.883003 150.203003 14.148700
v 117.883003 150.203003 11.671500
v 117.500504 150.203003 11.912700
v 117.500504 150.203003 13.907600
v 117.883003 150.203003 14.148700
v 117.883003 150.074097 14.148700
v 117.500504 150.074097 13.907600
v 117.500504 150.074097 11.912700
v 117.883003 150.074097 11.671500
v 113.954498 150.203003 11.671500
v 114.336998 150.203003 11.912700
v 114.336998 150.074097 11.912700
v 113.954498 150.074097 11.671500
v 113.954498 150.203003 14.148700
v 114.336998 150.203003 13.907600
v 114.336998 150.074097 13.907600
v 113.954498 150.074097 14.148700
v 117.487099 150.192505 13.899100
v 117.487099 150.192505 11.921200
v 117.487099 150.084595 11.921200
v 117.487099 150.084595 13.899100
v 117.487099 150.192505 11.921200
v 114.350403 150.192505 11.921200
v 114.350403 150.084595 11.921200
v 117.487099 150.084595 11.921200
v 114.350403 150.192505 11.921200
v 114.350403 150.192505 13.899100
v 114.350403 150.084595 13.899100
v 114.350403 150.084595 11.921200
v 114.350403 150.192505 13.899100
v 117.487099 150.192505 13.899100
v 117.487099 150.084595 13.899100
v 114.350403 150.084595 13.899100
v 117.500504 150.203003 11.912700
v 117.487099 150.192505 11.921200
v 117.487099 150.192505 13.899100
v 117.500504 150.203003 13.907600
v 114.336998 150.203003 11.912700
v 114.350403 150.192505 11.921200
v 117.487099 150.192505 11.921200
v 117.500504 150.203003 11.912700
v 114.336998 150.203003 13.907600
v 114.350403 150.192505 13.899100
v 114.350403 150.192505 11.921200
v 114.336998 150.203003 11.912700
v 117.500504 150.203003 13.907600
v 117.487099 150.192505 13.899100
v 114.350403 150.192505 13.899100
v 114.336998 150.203003 13.907600
v 117.500504 150.074097 13.907600
v 117.487099 150.084595 13.899100
v 117.487099 150.084595 11.921200
v 117.500504 150.074097 11.912700
v 114.336998 150.074097 13.907600
v 114.350403 150.084595 13.899100
v 117.487099 150.084595 13.899100
v 117.500504 150.074097 13.907600
v 114.336998 150.074097 11.912700
v 114.350403 150.084595 11.921200
v 114.350403 150.084595 13.899100
v 114.336998 150.074097 13.907600
v 117.500504 150.074097 11.912700
v 117.487099 150.084595 11.921200
v 114.350403 150.084595 11.921200
v 114.336998 150.074097 11.912700
usemtl wire_115115115

vn 1.000000 -0.000000 0.000000
vn 1.000000 -0.000000 0.000000
vn 1.000000 0.000000 -0.000000
vn 1.000000 0.000000 -0.000000
vn 0.000000 -0.000000 -1.000000
vn 0.000000 -0.000000 -1.000000
vn -0.000000 0.000000 -1.000000
vn -0.000000 0.000000 -1.000000
vn -1.000000 -0.000000 -0.000000
vn -1.000000 -0.000000 -0.000000
vn -1.000000 0.000000 0.000000
vn -1.000000 0.000000 0.000000
vn -0.000000 -0.000000 1.000000
vn -0.000000 -0.000000 1.000000
vn 0.000000 0.000000 1.000000
vn 0.000000 0.000000 1.000000
vn 0.000000 1.000000 0.000000
vn 0.000000 1.000000 0.000000
vn 0.000000 1.000000 0.000000
vn 0.000000 1.000000 0.000000
vn -0.000000 -1.000000 -0.000000
vn -0.000000 -1.000000 -0.000000
vn -0.000000 -1.000000 -0.000000
vn -0.000000 -1.000000 -0.000000
vn 0.000000 1.000000 0.000000
vn 0.000000 1.000000 0.000000
vn -0.000000 -1.000000 -0.000000
vn -0.000000 -1.000000 -0.000000
vn 0.000000 1.000000 0.000000
vn 0.000000 1.000000 0.000000
vn -0.000000 -1.000000 -0.000000
vn -0.000000 -1.000000 -0.000000
vn -1.000000 0.000000 0.000000
vn -1.000000 0.000000 0.000000
vn -1.000000 0.000000 0.000000
vn -1.000000 0.000000 0.000000
vn -0.000000 0.000000 1.000000
vn 0.000000 -0.000000 1.000000
vn 0.000000 -0.000000 1.000000
vn -0.000000 0.000000 1.000000
vn 1.000000 -0.000000 0.000000
vn 1.000000 -0.000000 0.000000
vn 1.000000 -0.000000 0.000000
vn 1.000000 -0.000000 0.000000
vn 0.000000 0.000000 -1.000000
vn -0.000000 -0.000000 -1.000000
vn -0.000000 -0.000000 -1.000000
vn 0.000000 0.000000 -1.000000
vn -0.620200 0.784500 0.000000
vn -0.620200 0.784500 0.000000
vn -0.620200 0.784500 0.000000
vn -0.620200 0.784500 0.000000
vn 0.000000 0.592300 0.805700
vn 0.000000 0.592300 0.805700
vn 0.000000 0.592300 0.805700
vn 0.000000 0.592300 0.805700
vn 0.620200 0.784500 0.000000
vn 0.620200 0.784500 0.000000
vn 0.620200 0.784500 0.000000
vn 0.620200 0.784500 0.000000
vn 0.000000 0.592300 -0.805700
vn 0.000000 0.592300 -0.805700
vn 0.000000 0.592300 -0.805700
vn 0.000000 0.592300 -0.805700
vn -0.620200 -0.784500 -0.000000
vn -0.620200 -0.784500 -0.000000
vn -0.620200 -0.784500 -0.000000
vn -0.620200 -0.784500 -0.000000
vn -0.000000 -0.592300 -0.805700
vn -0.000000 -0.592300 -0.805700
vn -0.000000 -0.592300 -0.805700
vn -0.000000 -0.592300 -0.805700
vn 0.620200 -0.784500 -0.000000
vn 0.620200 -0.784500 -0.000000
vn 0.620200 -0.784500 -0.000000
vn 0.620200 -0.784500 -0.000000
vn -0.000000 -0.592300 0.805700
vn -0.000000 -0.592300 0.805700
vn -0.000000 -0.592300 0.805700
vn -0.000000 -0.592300 0.805700

vt 0.333300 0.666700
vt 0.666700 0.666700
vt 0.666700 0.333300
vt 0.333300 0.333300
vt 0.333300 0.333300
vt 0.666700 0.333300
vt 0.333300 0.333300
vt 0.666700 0.333300
vt 0.666700 0.333300
vt 0.333300 0.333300
vt 0.333300 0.666700
vt 0.666700 0.666700
vt 0.666700 0.666700
vt 0.333300 0.666700
vt 0.666700 0.666700
vt 0.333300 0.666700
vt 0.333300 0.333300
vt 0.365800 0.365800
vt 0.365800 0.634200
vt 0.333300 0.666700
vt 0.666700 0.666700
vt 0.634200 0.634200
vt 0.634200 0.365800
vt 0.666700 0.333300
vt 0.666700 0.333300
vt 0.634200 0.365800
vt 0.365800 0.365800
vt 0.333300 0.333300
vt 0.666700 0.666700
vt 0.634200 0.634200
vt 0.365800 0.634200
vt 0.333300 0.666700
vt 0.388700 0.633100
vt 0.388700 0.366900
vt 0.611300 0.366900
vt 0.611300 0.633100
vt 0.388700 0.366900
vt 0.611300 0.366900
vt 0.388700 0.366900
vt 0.611300 0.366900
vt 0.611300 0.366900
vt 0.611300 0.633100
vt 0.388700 0.633100
vt 0.388700 0.366900
vt 0.611300 0.633100
vt 0.388700 0.633100
vt 0.611300 0.633100
vt 0.388700 0.633100
vt 0.365800 0.365800
vt 0.388700 0.366900
vt 0.388700 0.633100
vt 0.365800 0.634200
vt 0.634200 0.365800
vt 0.611300 0.366900
vt 0.388700 0.366900
vt 0.365800 0.365800
vt 0.634200 0.634200
vt 0.611300 0.633100
vt 0.611300 0.366900
vt 0.634200 0.365800
vt 0.365800 0.634200
vt 0.388700 0.633100
vt 0.611300 0.633100
vt 0.634200 0.634200
vt 0.634200 0.634200
vt 0.611300 0.633100
vt 0.611300 0.366900
vt 0.634200 0.365800
vt 0.365800 0.634200
vt 0.388700 0.633100
vt 0.611300 0.633100
vt 0.634200 0.634200
vt 0.365800 0.365800
vt 0.388700 0.366900
vt 0.388700 0.633100
vt 0.365800 0.634200
vt 0.634200 0.365800
vt 0.611300 0.366900
vt 0.388700 0.366900
vt 0.365800 0.365800
s off
f 1/1/1 2/2/2 3/3/3
f 3/3/3 4/4/4 1/1/1
f 5/5/5 6/6/6 7/7/7
f 7/7/7 8/8/8 5/5/5
f 9/9/9 10/10/10 11/11/11
f 11/11/11 12/12/12 9/9/9
f 13/13/13 14/14/14 15/15/15
f 15/15/15 16/16/16 13/13/13
f 17/17/17 18/18/18 19/19/19
f 19/19/19 20/20/20 17/17/17
f 21/21/21 22/22/22 23/23/23
f 23/23/23 24/24/24 21/21/21
f 25/25/25 26/26/26 18/18/18
f 18/18/18 17/17/17 25/25/25
f 24/24/24 23/23/23 27/27/27
f 27/27/27 28/28/28 24/24/24
f 29/29/29 30/30/30 26/26/26
f 26/26/26 25/25/25 29/29/29
f 28/28/28 27/27/27 31/31/31
f 31/31/31 32/32/32 28/28/28
f 20/20/20 19/19/19 30/30/30
f 30/30/30 29/29/29 20/20/20
f 32/32/32 31/31/31 22/22/22
f 22/22/22 21/21/21 32/32/32
f 33/33/33 34/34/34 35/35/35
f 35/35/35 36/36/36 33/33/33
f 37/37/37 38/38/38 39/39/39
f 39/39/39 40/40/40 37/37/37
f 41/41/41 42/42/42 43/43/43
f 43/43/43 44/44/44 41/41/41
f 45/45/45 46/46/46 47/47/47
f 47/47/47 48/48/48 45/45/45
f 49/49/49 50/50/50 51/51/51
f 51/51/51 52/52/52 49/49/49
f 53/53/53 54/54/54 55/55/55
f 55/55/55 56/56/56 53/53/53
f 57/57/57 58/58/58 59/59/59
f 59/59/59 60/60/60 57/57/57
f 61/61/61 62/62/62 63/63/63
f 63/63/63 64/64/64 61/61/61
f 65/65/65 66/66/66 67/67/67
f 67/67/67 68/68/68 65/65/65
f 69/69/69 70/70/70 71/71/71
f 71/71/71 72/72/72 69/69/69
f 73/73/73 74/74/74 75/75/75
f 75/75/75 76/76/76 73/73/73
f 77/77/77 78/78/78 79/79/79
f 79/79/79 80/80/80 77/77/77
