# Exported using automatic converter by Erwin Coumans
mtllib bedroom.mtl
#object Layer_zemin

v 82.627502 119.623100 -0.500000
v 151.229904 119.623100 -0.500000
v 82.627502 119.623100 0.000000
v 151.229904 119.623100 0.000000
v 151.229904 119.623100 0.000000
v 151.229904 119.623100 -0.500000
v 151.229904 159.923096 0.000000
v 151.229904 159.923096 -0.500000
v 82.627502 119.623100 -0.500000
v 82.627502 159.923096 -0.500000
v 151.229904 119.623100 -0.500000
v 151.229904 159.923096 -0.500000
v 151.229904 119.623100 0.000000
v 151.229904 159.923096 0.000000
v 82.627502 119.623100 0.000000
v 82.627502 159.923096 0.000000
v 82.627502 119.623100 0.000000
v 82.627502 159.923096 0.000000
v 82.627502 119.623100 -0.500000
v 82.627502 159.923096 -0.500000
v 82.627502 159.923096 0.000000
v 151.229904 159.923096 0.000000
v 82.627502 159.923096 -0.500000
v 151.229904 159.923096 -0.500000
usemtl wire_255255255

vn 0.000000 -1.000000 0.000000
vn 0.000000 -1.000000 0.000000
vn 0.000000 -1.000000 0.000000
vn 0.000000 -1.000000 0.000000
vn 1.000000 0.000000 0.000000
vn 1.000000 0.000000 0.000000
vn 1.000000 0.000000 0.000000
vn 1.000000 0.000000 0.000000
vn 0.000000 0.000000 -1.000000
vn 0.000000 0.000000 -1.000000
vn 0.000000 0.000000 -1.000000
vn 0.000000 0.000000 -1.000000
vn 0.000000 0.000000 1.000000
vn 0.000000 0.000000 1.000000
vn 0.000000 0.000000 1.000000
vn 0.000000 0.000000 1.000000
vn -1.000000 0.000000 0.000000
vn -1.000000 0.000000 0.000000
vn -1.000000 0.000000 0.000000
vn -1.000000 0.000000 0.000000
vn 0.000000 1.000000 0.000000
vn 0.000000 1.000000 0.000000
vn 0.000000 1.000000 0.000000
vn 0.000000 1.000000 0.000000

vt 0.000000 0.000000
vt 6.860200 0.000000
vt 0.000000 0.050000
vt 6.860200 0.050000
vt 0.000000 0.050000
vt 0.000000 0.000000
vt 4.030000 0.050000
vt 4.030000 0.000000
vt 6.860200 -0.000000
vt 6.860200 4.030000
vt -0.000000 0.000000
vt -0.000000 4.030000
vt 6.860200 0.000000
vt 6.860200 4.030000
vt 0.000000 0.000000
vt 0.000000 4.030000
vt 4.030000 0.050000
vt -0.000000 0.050000
vt 4.030000 -0.000000
vt -0.000000 0.000000
vt 6.860200 0.050000
vt -0.000000 0.050000
vt 6.860200 -0.000000
vt -0.000000 0.000000
s off
f 1/1/1 2/2/2 3/3/3
f 2/2/2 4/4/4 3/3/3
f 5/5/5 6/6/6 7/7/7
f 6/6/6 8/8/8 7/7/7
f 9/9/9 10/10/10 11/11/11
f 10/10/10 12/12/12 11/11/11
f 13/13/13 14/14/14 15/15/15
f 14/14/14 16/16/16 15/15/15
f 17/17/17 18/18/18 19/19/19
f 18/18/18 20/20/20 19/19/19
f 21/21/21 22/22/22 23/23/23
f 22/22/22 24/24/24 23/23/23
