# Exported using automatic converter by Erwin Coumans
mtllib bedroom.mtl
#object microwave_007_11

v 118.550400 150.043701 12.923800
v 118.547600 150.043701 12.925100
v 118.537102 150.043701 12.916700
v 118.498398 150.043701 12.890200
v 118.553802 150.043701 12.919800
v 118.554100 150.043701 12.925800
v 118.569397 150.043701 12.915000
v 118.592499 150.043701 12.898700
v 118.614601 150.043701 12.894200
v 118.605301 150.043701 12.892800
v 118.603203 150.043701 12.891100
v 118.605698 150.043701 12.883200
v 118.501297 150.043701 12.881800
v 118.516197 150.043701 12.870800
v 118.488998 150.043701 12.891000
v 118.497101 150.043701 12.884900
v 118.498497 150.043701 12.879500
v 118.488998 150.043701 12.878500
v 118.538696 150.043701 12.854100
v 118.550301 150.043701 12.851700
v 118.550003 150.043701 12.845700
v 118.552696 150.043701 12.847200
v 118.556396 150.043701 12.845400
v 118.570999 150.043701 12.857600
v 118.615196 150.043701 12.882700
v 118.607498 150.043701 12.888200
v 118.605301 150.043701 12.892800
v 118.592499 150.043701 12.898700
v 118.592499 150.044403 12.898700
v 118.605301 150.044403 12.892800
v 118.569397 150.043701 12.915000
v 118.614601 150.043701 12.894200
v 118.614601 150.044403 12.894200
v 118.569397 150.044403 12.915000
v 118.614601 150.043701 12.894200
v 118.607498 150.043701 12.888200
v 118.607498 150.044403 12.888200
v 118.614601 150.044403 12.894200
v 118.603203 150.043701 12.891100
v 118.605301 150.043701 12.892800
v 118.605301 150.044403 12.892800
v 118.605301 150.044403 12.892800
v 118.603203 150.044403 12.891100
v 118.603203 150.043701 12.891100
v 118.605698 150.043701 12.883200
v 118.553802 150.043701 12.919800
v 118.553802 150.044403 12.919800
v 118.553802 150.044403 12.919800
v 118.605698 150.044403 12.883200
v 118.605698 150.043701 12.883200
v 118.592499 150.043701 12.898700
v 118.603203 150.043701 12.891100
v 118.603203 150.044403 12.891100
v 118.592499 150.044403 12.898700
v 118.554100 150.043701 12.925800
v 118.569397 150.043701 12.915000
v 118.569397 150.044403 12.915000
v 118.554100 150.044403 12.925800
v 118.550400 150.043701 12.923800
v 118.554100 150.043701 12.925800
v 118.554100 150.044403 12.925800
v 118.550400 150.044403 12.923800
v 118.501297 150.043701 12.881800
v 118.498497 150.043701 12.879500
v 118.498497 150.044403 12.879500
v 118.501297 150.044403 12.881800
v 118.488998 150.043701 12.878500
v 118.497101 150.043701 12.884900
v 118.497101 150.044403 12.884900
v 118.488998 150.044403 12.878500
v 118.538696 150.043701 12.854100
v 118.488998 150.043701 12.878500
v 118.488998 150.044403 12.878500
v 118.538696 150.044403 12.854100
v 118.498497 150.043701 12.879500
v 118.516197 150.043701 12.870800
v 118.516197 150.044403 12.870800
v 118.498497 150.044403 12.879500
v 118.553802 150.043701 12.919800
v 118.498398 150.043701 12.890200
v 118.498398 150.044403 12.890200
v 118.553802 150.044403 12.919800
v 118.607498 150.043701 12.888200
v 118.615196 150.043701 12.882700
v 118.615196 150.044403 12.882700
v 118.607498 150.044403 12.888200
v 118.615196 150.043701 12.882700
v 118.570999 150.043701 12.857600
v 118.570999 150.044403 12.857600
v 118.570999 150.044403 12.857600
v 118.615196 150.044403 12.882700
v 118.615196 150.043701 12.882700
v 118.550301 150.043701 12.851700
v 118.605698 150.043701 12.883200
v 118.605698 150.044403 12.883200
v 118.550301 150.044403 12.851700
v 118.570999 150.043701 12.857600
v 118.556396 150.043701 12.845400
v 118.556396 150.044403 12.845400
v 118.570999 150.044403 12.857600
v 118.556396 150.043701 12.845400
v 118.552696 150.043701 12.847200
v 118.552696 150.044403 12.847200
v 118.556396 150.044403 12.845400
v 118.552696 150.043701 12.847200
v 118.550003 150.043701 12.845700
v 118.550003 150.044403 12.845700
v 118.552696 150.044403 12.847200
v 118.550003 150.043701 12.845700
v 118.538696 150.043701 12.854100
v 118.538696 150.044403 12.854100
v 118.550003 150.044403 12.845700
v 118.498398 150.043701 12.890200
v 118.550301 150.043701 12.851700
v 118.550301 150.044403 12.851700
v 118.498398 150.044403 12.890200
v 118.516197 150.043701 12.870800
v 118.501297 150.043701 12.881800
v 118.501297 150.044403 12.881800
v 118.516197 150.044403 12.870800
v 118.497101 150.043701 12.884900
v 118.488998 150.043701 12.891000
v 118.488998 150.044403 12.891000
v 118.497101 150.044403 12.884900
v 118.488998 150.043701 12.891000
v 118.537102 150.043701 12.916700
v 118.537102 150.044403 12.916700
v 118.488998 150.044403 12.891000
v 118.537102 150.043701 12.916700
v 118.547600 150.043701 12.925100
v 118.547600 150.044403 12.925100
v 118.537102 150.044403 12.916700
v 118.547600 150.043701 12.925100
v 118.550400 150.043701 12.923800
v 118.550400 150.044403 12.923800
v 118.547600 150.044403 12.925100
usemtl 04___Default

vn -0.000000 -1.000000 -0.000000
vn -0.000000 -1.000000 -0.000000
vn -0.000000 -1.000000 -0.000000
vn -0.000000 -1.000000 -0.000000
vn -0.000000 -1.000000 -0.000000
vn -0.000000 -1.000000 -0.000000
vn -0.000000 -1.000000 -0.000000
vn -0.000000 -1.000000 -0.000000
vn -0.000000 -1.000000 -0.000000
vn -0.000000 -1.000000 -0.000000
vn -0.000000 -1.000000 -0.000000
vn -0.000000 -1.000000 -0.000000
vn -0.000000 -1.000000 0.000000
vn -0.000000 -1.000000 0.000000
vn -0.000000 -1.000000 -0.000000
vn -0.000000 -1.000000 0.000000
vn -0.000000 -1.000000 -0.000000
vn -0.000000 -1.000000 -0.000000
vn -0.000000 -1.000000 -0.000000
vn -0.000000 -1.000000 -0.000000
vn -0.000000 -1.000000 -0.000000
vn -0.000000 -1.000000 -0.000000
vn -0.000000 -1.000000 -0.000000
vn -0.000000 -1.000000 -0.000000
vn -0.000000 -1.000000 -0.000000
vn -0.000000 -1.000000 0.000000
vn -0.400700 0.000000 -0.930100
vn -0.400700 0.000000 -0.930100
vn -0.400700 0.000000 -0.930100
vn -0.400700 0.000000 -0.930100
vn 0.400700 -0.000000 0.930100
vn 0.400700 -0.000000 0.930100
vn 0.400700 -0.000000 0.930100
vn 0.400700 -0.000000 0.930100
vn 0.597700 -0.000000 -0.787200
vn 0.597700 -0.000000 -0.787200
vn 0.597700 -0.000000 -0.787200
vn 0.597700 -0.000000 -0.787200
vn -0.597700 -0.000000 0.787200
vn -0.597700 -0.000000 0.787200
vn -0.597700 -0.000000 0.787200
vn -0.597700 0.000000 0.787200
vn -0.597700 0.000000 0.787200
vn -0.597700 0.000000 0.787200
vn -0.552800 0.000000 -0.849900
vn -0.552800 0.000000 -0.849900
vn -0.552800 0.000000 -0.849900
vn -0.552800 -0.000000 -0.849900
vn -0.552800 -0.000000 -0.849900
vn -0.552800 -0.000000 -0.849900
vn 0.552800 -0.000000 0.849900
vn 0.552800 -0.000000 0.849900
vn 0.552800 -0.000000 0.849900
vn 0.552800 -0.000000 0.849900
vn 0.552800 -0.000000 0.849900
vn 0.552800 -0.000000 0.849900
vn 0.552800 -0.000000 0.849900
vn 0.552800 -0.000000 0.849900
vn -0.428500 0.000000 0.895200
vn -0.428500 0.000000 0.895200
vn -0.428500 0.000000 0.895200
vn -0.428500 0.000000 0.895200
vn 0.578000 -0.000000 -0.802400
vn 0.578000 -0.000000 -0.802400
vn 0.578000 -0.000000 -0.802400
vn 0.578000 -0.000000 -0.802400
vn -0.577900 0.000000 0.802400
vn -0.577900 0.000000 0.802400
vn -0.577900 0.000000 0.802400
vn -0.577900 0.000000 0.802400
vn -0.421800 0.000000 -0.921000
vn -0.421800 0.000000 -0.921000
vn -0.421800 0.000000 -0.921000
vn -0.421800 0.000000 -0.921000
vn 0.421800 -0.000000 0.921000
vn 0.421800 -0.000000 0.921000
vn 0.421800 -0.000000 0.921000
vn 0.421800 -0.000000 0.921000
vn 0.428500 -0.000000 -0.895200
vn 0.428500 -0.000000 -0.895200
vn 0.428500 -0.000000 -0.895200
vn 0.428500 -0.000000 -0.895200
vn 0.552800 -0.000000 0.849900
vn 0.552800 -0.000000 0.849900
vn 0.552800 -0.000000 0.849900
vn 0.552800 -0.000000 0.849900
vn 0.450500 -0.000000 -0.883700
vn 0.450500 -0.000000 -0.883700
vn 0.450500 -0.000000 -0.883700
vn 0.450500 0.000000 -0.883700
vn 0.450500 0.000000 -0.883700
vn 0.450500 0.000000 -0.883700
vn -0.450500 0.000000 0.883700
vn -0.450500 0.000000 0.883700
vn -0.450500 0.000000 0.883700
vn -0.450500 0.000000 0.883700
vn 0.597700 -0.000000 -0.787200
vn 0.597700 -0.000000 -0.787200
vn 0.597700 -0.000000 -0.787200
vn 0.597700 -0.000000 -0.787200
vn -0.421800 0.000000 -0.921000
vn -0.421800 0.000000 -0.921000
vn -0.421800 0.000000 -0.921000
vn -0.421800 0.000000 -0.921000
vn 0.450500 -0.000000 -0.883700
vn 0.450500 -0.000000 -0.883700
vn 0.450500 -0.000000 -0.883700
vn 0.450500 -0.000000 -0.883700
vn -0.571900 0.000000 -0.837200
vn -0.571900 0.000000 -0.837200
vn -0.571900 0.000000 -0.837200
vn -0.571900 0.000000 -0.837200
vn 0.571900 -0.000000 0.837200
vn 0.571900 -0.000000 0.837200
vn 0.571900 -0.000000 0.837200
vn 0.571900 -0.000000 0.837200
vn -0.571900 0.000000 -0.837200
vn -0.571900 0.000000 -0.837200
vn -0.571900 0.000000 -0.837200
vn -0.571900 0.000000 -0.837200
vn -0.571900 0.000000 -0.837200
vn -0.571900 0.000000 -0.837200
vn -0.571900 0.000000 -0.837200
vn -0.571900 0.000000 -0.837200
vn -0.428500 0.000000 0.895200
vn -0.428500 0.000000 0.895200
vn -0.428500 0.000000 0.895200
vn -0.428500 0.000000 0.895200
vn -0.577900 0.000000 0.802400
vn -0.577900 0.000000 0.802400
vn -0.577900 0.000000 0.802400
vn -0.577900 0.000000 0.802400
vn 0.400700 -0.000000 0.930100
vn 0.400700 -0.000000 0.930100
vn 0.400700 -0.000000 0.930100
vn 0.400700 -0.000000 0.930100

s off
f 1/1/1 2/2/2 3/3/3
f 1/1/1 3/3/3 4/4/4
f 1/1/1 4/4/4 5/5/5
f 6/6/6 1/1/1 5/5/5
f 7/7/7 6/6/6 5/5/5
f 7/7/7 5/5/5 8/8/8
f 9/9/9 7/7/7 8/8/8
f 9/9/9 8/8/8 10/10/10
f 11/11/11 8/8/8 5/5/5
f 11/11/11 5/5/5 12/12/12
f 10/10/10 11/11/11 12/12/12
f 4/4/4 13/13/13 14/14/14
f 4/4/4 3/3/3 15/15/15
f 4/4/4 15/15/15 16/16/16
f 13/13/13 4/4/4 16/16/16
f 17/17/17 13/13/13 16/16/16
f 17/17/17 16/16/16 18/18/18
f 17/17/17 18/18/18 19/19/19
f 14/14/14 17/17/17 19/19/19
f 4/4/4 14/14/14 19/19/19
f 20/20/20 4/4/4 19/19/19
f 20/20/20 19/19/19 21/21/21
f 20/20/20 21/21/21 22/22/22
f 20/20/20 22/22/22 23/23/23
f 20/20/20 23/23/23 24/24/24
f 12/12/12 20/20/20 24/24/24
f 12/12/12 24/24/24 25/25/25
f 12/12/12 25/25/25 26/26/26
f 10/10/10 12/12/12 26/26/26
f 9/9/9 10/10/10 26/26/26
f 27/27/27 28/28/28 29/29/29
f 29/29/29 30/30/30 27/27/27
f 31/31/31 32/32/32 33/33/33
f 33/33/33 34/34/34 31/31/31
f 35/35/35 36/36/36 37/37/37
f 37/37/37 38/38/38 35/35/35
f 39/39/39 40/40/40 41/41/41
f 42/42/42 43/43/43 44/44/44
f 45/45/45 46/46/46 47/47/47
f 48/48/48 49/49/49 50/50/50
f 51/51/51 52/52/52 53/53/53
f 53/53/53 54/54/54 51/51/51
f 55/55/55 56/56/56 57/57/57
f 57/57/57 58/58/58 55/55/55
f 59/59/59 60/60/60 61/61/61
f 61/61/61 62/62/62 59/59/59
f 63/63/63 64/64/64 65/65/65
f 65/65/65 66/66/66 63/63/63
f 67/67/67 68/68/68 69/69/69
f 69/69/69 70/70/70 67/67/67
f 71/71/71 72/72/72 73/73/73
f 73/73/73 74/74/74 71/71/71
f 75/75/75 76/76/76 77/77/77
f 77/77/77 78/78/78 75/75/75
f 79/79/79 80/80/80 81/81/81
f 81/81/81 82/82/82 79/79/79
f 83/83/83 84/84/84 85/85/85
f 85/85/85 86/86/86 83/83/83
f 87/87/87 88/88/88 89/89/89
f 90/90/90 91/91/91 92/92/92
f 93/93/93 94/94/94 95/95/95
f 95/95/95 96/96/96 93/93/93
f 97/97/97 98/98/98 99/99/99
f 99/99/99 100/100/100 97/97/97
f 101/101/101 102/102/102 103/103/103
f 103/103/103 104/104/104 101/101/101
f 105/105/105 106/106/106 107/107/107
f 107/107/107 108/108/108 105/105/105
f 109/109/109 110/110/110 111/111/111
f 111/111/111 112/112/112 109/109/109
f 113/113/113 114/114/114 115/115/115
f 115/115/115 116/116/116 113/113/113
f 117/117/117 118/118/118 119/119/119
f 119/119/119 120/120/120 117/117/117
f 121/121/121 122/122/122 123/123/123
f 123/123/123 124/124/124 121/121/121
f 125/125/125 126/126/126 127/127/127
f 127/127/127 128/128/128 125/125/125
f 129/129/129 130/130/130 131/131/131
f 131/131/131 132/132/132 129/129/129
f 133/133/133 134/134/134 135/135/135
f 135/135/135 136/136/136 133/133/133
