# Exported using automatic converter by Erwin Coumans
mtllib bedroom.mtl
#object Arch28_042_58

v 133.039993 138.701202 22.501699
v 133.039993 138.963898 22.501699
v 133.029999 138.691193 22.511700
v 133.029999 138.973907 22.511700
v 133.039993 138.963898 22.501699
v 133.039993 138.963898 22.343599
v 133.029999 138.973907 22.511700
v 133.029999 138.973907 22.339500
v 133.039993 138.963898 22.343599
v 133.039993 138.961197 22.340900
v 133.029999 138.973907 22.339500
v 133.029999 138.965302 22.330900
v 133.039993 138.961197 22.340900
v 133.039993 138.903900 22.340900
v 133.029999 138.965302 22.330900
v 133.029999 138.899796 22.330900
v 133.039993 138.903900 22.340900
v 133.039993 138.901199 22.343599
v 133.029999 138.899796 22.330900
v 133.029999 138.891205 22.339500
v 133.039993 138.901199 22.343599
v 133.039993 138.901199 22.405300
v 133.029999 138.891205 22.339500
v 133.029999 138.891205 22.404499
v 133.039993 138.898193 22.423700
v 133.029999 138.888596 22.420401
v 133.039993 138.889404 22.440300
v 133.029999 138.881302 22.434299
v 133.039993 138.876099 22.453400
v 133.029999 138.870193 22.445200
v 133.039993 138.859406 22.462000
v 133.029999 138.856201 22.452400
v 133.039993 138.840302 22.465099
v 133.029999 138.840302 22.455000
v 133.039993 138.840302 22.465099
v 133.039993 138.821106 22.462000
v 133.029999 138.840302 22.455000
v 133.029999 138.824295 22.452400
v 133.039993 138.804398 22.453400
v 133.029999 138.810303 22.445200
v 133.039993 138.791107 22.440300
v 133.029999 138.799194 22.434299
v 133.039993 138.782303 22.423700
v 133.029999 138.791901 22.420401
v 133.039993 138.779297 22.405300
v 133.029999 138.789307 22.404499
v 133.039993 138.779297 22.354900
v 133.029999 138.789307 22.354099
v 133.039993 138.777603 22.344500
v 133.029999 138.787201 22.341299
v 133.039993 138.773300 22.336100
v 133.029999 138.781403 22.330200
v 133.039993 138.766693 22.329599
v 133.029999 138.772705 22.321400
v 133.039993 138.758408 22.325199
v 133.029999 138.761505 22.315599
v 133.039993 138.747894 22.323601
v 133.029999 138.748703 22.313601
v 133.039993 138.703903 22.323601
v 133.029999 138.699799 22.313601
v 133.039993 138.703903 22.323601
v 133.039993 138.701202 22.326300
v 133.029999 138.699799 22.313601
v 133.029999 138.691193 22.322100
v 133.039993 138.701202 22.326300
v 133.029999 138.691193 22.322100
v 133.029999 138.691193 22.511700
v 133.029999 138.973907 22.511700
v 132.880005 138.691193 22.511700
v 132.880005 138.973907 22.511700
v 133.029999 138.973907 22.511700
v 133.029999 138.973907 22.339500
v 132.880005 138.973907 22.511700
v 132.880005 138.973907 22.339500
v 133.029999 138.973907 22.339500
v 133.029999 138.965302 22.330900
v 132.880005 138.973907 22.339500
v 132.880005 138.965302 22.330900
v 133.029999 138.965302 22.330900
v 133.029999 138.899796 22.330900
v 132.880005 138.965302 22.330900
v 132.880005 138.899796 22.330900
v 133.029999 138.899796 22.330900
v 133.029999 138.891205 22.339500
v 132.880005 138.899796 22.330900
v 132.880005 138.891205 22.339500
v 133.029999 138.891205 22.339500
v 133.029999 138.891205 22.404499
v 132.880005 138.891205 22.339500
v 132.880005 138.891205 22.404499
v 133.029999 138.888596 22.420401
v 132.880005 138.888596 22.420401
v 133.029999 138.881302 22.434299
v 132.880005 138.881302 22.434299
v 133.029999 138.870193 22.445200
v 132.880005 138.870193 22.445200
v 133.029999 138.856201 22.452400
v 132.880005 138.856201 22.452400
v 133.029999 138.840302 22.455000
v 132.880005 138.840302 22.455000
v 133.029999 138.840302 22.455000
v 133.029999 138.824295 22.452400
v 132.880005 138.840302 22.455000
v 132.880005 138.824295 22.452400
v 133.029999 138.810303 22.445200
v 132.880005 138.810303 22.445200
v 133.029999 138.799194 22.434299
v 132.880005 138.799194 22.434299
v 133.029999 138.791901 22.420401
v 132.880005 138.791901 22.420401
v 133.029999 138.789307 22.404499
v 132.880005 138.789307 22.404499
v 133.029999 138.789307 22.354099
v 132.880005 138.789307 22.354099
v 133.029999 138.787201 22.341299
v 132.880005 138.787201 22.341299
v 133.029999 138.781403 22.330200
v 132.880005 138.781403 22.330200
v 133.029999 138.772705 22.321400
v 132.880005 138.772705 22.321400
v 133.029999 138.761505 22.315599
v 132.880005 138.761505 22.315599
v 133.029999 138.748703 22.313601
v 132.880005 138.748703 22.313601
v 133.029999 138.699799 22.313601
v 132.880005 138.699799 22.313601
v 133.029999 138.699799 22.313601
v 133.029999 138.691193 22.322100
v 132.880005 138.699799 22.313601
v 132.880005 138.691193 22.322100
v 133.029999 138.691193 22.322100
v 132.880005 138.691193 22.322100
v 132.880005 138.691193 22.511700
v 132.880005 138.973907 22.511700
v 132.869995 138.701202 22.501699
v 132.869995 138.963898 22.501699
v 132.880005 138.973907 22.511700
v 132.880005 138.973907 22.339500
v 132.869995 138.963898 22.501699
v 132.869995 138.963898 22.343599
v 132.880005 138.973907 22.339500
v 132.880005 138.965302 22.330900
v 132.869995 138.963898 22.343599
v 132.869995 138.961197 22.340900
v 132.880005 138.965302 22.330900
v 132.880005 138.899796 22.330900
v 132.869995 138.961197 22.340900
v 132.869995 138.903900 22.340900
v 132.880005 138.899796 22.330900
v 132.880005 138.891205 22.339500
v 132.869995 138.903900 22.340900
v 132.869995 138.901199 22.343599
v 132.880005 138.891205 22.339500
v 132.880005 138.891205 22.404499
v 132.869995 138.901199 22.343599
v 132.869995 138.901199 22.405300
v 132.880005 138.888596 22.420401
v 132.869995 138.898193 22.423700
v 132.880005 138.881302 22.434299
v 132.869995 138.889404 22.440300
v 132.880005 138.870193 22.445200
v 132.869995 138.876099 22.453400
v 132.880005 138.856201 22.452400
v 132.869995 138.859406 22.462000
v 132.880005 138.840302 22.455000
v 132.869995 138.840302 22.465099
v 132.880005 138.840302 22.455000
v 132.880005 138.824295 22.452400
v 132.869995 138.840302 22.465099
v 132.869995 138.821106 22.462000
v 132.880005 138.810303 22.445200
v 132.869995 138.804398 22.453400
v 132.880005 138.799194 22.434299
v 132.869995 138.791107 22.440300
v 132.880005 138.791901 22.420401
v 132.869995 138.782303 22.423700
v 132.880005 138.789307 22.404499
v 132.869995 138.779297 22.405300
v 132.880005 138.789307 22.354099
v 132.869995 138.779297 22.354900
v 132.880005 138.787201 22.341299
v 132.869995 138.777603 22.344500
v 132.880005 138.781403 22.330200
v 132.869995 138.773300 22.336100
v 132.880005 138.772705 22.321400
v 132.869995 138.766693 22.329599
v 132.880005 138.761505 22.315599
v 132.869995 138.758408 22.325199
v 132.880005 138.748703 22.313601
v 132.869995 138.747894 22.323601
v 132.880005 138.699799 22.313601
v 132.869995 138.703903 22.323601
v 132.880005 138.699799 22.313601
v 132.880005 138.691193 22.322100
v 132.869995 138.703903 22.323601
v 132.869995 138.701202 22.326300
v 132.880005 138.691193 22.322100
v 132.869995 138.701202 22.326300
v 132.869995 138.903900 22.340900
v 132.869995 138.901199 22.343599
v 132.869995 138.901199 22.405300
v 132.869995 138.961197 22.340900
v 132.869995 138.963898 22.343599
v 132.869995 138.963898 22.501699
v 132.869995 138.898193 22.423700
v 132.869995 138.889404 22.440300
v 132.869995 138.876099 22.453400
v 132.869995 138.859406 22.462000
v 132.869995 138.701202 22.501699
v 132.869995 138.840302 22.465099
v 132.869995 138.821106 22.462000
v 132.869995 138.804398 22.453400
v 132.869995 138.791107 22.440300
v 132.869995 138.701202 22.326300
v 132.869995 138.782303 22.423700
v 132.869995 138.779297 22.405300
v 132.869995 138.779297 22.354900
v 132.869995 138.777603 22.344500
v 132.869995 138.773300 22.336100
v 132.869995 138.766693 22.329599
v 132.869995 138.758408 22.325199
v 132.869995 138.747894 22.323601
v 132.869995 138.703903 22.323601
v 133.039993 138.903900 22.340900
v 133.039993 138.901199 22.405300
v 133.039993 138.901199 22.343599
v 133.039993 138.961197 22.340900
v 133.039993 138.963898 22.343599
v 133.039993 138.963898 22.501699
v 133.039993 138.898193 22.423700
v 133.039993 138.889404 22.440300
v 133.039993 138.876099 22.453400
v 133.039993 138.859406 22.462000
v 133.039993 138.701202 22.501699
v 133.039993 138.840302 22.465099
v 133.039993 138.821106 22.462000
v 133.039993 138.804398 22.453400
v 133.039993 138.791107 22.440300
v 133.039993 138.701202 22.326300
v 133.039993 138.782303 22.423700
v 133.039993 138.779297 22.405300
v 133.039993 138.779297 22.354900
v 133.039993 138.777603 22.344500
v 133.039993 138.773300 22.336100
v 133.039993 138.766693 22.329599
v 133.039993 138.758408 22.325199
v 133.039993 138.747894 22.323601
v 133.039993 138.703903 22.323601
usemtl wire_086086086

vn 0.816500 -0.408200 0.408200
vn 0.707100 -0.000000 0.707100
vn 0.816500 -0.408200 0.408200
vn 0.707100 -0.000000 0.707100
vn 0.707100 0.707100 0.000000
vn 0.707100 0.707100 0.000000
vn 0.707100 0.707100 0.000000
vn 0.707100 0.707100 0.000000
vn 0.707100 0.500000 -0.500000
vn 0.707100 0.500000 -0.500000
vn 0.707100 0.500000 -0.500000
vn 0.707100 0.500000 -0.500000
vn 0.707100 -0.000000 -0.707100
vn 0.707100 -0.000000 -0.707100
vn 0.707100 -0.000000 -0.707100
vn 0.707100 -0.000000 -0.707100
vn 0.707100 -0.500000 -0.500000
vn 0.707100 -0.500000 -0.500000
vn 0.707100 -0.500000 -0.500000
vn 0.707100 -0.500000 -0.500000
vn 0.707100 -0.707100 -0.000000
vn 0.708300 -0.703600 -0.057600
vn 0.707100 -0.707100 -0.000000
vn 0.708300 -0.703600 -0.057600
vn 0.711700 -0.665900 -0.223700
vn 0.711700 -0.665900 -0.223700
vn 0.711300 -0.564400 -0.418900
vn 0.711300 -0.564400 -0.418900
vn 0.711200 -0.412000 -0.569600
vn 0.711200 -0.412000 -0.569600
vn 0.711500 -0.218900 -0.667800
vn 0.711500 -0.218900 -0.667800
vn 0.707100 -0.112400 -0.698100
vn 0.707100 -0.112400 -0.698100
vn 0.707100 0.112400 -0.698100
vn 0.711500 0.218900 -0.667800
vn 0.707100 0.112400 -0.698100
vn 0.711500 0.218900 -0.667800
vn 0.711200 0.412000 -0.569600
vn 0.711200 0.412000 -0.569600
vn 0.711300 0.564400 -0.418900
vn 0.711300 0.564400 -0.418900
vn 0.711700 0.665900 -0.223700
vn 0.711700 0.665900 -0.223700
vn 0.708300 0.703600 -0.057600
vn 0.708300 0.703600 -0.057600
vn 0.708200 0.703700 -0.056500
vn 0.708200 0.703700 -0.056500
vn 0.711600 0.667200 -0.220300
vn 0.711600 0.667200 -0.220300
vn 0.711300 0.567300 -0.414900
vn 0.711300 0.567300 -0.414900
vn 0.711300 0.414900 -0.567300
vn 0.711300 0.414900 -0.567300
vn 0.711600 0.220300 -0.667200
vn 0.711600 0.220300 -0.667200
vn 0.708200 0.056500 -0.703700
vn 0.708200 0.056500 -0.703700
vn 0.707100 -0.000000 -0.707100
vn 0.707100 -0.000000 -0.707100
vn 0.707100 -0.500000 -0.500000
vn 0.707100 -0.500000 -0.500000
vn 0.707100 -0.500000 -0.500000
vn 0.707100 -0.500000 -0.500000
vn 0.707100 -0.707100 0.000000
vn 0.707100 -0.707100 0.000000
vn -0.000000 -0.707100 0.707100
vn -0.000000 0.000000 1.000000
vn -0.000000 -0.707100 0.707100
vn -0.000000 0.000000 1.000000
vn 0.000000 1.000000 0.000000
vn 0.000000 1.000000 0.000000
vn 0.000000 1.000000 0.000000
vn 0.000000 1.000000 0.000000
vn 0.000000 0.707100 -0.707100
vn 0.000000 0.707100 -0.707100
vn 0.000000 0.707100 -0.707100
vn 0.000000 0.707100 -0.707100
vn 0.000000 -0.000000 -1.000000
vn 0.000000 -0.000000 -1.000000
vn 0.000000 -0.000000 -1.000000
vn 0.000000 -0.000000 -1.000000
vn -0.000000 -0.707100 -0.707100
vn -0.000000 -0.707100 -0.707100
vn -0.000000 -0.707100 -0.707100
vn -0.000000 -0.707100 -0.707100
vn -0.000000 -1.000000 -0.000000
vn -0.000000 -0.996700 -0.081600
vn -0.000000 -1.000000 -0.000000
vn -0.000000 -0.996700 -0.081600
vn -0.000000 -0.947900 -0.318400
vn -0.000000 -0.947900 -0.318400
vn -0.000000 -0.803000 -0.596000
vn -0.000000 -0.803000 -0.596000
vn -0.000000 -0.586100 -0.810300
vn -0.000000 -0.586100 -0.810300
vn 0.000000 -0.311500 -0.950300
vn 0.000000 -0.311500 -0.950300
vn 0.000000 -0.159000 -0.987300
vn 0.000000 -0.159000 -0.987300
vn 0.000000 0.159000 -0.987300
vn 0.000000 0.311500 -0.950300
vn 0.000000 0.159000 -0.987300
vn 0.000000 0.311500 -0.950300
vn 0.000000 0.586100 -0.810300
vn 0.000000 0.586100 -0.810300
vn 0.000000 0.803000 -0.596000
vn 0.000000 0.803000 -0.596000
vn 0.000000 0.947900 -0.318400
vn 0.000000 0.947900 -0.318400
vn 0.000000 0.996700 -0.081600
vn 0.000000 0.996700 -0.081600
vn 0.000000 0.996800 -0.080000
vn 0.000000 0.996800 -0.080000
vn 0.000000 0.949600 -0.313500
vn 0.000000 0.949600 -0.313500
vn 0.000000 0.807100 -0.590300
vn 0.000000 0.807100 -0.590300
vn 0.000000 0.590300 -0.807100
vn 0.000000 0.590300 -0.807100
vn 0.000000 0.313500 -0.949600
vn 0.000000 0.313500 -0.949600
vn 0.000000 0.080000 -0.996800
vn 0.000000 0.080000 -0.996800
vn 0.000000 -0.000000 -1.000000
vn 0.000000 -0.000000 -1.000000
vn -0.000000 -0.707100 -0.707100
vn -0.000000 -0.707100 -0.707100
vn -0.000000 -0.707100 -0.707100
vn -0.000000 -0.707100 -0.707100
vn -0.000000 -1.000000 0.000000
vn -0.000000 -1.000000 0.000000
vn -0.816500 -0.408200 0.408200
vn -0.707100 0.000000 0.707100
vn -0.816500 -0.408200 0.408200
vn -0.707100 0.000000 0.707100
vn -0.707100 0.707100 -0.000000
vn -0.707100 0.707100 -0.000000
vn -0.707100 0.707100 -0.000000
vn -0.707100 0.707100 -0.000000
vn -0.707100 0.500000 -0.500000
vn -0.707100 0.500000 -0.500000
vn -0.707100 0.500000 -0.500000
vn -0.707100 0.500000 -0.500000
vn -0.707100 0.000000 -0.707100
vn -0.707100 0.000000 -0.707100
vn -0.707100 0.000000 -0.707100
vn -0.707100 0.000000 -0.707100
vn -0.707100 -0.500000 -0.500000
vn -0.707100 -0.500000 -0.500000
vn -0.707100 -0.500000 -0.500000
vn -0.707100 -0.500000 -0.500000
vn -0.707100 -0.707100 -0.000000
vn -0.708300 -0.703600 -0.057600
vn -0.707100 -0.707100 -0.000000
vn -0.708300 -0.703600 -0.057600
vn -0.711700 -0.665900 -0.223700
vn -0.711700 -0.665900 -0.223700
vn -0.711300 -0.564400 -0.418900
vn -0.711300 -0.564400 -0.418900
vn -0.711200 -0.412000 -0.569600
vn -0.711200 -0.412000 -0.569600
vn -0.711500 -0.218900 -0.667800
vn -0.711500 -0.218900 -0.667800
vn -0.707100 -0.112400 -0.698100
vn -0.707100 -0.112400 -0.698100
vn -0.707100 0.112400 -0.698100
vn -0.711500 0.218900 -0.667800
vn -0.707100 0.112400 -0.698100
vn -0.711500 0.218900 -0.667800
vn -0.711200 0.412000 -0.569600
vn -0.711200 0.412000 -0.569600
vn -0.711300 0.564400 -0.418900
vn -0.711300 0.564400 -0.418900
vn -0.711700 0.665900 -0.223700
vn -0.711700 0.665900 -0.223700
vn -0.708300 0.703600 -0.057600
vn -0.708300 0.703600 -0.057600
vn -0.708200 0.703700 -0.056500
vn -0.708200 0.703700 -0.056500
vn -0.711600 0.667200 -0.220300
vn -0.711600 0.667200 -0.220300
vn -0.711300 0.567300 -0.414900
vn -0.711300 0.567300 -0.414900
vn -0.711300 0.414900 -0.567300
vn -0.711300 0.414900 -0.567300
vn -0.711600 0.220300 -0.667200
vn -0.711600 0.220300 -0.667200
vn -0.708200 0.056500 -0.703700
vn -0.708200 0.056500 -0.703700
vn -0.707100 -0.000000 -0.707100
vn -0.707100 -0.000000 -0.707100
vn -0.707100 -0.500000 -0.500000
vn -0.707100 -0.500000 -0.500000
vn -0.707100 -0.500000 -0.500000
vn -0.707100 -0.500000 -0.500000
vn -0.707100 -0.707100 -0.000000
vn -0.707100 -0.707100 -0.000000
vn -1.000000 0.000000 -0.000000
vn -1.000000 0.000000 -0.000000
vn -1.000000 0.000000 -0.000000
vn -1.000000 0.000000 -0.000000
vn -1.000000 0.000000 -0.000000
vn -1.000000 0.000000 -0.000000
vn -1.000000 0.000000 -0.000000
vn -1.000000 0.000000 -0.000000
vn -1.000000 0.000000 -0.000000
vn -1.000000 0.000000 -0.000000
vn -1.000000 0.000000 -0.000000
vn -1.000000 0.000000 -0.000000
vn -1.000000 0.000000 -0.000000
vn -1.000000 0.000000 -0.000000
vn -1.000000 0.000000 -0.000000
vn -1.000000 0.000000 -0.000000
vn -1.000000 0.000000 -0.000000
vn -1.000000 0.000000 -0.000000
vn -1.000000 0.000000 -0.000000
vn -1.000000 0.000000 -0.000000
vn -1.000000 0.000000 -0.000000
vn -1.000000 0.000000 -0.000000
vn -1.000000 0.000000 -0.000000
vn -1.000000 0.000000 -0.000000
vn -1.000000 0.000000 -0.000000
vn 1.000000 -0.000000 0.000000
vn 1.000000 -0.000000 0.000000
vn 1.000000 -0.000000 0.000000
vn 1.000000 -0.000000 0.000000
vn 1.000000 -0.000000 0.000000
vn 1.000000 -0.000000 0.000000
vn 1.000000 -0.000000 0.000000
vn 1.000000 -0.000000 0.000000
vn 1.000000 -0.000000 0.000000
vn 1.000000 -0.000000 0.000000
vn 1.000000 -0.000000 0.000000
vn 1.000000 -0.000000 0.000000
vn 1.000000 -0.000000 0.000000
vn 1.000000 -0.000000 0.000000
vn 1.000000 -0.000000 0.000000
vn 1.000000 -0.000000 0.000000
vn 1.000000 -0.000000 0.000000
vn 1.000000 -0.000000 0.000000
vn 1.000000 -0.000000 0.000000
vn 1.000000 -0.000000 0.000000
vn 1.000000 -0.000000 0.000000
vn 1.000000 -0.000000 0.000000
vn 1.000000 -0.000000 0.000000
vn 1.000000 -0.000000 0.000000
vn 1.000000 -0.000000 0.000000

s off
f 1/1/1 2/2/2 3/3/3
f 2/2/2 4/4/4 3/3/3
f 5/5/5 6/6/6 7/7/7
f 6/6/6 8/8/8 7/7/7
f 9/9/9 10/10/10 11/11/11
f 10/10/10 12/12/12 11/11/11
f 13/13/13 14/14/14 15/15/15
f 14/14/14 16/16/16 15/15/15
f 17/17/17 18/18/18 19/19/19
f 18/18/18 20/20/20 19/19/19
f 21/21/21 22/22/22 23/23/23
f 22/22/22 24/24/24 23/23/23
f 22/22/22 25/25/25 24/24/24
f 25/25/25 26/26/26 24/24/24
f 25/25/25 27/27/27 26/26/26
f 27/27/27 28/28/28 26/26/26
f 27/27/27 29/29/29 28/28/28
f 29/29/29 30/30/30 28/28/28
f 29/29/29 31/31/31 30/30/30
f 31/31/31 32/32/32 30/30/30
f 31/31/31 33/33/33 32/32/32
f 33/33/33 34/34/34 32/32/32
f 35/35/35 36/36/36 37/37/37
f 36/36/36 38/38/38 37/37/37
f 36/36/36 39/39/39 38/38/38
f 39/39/39 40/40/40 38/38/38
f 39/39/39 41/41/41 40/40/40
f 41/41/41 42/42/42 40/40/40
f 41/41/41 43/43/43 42/42/42
f 43/43/43 44/44/44 42/42/42
f 43/43/43 45/45/45 44/44/44
f 45/45/45 46/46/46 44/44/44
f 45/45/45 47/47/47 46/46/46
f 47/47/47 48/48/48 46/46/46
f 47/47/47 49/49/49 48/48/48
f 49/49/49 50/50/50 48/48/48
f 49/49/49 51/51/51 50/50/50
f 51/51/51 52/52/52 50/50/50
f 51/51/51 53/53/53 52/52/52
f 53/53/53 54/54/54 52/52/52
f 53/53/53 55/55/55 54/54/54
f 55/55/55 56/56/56 54/54/54
f 55/55/55 57/57/57 56/56/56
f 57/57/57 58/58/58 56/56/56
f 57/57/57 59/59/59 58/58/58
f 59/59/59 60/60/60 58/58/58
f 61/61/61 62/62/62 63/63/63
f 62/62/62 64/64/64 63/63/63
f 65/65/65 1/1/1 66/66/66
f 1/1/1 3/3/3 66/66/66
f 67/67/67 68/68/68 69/69/69
f 68/68/68 70/70/70 69/69/69
f 71/71/71 72/72/72 73/73/73
f 72/72/72 74/74/74 73/73/73
f 75/75/75 76/76/76 77/77/77
f 76/76/76 78/78/78 77/77/77
f 79/79/79 80/80/80 81/81/81
f 80/80/80 82/82/82 81/81/81
f 83/83/83 84/84/84 85/85/85
f 84/84/84 86/86/86 85/85/85
f 87/87/87 88/88/88 89/89/89
f 88/88/88 90/90/90 89/89/89
f 88/88/88 91/91/91 90/90/90
f 91/91/91 92/92/92 90/90/90
f 91/91/91 93/93/93 92/92/92
f 93/93/93 94/94/94 92/92/92
f 93/93/93 95/95/95 94/94/94
f 95/95/95 96/96/96 94/94/94
f 95/95/95 97/97/97 96/96/96
f 97/97/97 98/98/98 96/96/96
f 97/97/97 99/99/99 98/98/98
f 99/99/99 100/100/100 98/98/98
f 101/101/101 102/102/102 103/103/103
f 102/102/102 104/104/104 103/103/103
f 102/102/102 105/105/105 104/104/104
f 105/105/105 106/106/106 104/104/104
f 105/105/105 107/107/107 106/106/106
f 107/107/107 108/108/108 106/106/106
f 107/107/107 109/109/109 108/108/108
f 109/109/109 110/110/110 108/108/108
f 109/109/109 111/111/111 110/110/110
f 111/111/111 112/112/112 110/110/110
f 111/111/111 113/113/113 112/112/112
f 113/113/113 114/114/114 112/112/112
f 113/113/113 115/115/115 114/114/114
f 115/115/115 116/116/116 114/114/114
f 115/115/115 117/117/117 116/116/116
f 117/117/117 118/118/118 116/116/116
f 117/117/117 119/119/119 118/118/118
f 119/119/119 120/120/120 118/118/118
f 119/119/119 121/121/121 120/120/120
f 121/121/121 122/122/122 120/120/120
f 121/121/121 123/123/123 122/122/122
f 123/123/123 124/124/124 122/122/122
f 123/123/123 125/125/125 124/124/124
f 125/125/125 126/126/126 124/124/124
f 127/127/127 128/128/128 129/129/129
f 128/128/128 130/130/130 129/129/129
f 131/131/131 67/67/67 132/132/132
f 67/67/67 69/69/69 132/132/132
f 133/133/133 134/134/134 135/135/135
f 134/134/134 136/136/136 135/135/135
f 137/137/137 138/138/138 139/139/139
f 138/138/138 140/140/140 139/139/139
f 141/141/141 142/142/142 143/143/143
f 142/142/142 144/144/144 143/143/143
f 145/145/145 146/146/146 147/147/147
f 146/146/146 148/148/148 147/147/147
f 149/149/149 150/150/150 151/151/151
f 150/150/150 152/152/152 151/151/151
f 153/153/153 154/154/154 155/155/155
f 154/154/154 156/156/156 155/155/155
f 154/154/154 157/157/157 156/156/156
f 157/157/157 158/158/158 156/156/156
f 157/157/157 159/159/159 158/158/158
f 159/159/159 160/160/160 158/158/158
f 159/159/159 161/161/161 160/160/160
f 161/161/161 162/162/162 160/160/160
f 161/161/161 163/163/163 162/162/162
f 163/163/163 164/164/164 162/162/162
f 163/163/163 165/165/165 164/164/164
f 165/165/165 166/166/166 164/164/164
f 167/167/167 168/168/168 169/169/169
f 168/168/168 170/170/170 169/169/169
f 168/168/168 171/171/171 170/170/170
f 171/171/171 172/172/172 170/170/170
f 171/171/171 173/173/173 172/172/172
f 173/173/173 174/174/174 172/172/172
f 173/173/173 175/175/175 174/174/174
f 175/175/175 176/176/176 174/174/174
f 175/175/175 177/177/177 176/176/176
f 177/177/177 178/178/178 176/176/176
f 177/177/177 179/179/179 178/178/178
f 179/179/179 180/180/180 178/178/178
f 179/179/179 181/181/181 180/180/180
f 181/181/181 182/182/182 180/180/180
f 181/181/181 183/183/183 182/182/182
f 183/183/183 184/184/184 182/182/182
f 183/183/183 185/185/185 184/184/184
f 185/185/185 186/186/186 184/184/184
f 185/185/185 187/187/187 186/186/186
f 187/187/187 188/188/188 186/186/186
f 187/187/187 189/189/189 188/188/188
f 189/189/189 190/190/190 188/188/188
f 189/189/189 191/191/191 190/190/190
f 191/191/191 192/192/192 190/190/190
f 193/193/193 194/194/194 195/195/195
f 194/194/194 196/196/196 195/195/195
f 197/197/197 133/133/133 198/198/198
f 133/133/133 135/135/135 198/198/198
f 199/199/199 200/200/200 201/201/201
f 202/202/202 199/199/199 201/201/201
f 203/203/203 202/202/202 201/201/201
f 204/204/204 203/203/203 201/201/201
f 204/204/204 201/201/201 205/205/205
f 204/204/204 205/205/205 206/206/206
f 204/204/204 206/206/206 207/207/207
f 204/204/204 207/207/207 208/208/208
f 209/209/209 204/204/204 208/208/208
f 209/209/209 208/208/208 210/210/210
f 209/209/209 210/210/210 211/211/211
f 209/209/209 211/211/211 212/212/212
f 209/209/209 212/212/212 213/213/213
f 214/214/214 209/209/209 213/213/213
f 214/214/214 213/213/213 215/215/215
f 214/214/214 215/215/215 216/216/216
f 214/214/214 216/216/216 217/217/217
f 214/214/214 217/217/217 218/218/218
f 214/214/214 218/218/218 219/219/219
f 214/214/214 219/219/219 220/220/220
f 214/214/214 220/220/220 221/221/221
f 214/214/214 221/221/221 222/222/222
f 214/214/214 222/222/222 223/223/223
f 224/224/224 225/225/225 226/226/226
f 227/227/227 225/225/225 224/224/224
f 228/228/228 225/225/225 227/227/227
f 229/229/229 225/225/225 228/228/228
f 229/229/229 230/230/230 225/225/225
f 229/229/229 231/231/231 230/230/230
f 229/229/229 232/232/232 231/231/231
f 229/229/229 233/233/233 232/232/232
f 234/234/234 233/233/233 229/229/229
f 234/234/234 235/235/235 233/233/233
f 234/234/234 236/236/236 235/235/235
f 234/234/234 237/237/237 236/236/236
f 234/234/234 238/238/238 237/237/237
f 239/239/239 238/238/238 234/234/234
f 239/239/239 240/240/240 238/238/238
f 239/239/239 241/241/241 240/240/240
f 239/239/239 242/242/242 241/241/241
f 239/239/239 243/243/243 242/242/242
f 239/239/239 244/244/244 243/243/243
f 239/239/239 245/245/245 244/244/244
f 239/239/239 246/246/246 245/245/245
f 239/239/239 247/247/247 246/246/246
f 239/239/239 248/248/248 247/247/247
