# Exported using automatic converter by Erwin Coumans
mtllib bedroom.mtl
#object Arch28_042_57

v 133.029999 144.482498 22.511700
v 133.039993 144.289993 22.501699
v 133.039993 144.472504 22.501699
v 133.029999 144.279999 22.511700
v 133.029999 144.279999 22.511700
v 133.039993 144.289993 22.367201
v 133.039993 144.289993 22.501699
v 133.029999 144.279999 22.363100
v 133.029999 144.279999 22.363100
v 133.039993 144.292694 22.364500
v 133.039993 144.289993 22.367201
v 133.029999 144.288498 22.354500
v 133.029999 144.288498 22.354500
v 133.039993 144.321701 22.364500
v 133.039993 144.292694 22.364500
v 133.029999 144.325806 22.354500
v 133.029999 144.325806 22.354500
v 133.039993 144.324402 22.367201
v 133.039993 144.321701 22.364500
v 133.029999 144.334396 22.363100
v 133.029999 144.334396 22.363100
v 133.039993 144.324402 22.405300
v 133.039993 144.324402 22.367201
v 133.029999 144.334396 22.404499
v 133.039993 144.327393 22.423700
v 133.029999 144.337006 22.420401
v 133.039993 144.336197 22.440300
v 133.029999 144.344299 22.434299
v 133.039993 144.349503 22.453400
v 133.029999 144.355392 22.445200
v 133.039993 144.366196 22.462000
v 133.029999 144.369400 22.452400
v 133.039993 144.384598 22.465000
v 133.029999 144.385406 22.455000
v 133.029999 144.385406 22.455000
v 133.039993 144.469803 22.464001
v 133.039993 144.384598 22.465000
v 133.029999 144.473907 22.454000
v 133.029999 144.473907 22.454000
v 133.039993 144.472504 22.466700
v 133.039993 144.469803 22.464001
v 133.029999 144.482498 22.462601
v 133.029999 144.482498 22.462601
v 133.039993 144.472504 22.466700
v 132.880005 144.482498 22.511700
v 133.029999 144.279999 22.511700
v 133.029999 144.482498 22.511700
v 132.880005 144.279999 22.511700
v 132.880005 144.279999 22.511700
v 133.029999 144.279999 22.363100
v 133.029999 144.279999 22.511700
v 132.880005 144.279999 22.363100
v 132.880005 144.279999 22.363100
v 133.029999 144.288498 22.354500
v 133.029999 144.279999 22.363100
v 132.880005 144.288498 22.354500
v 132.880005 144.288498 22.354500
v 133.029999 144.325806 22.354500
v 133.029999 144.288498 22.354500
v 132.880005 144.325806 22.354500
v 132.880005 144.325806 22.354500
v 133.029999 144.334396 22.363100
v 133.029999 144.325806 22.354500
v 132.880005 144.334396 22.363100
v 132.880005 144.334396 22.363100
v 133.029999 144.334396 22.404499
v 133.029999 144.334396 22.363100
v 132.880005 144.334396 22.404499
v 133.029999 144.337006 22.420401
v 132.880005 144.337006 22.420401
v 133.029999 144.344299 22.434299
v 132.880005 144.344299 22.434299
v 133.029999 144.355392 22.445200
v 132.880005 144.355392 22.445200
v 133.029999 144.369400 22.452400
v 132.880005 144.369400 22.452400
v 133.029999 144.385406 22.455000
v 132.880005 144.385406 22.455000
v 132.880005 144.385406 22.455000
v 133.029999 144.473907 22.454000
v 133.029999 144.385406 22.455000
v 132.880005 144.473907 22.454000
v 132.880005 144.473907 22.454000
v 133.029999 144.482498 22.462601
v 133.029999 144.473907 22.454000
v 132.880005 144.482498 22.462601
v 132.880005 144.482498 22.462601
v 133.029999 144.482498 22.462601
v 132.869995 144.472504 22.501699
v 132.880005 144.279999 22.511700
v 132.880005 144.482498 22.511700
v 132.869995 144.289993 22.501699
v 132.869995 144.289993 22.501699
v 132.880005 144.279999 22.363100
v 132.880005 144.279999 22.511700
v 132.869995 144.289993 22.367201
v 132.869995 144.289993 22.367201
v 132.880005 144.288498 22.354500
v 132.880005 144.279999 22.363100
v 132.869995 144.292694 22.364500
v 132.869995 144.292694 22.364500
v 132.880005 144.325806 22.354500
v 132.880005 144.288498 22.354500
v 132.869995 144.321701 22.364500
v 132.869995 144.321701 22.364500
v 132.880005 144.334396 22.363100
v 132.880005 144.325806 22.354500
v 132.869995 144.324402 22.367201
v 132.869995 144.324402 22.367201
v 132.880005 144.334396 22.404499
v 132.880005 144.334396 22.363100
v 132.869995 144.324402 22.405300
v 132.880005 144.337006 22.420401
v 132.869995 144.327393 22.423700
v 132.880005 144.344299 22.434299
v 132.869995 144.336197 22.440300
v 132.880005 144.355392 22.445200
v 132.869995 144.349503 22.453400
v 132.880005 144.369400 22.452400
v 132.869995 144.366196 22.462000
v 132.880005 144.385406 22.455000
v 132.869995 144.384598 22.465000
v 132.869995 144.384598 22.465000
v 132.880005 144.473907 22.454000
v 132.880005 144.385406 22.455000
v 132.869995 144.469803 22.464001
v 132.869995 144.469803 22.464001
v 132.880005 144.482498 22.462601
v 132.880005 144.473907 22.454000
v 132.869995 144.472504 22.466700
v 132.869995 144.472504 22.466700
v 132.880005 144.482498 22.462601
v 132.869995 144.289993 22.501699
v 132.869995 144.472504 22.501699
v 132.869995 144.472504 22.466700
v 132.869995 144.469803 22.464001
v 132.869995 144.384598 22.465000
v 132.869995 144.366196 22.462000
v 132.869995 144.349503 22.453400
v 132.869995 144.336197 22.440300
v 132.869995 144.289993 22.367201
v 132.869995 144.327393 22.423700
v 132.869995 144.324402 22.405300
v 132.869995 144.324402 22.367201
v 132.869995 144.321701 22.364500
v 132.869995 144.292694 22.364500
v 133.039993 144.472504 22.501699
v 133.039993 144.289993 22.501699
v 133.039993 144.472504 22.466700
v 133.039993 144.469803 22.464001
v 133.039993 144.384598 22.465000
v 133.039993 144.366196 22.462000
v 133.039993 144.349503 22.453400
v 133.039993 144.336197 22.440300
v 133.039993 144.289993 22.367201
v 133.039993 144.327393 22.423700
v 133.039993 144.324402 22.405300
v 133.039993 144.324402 22.367201
v 133.039993 144.321701 22.364500
v 133.039993 144.292694 22.364500
usemtl wire_086086086

vn 0.816500 0.408200 0.408200
vn 0.707100 -0.000000 0.707100
vn 0.816500 0.408200 0.408200
vn 0.707100 -0.000000 0.707100
vn 0.707100 -0.707100 0.000000
vn 0.707100 -0.707100 0.000000
vn 0.707100 -0.707100 0.000000
vn 0.707100 -0.707100 0.000000
vn 0.707100 -0.500000 -0.500000
vn 0.707100 -0.500000 -0.500000
vn 0.707100 -0.500000 -0.500000
vn 0.707100 -0.500000 -0.500000
vn 0.707100 -0.000000 -0.707100
vn 0.707100 -0.000000 -0.707100
vn 0.707100 -0.000000 -0.707100
vn 0.707100 -0.000000 -0.707100
vn 0.707100 0.500000 -0.500000
vn 0.707100 0.500000 -0.500000
vn 0.707100 0.500000 -0.500000
vn 0.707100 0.500000 -0.500000
vn 0.707100 0.707100 -0.000000
vn 0.708300 0.703600 -0.057600
vn 0.707100 0.707100 -0.000000
vn 0.708300 0.703600 -0.057600
vn 0.711700 0.665900 -0.223700
vn 0.711700 0.665900 -0.223700
vn 0.711300 0.564400 -0.418900
vn 0.711300 0.564400 -0.418900
vn 0.711200 0.412000 -0.569600
vn 0.711200 0.412000 -0.569600
vn 0.711500 0.218900 -0.667800
vn 0.711500 0.218900 -0.667800
vn 0.707100 0.112400 -0.698100
vn 0.707100 0.112400 -0.698100
vn 0.707100 -0.007900 -0.707100
vn 0.707100 -0.007900 -0.707100
vn 0.707100 -0.007900 -0.707100
vn 0.707100 -0.007900 -0.707100
vn 0.707100 0.500000 -0.500000
vn 0.707100 0.500000 -0.500000
vn 0.707100 0.500000 -0.500000
vn 0.707100 0.500000 -0.500000
vn 0.707100 0.707100 0.000000
vn 0.707100 0.707100 0.000000
vn 0.000000 0.707100 0.707100
vn -0.000000 0.000000 1.000000
vn 0.000000 0.707100 0.707100
vn -0.000000 0.000000 1.000000
vn -0.000000 -1.000000 0.000000
vn -0.000000 -1.000000 0.000000
vn -0.000000 -1.000000 0.000000
vn -0.000000 -1.000000 0.000000
vn -0.000000 -0.707100 -0.707100
vn -0.000000 -0.707100 -0.707100
vn -0.000000 -0.707100 -0.707100
vn -0.000000 -0.707100 -0.707100
vn 0.000000 -0.000000 -1.000000
vn 0.000000 -0.000000 -1.000000
vn 0.000000 -0.000000 -1.000000
vn 0.000000 -0.000000 -1.000000
vn 0.000000 0.707100 -0.707100
vn 0.000000 0.707100 -0.707100
vn 0.000000 0.707100 -0.707100
vn 0.000000 0.707100 -0.707100
vn 0.000000 1.000000 -0.000000
vn 0.000000 0.996700 -0.081600
vn 0.000000 1.000000 -0.000000
vn 0.000000 0.996700 -0.081600
vn 0.000000 0.947900 -0.318400
vn 0.000000 0.947900 -0.318400
vn 0.000000 0.803000 -0.596000
vn 0.000000 0.803000 -0.596000
vn 0.000000 0.586100 -0.810300
vn 0.000000 0.586100 -0.810300
vn 0.000000 0.311500 -0.950300
vn 0.000000 0.311500 -0.950300
vn 0.000000 0.159000 -0.987300
vn 0.000000 0.159000 -0.987300
vn 0.000000 -0.011200 -0.999900
vn 0.000000 -0.011200 -0.999900
vn 0.000000 -0.011200 -0.999900
vn 0.000000 -0.011200 -0.999900
vn 0.000000 0.707100 -0.707100
vn 0.000000 0.707100 -0.707100
vn 0.000000 0.707100 -0.707100
vn 0.000000 0.707100 -0.707100
vn 0.000000 1.000000 0.000000
vn 0.000000 1.000000 0.000000
vn -0.816500 0.408200 0.408200
vn -0.707100 0.000000 0.707100
vn -0.816500 0.408200 0.408200
vn -0.707100 0.000000 0.707100
vn -0.707100 -0.707100 -0.000000
vn -0.707100 -0.707100 -0.000000
vn -0.707100 -0.707100 -0.000000
vn -0.707100 -0.707100 -0.000000
vn -0.707100 -0.500000 -0.500000
vn -0.707100 -0.500000 -0.500000
vn -0.707100 -0.500000 -0.500000
vn -0.707100 -0.500000 -0.500000
vn -0.707100 0.000000 -0.707100
vn -0.707100 0.000000 -0.707100
vn -0.707100 0.000000 -0.707100
vn -0.707100 0.000000 -0.707100
vn -0.707100 0.500000 -0.500000
vn -0.707100 0.500000 -0.500000
vn -0.707100 0.500000 -0.500000
vn -0.707100 0.500000 -0.500000
vn -0.707100 0.707100 -0.000000
vn -0.708300 0.703600 -0.057600
vn -0.707100 0.707100 -0.000000
vn -0.708300 0.703600 -0.057600
vn -0.711700 0.665900 -0.223700
vn -0.711700 0.665900 -0.223700
vn -0.711300 0.564400 -0.418900
vn -0.711300 0.564400 -0.418900
vn -0.711200 0.412000 -0.569600
vn -0.711200 0.412000 -0.569600
vn -0.711500 0.218900 -0.667800
vn -0.711500 0.218900 -0.667800
vn -0.707100 0.112400 -0.698100
vn -0.707100 0.112400 -0.698100
vn -0.707100 -0.007900 -0.707100
vn -0.707100 -0.007900 -0.707100
vn -0.707100 -0.007900 -0.707100
vn -0.707100 -0.007900 -0.707100
vn -0.707100 0.500000 -0.500000
vn -0.707100 0.500000 -0.500000
vn -0.707100 0.500000 -0.500000
vn -0.707100 0.500000 -0.500000
vn -0.707100 0.707100 -0.000000
vn -0.707100 0.707100 -0.000000
vn -1.000000 0.000000 -0.000000
vn -1.000000 0.000000 -0.000000
vn -1.000000 0.000000 -0.000000
vn -1.000000 0.000000 -0.000000
vn -1.000000 0.000000 -0.000000
vn -1.000000 0.000000 -0.000000
vn -1.000000 0.000000 -0.000000
vn -1.000000 0.000000 -0.000000
vn -1.000000 0.000000 -0.000000
vn -1.000000 0.000000 -0.000000
vn -1.000000 0.000000 -0.000000
vn -1.000000 0.000000 -0.000000
vn -1.000000 0.000000 -0.000000
vn -1.000000 0.000000 -0.000000
vn 1.000000 -0.000000 0.000000
vn 1.000000 -0.000000 0.000000
vn 1.000000 -0.000000 0.000000
vn 1.000000 -0.000000 0.000000
vn 1.000000 -0.000000 0.000000
vn 1.000000 -0.000000 0.000000
vn 1.000000 -0.000000 0.000000
vn 1.000000 -0.000000 0.000000
vn 1.000000 -0.000000 0.000000
vn 1.000000 -0.000000 0.000000
vn 1.000000 -0.000000 0.000000
vn 1.000000 -0.000000 0.000000
vn 1.000000 -0.000000 0.000000
vn 1.000000 -0.000000 0.000000

s off
f 1/1/1 2/2/2 3/3/3
f 1/1/1 4/4/4 2/2/2
f 5/5/5 6/6/6 7/7/7
f 5/5/5 8/8/8 6/6/6
f 9/9/9 10/10/10 11/11/11
f 9/9/9 12/12/12 10/10/10
f 13/13/13 14/14/14 15/15/15
f 13/13/13 16/16/16 14/14/14
f 17/17/17 18/18/18 19/19/19
f 17/17/17 20/20/20 18/18/18
f 21/21/21 22/22/22 23/23/23
f 21/21/21 24/24/24 22/22/22
f 24/24/24 25/25/25 22/22/22
f 24/24/24 26/26/26 25/25/25
f 26/26/26 27/27/27 25/25/25
f 26/26/26 28/28/28 27/27/27
f 28/28/28 29/29/29 27/27/27
f 28/28/28 30/30/30 29/29/29
f 30/30/30 31/31/31 29/29/29
f 30/30/30 32/32/32 31/31/31
f 32/32/32 33/33/33 31/31/31
f 32/32/32 34/34/34 33/33/33
f 35/35/35 36/36/36 37/37/37
f 35/35/35 38/38/38 36/36/36
f 39/39/39 40/40/40 41/41/41
f 39/39/39 42/42/42 40/40/40
f 43/43/43 3/3/3 44/44/44
f 43/43/43 1/1/1 3/3/3
f 45/45/45 46/46/46 47/47/47
f 45/45/45 48/48/48 46/46/46
f 49/49/49 50/50/50 51/51/51
f 49/49/49 52/52/52 50/50/50
f 53/53/53 54/54/54 55/55/55
f 53/53/53 56/56/56 54/54/54
f 57/57/57 58/58/58 59/59/59
f 57/57/57 60/60/60 58/58/58
f 61/61/61 62/62/62 63/63/63
f 61/61/61 64/64/64 62/62/62
f 65/65/65 66/66/66 67/67/67
f 65/65/65 68/68/68 66/66/66
f 68/68/68 69/69/69 66/66/66
f 68/68/68 70/70/70 69/69/69
f 70/70/70 71/71/71 69/69/69
f 70/70/70 72/72/72 71/71/71
f 72/72/72 73/73/73 71/71/71
f 72/72/72 74/74/74 73/73/73
f 74/74/74 75/75/75 73/73/73
f 74/74/74 76/76/76 75/75/75
f 76/76/76 77/77/77 75/75/75
f 76/76/76 78/78/78 77/77/77
f 79/79/79 80/80/80 81/81/81
f 79/79/79 82/82/82 80/80/80
f 83/83/83 84/84/84 85/85/85
f 83/83/83 86/86/86 84/84/84
f 87/87/87 47/47/47 88/88/88
f 87/87/87 45/45/45 47/47/47
f 89/89/89 90/90/90 91/91/91
f 89/89/89 92/92/92 90/90/90
f 93/93/93 94/94/94 95/95/95
f 93/93/93 96/96/96 94/94/94
f 97/97/97 98/98/98 99/99/99
f 97/97/97 100/100/100 98/98/98
f 101/101/101 102/102/102 103/103/103
f 101/101/101 104/104/104 102/102/102
f 105/105/105 106/106/106 107/107/107
f 105/105/105 108/108/108 106/106/106
f 109/109/109 110/110/110 111/111/111
f 109/109/109 112/112/112 110/110/110
f 112/112/112 113/113/113 110/110/110
f 112/112/112 114/114/114 113/113/113
f 114/114/114 115/115/115 113/113/113
f 114/114/114 116/116/116 115/115/115
f 116/116/116 117/117/117 115/115/115
f 116/116/116 118/118/118 117/117/117
f 118/118/118 119/119/119 117/117/117
f 118/118/118 120/120/120 119/119/119
f 120/120/120 121/121/121 119/119/119
f 120/120/120 122/122/122 121/121/121
f 123/123/123 124/124/124 125/125/125
f 123/123/123 126/126/126 124/124/124
f 127/127/127 128/128/128 129/129/129
f 127/127/127 130/130/130 128/128/128
f 131/131/131 91/91/91 132/132/132
f 131/131/131 89/89/89 91/91/91
f 133/133/133 134/134/134 135/135/135
f 133/133/133 135/135/135 136/136/136
f 133/133/133 136/136/136 137/137/137
f 133/133/133 137/137/137 138/138/138
f 133/133/133 138/138/138 139/139/139
f 133/133/133 139/139/139 140/140/140
f 141/141/141 133/133/133 140/140/140
f 141/141/141 140/140/140 142/142/142
f 141/141/141 142/142/142 143/143/143
f 141/141/141 143/143/143 144/144/144
f 141/141/141 144/144/144 145/145/145
f 141/141/141 145/145/145 146/146/146
f 147/147/147 148/148/148 149/149/149
f 149/149/149 148/148/148 150/150/150
f 150/150/150 148/148/148 151/151/151
f 151/151/151 148/148/148 152/152/152
f 152/152/152 148/148/148 153/153/153
f 153/153/153 148/148/148 154/154/154
f 148/148/148 155/155/155 154/154/154
f 154/154/154 155/155/155 156/156/156
f 156/156/156 155/155/155 157/157/157
f 157/157/157 155/155/155 158/158/158
f 158/158/158 155/155/155 159/159/159
f 159/159/159 155/155/155 160/160/160
