# Exported using automatic converter by Erwin Coumans
mtllib bedroom.mtl
#object cook_009_17

v 114.392799 150.089996 10.192500
v 114.387100 150.089996 10.186900
v 114.382797 150.089996 10.180200
v 114.408798 150.089996 10.186100
v 114.399597 150.089996 10.196700
v 114.407303 150.089996 10.199400
v 114.415703 150.089996 10.200400
v 114.424103 150.089996 10.199400
v 114.423897 150.089996 10.186100
v 114.431801 150.089996 10.196700
v 114.438599 150.089996 10.192500
v 114.444298 150.089996 10.186900
v 114.448700 150.089996 10.180200
v 114.451401 150.089996 10.172700
v 114.452400 150.089996 10.164400
v 114.423897 150.089996 10.143700
v 114.451401 150.089996 10.156200
v 114.379997 150.089996 10.172700
v 114.378998 150.089996 10.164400
v 114.379997 150.089996 10.156200
v 114.382797 150.089996 10.148600
v 114.387100 150.089996 10.141900
v 114.408798 150.089996 10.143700
v 114.392799 150.089996 10.136300
v 114.399597 150.089996 10.132100
v 114.407303 150.089996 10.129400
v 114.415703 150.089996 10.128400
v 114.424103 150.089996 10.129400
v 114.431801 150.089996 10.132100
v 114.438599 150.089996 10.136300
v 114.444298 150.089996 10.141900
v 114.448700 150.089996 10.148600
v 114.911003 150.089996 10.195200
v 114.922302 150.089996 10.144200
v 114.922302 150.089996 10.186200
v 114.960403 150.089996 10.186200
v 114.971603 150.089996 10.195200
v 114.960403 150.089996 10.144200
v 114.971603 150.089996 10.135100
v 114.911003 150.089996 10.135100
v 114.947098 150.089996 10.172700
v 114.935600 150.089996 10.172700
v 114.935600 150.089996 10.157700
v 114.947098 150.089996 10.157700
v 114.452400 150.089996 10.164400
v 114.451401 150.089996 10.156200
v 114.451401 150.091003 10.156200
v 114.452400 150.091003 10.164400
v 114.451401 150.089996 10.156200
v 114.448700 150.089996 10.148600
v 114.448700 150.091003 10.148600
v 114.451401 150.091003 10.156200
v 114.448700 150.089996 10.148600
v 114.444298 150.089996 10.141900
v 114.444298 150.091003 10.141900
v 114.448700 150.091003 10.148600
v 114.444298 150.089996 10.141900
v 114.438599 150.089996 10.136300
v 114.438599 150.091003 10.136300
v 114.444298 150.091003 10.141900
v 114.423897 150.089996 10.143700
v 114.423897 150.089996 10.186100
v 114.423897 150.091003 10.186100
v 114.423897 150.091003 10.143700
v 114.451401 150.089996 10.172700
v 114.452400 150.089996 10.164400
v 114.452400 150.091003 10.164400
v 114.451401 150.091003 10.172700
v 114.448700 150.089996 10.180200
v 114.451401 150.089996 10.172700
v 114.451401 150.091003 10.172700
v 114.451401 150.091003 10.172700
v 114.448700 150.091003 10.180200
v 114.448700 150.089996 10.180200
v 114.444298 150.089996 10.186900
v 114.448700 150.089996 10.180200
v 114.448700 150.091003 10.180200
v 114.444298 150.091003 10.186900
v 114.438599 150.089996 10.192500
v 114.444298 150.089996 10.186900
v 114.444298 150.091003 10.186900
v 114.438599 150.091003 10.192500
v 114.431801 150.089996 10.196700
v 114.438599 150.089996 10.192500
v 114.438599 150.091003 10.192500
v 114.431801 150.091003 10.196700
v 114.438599 150.089996 10.136300
v 114.431801 150.089996 10.132100
v 114.431801 150.091003 10.132100
v 114.438599 150.091003 10.136300
v 114.424103 150.089996 10.199400
v 114.431801 150.089996 10.196700
v 114.431801 150.091003 10.196700
v 114.424103 150.091003 10.199400
v 114.431801 150.089996 10.132100
v 114.424103 150.089996 10.129400
v 114.424103 150.091003 10.129400
v 114.431801 150.091003 10.132100
v 114.408798 150.089996 10.143700
v 114.423897 150.089996 10.143700
v 114.423897 150.091003 10.143700
v 114.408798 150.091003 10.143700
v 114.424103 150.089996 10.129400
v 114.415703 150.089996 10.128400
v 114.415703 150.091003 10.128400
v 114.424103 150.091003 10.129400
v 114.415703 150.089996 10.128400
v 114.407303 150.089996 10.129400
v 114.407303 150.091003 10.129400
v 114.415703 150.091003 10.128400
v 114.407303 150.089996 10.129400
v 114.399597 150.089996 10.132100
v 114.399597 150.091003 10.132100
v 114.399597 150.091003 10.132100
v 114.407303 150.091003 10.129400
v 114.407303 150.089996 10.129400
v 114.423897 150.089996 10.186100
v 114.408798 150.089996 10.186100
v 114.408798 150.091003 10.186100
v 114.423897 150.091003 10.186100
v 114.415703 150.089996 10.200400
v 114.424103 150.089996 10.199400
v 114.424103 150.091003 10.199400
v 114.415703 150.091003 10.200400
v 114.407303 150.089996 10.199400
v 114.415703 150.089996 10.200400
v 114.415703 150.091003 10.200400
v 114.407303 150.091003 10.199400
v 114.399597 150.089996 10.196700
v 114.407303 150.089996 10.199400
v 114.407303 150.091003 10.199400
v 114.399597 150.091003 10.196700
v 114.399597 150.089996 10.132100
v 114.392799 150.089996 10.136300
v 114.392799 150.091003 10.136300
v 114.392799 150.091003 10.136300
v 114.399597 150.091003 10.132100
v 114.399597 150.089996 10.132100
v 114.392799 150.089996 10.192500
v 114.399597 150.089996 10.196700
v 114.399597 150.091003 10.196700
v 114.392799 150.091003 10.192500
v 114.392799 150.089996 10.136300
v 114.387100 150.089996 10.141900
v 114.387100 150.091003 10.141900
v 114.387100 150.091003 10.141900
v 114.392799 150.091003 10.136300
v 114.392799 150.089996 10.136300
v 114.408798 150.089996 10.186100
v 114.408798 150.089996 10.143700
v 114.408798 150.091003 10.143700
v 114.408798 150.091003 10.186100
v 114.387100 150.089996 10.141900
v 114.382797 150.089996 10.148600
v 114.382797 150.091003 10.148600
v 114.382797 150.091003 10.148600
v 114.387100 150.091003 10.141900
v 114.387100 150.089996 10.141900
v 114.382797 150.089996 10.148600
v 114.379997 150.089996 10.156200
v 114.379997 150.091003 10.156200
v 114.382797 150.091003 10.148600
v 114.379997 150.089996 10.156200
v 114.378998 150.089996 10.164400
v 114.378998 150.091003 10.164400
v 114.379997 150.091003 10.156200
v 114.378998 150.089996 10.164400
v 114.379997 150.089996 10.172700
v 114.379997 150.091003 10.172700
v 114.378998 150.091003 10.164400
v 114.379997 150.089996 10.172700
v 114.382797 150.089996 10.180200
v 114.382797 150.091003 10.180200
v 114.379997 150.091003 10.172700
v 114.382797 150.089996 10.180200
v 114.387100 150.089996 10.186900
v 114.387100 150.091003 10.186900
v 114.382797 150.091003 10.180200
v 114.387100 150.089996 10.186900
v 114.392799 150.089996 10.192500
v 114.392799 150.091003 10.192500
v 114.387100 150.091003 10.186900
v 114.971603 150.089996 10.195200
v 114.971603 150.089996 10.135100
v 114.971603 150.091003 10.135100
v 114.971603 150.091003 10.195200
v 114.960403 150.089996 10.144200
v 114.960403 150.089996 10.186200
v 114.960403 150.091003 10.186200
v 114.960403 150.091003 10.144200
v 114.911003 150.089996 10.195200
v 114.971603 150.089996 10.195200
v 114.971603 150.091003 10.195200
v 114.911003 150.091003 10.195200
v 114.960403 150.089996 10.186200
v 114.922302 150.089996 10.186200
v 114.922302 150.091003 10.186200
v 114.960403 150.091003 10.186200
v 114.971603 150.089996 10.135100
v 114.911003 150.089996 10.135100
v 114.911003 150.091003 10.135100
v 114.971603 150.091003 10.135100
v 114.922302 150.089996 10.144200
v 114.960403 150.089996 10.144200
v 114.960403 150.091003 10.144200
v 114.922302 150.091003 10.144200
v 114.911003 150.089996 10.135100
v 114.911003 150.089996 10.195200
v 114.911003 150.091003 10.195200
v 114.911003 150.091003 10.135100
v 114.922302 150.089996 10.186200
v 114.922302 150.089996 10.144200
v 114.922302 150.091003 10.144200
v 114.922302 150.091003 10.186200
v 114.947098 150.089996 10.157700
v 114.935600 150.089996 10.157700
v 114.935600 150.091003 10.157700
v 114.947098 150.091003 10.157700
v 114.947098 150.089996 10.172700
v 114.947098 150.089996 10.157700
v 114.947098 150.091003 10.157700
v 114.947098 150.091003 10.172700
v 114.935600 150.089996 10.157700
v 114.935600 150.089996 10.172700
v 114.935600 150.091003 10.172700
v 114.935600 150.091003 10.157700
v 114.935600 150.089996 10.172700
v 114.947098 150.089996 10.172700
v 114.947098 150.091003 10.172700
v 114.935600 150.091003 10.172700
usemtl wire_115115115

vn -0.000000 -1.000000 -0.000000
vn -0.000000 -1.000000 -0.000000
vn -0.000000 -1.000000 -0.000000
vn -0.000000 -1.000000 -0.000000
vn -0.000000 -1.000000 -0.000000
vn -0.000000 -1.000000 -0.000000
vn -0.000000 -1.000000 -0.000000
vn -0.000000 -1.000000 -0.000000
vn -0.000000 -1.000000 -0.000000
vn -0.000000 -1.000000 -0.000000
vn -0.000000 -1.000000 -0.000000
vn -0.000000 -1.000000 -0.000000
vn -0.000000 -1.000000 -0.000000
vn -0.000000 -1.000000 -0.000000
vn -0.000000 -1.000000 -0.000000
vn -0.000000 -1.000000 -0.000000
vn -0.000000 -1.000000 -0.000000
vn -0.000000 -1.000000 -0.000000
vn -0.000000 -1.000000 -0.000000
vn -0.000000 -1.000000 -0.000000
vn -0.000000 -1.000000 -0.000000
vn -0.000000 -1.000000 -0.000000
vn -0.000000 -1.000000 -0.000000
vn -0.000000 -1.000000 -0.000000
vn -0.000000 -1.000000 -0.000000
vn -0.000000 -1.000000 -0.000000
vn -0.000000 -1.000000 -0.000000
vn -0.000000 -1.000000 -0.000000
vn -0.000000 -1.000000 -0.000000
vn -0.000000 -1.000000 -0.000000
vn -0.000000 -1.000000 -0.000000
vn -0.000000 -1.000000 -0.000000
vn -0.000000 -1.000000 -0.000000
vn -0.000000 -1.000000 -0.000000
vn -0.000000 -1.000000 -0.000000
vn -0.000000 -1.000000 -0.000000
vn -0.000000 -1.000000 -0.000000
vn -0.000000 -1.000000 -0.000000
vn -0.000000 -1.000000 -0.000000
vn -0.000000 -1.000000 -0.000000
vn -0.000000 -1.000000 -0.000000
vn -0.000000 -1.000000 -0.000000
vn -0.000000 -1.000000 -0.000000
vn -0.000000 -1.000000 -0.000000
vn 0.993400 -0.000000 -0.114600
vn 0.993400 -0.000000 -0.114600
vn 0.993400 -0.000000 -0.114600
vn 0.993400 -0.000000 -0.114600
vn 0.941600 -0.000000 -0.336900
vn 0.941600 -0.000000 -0.336900
vn 0.941600 -0.000000 -0.336900
vn 0.941600 -0.000000 -0.336900
vn 0.843700 -0.000000 -0.536800
vn 0.843700 -0.000000 -0.536800
vn 0.843700 -0.000000 -0.536800
vn 0.843700 -0.000000 -0.536800
vn 0.707100 -0.000000 -0.707100
vn 0.707100 -0.000000 -0.707100
vn 0.707100 -0.000000 -0.707100
vn 0.707100 -0.000000 -0.707100
vn -1.000000 0.000000 0.000000
vn -1.000000 0.000000 0.000000
vn -1.000000 0.000000 0.000000
vn -1.000000 0.000000 0.000000
vn 0.993400 -0.000000 0.114600
vn 0.993400 -0.000000 0.114600
vn 0.993400 -0.000000 0.114600
vn 0.993400 -0.000000 0.114600
vn 0.941600 0.000000 0.336900
vn 0.941600 0.000000 0.336900
vn 0.941600 0.000000 0.336900
vn 0.941600 -0.000000 0.336900
vn 0.941600 -0.000000 0.336900
vn 0.941600 -0.000000 0.336900
vn 0.843700 -0.000000 0.536800
vn 0.843700 -0.000000 0.536800
vn 0.843700 -0.000000 0.536800
vn 0.843700 -0.000000 0.536800
vn 0.707100 -0.000000 0.707100
vn 0.707100 -0.000000 0.707100
vn 0.707100 -0.000000 0.707100
vn 0.707100 -0.000000 0.707100
vn 0.536700 -0.000000 0.843800
vn 0.536700 -0.000000 0.843800
vn 0.536700 -0.000000 0.843800
vn 0.536700 -0.000000 0.843800
vn 0.536700 -0.000000 -0.843800
vn 0.536700 -0.000000 -0.843800
vn 0.536700 -0.000000 -0.843800
vn 0.536700 -0.000000 -0.843800
vn 0.336900 -0.000000 0.941500
vn 0.336900 -0.000000 0.941500
vn 0.336900 -0.000000 0.941500
vn 0.336900 -0.000000 0.941500
vn 0.336900 -0.000000 -0.941500
vn 0.336900 -0.000000 -0.941500
vn 0.336900 -0.000000 -0.941500
vn 0.336900 -0.000000 -0.941500
vn 0.000000 -0.000000 1.000000
vn 0.000000 -0.000000 1.000000
vn 0.000000 -0.000000 1.000000
vn 0.000000 -0.000000 1.000000
vn 0.114600 -0.000000 -0.993400
vn 0.114600 -0.000000 -0.993400
vn 0.114600 -0.000000 -0.993400
vn 0.114600 -0.000000 -0.993400
vn -0.114600 0.000000 -0.993400
vn -0.114600 0.000000 -0.993400
vn -0.114600 0.000000 -0.993400
vn -0.114600 0.000000 -0.993400
vn -0.336900 -0.000000 -0.941500
vn -0.336900 -0.000000 -0.941500
vn -0.336900 -0.000000 -0.941500
vn -0.336900 0.000000 -0.941500
vn -0.336900 0.000000 -0.941500
vn -0.336900 0.000000 -0.941500
vn -0.000000 0.000000 -1.000000
vn -0.000000 0.000000 -1.000000
vn -0.000000 0.000000 -1.000000
vn -0.000000 0.000000 -1.000000
vn 0.114600 -0.000000 0.993400
vn 0.114600 -0.000000 0.993400
vn 0.114600 -0.000000 0.993400
vn 0.114600 -0.000000 0.993400
vn -0.114600 0.000000 0.993400
vn -0.114600 0.000000 0.993400
vn -0.114600 0.000000 0.993400
vn -0.114600 0.000000 0.993400
vn -0.336900 0.000000 0.941500
vn -0.336900 0.000000 0.941500
vn -0.336900 0.000000 0.941500
vn -0.336900 0.000000 0.941500
vn -0.536700 0.000000 -0.843800
vn -0.536700 0.000000 -0.843800
vn -0.536700 0.000000 -0.843800
vn -0.536700 -0.000000 -0.843800
vn -0.536700 -0.000000 -0.843800
vn -0.536700 -0.000000 -0.843800
vn -0.536700 0.000000 0.843800
vn -0.536700 0.000000 0.843800
vn -0.536700 0.000000 0.843800
vn -0.536700 0.000000 0.843800
vn -0.707100 -0.000000 -0.707100
vn -0.707100 -0.000000 -0.707100
vn -0.707100 -0.000000 -0.707100
vn -0.707100 0.000000 -0.707100
vn -0.707100 0.000000 -0.707100
vn -0.707100 0.000000 -0.707100
vn 1.000000 -0.000000 -0.000000
vn 1.000000 -0.000000 -0.000000
vn 1.000000 -0.000000 -0.000000
vn 1.000000 -0.000000 -0.000000
vn -0.843800 0.000000 -0.536700
vn -0.843800 0.000000 -0.536700
vn -0.843800 0.000000 -0.536700
vn -0.843800 -0.000000 -0.536700
vn -0.843800 -0.000000 -0.536700
vn -0.843800 -0.000000 -0.536700
vn -0.941500 0.000000 -0.337000
vn -0.941500 0.000000 -0.337000
vn -0.941500 0.000000 -0.337000
vn -0.941500 0.000000 -0.337000
vn -0.993400 0.000000 -0.114500
vn -0.993400 0.000000 -0.114500
vn -0.993400 0.000000 -0.114500
vn -0.993400 0.000000 -0.114500
vn -0.993400 0.000000 0.114500
vn -0.993400 0.000000 0.114500
vn -0.993400 0.000000 0.114500
vn -0.993400 0.000000 0.114500
vn -0.941500 0.000000 0.337000
vn -0.941500 0.000000 0.337000
vn -0.941500 0.000000 0.337000
vn -0.941500 0.000000 0.337000
vn -0.843800 0.000000 0.536700
vn -0.843800 0.000000 0.536700
vn -0.843800 0.000000 0.536700
vn -0.843800 0.000000 0.536700
vn -0.707100 0.000000 0.707100
vn -0.707100 0.000000 0.707100
vn -0.707100 0.000000 0.707100
vn -0.707100 0.000000 0.707100
vn 1.000000 -0.000000 -0.000000
vn 1.000000 -0.000000 -0.000000
vn 1.000000 -0.000000 -0.000000
vn 1.000000 -0.000000 -0.000000
vn -1.000000 0.000000 0.000000
vn -1.000000 0.000000 0.000000
vn -1.000000 0.000000 0.000000
vn -1.000000 0.000000 0.000000
vn 0.000000 -0.000000 1.000000
vn 0.000000 -0.000000 1.000000
vn 0.000000 -0.000000 1.000000
vn 0.000000 -0.000000 1.000000
vn -0.000000 0.000000 -1.000000
vn -0.000000 0.000000 -1.000000
vn -0.000000 0.000000 -1.000000
vn -0.000000 0.000000 -1.000000
vn -0.000000 -0.000000 -1.000000
vn -0.000000 -0.000000 -1.000000
vn -0.000000 -0.000000 -1.000000
vn -0.000000 -0.000000 -1.000000
vn 0.000000 -0.000000 1.000000
vn 0.000000 -0.000000 1.000000
vn 0.000000 -0.000000 1.000000
vn 0.000000 -0.000000 1.000000
vn -1.000000 0.000000 0.000000
vn -1.000000 0.000000 0.000000
vn -1.000000 0.000000 0.000000
vn -1.000000 0.000000 0.000000
vn 1.000000 -0.000000 -0.000000
vn 1.000000 -0.000000 -0.000000
vn 1.000000 -0.000000 -0.000000
vn 1.000000 -0.000000 -0.000000
vn -0.000000 0.000000 -1.000000
vn -0.000000 0.000000 -1.000000
vn -0.000000 0.000000 -1.000000
vn -0.000000 0.000000 -1.000000
vn 1.000000 -0.000000 -0.000000
vn 1.000000 -0.000000 -0.000000
vn 1.000000 -0.000000 -0.000000
vn 1.000000 -0.000000 -0.000000
vn -1.000000 0.000000 0.000000
vn -1.000000 0.000000 0.000000
vn -1.000000 0.000000 0.000000
vn -1.000000 0.000000 0.000000
vn 0.000000 -0.000000 1.000000
vn 0.000000 -0.000000 1.000000
vn 0.000000 -0.000000 1.000000
vn 0.000000 -0.000000 1.000000

s off
f 1/1/1 2/2/2 3/3/3
f 1/1/1 3/3/3 4/4/4
f 5/5/5 1/1/1 4/4/4
f 6/6/6 5/5/5 4/4/4
f 7/7/7 6/6/6 4/4/4
f 8/8/8 7/7/7 4/4/4
f 8/8/8 4/4/4 9/9/9
f 10/10/10 8/8/8 9/9/9
f 11/11/11 10/10/10 9/9/9
f 12/12/12 11/11/11 9/9/9
f 13/13/13 12/12/12 9/9/9
f 14/14/14 13/13/13 9/9/9
f 15/15/15 14/14/14 9/9/9
f 15/15/15 9/9/9 16/16/16
f 17/17/17 15/15/15 16/16/16
f 4/4/4 3/3/3 18/18/18
f 4/4/4 18/18/18 19/19/19
f 4/4/4 19/19/19 20/20/20
f 4/4/4 20/20/20 21/21/21
f 4/4/4 21/21/21 22/22/22
f 23/23/23 4/4/4 22/22/22
f 23/23/23 22/22/22 24/24/24
f 23/23/23 24/24/24 25/25/25
f 23/23/23 25/25/25 26/26/26
f 23/23/23 26/26/26 27/27/27
f 23/23/23 27/27/27 28/28/28
f 16/16/16 23/23/23 28/28/28
f 16/16/16 28/28/28 29/29/29
f 16/16/16 29/29/29 30/30/30
f 16/16/16 30/30/30 31/31/31
f 16/16/16 31/31/31 32/32/32
f 17/17/17 16/16/16 32/32/32
f 33/33/33 34/34/34 35/35/35
f 33/33/33 35/35/35 36/36/36
f 37/37/37 33/33/33 36/36/36
f 37/37/37 36/36/36 38/38/38
f 39/39/39 37/37/37 38/38/38
f 34/34/34 33/33/33 40/40/40
f 38/38/38 34/34/34 40/40/40
f 39/39/39 38/38/38 40/40/40
f 41/41/41 42/42/42 43/43/43
f 43/43/43 44/44/44 41/41/41
f 45/45/45 46/46/46 47/47/47
f 47/47/47 48/48/48 45/45/45
f 49/49/49 50/50/50 51/51/51
f 51/51/51 52/52/52 49/49/49
f 53/53/53 54/54/54 55/55/55
f 55/55/55 56/56/56 53/53/53
f 57/57/57 58/58/58 59/59/59
f 59/59/59 60/60/60 57/57/57
f 61/61/61 62/62/62 63/63/63
f 63/63/63 64/64/64 61/61/61
f 65/65/65 66/66/66 67/67/67
f 67/67/67 68/68/68 65/65/65
f 69/69/69 70/70/70 71/71/71
f 72/72/72 73/73/73 74/74/74
f 75/75/75 76/76/76 77/77/77
f 77/77/77 78/78/78 75/75/75
f 79/79/79 80/80/80 81/81/81
f 81/81/81 82/82/82 79/79/79
f 83/83/83 84/84/84 85/85/85
f 85/85/85 86/86/86 83/83/83
f 87/87/87 88/88/88 89/89/89
f 89/89/89 90/90/90 87/87/87
f 91/91/91 92/92/92 93/93/93
f 93/93/93 94/94/94 91/91/91
f 95/95/95 96/96/96 97/97/97
f 97/97/97 98/98/98 95/95/95
f 99/99/99 100/100/100 101/101/101
f 101/101/101 102/102/102 99/99/99
f 103/103/103 104/104/104 105/105/105
f 105/105/105 106/106/106 103/103/103
f 107/107/107 108/108/108 109/109/109
f 109/109/109 110/110/110 107/107/107
f 111/111/111 112/112/112 113/113/113
f 114/114/114 115/115/115 116/116/116
f 117/117/117 118/118/118 119/119/119
f 119/119/119 120/120/120 117/117/117
f 121/121/121 122/122/122 123/123/123
f 123/123/123 124/124/124 121/121/121
f 125/125/125 126/126/126 127/127/127
f 127/127/127 128/128/128 125/125/125
f 129/129/129 130/130/130 131/131/131
f 131/131/131 132/132/132 129/129/129
f 133/133/133 134/134/134 135/135/135
f 136/136/136 137/137/137 138/138/138
f 139/139/139 140/140/140 141/141/141
f 141/141/141 142/142/142 139/139/139
f 143/143/143 144/144/144 145/145/145
f 146/146/146 147/147/147 148/148/148
f 149/149/149 150/150/150 151/151/151
f 151/151/151 152/152/152 149/149/149
f 153/153/153 154/154/154 155/155/155
f 156/156/156 157/157/157 158/158/158
f 159/159/159 160/160/160 161/161/161
f 161/161/161 162/162/162 159/159/159
f 163/163/163 164/164/164 165/165/165
f 165/165/165 166/166/166 163/163/163
f 167/167/167 168/168/168 169/169/169
f 169/169/169 170/170/170 167/167/167
f 171/171/171 172/172/172 173/173/173
f 173/173/173 174/174/174 171/171/171
f 175/175/175 176/176/176 177/177/177
f 177/177/177 178/178/178 175/175/175
f 179/179/179 180/180/180 181/181/181
f 181/181/181 182/182/182 179/179/179
f 183/183/183 184/184/184 185/185/185
f 185/185/185 186/186/186 183/183/183
f 187/187/187 188/188/188 189/189/189
f 189/189/189 190/190/190 187/187/187
f 191/191/191 192/192/192 193/193/193
f 193/193/193 194/194/194 191/191/191
f 195/195/195 196/196/196 197/197/197
f 197/197/197 198/198/198 195/195/195
f 199/199/199 200/200/200 201/201/201
f 201/201/201 202/202/202 199/199/199
f 203/203/203 204/204/204 205/205/205
f 205/205/205 206/206/206 203/203/203
f 207/207/207 208/208/208 209/209/209
f 209/209/209 210/210/210 207/207/207
f 211/211/211 212/212/212 213/213/213
f 213/213/213 214/214/214 211/211/211
f 215/215/215 216/216/216 217/217/217
f 217/217/217 218/218/218 215/215/215
f 219/219/219 220/220/220 221/221/221
f 221/221/221 222/222/222 219/219/219
f 223/223/223 224/224/224 225/225/225
f 225/225/225 226/226/226 223/223/223
f 227/227/227 228/228/228 229/229/229
f 229/229/229 230/230/230 227/227/227
