# Exported using automatic converter by Erwin Coumans
mtllib bedroom.mtl
#object fraktal_obj_68

v 130.250000 154.565994 10.631600
v 130.237396 154.543198 10.638500
v 130.232803 154.543701 10.637800
v 130.226700 154.568802 10.628300
v 130.486404 154.279404 10.632900
v 130.461594 154.271301 10.639700
v 130.237396 154.543198 10.638500
v 130.250000 154.565994 10.631600
v 130.484802 154.255997 10.629800
v 130.461304 154.266693 10.639100
v 130.461594 154.271301 10.639700
v 130.486404 154.279404 10.632900
v 130.288895 154.093506 10.578500
v 130.272797 154.110397 10.589800
v 130.461304 154.266693 10.639100
v 130.484802 154.255997 10.629800
v 130.313095 153.998093 10.653800
v 130.296997 154.014999 10.665000
v 130.277603 154.084595 10.670700
v 130.264099 154.103500 10.659200
v 130.321793 154.005005 10.584300
v 130.272797 154.110397 10.589800
v 130.308304 154.023895 10.572900
v 130.288895 154.093506 10.578500
v 130.598297 154.286407 10.651500
v 130.619705 154.291702 10.667200
v 130.616806 154.249603 10.661500
v 130.596695 154.263000 10.648300
v 130.277802 154.674896 10.649600
v 130.287003 154.695099 10.665300
v 130.619705 154.291702 10.667200
v 130.598297 154.286407 10.651500
v 130.254593 154.677704 10.646300
v 130.245193 154.700104 10.659400
v 130.287003 154.695099 10.665300
v 130.277802 154.674896 10.649600
v 130.254593 154.677704 10.646300
v 129.966003 154.438293 10.570900
v 129.949997 154.455200 10.582200
v 130.245193 154.700104 10.659400
v 130.035400 154.380402 10.657900
v 130.019394 154.397293 10.669200
v 129.954803 154.429398 10.663000
v 129.941299 154.448303 10.651600
v 130.044098 154.387299 10.588500
v 129.949997 154.455200 10.582200
v 130.030701 154.406204 10.577000
v 129.966003 154.438293 10.570900
v 130.237396 154.543198 10.638500
v 130.227005 154.534897 10.707400
v 130.222305 154.535400 10.706800
v 130.232803 154.543701 10.637800
v 130.461594 154.271301 10.639700
v 130.451202 154.263000 10.708700
v 130.227005 154.534897 10.707400
v 130.237396 154.543198 10.638500
v 130.461304 154.266693 10.639100
v 130.450897 154.258408 10.708100
v 130.451202 154.263000 10.708700
v 130.461594 154.271301 10.639700
v 130.461304 154.266693 10.639100
v 130.272797 154.110397 10.589800
v 130.264099 154.103500 10.659200
v 130.450897 154.258408 10.708100
v 130.619705 154.291702 10.667200
v 130.609299 154.283401 10.736200
v 130.606400 154.241302 10.730400
v 130.616806 154.249603 10.661500
v 130.287003 154.695099 10.665300
v 130.276596 154.686798 10.734300
v 130.609299 154.283401 10.736200
v 130.619705 154.291702 10.667200
v 130.245193 154.700104 10.659400
v 130.234802 154.691803 10.728300
v 130.276596 154.686798 10.734300
v 130.287003 154.695099 10.665300
v 130.245193 154.700104 10.659400
v 129.949997 154.455200 10.582200
v 129.941299 154.448303 10.651600
v 130.234802 154.691803 10.728300
v 130.227005 154.534897 10.707400
v 130.236099 154.554993 10.723100
v 130.212906 154.557800 10.719800
v 130.222305 154.535400 10.706800
v 130.451202 154.263000 10.708700
v 130.472595 154.268402 10.724400
v 130.236099 154.554993 10.723100
v 130.227005 154.534897 10.707400
v 130.450897 154.258408 10.708100
v 130.470993 154.244995 10.721300
v 130.472595 154.268402 10.724400
v 130.451202 154.263000 10.708700
v 130.450897 154.258408 10.708100
v 130.264099 154.103500 10.659200
v 130.277603 154.084595 10.670700
v 130.470993 154.244995 10.721300
v 130.609299 154.283401 10.736200
v 130.584503 154.275406 10.743000
v 130.582901 154.251999 10.739800
v 130.606400 154.241302 10.730400
v 130.276596 154.686798 10.734300
v 130.264008 154.663895 10.741100
v 130.584503 154.275406 10.743000
v 130.609299 154.283401 10.736200
v 130.234802 154.691803 10.728300
v 130.240799 154.666702 10.737800
v 130.264008 154.663895 10.741100
v 130.276596 154.686798 10.734300
v 129.941299 154.448303 10.651600
v 129.954803 154.429398 10.663000
v 130.240799 154.666702 10.737800
v 130.234802 154.691803 10.728300
v 130.240799 154.666702 10.737800
v 129.954803 154.429398 10.663000
v 130.019394 154.397293 10.669200
v 130.212906 154.557800 10.719800
v 130.236099 154.554993 10.723100
v 130.470993 154.244995 10.721300
v 130.277603 154.084595 10.670700
v 130.296997 154.014999 10.665000
v 130.582901 154.251999 10.739800
v 130.584503 154.275406 10.743000
v 130.472595 154.268402 10.724400
v 130.264008 154.663895 10.741100
v 130.254593 154.677704 10.646300
v 130.277802 154.674896 10.649600
v 130.598297 154.286407 10.651500
v 130.596695 154.263000 10.648300
v 130.308304 154.023895 10.572900
v 130.288895 154.093506 10.578500
v 130.484802 154.255997 10.629800
v 130.486404 154.279404 10.632900
v 130.250000 154.565994 10.631600
v 130.226700 154.568802 10.628300
v 130.030701 154.406204 10.577000
v 129.966003 154.438293 10.570900
v 130.030701 154.406204 10.577000
v 130.226700 154.568802 10.628300
v 130.232803 154.543701 10.637800
v 130.044098 154.387299 10.588500
v 130.596695 154.263000 10.648300
v 130.616806 154.249603 10.661500
v 130.321793 154.005005 10.584300
v 130.308304 154.023895 10.572900
v 130.232803 154.543701 10.637800
v 130.222305 154.535400 10.706800
v 130.035400 154.380402 10.657900
v 130.044098 154.387299 10.588500
v 130.616806 154.249603 10.661500
v 130.606400 154.241302 10.730400
v 130.313095 153.998093 10.653800
v 130.321793 154.005005 10.584300
v 130.222305 154.535400 10.706800
v 130.212906 154.557800 10.719800
v 130.019394 154.397293 10.669200
v 130.035400 154.380402 10.657900
v 130.313095 153.998093 10.653800
v 130.606400 154.241302 10.730400
v 130.582901 154.251999 10.739800
v 130.296997 154.014999 10.665000
usemtl wire_115115115

vn 0.095300 -0.336200 -0.939400
vn 0.095300 -0.336200 -0.939400
vn 0.095300 -0.336200 -0.939400
vn 0.095300 -0.336200 -0.939400
vn -0.204800 -0.174200 -0.966400
vn -0.204800 -0.174200 -0.966400
vn -0.204800 -0.174200 -0.966400
vn -0.204800 -0.174200 -0.966400
vn -0.307200 0.151700 -0.941700
vn -0.307200 0.151700 -0.941700
vn -0.307200 0.151700 -0.941700
vn -0.307200 0.151700 -0.941700
vn -0.151900 0.450700 -0.879800
vn -0.151900 0.450700 -0.879800
vn -0.151900 0.450700 -0.879800
vn -0.151900 0.450700 -0.879800
vn -0.892700 -0.363100 -0.267100
vn -0.651000 -0.114700 -0.754400
vn -0.870300 -0.403300 0.270100
vn -0.907800 -0.413800 -0.036200
vn -0.907800 -0.413800 -0.036200
vn -0.892700 -0.363100 -0.267100
vn -0.870300 -0.403300 0.270100
vn -0.651000 -0.114700 -0.754400
vn 0.572500 0.059700 -0.814700
vn 0.572500 0.059700 -0.814700
vn 0.572500 0.059700 -0.814700
vn 0.572500 0.059700 -0.814700
vn 0.470100 0.385600 -0.790000
vn 0.470100 0.385600 -0.790000
vn 0.470100 0.385600 -0.790000
vn 0.470100 0.385600 -0.790000
vn 0.170100 0.547500 -0.816900
vn 0.170100 0.547500 -0.816900
vn 0.170100 0.547500 -0.816900
vn 0.170100 0.547500 -0.816900
vn -0.151900 0.450700 -0.879800
vn -0.151900 0.450700 -0.879800
vn -0.151900 0.450700 -0.879800
vn -0.151900 0.450700 -0.879800
vn -0.551100 -0.832800 -0.038800
vn -0.408100 -0.745900 0.520600
vn -0.454600 -0.707400 -0.546800
vn -0.544500 -0.794700 -0.272400
vn -0.544500 -0.794700 -0.272400
vn -0.551100 -0.832800 -0.038800
vn -0.454600 -0.707400 -0.546800
vn -0.408100 -0.745900 0.520600
vn -0.083600 -0.988000 -0.137000
vn -0.083600 -0.988000 -0.137000
vn -0.083600 -0.988000 -0.137000
vn -0.083600 -0.988000 -0.137000
vn -0.754600 -0.625900 -0.197300
vn -0.754600 -0.625900 -0.197300
vn -0.754600 -0.625900 -0.197300
vn -0.754600 -0.625900 -0.197300
vn -0.983500 0.102900 -0.142100
vn -0.983500 0.102900 -0.142100
vn -0.983500 0.102900 -0.142100
vn -0.983500 0.102900 -0.142100
vn -0.636400 0.771400 -0.003600
vn -0.636400 0.771400 -0.003600
vn -0.636400 0.771400 -0.003600
vn -0.636400 0.771400 -0.003600
vn 0.983500 -0.102900 0.142100
vn 0.983500 -0.102900 0.142100
vn 0.983500 -0.102900 0.142100
vn 0.983500 -0.102900 0.142100
vn 0.754600 0.625900 0.197300
vn 0.754600 0.625900 0.197300
vn 0.754600 0.625900 0.197300
vn 0.754600 0.625900 0.197300
vn 0.083600 0.988000 0.137000
vn 0.083600 0.988000 0.137000
vn 0.083600 0.988000 0.137000
vn 0.083600 0.988000 0.137000
vn -0.636400 0.771400 -0.003600
vn -0.636400 0.771400 -0.003600
vn -0.636400 0.771400 -0.003600
vn -0.636400 0.771400 -0.003600
vn -0.170100 -0.547500 0.816900
vn -0.170100 -0.547500 0.816900
vn -0.170100 -0.547500 0.816900
vn -0.170100 -0.547500 0.816900
vn -0.470100 -0.385600 0.790000
vn -0.470100 -0.385600 0.790000
vn -0.470100 -0.385600 0.790000
vn -0.470100 -0.385600 0.790000
vn -0.572500 -0.059700 0.814700
vn -0.572500 -0.059700 0.814700
vn -0.572500 -0.059700 0.814700
vn -0.572500 -0.059700 0.814700
vn -0.417300 0.239300 0.876600
vn -0.417300 0.239300 0.876600
vn -0.417300 0.239300 0.876600
vn -0.417300 0.239300 0.876600
vn 0.307200 -0.151700 0.941700
vn 0.307200 -0.151700 0.941700
vn 0.307200 -0.151700 0.941700
vn 0.307200 -0.151700 0.941700
vn 0.204800 0.174200 0.966400
vn 0.204800 0.174200 0.966400
vn 0.204800 0.174200 0.966400
vn 0.204800 0.174200 0.966400
vn -0.095300 0.336200 0.939400
vn -0.095300 0.336200 0.939400
vn -0.095300 0.336200 0.939400
vn -0.095300 0.336200 0.939400
vn -0.417300 0.239300 0.876600
vn -0.417300 0.239300 0.876600
vn -0.417300 0.239300 0.876600
vn -0.417300 0.239300 0.876600
vn -0.148300 -0.118200 0.981900
vn -0.148300 -0.118200 0.981900
vn -0.148300 -0.118200 0.981900
vn -0.148300 -0.118200 0.981900
vn -0.148300 -0.118200 0.981900
vn -0.148300 -0.118200 0.981900
vn -0.148300 -0.118200 0.981900
vn -0.148300 -0.118200 0.981900
vn -0.148300 -0.118200 0.981900
vn -0.148300 -0.118200 0.981900
vn -0.148300 -0.118200 0.981900
vn -0.148300 -0.118200 0.981900
vn 0.148300 0.118200 -0.981900
vn 0.148300 0.118200 -0.981900
vn 0.148300 0.118200 -0.981900
vn 0.148300 0.118200 -0.981900
vn 0.148300 0.118200 -0.981900
vn 0.148300 0.118200 -0.981900
vn 0.148300 0.118200 -0.981900
vn 0.148300 0.118200 -0.981900
vn 0.148300 0.118200 -0.981900
vn 0.148300 0.118200 -0.981900
vn 0.148300 0.118200 -0.981900
vn 0.148300 0.118200 -0.981900
vn 0.417300 -0.239300 -0.876600
vn 0.417300 -0.239300 -0.876600
vn 0.417300 -0.239300 -0.876600
vn 0.417300 -0.239300 -0.876600
vn 0.417300 -0.239300 -0.876600
vn 0.417300 -0.239300 -0.876600
vn 0.417300 -0.239300 -0.876600
vn 0.417300 -0.239300 -0.876600
vn 0.636400 -0.771400 0.003600
vn 0.636400 -0.771400 0.003600
vn 0.636400 -0.771400 0.003600
vn 0.636400 -0.771400 0.003600
vn 0.636400 -0.771400 0.003600
vn 0.636400 -0.771400 0.003600
vn 0.636400 -0.771400 0.003600
vn 0.636400 -0.771400 0.003600
vn 0.151900 -0.450700 0.879800
vn 0.151900 -0.450700 0.879800
vn 0.151900 -0.450700 0.879800
vn 0.151900 -0.450700 0.879800
vn 0.151900 -0.450700 0.879800
vn 0.151900 -0.450700 0.879800
vn 0.151900 -0.450700 0.879800
vn 0.151900 -0.450700 0.879800

vt 0.166700 0.000000
vt 0.113800 0.263900
vt 0.112000 0.263900
vt 0.083300 0.000000
vt 0.250000 0.000000
vt 0.250300 0.263900
vt 0.113800 0.263900
vt 0.166700 0.000000
vt 0.333300 0.000000
vt 0.252200 0.263900
vt 0.250300 0.263900
vt 0.250000 0.000000
vt 0.407600 0.000000
vt 0.364100 0.263900
vt 0.252200 0.263900
vt 0.333300 0.000000
vt 0.429500 0.736100
vt 0.507600 1.000000
vt 0.416700 1.000000
vt 0.364100 0.736100
vt 0.428600 0.263900
vt 0.364100 0.263900
vt 0.500000 0.000000
vt 0.407600 0.000000
vt 0.666700 0.000000
vt 0.580800 0.263900
vt 0.564100 0.263900
vt 0.583300 0.000000
vt 0.750000 0.000000
vt 0.783400 0.263900
vt 0.580800 0.263900
vt 0.666700 0.000000
vt 0.833300 0.000000
vt 0.800100 0.263900
vt 0.783400 0.263900
vt 0.750000 0.000000
vt 0.833300 0.000000
vt 0.910000 0.000000
vt 0.956500 0.263900
vt 0.800100 0.263900
vt 1.000000 0.736100
vt 1.000000 1.000000
vt 0.916700 1.000000
vt 0.956500 0.736100
vt 1.000000 0.263900
vt 0.956500 0.263900
vt 1.000000 0.000000
vt 0.910000 0.000000
vt 0.113800 0.263900
vt 0.113800 0.736100
vt 0.112000 0.736100
vt 0.112000 0.263900
vt 0.250300 0.263900
vt 0.250300 0.736100
vt 0.113800 0.736100
vt 0.113800 0.263900
vt 0.252200 0.263900
vt 0.252200 0.736100
vt 0.250300 0.736100
vt 0.250300 0.263900
vt 0.252200 0.263900
vt 0.364100 0.263900
vt 0.364100 0.736100
vt 0.252200 0.736100
vt 0.580800 0.263900
vt 0.580800 0.736100
vt 0.564100 0.736100
vt 0.564100 0.263900
vt 0.783400 0.263900
vt 0.783400 0.736100
vt 0.580800 0.736100
vt 0.580800 0.263900
vt 0.800100 0.263900
vt 0.800100 0.736100
vt 0.783400 0.736100
vt 0.783400 0.263900
vt 0.800100 0.263900
vt 0.956500 0.263900
vt 0.956500 0.736100
vt 0.800100 0.736100
vt 0.113800 0.736100
vt 0.166700 1.000000
vt 0.083300 1.000000
vt 0.112000 0.736100
vt 0.250300 0.736100
vt 0.250000 1.000000
vt 0.166700 1.000000
vt 0.113800 0.736100
vt 0.252200 0.736100
vt 0.333300 1.000000
vt 0.250000 1.000000
vt 0.250300 0.736100
vt 0.252200 0.736100
vt 0.364100 0.736100
vt 0.416700 1.000000
vt 0.333300 1.000000
vt 0.580800 0.736100
vt 0.666700 1.000000
vt 0.583300 1.000000
vt 0.564100 0.736100
vt 0.783400 0.736100
vt 0.750000 1.000000
vt 0.666700 1.000000
vt 0.580800 0.736100
vt 0.800100 0.736100
vt 0.833300 1.000000
vt 0.750000 1.000000
vt 0.783400 0.736100
vt 0.956500 0.736100
vt 0.916700 1.000000
vt 0.833300 1.000000
vt 0.800100 0.736100
vt 0.956300 1.000000
vt 0.000000 1.000000
vt 0.086000 0.877200
vt 0.710300 0.877200
vt 0.754000 0.845600
vt 0.710300 0.122800
vt 0.000000 0.122800
vt 0.086700 0.000000
vt 0.956300 0.000000
vt 1.000000 0.031500
vt 0.754000 0.154400
vt 1.000000 0.968500
vt 0.956300 1.000000
vt 1.000000 0.968500
vt 1.000000 0.031500
vt 0.956300 0.000000
vt 0.000000 0.000000
vt 0.077600 0.122800
vt 0.710300 0.122800
vt 0.754000 0.154400
vt 0.754000 0.845600
vt 0.710300 0.877200
vt 0.000000 0.877200
vt 0.076900 1.000000
vt 0.000000 0.000000
vt 0.083300 0.000000
vt 0.112000 0.263900
vt 0.020800 0.263900
vt 0.583300 0.000000
vt 0.564100 0.263900
vt 0.428600 0.263900
vt 0.500000 0.000000
vt 0.112000 0.263900
vt 0.112000 0.736100
vt 0.021700 0.736100
vt 0.020800 0.263900
vt 0.564100 0.263900
vt 0.564100 0.736100
vt 0.429500 0.736100
vt 0.428600 0.263900
vt 0.112000 0.736100
vt 0.083300 1.000000
vt 0.010100 1.000000
vt 0.021700 0.736100
vt 0.429500 0.736100
vt 0.564100 0.736100
vt 0.583300 1.000000
vt 0.507600 1.000000
s off
f 1/1/1 2/2/2 3/3/3
f 3/3/3 4/4/4 1/1/1
f 5/5/5 6/6/6 7/7/7
f 7/7/7 8/8/8 5/5/5
f 9/9/9 10/10/10 11/11/11
f 11/11/11 12/12/12 9/9/9
f 13/13/13 14/14/14 15/15/15
f 15/15/15 16/16/16 13/13/13
f 17/17/17 18/18/18 19/19/19
f 17/17/17 19/19/19 20/20/20
f 21/21/21 17/17/17 20/20/20
f 21/21/21 20/20/20 22/22/22
f 23/23/23 21/21/21 22/22/22
f 24/24/24 23/23/23 22/22/22
f 25/25/25 26/26/26 27/27/27
f 27/27/27 28/28/28 25/25/25
f 29/29/29 30/30/30 31/31/31
f 31/31/31 32/32/32 29/29/29
f 33/33/33 34/34/34 35/35/35
f 35/35/35 36/36/36 33/33/33
f 37/37/37 38/38/38 39/39/39
f 39/39/39 40/40/40 37/37/37
f 41/41/41 42/42/42 43/43/43
f 41/41/41 43/43/43 44/44/44
f 45/45/45 41/41/41 44/44/44
f 45/45/45 44/44/44 46/46/46
f 47/47/47 45/45/45 46/46/46
f 48/48/48 47/47/47 46/46/46
f 49/49/49 50/50/50 51/51/51
f 51/51/51 52/52/52 49/49/49
f 53/53/53 54/54/54 55/55/55
f 55/55/55 56/56/56 53/53/53
f 57/57/57 58/58/58 59/59/59
f 59/59/59 60/60/60 57/57/57
f 61/61/61 62/62/62 63/63/63
f 63/63/63 64/64/64 61/61/61
f 65/65/65 66/66/66 67/67/67
f 67/67/67 68/68/68 65/65/65
f 69/69/69 70/70/70 71/71/71
f 71/71/71 72/72/72 69/69/69
f 73/73/73 74/74/74 75/75/75
f 75/75/75 76/76/76 73/73/73
f 77/77/77 78/78/78 79/79/79
f 79/79/79 80/80/80 77/77/77
f 81/81/81 82/82/82 83/83/83
f 83/83/83 84/84/84 81/81/81
f 85/85/85 86/86/86 87/87/87
f 87/87/87 88/88/88 85/85/85
f 89/89/89 90/90/90 91/91/91
f 91/91/91 92/92/92 89/89/89
f 93/93/93 94/94/94 95/95/95
f 95/95/95 96/96/96 93/93/93
f 97/97/97 98/98/98 99/99/99
f 99/99/99 100/100/100 97/97/97
f 101/101/101 102/102/102 103/103/103
f 103/103/103 104/104/104 101/101/101
f 105/105/105 106/106/106 107/107/107
f 107/107/107 108/108/108 105/105/105
f 109/109/109 110/110/110 111/111/111
f 111/111/111 112/112/112 109/109/109
f 113/113/113 114/114/114 115/115/115
f 113/113/113 115/115/115 116/116/116
f 113/113/113 116/116/116 117/117/117
f 118/118/118 119/119/119 120/120/120
f 120/120/120 121/121/121 122/122/122
f 118/118/118 120/120/120 122/122/122
f 123/123/123 118/118/118 122/122/122
f 117/117/117 123/123/123 122/122/122
f 113/113/113 117/117/117 122/122/122
f 113/113/113 122/122/122 124/124/124
f 125/125/125 126/126/126 127/127/127
f 127/127/127 128/128/128 129/129/129
f 129/129/129 130/130/130 131/131/131
f 127/127/127 129/129/129 131/131/131
f 127/127/127 131/131/131 132/132/132
f 125/125/125 127/127/127 132/132/132
f 125/125/125 132/132/132 133/133/133
f 125/125/125 133/133/133 134/134/134
f 125/125/125 134/134/134 135/135/135
f 125/125/125 135/135/135 136/136/136
f 137/137/137 138/138/138 139/139/139
f 139/139/139 140/140/140 137/137/137
f 141/141/141 142/142/142 143/143/143
f 143/143/143 144/144/144 141/141/141
f 145/145/145 146/146/146 147/147/147
f 147/147/147 148/148/148 145/145/145
f 149/149/149 150/150/150 151/151/151
f 151/151/151 152/152/152 149/149/149
f 153/153/153 154/154/154 155/155/155
f 155/155/155 156/156/156 153/153/153
f 157/157/157 158/158/158 159/159/159
f 159/159/159 160/160/160 157/157/157
