# Exported using automatic converter by Erwin Coumans
mtllib bedroom.mtl
#object Object02

v 113.329903 150.123093 24.000000
v 113.329903 158.123093 24.000000
v 113.329903 150.123093 0.000000
v 113.329903 158.123093 0.000000
v 113.529900 158.123093 0.000000
v 113.529900 150.123093 0.000000
v 113.329903 158.123093 0.000000
v 113.329903 150.123093 0.000000
v 113.529900 158.123093 0.000000
v 113.529900 158.123093 24.000000
v 113.529900 150.123093 0.000000
v 113.529900 150.123093 24.000000
v 113.529900 150.123093 0.000000
v 113.529900 150.123093 24.000000
v 113.329903 150.123093 0.000000
v 113.329903 150.123093 24.000000
v 113.529900 158.123093 24.000000
v 113.329903 158.123093 24.000000
v 113.529900 150.123093 24.000000
v 113.329903 150.123093 24.000000
v 113.529900 158.123093 24.000000
v 113.529900 158.123093 0.000000
v 113.329903 158.123093 24.000000
v 113.329903 158.123093 0.000000
v 119.529900 150.123093 0.000000
v 119.529900 150.123093 24.000000
v 119.529900 157.859497 0.000000
v 119.529900 157.859497 24.000000
v 119.529900 150.123093 0.000000
v 119.529900 157.859497 0.000000
v 119.729897 150.123093 0.000000
v 119.729897 157.859497 0.000000
v 119.729897 150.123093 0.000000
v 119.729897 157.859497 0.000000
v 119.729897 150.123093 24.000000
v 119.729897 157.859497 24.000000
v 119.529900 150.123093 24.000000
v 119.529900 150.123093 0.000000
v 119.729897 150.123093 24.000000
v 119.729897 150.123093 0.000000
v 119.529900 150.123093 24.000000
v 119.729897 150.123093 24.000000
v 119.529900 157.859497 24.000000
v 119.729897 157.859497 24.000000
v 119.729897 157.859497 24.000000
v 119.729897 157.859497 0.000000
v 119.529900 157.859497 24.000000
v 119.529900 157.859497 0.000000
usemtl wire_255223127

vn -1.000000 0.000000 0.000000
vn -1.000000 0.000000 0.000000
vn -1.000000 0.000000 0.000000
vn -1.000000 0.000000 0.000000
vn 0.000000 0.000000 -1.000000
vn 0.000000 0.000000 -1.000000
vn 0.000000 0.000000 -1.000000
vn 0.000000 0.000000 -1.000000
vn 1.000000 0.000000 0.000000
vn 1.000000 0.000000 0.000000
vn 1.000000 0.000000 0.000000
vn 1.000000 0.000000 0.000000
vn 0.000000 -1.000000 0.000000
vn 0.000000 -1.000000 0.000000
vn 0.000000 -1.000000 0.000000
vn 0.000000 -1.000000 0.000000
vn 0.000000 0.000000 1.000000
vn 0.000000 0.000000 1.000000
vn 0.000000 0.000000 1.000000
vn 0.000000 0.000000 1.000000
vn 0.000000 1.000000 0.000000
vn 0.000000 1.000000 0.000000
vn 0.000000 1.000000 0.000000
vn 0.000000 1.000000 0.000000
vn -1.000000 0.000000 0.000000
vn -1.000000 0.000000 0.000000
vn -1.000000 0.000000 0.000000
vn -1.000000 0.000000 0.000000
vn 0.000000 0.000000 -1.000000
vn 0.000000 0.000000 -1.000000
vn 0.000000 0.000000 -1.000000
vn 0.000000 0.000000 -1.000000
vn 1.000000 0.000000 0.000000
vn 1.000000 0.000000 0.000000
vn 1.000000 0.000000 0.000000
vn 1.000000 0.000000 0.000000
vn 0.000000 -1.000000 0.000000
vn 0.000000 -1.000000 0.000000
vn 0.000000 -1.000000 0.000000
vn 0.000000 -1.000000 0.000000
vn 0.000000 0.000000 1.000000
vn 0.000000 0.000000 1.000000
vn 0.000000 0.000000 1.000000
vn 0.000000 0.000000 1.000000
vn 0.000000 1.000000 0.000000
vn 0.000000 1.000000 0.000000
vn 0.000000 1.000000 0.000000
vn 0.000000 1.000000 0.000000

vt -1500.231323 241.000000
vt -1580.231323 241.000000
vt -1500.231323 1.000000
vt -1580.231323 1.000000
vt -1134.298950 1582.231323
vt -1134.298950 1502.231323
vt -1132.298950 1582.231323
vt -1132.298950 1502.231323
vt 1582.231323 1.000000
vt 1582.231323 241.000000
vt 1502.231323 1.000000
vt 1502.231323 241.000000
vt 1136.298950 1.000000
vt 1136.298950 241.000000
vt 1134.298950 1.000000
vt 1134.298950 241.000000
vt 1136.298950 1582.231323
vt 1134.298950 1582.231323
vt 1136.298950 1502.231323
vt 1134.298950 1502.231323
vt -1134.298950 241.000000
vt -1134.298950 1.000000
vt -1132.298950 241.000000
vt -1132.298950 1.000000
vt -1500.231323 1.000000
vt -1500.231323 241.000000
vt -1577.594971 1.000000
vt -1577.594971 241.000000
vt -1194.298950 1502.231323
vt -1194.298950 1579.594971
vt -1196.298950 1502.231323
vt -1196.298950 1579.594971
vt 1502.231323 1.000000
vt 1579.594971 1.000000
vt 1502.231323 241.000000
vt 1579.594971 241.000000
vt 1196.298950 241.000000
vt 1196.298950 1.000000
vt 1198.298950 241.000000
vt 1198.298950 1.000000
vt 1196.298950 1502.231323
vt 1198.298950 1502.231323
vt 1196.298950 1579.594971
vt 1198.298950 1579.594971
vt -1196.298950 241.000000
vt -1196.298950 1.000000
vt -1194.298950 241.000000
vt -1194.298950 1.000000
s off
f 1/1/1 2/2/2 3/3/3
f 2/2/2 4/4/4 3/3/3
f 5/5/5 6/6/6 7/7/7
f 6/6/6 8/8/8 7/7/7
f 9/9/9 10/10/10 11/11/11
f 10/10/10 12/12/12 11/11/11
f 13/13/13 14/14/14 15/15/15
f 14/14/14 16/16/16 15/15/15
f 17/17/17 18/18/18 19/19/19
f 18/18/18 20/20/20 19/19/19
f 21/21/21 22/22/22 23/23/23
f 22/22/22 24/24/24 23/23/23
f 25/25/25 26/26/26 27/27/27
f 26/26/26 28/28/28 27/27/27
f 29/29/29 30/30/30 31/31/31
f 30/30/30 32/32/32 31/31/31
f 33/33/33 34/34/34 35/35/35
f 34/34/34 36/36/36 35/35/35
f 37/37/37 38/38/38 39/39/39
f 38/38/38 40/40/40 39/39/39
f 41/41/41 42/42/42 43/43/43
f 42/42/42 44/44/44 43/43/43
f 45/45/45 46/46/46 47/47/47
f 46/46/46 48/48/48 47/47/47
