# Exported using automatic converter by Erwin Coumans
mtllib bedroom.mtl
#object fraktal_obj_211

v 128.332794 155.653198 10.268700
v 128.307098 155.648804 10.275600
v 128.304398 155.652695 10.274900
v 128.319504 155.672897 10.265400
v 128.272095 155.292801 10.270000
v 128.249496 155.307007 10.276800
v 128.307098 155.648804 10.275600
v 128.332794 155.653198 10.268700
v 128.253204 155.279602 10.266900
v 128.245697 155.304398 10.276200
v 128.249496 155.307007 10.276800
v 128.272095 155.292801 10.270000
v 127.999298 155.330093 10.215600
v 128.001404 155.352905 10.226900
v 128.245697 155.304398 10.276200
v 128.253204 155.279602 10.266900
v 127.942802 155.252197 10.290800
v 127.945000 155.274994 10.302100
v 127.985001 155.333206 10.307800
v 127.990402 155.355392 10.296300
v 127.953903 155.249695 10.221400
v 128.001404 155.352905 10.226900
v 127.959297 155.271805 10.210000
v 127.999298 155.330093 10.215600
v 128.351898 155.210800 10.288600
v 128.370193 155.197601 10.304300
v 128.336197 155.173706 10.298600
v 128.332993 155.197495 10.285400
v 128.434204 155.699295 10.286700
v 128.455597 155.704697 10.302400
v 128.370193 155.197601 10.304300
v 128.351898 155.210800 10.288600
v 128.420807 155.718903 10.283400
v 128.431595 155.740097 10.296500
v 128.455597 155.704697 10.302400
v 128.434204 155.699295 10.286700
v 128.420807 155.718903 10.283400
v 128.046799 155.793304 10.208000
v 128.048996 155.816101 10.219300
v 128.431595 155.740097 10.296500
v 128.048904 155.703705 10.295000
v 128.050995 155.726593 10.306300
v 128.032501 155.796402 10.300100
v 128.037903 155.818604 10.288700
v 128.059906 155.701294 10.225600
v 128.048996 155.816101 10.219300
v 128.065308 155.723404 10.214100
v 128.046799 155.793304 10.208000
v 128.307098 155.648804 10.275600
v 128.293793 155.651703 10.344500
v 128.291199 155.655594 10.343900
v 128.304398 155.652695 10.274900
v 128.249496 155.307007 10.276800
v 128.236206 155.309906 10.345800
v 128.293793 155.651703 10.344500
v 128.307098 155.648804 10.275600
v 128.245697 155.304398 10.276200
v 128.232498 155.307297 10.345200
v 128.236206 155.309906 10.345800
v 128.249496 155.307007 10.276800
v 128.245697 155.304398 10.276200
v 128.001404 155.352905 10.226900
v 127.990402 155.355392 10.296300
v 128.232498 155.307297 10.345200
v 128.370193 155.197601 10.304300
v 128.356903 155.200500 10.373300
v 128.322906 155.176605 10.367500
v 128.336197 155.173706 10.298600
v 128.455597 155.704697 10.302400
v 128.442398 155.707596 10.371400
v 128.356903 155.200500 10.373300
v 128.370193 155.197601 10.304300
v 128.431595 155.740097 10.296500
v 128.418304 155.742996 10.365400
v 128.442398 155.707596 10.371400
v 128.455597 155.704697 10.302400
v 128.431595 155.740097 10.296500
v 128.048996 155.816101 10.219300
v 128.037903 155.818604 10.288700
v 128.418304 155.742996 10.365400
v 128.293793 155.651703 10.344500
v 128.315201 155.657104 10.360200
v 128.301895 155.676697 10.356900
v 128.291199 155.655594 10.343900
v 128.236206 155.309906 10.345800
v 128.254501 155.296707 10.361500
v 128.315201 155.657104 10.360200
v 128.293793 155.651703 10.344500
v 128.232498 155.307297 10.345200
v 128.235596 155.283401 10.358400
v 128.254501 155.296707 10.361500
v 128.236206 155.309906 10.345800
v 128.232498 155.307297 10.345200
v 127.990402 155.355392 10.296300
v 127.985001 155.333206 10.307800
v 128.235596 155.283401 10.358400
v 128.356903 155.200500 10.373300
v 128.334305 155.214600 10.380100
v 128.315399 155.201401 10.376900
v 128.322906 155.176605 10.367500
v 128.442398 155.707596 10.371400
v 128.416595 155.703094 10.378200
v 128.334305 155.214600 10.380100
v 128.356903 155.200500 10.373300
v 128.418304 155.742996 10.365400
v 128.403198 155.722702 10.374900
v 128.416595 155.703094 10.378200
v 128.442398 155.707596 10.371400
v 128.037903 155.818604 10.288700
v 128.032501 155.796402 10.300100
v 128.403198 155.722702 10.374900
v 128.418304 155.742996 10.365400
v 128.403198 155.722702 10.374900
v 128.032501 155.796402 10.300100
v 128.050995 155.726593 10.306300
v 128.301895 155.676697 10.356900
v 128.315201 155.657104 10.360200
v 128.235596 155.283401 10.358400
v 127.985001 155.333206 10.307800
v 127.945000 155.274994 10.302100
v 128.315399 155.201401 10.376900
v 128.334305 155.214600 10.380100
v 128.254501 155.296707 10.361500
v 128.416595 155.703094 10.378200
v 128.420807 155.718903 10.283400
v 128.434204 155.699295 10.286700
v 128.351898 155.210800 10.288600
v 128.332993 155.197495 10.285400
v 127.959297 155.271805 10.210000
v 127.999298 155.330093 10.215600
v 128.253204 155.279602 10.266900
v 128.272095 155.292801 10.270000
v 128.332794 155.653198 10.268700
v 128.319504 155.672897 10.265400
v 128.065308 155.723404 10.214100
v 128.046799 155.793304 10.208000
v 128.065308 155.723404 10.214100
v 128.319504 155.672897 10.265400
v 128.304398 155.652695 10.274900
v 128.059906 155.701294 10.225600
v 128.332993 155.197495 10.285400
v 128.336197 155.173706 10.298600
v 127.953903 155.249695 10.221400
v 127.959297 155.271805 10.210000
v 128.304398 155.652695 10.274900
v 128.291199 155.655594 10.343900
v 128.048904 155.703705 10.295000
v 128.059906 155.701294 10.225600
v 128.336197 155.173706 10.298600
v 128.322906 155.176605 10.367500
v 127.942802 155.252197 10.290800
v 127.953903 155.249695 10.221400
v 128.291199 155.655594 10.343900
v 128.301895 155.676697 10.356900
v 128.050995 155.726593 10.306300
v 128.048904 155.703705 10.295000
v 127.942802 155.252197 10.290800
v 128.322906 155.176605 10.367500
v 128.315399 155.201401 10.376900
v 127.945000 155.274994 10.302100
usemtl wire_115115115

vn -0.188300 -0.288200 -0.937900
vn -0.188300 -0.288200 -0.937900
vn -0.188300 -0.288200 -0.937900
vn -0.188300 -0.288200 -0.937900
vn -0.261800 0.048700 -0.964400
vn -0.261800 0.048700 -0.964400
vn -0.261800 0.048700 -0.964400
vn -0.261800 0.048700 -0.964400
vn -0.083200 0.335500 -0.940200
vn -0.083200 0.335500 -0.940200
vn -0.083200 0.335500 -0.940200
vn -0.083200 0.335500 -0.940200
vn 0.242800 0.404100 -0.879300
vn 0.242800 0.404100 -0.879300
vn 0.242800 0.404100 -0.879300
vn 0.242800 0.404100 -0.879300
vn -0.854200 0.465800 -0.264000
vn -0.508300 0.434700 -0.751800
vn -0.871400 0.423100 0.272600
vn -0.902800 0.445600 -0.033300
vn -0.902800 0.445600 -0.033300
vn -0.854200 0.465800 -0.264000
vn -0.871400 0.423100 0.272600
vn -0.508300 0.434700 -0.751800
vn 0.420300 -0.409200 -0.815100
vn 0.420300 -0.409200 -0.815100
vn 0.420300 -0.409200 -0.815100
vn 0.420300 -0.409200 -0.815100
vn 0.598800 -0.122400 -0.790800
vn 0.598800 -0.122400 -0.790800
vn 0.598800 -0.122400 -0.790800
vn 0.598800 -0.122400 -0.790800
vn 0.525300 0.214500 -0.817400
vn 0.525300 0.214500 -0.817400
vn 0.525300 0.214500 -0.817400
vn 0.525300 0.214500 -0.817400
vn 0.242800 0.404100 -0.879300
vn 0.242800 0.404100 -0.879300
vn 0.242800 0.404100 -0.879300
vn 0.242800 0.404100 -0.879300
vn -0.985900 -0.098700 -0.035900
vn -0.828900 -0.154800 0.522300
vn -0.827100 -0.094600 -0.543700
vn -0.952200 -0.079900 -0.269200
vn -0.952200 -0.079900 -0.269200
vn -0.985900 -0.098700 -0.035900
vn -0.827100 -0.094600 -0.543700
vn -0.828900 -0.154800 0.522300
vn -0.797800 -0.562000 -0.134700
vn -0.797800 -0.562000 -0.134700
vn -0.797800 -0.562000 -0.134700
vn -0.797800 -0.562000 -0.134700
vn -0.962200 0.191300 -0.194100
vn -0.962200 0.191300 -0.194100
vn -0.962200 0.191300 -0.194100
vn -0.962200 0.191300 -0.194100
vn -0.562900 0.832500 -0.139800
vn -0.562900 0.832500 -0.139800
vn -0.562900 0.832500 -0.139800
vn -0.562900 0.832500 -0.139800
vn 0.166100 0.986100 -0.003700
vn 0.166100 0.986100 -0.003700
vn 0.166100 0.986100 -0.003700
vn 0.166100 0.986100 -0.003700
vn 0.562900 -0.832500 0.139800
vn 0.562900 -0.832500 0.139800
vn 0.562900 -0.832500 0.139800
vn 0.562900 -0.832500 0.139800
vn 0.962200 -0.191300 0.194100
vn 0.962200 -0.191300 0.194100
vn 0.962200 -0.191300 0.194100
vn 0.962200 -0.191300 0.194100
vn 0.797800 0.562000 0.134700
vn 0.797800 0.562000 0.134700
vn 0.797800 0.562000 0.134700
vn 0.797800 0.562000 0.134700
vn 0.166100 0.986100 -0.003700
vn 0.166100 0.986100 -0.003700
vn 0.166100 0.986100 -0.003700
vn 0.166100 0.986100 -0.003700
vn -0.525300 -0.214500 0.817400
vn -0.525300 -0.214500 0.817400
vn -0.525300 -0.214500 0.817400
vn -0.525300 -0.214500 0.817400
vn -0.598800 0.122400 0.790800
vn -0.598800 0.122400 0.790800
vn -0.598800 0.122400 0.790800
vn -0.598800 0.122400 0.790800
vn -0.420300 0.409200 0.815100
vn -0.420300 0.409200 0.815100
vn -0.420300 0.409200 0.815100
vn -0.420300 0.409200 0.815100
vn -0.094200 0.477900 0.876000
vn -0.094200 0.477900 0.876000
vn -0.094200 0.477900 0.876000
vn -0.094200 0.477900 0.876000
vn 0.083200 -0.335500 0.940200
vn 0.083200 -0.335500 0.940200
vn 0.083200 -0.335500 0.940200
vn 0.083200 -0.335500 0.940200
vn 0.261800 -0.048700 0.964400
vn 0.261800 -0.048700 0.964400
vn 0.261800 -0.048700 0.964400
vn 0.261800 -0.048700 0.964400
vn 0.188300 0.288200 0.937900
vn 0.188300 0.288200 0.937900
vn 0.188300 0.288200 0.937900
vn 0.188300 0.288200 0.937900
vn -0.094200 0.477900 0.876000
vn -0.094200 0.477900 0.876000
vn -0.094200 0.477900 0.876000
vn -0.094200 0.477900 0.876000
vn -0.188400 0.041200 0.981200
vn -0.188400 0.041200 0.981200
vn -0.188400 0.041200 0.981200
vn -0.188400 0.041200 0.981200
vn -0.188400 0.041200 0.981200
vn -0.188400 0.041200 0.981200
vn -0.188400 0.041200 0.981200
vn -0.188400 0.041200 0.981200
vn -0.188400 0.041200 0.981200
vn -0.188400 0.041200 0.981200
vn -0.188400 0.041200 0.981200
vn -0.188400 0.041200 0.981200
vn 0.188400 -0.041200 -0.981200
vn 0.188400 -0.041200 -0.981200
vn 0.188400 -0.041200 -0.981200
vn 0.188400 -0.041200 -0.981200
vn 0.188400 -0.041200 -0.981200
vn 0.188400 -0.041200 -0.981200
vn 0.188400 -0.041200 -0.981200
vn 0.188400 -0.041200 -0.981200
vn 0.188400 -0.041200 -0.981200
vn 0.188400 -0.041200 -0.981200
vn 0.188400 -0.041200 -0.981200
vn 0.188400 -0.041200 -0.981200
vn 0.094200 -0.477900 -0.876000
vn 0.094200 -0.477900 -0.876000
vn 0.094200 -0.477900 -0.876000
vn 0.094200 -0.477900 -0.876000
vn 0.094200 -0.477900 -0.876000
vn 0.094200 -0.477900 -0.876000
vn 0.094200 -0.477900 -0.876000
vn 0.094200 -0.477900 -0.876000
vn -0.166100 -0.986100 0.003700
vn -0.166100 -0.986100 0.003700
vn -0.166100 -0.986100 0.003700
vn -0.166100 -0.986100 0.003700
vn -0.166100 -0.986100 0.003700
vn -0.166100 -0.986100 0.003700
vn -0.166100 -0.986100 0.003700
vn -0.166100 -0.986100 0.003700
vn -0.242800 -0.404100 0.879300
vn -0.242800 -0.404100 0.879300
vn -0.242800 -0.404100 0.879300
vn -0.242800 -0.404100 0.879300
vn -0.242800 -0.404100 0.879300
vn -0.242800 -0.404100 0.879300
vn -0.242800 -0.404100 0.879300
vn -0.242800 -0.404100 0.879300

vt 0.166700 0.000000
vt 0.113800 0.263900
vt 0.112000 0.263900
vt 0.083300 0.000000
vt 0.250000 0.000000
vt 0.250300 0.263900
vt 0.113800 0.263900
vt 0.166700 0.000000
vt 0.333300 0.000000
vt 0.252200 0.263900
vt 0.250300 0.263900
vt 0.250000 0.000000
vt 0.407600 0.000000
vt 0.364100 0.263900
vt 0.252200 0.263900
vt 0.333300 0.000000
vt 0.429500 0.736100
vt 0.507600 1.000000
vt 0.416700 1.000000
vt 0.364100 0.736100
vt 0.428600 0.263900
vt 0.364100 0.263900
vt 0.500000 0.000000
vt 0.407600 0.000000
vt 0.666700 0.000000
vt 0.580800 0.263900
vt 0.564100 0.263900
vt 0.583300 0.000000
vt 0.750000 0.000000
vt 0.783400 0.263900
vt 0.580800 0.263900
vt 0.666700 0.000000
vt 0.833300 0.000000
vt 0.800100 0.263900
vt 0.783400 0.263900
vt 0.750000 0.000000
vt 0.833300 0.000000
vt 0.910000 0.000000
vt 0.956500 0.263900
vt 0.800100 0.263900
vt 1.000000 0.736100
vt 1.000000 1.000000
vt 0.916700 1.000000
vt 0.956500 0.736100
vt 1.000000 0.263900
vt 0.956500 0.263900
vt 1.000000 0.000000
vt 0.910000 0.000000
vt 0.113800 0.263900
vt 0.113800 0.736100
vt 0.112000 0.736100
vt 0.112000 0.263900
vt 0.250300 0.263900
vt 0.250300 0.736100
vt 0.113800 0.736100
vt 0.113800 0.263900
vt 0.252200 0.263900
vt 0.252200 0.736100
vt 0.250300 0.736100
vt 0.250300 0.263900
vt 0.252200 0.263900
vt 0.364100 0.263900
vt 0.364100 0.736100
vt 0.252200 0.736100
vt 0.580800 0.263900
vt 0.580800 0.736100
vt 0.564100 0.736100
vt 0.564100 0.263900
vt 0.783400 0.263900
vt 0.783400 0.736100
vt 0.580800 0.736100
vt 0.580800 0.263900
vt 0.800100 0.263900
vt 0.800100 0.736100
vt 0.783400 0.736100
vt 0.783400 0.263900
vt 0.800100 0.263900
vt 0.956500 0.263900
vt 0.956500 0.736100
vt 0.800100 0.736100
vt 0.113800 0.736100
vt 0.166700 1.000000
vt 0.083300 1.000000
vt 0.112000 0.736100
vt 0.250300 0.736100
vt 0.250000 1.000000
vt 0.166700 1.000000
vt 0.113800 0.736100
vt 0.252200 0.736100
vt 0.333300 1.000000
vt 0.250000 1.000000
vt 0.250300 0.736100
vt 0.252200 0.736100
vt 0.364100 0.736100
vt 0.416700 1.000000
vt 0.333300 1.000000
vt 0.580800 0.736100
vt 0.666700 1.000000
vt 0.583300 1.000000
vt 0.564100 0.736100
vt 0.783400 0.736100
vt 0.750000 1.000000
vt 0.666700 1.000000
vt 0.580800 0.736100
vt 0.800100 0.736100
vt 0.833300 1.000000
vt 0.750000 1.000000
vt 0.783400 0.736100
vt 0.956500 0.736100
vt 0.916700 1.000000
vt 0.833300 1.000000
vt 0.800100 0.736100
vt 0.956300 1.000000
vt 0.000000 1.000000
vt 0.086000 0.877200
vt 0.710300 0.877200
vt 0.754000 0.845600
vt 0.710300 0.122800
vt 0.000000 0.122800
vt 0.086700 0.000000
vt 0.956300 0.000000
vt 1.000000 0.031500
vt 0.754000 0.154400
vt 1.000000 0.968500
vt 0.956300 1.000000
vt 1.000000 0.968500
vt 1.000000 0.031500
vt 0.956300 0.000000
vt 0.000000 0.000000
vt 0.077600 0.122800
vt 0.710300 0.122800
vt 0.754000 0.154400
vt 0.754000 0.845600
vt 0.710300 0.877200
vt 0.000000 0.877200
vt 0.076900 1.000000
vt 0.000000 0.000000
vt 0.083300 0.000000
vt 0.112000 0.263900
vt 0.020800 0.263900
vt 0.583300 0.000000
vt 0.564100 0.263900
vt 0.428600 0.263900
vt 0.500000 0.000000
vt 0.112000 0.263900
vt 0.112000 0.736100
vt 0.021700 0.736100
vt 0.020800 0.263900
vt 0.564100 0.263900
vt 0.564100 0.736100
vt 0.429500 0.736100
vt 0.428600 0.263900
vt 0.112000 0.736100
vt 0.083300 1.000000
vt 0.010100 1.000000
vt 0.021700 0.736100
vt 0.429500 0.736100
vt 0.564100 0.736100
vt 0.583300 1.000000
vt 0.507600 1.000000
s off
f 1/1/1 2/2/2 3/3/3
f 3/3/3 4/4/4 1/1/1
f 5/5/5 6/6/6 7/7/7
f 7/7/7 8/8/8 5/5/5
f 9/9/9 10/10/10 11/11/11
f 11/11/11 12/12/12 9/9/9
f 13/13/13 14/14/14 15/15/15
f 15/15/15 16/16/16 13/13/13
f 17/17/17 18/18/18 19/19/19
f 17/17/17 19/19/19 20/20/20
f 21/21/21 17/17/17 20/20/20
f 21/21/21 20/20/20 22/22/22
f 23/23/23 21/21/21 22/22/22
f 24/24/24 23/23/23 22/22/22
f 25/25/25 26/26/26 27/27/27
f 27/27/27 28/28/28 25/25/25
f 29/29/29 30/30/30 31/31/31
f 31/31/31 32/32/32 29/29/29
f 33/33/33 34/34/34 35/35/35
f 35/35/35 36/36/36 33/33/33
f 37/37/37 38/38/38 39/39/39
f 39/39/39 40/40/40 37/37/37
f 41/41/41 42/42/42 43/43/43
f 41/41/41 43/43/43 44/44/44
f 45/45/45 41/41/41 44/44/44
f 45/45/45 44/44/44 46/46/46
f 47/47/47 45/45/45 46/46/46
f 48/48/48 47/47/47 46/46/46
f 49/49/49 50/50/50 51/51/51
f 51/51/51 52/52/52 49/49/49
f 53/53/53 54/54/54 55/55/55
f 55/55/55 56/56/56 53/53/53
f 57/57/57 58/58/58 59/59/59
f 59/59/59 60/60/60 57/57/57
f 61/61/61 62/62/62 63/63/63
f 63/63/63 64/64/64 61/61/61
f 65/65/65 66/66/66 67/67/67
f 67/67/67 68/68/68 65/65/65
f 69/69/69 70/70/70 71/71/71
f 71/71/71 72/72/72 69/69/69
f 73/73/73 74/74/74 75/75/75
f 75/75/75 76/76/76 73/73/73
f 77/77/77 78/78/78 79/79/79
f 79/79/79 80/80/80 77/77/77
f 81/81/81 82/82/82 83/83/83
f 83/83/83 84/84/84 81/81/81
f 85/85/85 86/86/86 87/87/87
f 87/87/87 88/88/88 85/85/85
f 89/89/89 90/90/90 91/91/91
f 91/91/91 92/92/92 89/89/89
f 93/93/93 94/94/94 95/95/95
f 95/95/95 96/96/96 93/93/93
f 97/97/97 98/98/98 99/99/99
f 99/99/99 100/100/100 97/97/97
f 101/101/101 102/102/102 103/103/103
f 103/103/103 104/104/104 101/101/101
f 105/105/105 106/106/106 107/107/107
f 107/107/107 108/108/108 105/105/105
f 109/109/109 110/110/110 111/111/111
f 111/111/111 112/112/112 109/109/109
f 113/113/113 114/114/114 115/115/115
f 113/113/113 115/115/115 116/116/116
f 113/113/113 116/116/116 117/117/117
f 118/118/118 119/119/119 120/120/120
f 120/120/120 121/121/121 122/122/122
f 118/118/118 120/120/120 122/122/122
f 123/123/123 118/118/118 122/122/122
f 117/117/117 123/123/123 122/122/122
f 113/113/113 117/117/117 122/122/122
f 113/113/113 122/122/122 124/124/124
f 125/125/125 126/126/126 127/127/127
f 127/127/127 128/128/128 129/129/129
f 129/129/129 130/130/130 131/131/131
f 127/127/127 129/129/129 131/131/131
f 127/127/127 131/131/131 132/132/132
f 125/125/125 127/127/127 132/132/132
f 125/125/125 132/132/132 133/133/133
f 125/125/125 133/133/133 134/134/134
f 125/125/125 134/134/134 135/135/135
f 125/125/125 135/135/135 136/136/136
f 137/137/137 138/138/138 139/139/139
f 139/139/139 140/140/140 137/137/137
f 141/141/141 142/142/142 143/143/143
f 143/143/143 144/144/144 141/141/141
f 145/145/145 146/146/146 147/147/147
f 147/147/147 148/148/148 145/145/145
f 149/149/149 150/150/150 151/151/151
f 151/151/151 152/152/152 149/149/149
f 153/153/153 154/154/154 155/155/155
f 155/155/155 156/156/156 153/153/153
f 157/157/157 158/158/158 159/159/159
f 159/159/159 160/160/160 157/157/157
