# Exported using automatic converter by Erwin Coumans
mtllib bedroom.mtl
#object microwave_007_21

v 117.487099 150.192505 13.899100
v 117.487099 150.084595 13.899100
v 117.487099 150.084595 11.921200
v 117.487099 150.192505 11.921200
v 117.487099 150.192505 11.921200
v 117.487099 150.084595 11.921200
v 114.350403 150.084595 11.921200
v 114.350403 150.192505 11.921200
v 114.350403 150.192505 11.921200
v 114.350403 150.084595 11.921200
v 114.350403 150.084595 13.899100
v 114.350403 150.192505 13.899100
v 114.350403 150.192505 13.899100
v 114.350403 150.084595 13.899100
v 117.487099 150.084595 13.899100
v 117.487099 150.192505 13.899100
v 117.487099 150.192505 13.899100
v 117.487099 150.192505 11.921200
v 115.918701 150.192505 12.910100
v 117.487099 150.084595 11.921200
v 117.487099 150.084595 13.899100
v 115.918701 150.084595 12.910100
v 114.350403 150.192505 11.921200
v 114.350403 150.084595 11.921200
v 114.350403 150.192505 13.899100
v 114.350403 150.084595 13.899100
usemtl wire_115115115

vn 1.000000 -0.000000 0.000000
vn 1.000000 -0.000000 0.000000
vn 1.000000 -0.000000 0.000000
vn 1.000000 -0.000000 0.000000
vn 0.000000 -0.000000 -1.000000
vn 0.000000 -0.000000 -1.000000
vn -0.000000 0.000000 -1.000000
vn -0.000000 0.000000 -1.000000
vn -1.000000 0.000000 0.000000
vn -1.000000 0.000000 0.000000
vn -1.000000 0.000000 0.000000
vn -1.000000 0.000000 0.000000
vn -0.000000 -0.000000 1.000000
vn -0.000000 -0.000000 1.000000
vn 0.000000 0.000000 1.000000
vn 0.000000 0.000000 1.000000
vn 0.000000 1.000000 0.000000
vn 0.000000 1.000000 0.000000
vn 0.000000 1.000000 0.000000
vn -0.000000 -1.000000 -0.000000
vn -0.000000 -1.000000 -0.000000
vn -0.000000 -1.000000 -0.000000
vn 0.000000 1.000000 0.000000
vn -0.000000 -1.000000 -0.000000
vn 0.000000 1.000000 0.000000
vn -0.000000 -1.000000 -0.000000

vt 0.388700 0.633100
vt 0.611300 0.633100
vt 0.611300 0.366900
vt 0.388700 0.366900
vt 0.388700 0.366900
vt 0.611300 0.366900
vt 0.388700 0.366900
vt 0.611300 0.366900
vt 0.611300 0.366900
vt 0.388700 0.366900
vt 0.388700 0.633100
vt 0.611300 0.633100
vt 0.611300 0.633100
vt 0.388700 0.633100
vt 0.611300 0.633100
vt 0.388700 0.633100
vt 0.388700 0.633100
vt 0.388700 0.366900
vt 0.500000 0.500000
vt 0.611300 0.366900
vt 0.611300 0.633100
vt 0.500000 0.500000
vt 0.611300 0.366900
vt 0.388700 0.366900
vt 0.611300 0.633100
vt 0.388700 0.633100
s off
f 1/1/1 2/2/2 3/3/3
f 3/3/3 4/4/4 1/1/1
f 5/5/5 6/6/6 7/7/7
f 7/7/7 8/8/8 5/5/5
f 9/9/9 10/10/10 11/11/11
f 11/11/11 12/12/12 9/9/9
f 13/13/13 14/14/14 15/15/15
f 15/15/15 16/16/16 13/13/13
f 17/17/17 18/18/18 19/19/19
f 20/20/20 21/21/21 22/22/22
f 18/18/18 23/23/23 19/19/19
f 24/24/24 20/20/20 22/22/22
f 23/23/23 25/25/25 19/19/19
f 26/26/26 24/24/24 22/22/22
f 25/25/25 17/17/17 19/19/19
f 21/21/21 26/26/26 22/22/22
