# Exported using automatic converter by Erwin Coumans
mtllib bedroom.mtl
#object obj_28

v 127.469299 119.986099 10.331100
v 127.469299 119.986099 10.040900
v 127.469299 120.028999 10.040900
v 127.469299 120.028999 10.331100
v 127.468300 120.029999 10.039900
v 127.319298 120.029999 10.039900
v 127.319298 120.029999 10.332100
v 127.468300 120.029999 10.332100
v 127.468300 119.985100 10.039900
v 127.319298 119.985100 10.039900
v 127.319298 120.029999 10.039900
v 127.468300 120.029999 10.039900
v 127.468300 119.985100 10.332100
v 127.319298 119.985100 10.332100
v 127.319298 119.985100 10.039900
v 127.468300 119.985100 10.039900
v 127.468300 120.029999 10.332100
v 127.319298 120.029999 10.332100
v 127.319298 119.985100 10.332100
v 127.468300 119.985100 10.332100
v 127.468300 120.029999 10.039900
v 127.468300 120.029999 10.332100
v 127.469299 120.028999 10.331100
v 127.469299 120.028999 10.040900
v 127.468300 119.985100 10.039900
v 127.468300 120.029999 10.039900
v 127.469299 120.028999 10.040900
v 127.469299 119.986099 10.040900
v 127.468300 119.985100 10.332100
v 127.468300 119.985100 10.039900
v 127.469299 119.986099 10.040900
v 127.469299 119.986099 10.331100
v 127.468300 120.029999 10.332100
v 127.468300 119.985100 10.332100
v 127.469299 119.986099 10.331100
v 127.469299 120.028999 10.331100
usemtl wire_000000000

vn 1.000000 -0.000000 0.000000
vn 1.000000 -0.000000 0.000000
vn 1.000000 -0.000000 0.000000
vn 1.000000 -0.000000 0.000000
vn 0.000000 1.000000 0.000000
vn 0.000000 1.000000 0.000000
vn 0.000000 1.000000 0.000000
vn 0.000000 1.000000 0.000000
vn 0.000000 0.000000 -1.000000
vn 0.000000 0.000000 -1.000000
vn 0.000000 0.000000 -1.000000
vn 0.000000 0.000000 -1.000000
vn -0.000000 -1.000000 -0.000000
vn -0.000000 -1.000000 -0.000000
vn -0.000000 -1.000000 -0.000000
vn -0.000000 -1.000000 -0.000000
vn -0.000000 -0.000000 1.000000
vn -0.000000 -0.000000 1.000000
vn -0.000000 -0.000000 1.000000
vn -0.000000 -0.000000 1.000000
vn 0.707100 0.707100 0.000000
vn 0.707100 0.707100 0.000000
vn 0.707100 0.707100 0.000000
vn 0.707100 0.707100 0.000000
vn 0.707100 0.000000 -0.707100
vn 0.707100 0.000000 -0.707100
vn 0.707100 0.000000 -0.707100
vn 0.707100 0.000000 -0.707100
vn 0.707100 -0.707100 -0.000000
vn 0.707100 -0.707100 -0.000000
vn 0.707100 -0.707100 -0.000000
vn 0.707100 -0.707100 -0.000000
vn 0.707100 -0.000000 0.707100
vn 0.707100 -0.000000 0.707100
vn 0.707100 -0.000000 0.707100
vn 0.707100 -0.000000 0.707100

s off
f 1/1/1 2/2/2 3/3/3
f 3/3/3 4/4/4 1/1/1
f 5/5/5 6/6/6 7/7/7
f 7/7/7 8/8/8 5/5/5
f 9/9/9 10/10/10 11/11/11
f 11/11/11 12/12/12 9/9/9
f 13/13/13 14/14/14 15/15/15
f 15/15/15 16/16/16 13/13/13
f 17/17/17 18/18/18 19/19/19
f 19/19/19 20/20/20 17/17/17
f 21/21/21 22/22/22 23/23/23
f 23/23/23 24/24/24 21/21/21
f 25/25/25 26/26/26 27/27/27
f 27/27/27 28/28/28 25/25/25
f 29/29/29 30/30/30 31/31/31
f 31/31/31 32/32/32 29/29/29
f 33/33/33 34/34/34 35/35/35
f 35/35/35 36/36/36 33/33/33
